<svg xmlns="http://www.w3.org/2000/svg" xmlns:xlink="http://www.w3.org/1999/xlink" width="70.847" height="48" viewBox="0 0 70.847 48"><defs><style>.a{fill:#fff;}.b{fill:#6fad28;}.c{filter:url(#a);}</style><filter id="a" x="0" y="0" width="70.847" height="48" filterUnits="userSpaceOnUse"><feOffset dy="1" input="SourceAlpha"/><feGaussianBlur stdDeviation="1" result="b"/><feFlood flood-opacity="0.2"/><feComposite operator="in" in2="b"/><feComposite in="SourceGraphic"/></filter></defs><g transform="translate(-356.176 -156.589)"><g class="c" transform="matrix(1, 0, 0, 1, 356.18, 156.59)"><path class="a" d="M417.269,182.205H401a20.982,20.982,0,1,0-7.374,13.509h23.647a6.755,6.755,0,0,0,0-13.509Z" transform="translate(-356.18 -156.59)"/></g><path class="b" d="M407.051,166.806l-2.2-6.143a.41.41,0,0,0-.367-.271.343.343,0,0,0-.071,0,.409.409,0,0,0-.355.37L403.4,168.4l-1.224-4.413a.408.408,0,0,0-.4-.3h0a.41.41,0,0,0-.39.317l-.681,2.958-1.164-4.891a.412.412,0,0,0-.381-.314h-.037a.411.411,0,0,0-.386.352l-.868,6.193-.39-1.258a.408.408,0,0,0-.391-.288h-4.376a7.551,7.551,0,0,1-1.252-2.857,6.329,6.329,0,0,1,.97-5.025,6.251,6.251,0,0,1,4.592-2.26c.2-.02.387-.03.57-.03a6.683,6.683,0,0,1,4.142,1.49,6.68,6.68,0,0,1,4.14-1.49c.185,0,.368.01.571.03a6.246,6.246,0,0,1,4.592,2.26A6.329,6.329,0,0,1,412,163.9a7.611,7.611,0,0,1-1.281,2.9h-3.672Z"/><path class="b" d="M398.014,170.587h.035a.394.394,0,0,0,.07-.012.41.41,0,0,0,.3-.339l.822-5.86,1.066,4.48a.409.409,0,0,0,.4.315h0a.451.451,0,0,0,.074-.007.411.411,0,0,0,.314-.276l.01-.034.712-3.089,1.4,5.051a.41.41,0,0,0,.394.3l.038,0a.41.41,0,0,0,.37-.373l.688-8.037,1.668,4.65a.409.409,0,0,0,.385.271h3.371a45.7,45.7,0,0,1-4.858,5.063s-1.393,1.4-1.81,1.756a2.258,2.258,0,0,1-3.47,0c-.418-.358-1.81-1.756-1.81-1.756a45.089,45.089,0,0,1-4.893-5.108h3.491l.842,2.72a.474.474,0,0,0,.026.066A.41.41,0,0,0,398.014,170.587Z"/><path class="a" d="M397.085,166.761a.408.408,0,0,1,.391.288l.39,1.258h0l.869-6.193a.409.409,0,0,1,.385-.352h.037a.412.412,0,0,1,.381.314l1.164,4.891h0l.681-2.958a.409.409,0,0,1,.793-.017L403.4,168.4h0l.654-7.639a.409.409,0,0,1,.355-.37.343.343,0,0,1,.071,0,.41.41,0,0,1,.367.271l2.2,6.143h3.672l-.589.818h-3.371a.409.409,0,0,1-.385-.271l-1.668-4.65-.688,8.037a.41.41,0,0,1-.37.373l-.038,0a.411.411,0,0,1-.394-.3l-1.4-5.051-.712,3.089-.01.034a.411.411,0,0,1-.314.276.451.451,0,0,1-.074.007h0a.409.409,0,0,1-.4-.315l-1.066-4.48-.822,5.86a.41.41,0,0,1-.3.339.394.394,0,0,1-.07.012h-.035a.41.41,0,0,1-.362-.222.474.474,0,0,1-.026-.066l-.842-2.72h-3.491l-.584-.818Z"/></g></svg>