<svg xmlns="http://www.w3.org/2000/svg" width="20.801" height="19.667" viewBox="0 0 20.801 19.667"><defs><style>.a{fill:#6fad28;}.b{fill:#fff;}</style></defs><g transform="translate(-315.045 -1528)"><path class="a" d="M747.125,444.216l2.2-6.142a.41.41,0,0,1,.367-.271.427.427,0,0,1,.071,0,.411.411,0,0,1,.355.371l.654,7.639L752,441.4a.407.407,0,0,1,.4-.3h0a.41.41,0,0,1,.39.317l.681,2.958,1.164-4.891a.411.411,0,0,1,.381-.314h.037a.411.411,0,0,1,.386.352l.868,6.193.39-1.258a.409.409,0,0,1,.391-.289h4.376a7.539,7.539,0,0,0,1.252-2.856,6.329,6.329,0,0,0-.97-5.025,6.249,6.249,0,0,0-4.592-2.26c-.2-.02-.387-.03-.57-.03a6.683,6.683,0,0,0-4.142,1.49A6.68,6.68,0,0,0,748.3,434c-.185,0-.368.01-.571.03a6.246,6.246,0,0,0-4.592,2.26,6.329,6.329,0,0,0-.97,5.025,7.6,7.6,0,0,0,1.281,2.9h3.672Z" transform="translate(-427 1094)"/><path class="a" d="M756.162,448h-.035a.412.412,0,0,1-.373-.351l-.822-5.86-1.066,4.48a.409.409,0,0,1-.4.315h0a.453.453,0,0,1-.074-.007.411.411,0,0,1-.314-.276l-.01-.035-.712-3.088-1.4,5.051a.409.409,0,0,1-.394.3h-.038a.411.411,0,0,1-.37-.373l-.688-8.037-1.668,4.65a.409.409,0,0,1-.385.271h-3.371A45.692,45.692,0,0,0,748.9,450.1s1.393,1.4,1.81,1.756a2.258,2.258,0,0,0,3.47,0c.418-.358,1.81-1.756,1.81-1.756a45.168,45.168,0,0,0,4.893-5.108h-3.491l-.842,2.72a.47.47,0,0,1-.026.066A.412.412,0,0,1,756.162,448Z" transform="translate(-427 1095)"/><path class="b" d="M757.091,444.765a.415.415,0,0,0-.391.316l-.39,1.375h0l-.868-6.771a.427.427,0,0,0-.386-.385h-.037a.422.422,0,0,0-.381.343l-1.164,5.347h0l-.681-3.234a.42.42,0,0,0-.39-.347.413.413,0,0,0-.4.328l-1.224,4.825h0l-.654-8.351a.433.433,0,0,0-.355-.406.389.389,0,0,0-.071,0,.415.415,0,0,0-.367.3l-2.2,6.715h-3.672l.589.9h3.371a.413.413,0,0,0,.385-.3l1.668-5.084.688,8.787a.432.432,0,0,0,.37.408h.038a.416.416,0,0,0,.394-.327l1.4-5.522.712,3.376.01.038a.425.425,0,0,0,.314.3.416.416,0,0,0,.074.008h0a.419.419,0,0,0,.4-.344l1.066-4.9.822,6.406a.437.437,0,0,0,.3.371.379.379,0,0,0,.07.013h.035a.409.409,0,0,0,.362-.243.543.543,0,0,0,.026-.072l.842-2.974h3.491l.584-.9Z" transform="translate(-427 1094)"/></g></svg>