<svg xmlns="http://www.w3.org/2000/svg" viewBox="0 0 18.2 13.1"><defs><style>.cls-1{fill:#9fa2a7;}</style></defs><g id="Layer_2" data-name="Layer 2"><g id="Layer_1-2" data-name="Layer 1"><path class="cls-1" d="M13.11,9.12a1.79,1.79,0,0,0,1.31-.54,1.85,1.85,0,0,0,0-2.61A1.86,1.86,0,0,0,11.8,6a1.85,1.85,0,0,0,0,2.61A1.79,1.79,0,0,0,13.11,9.12Z"/><path class="cls-1" d="M17,6.15A5.12,5.12,0,0,0,17,5.28,5.29,5.29,0,0,0,7.14,2.69a3.67,3.67,0,0,0-1.57-.34A3.81,3.81,0,0,0,1.77,6a2.35,2.35,0,0,0,.58,4.62H10l0-.13a.83.83,0,0,1,0-.15A2,2,0,0,1,10.1,10H2.35A1.77,1.77,0,0,1,.58,8.22a1.85,1.85,0,0,1,1.77-1.8V6.17A3.23,3.23,0,0,1,5.57,2.94a3.42,3.42,0,0,1,1.82.54A4.94,4.94,0,0,1,11.74.59a4.69,4.69,0,0,1,4.69,4.69,4.14,4.14,0,0,1-.15,1.22,1.81,1.81,0,0,1,1.33,1.72A1.75,1.75,0,0,1,16.2,9.93a3.16,3.16,0,0,1,.1.58,2.35,2.35,0,0,0,1.9-2.29A2.32,2.32,0,0,0,17,6.15Z"/><path class="cls-1" d="M16.34,11.33a4.66,4.66,0,0,0-.06-.49,2.81,2.81,0,0,0-.08-.31,1.16,1.16,0,0,0,0-.18A1.84,1.84,0,0,0,16,10l0-.07a2,2,0,0,0-.3-.39,1.33,1.33,0,0,0-.44-.28,1.58,1.58,0,0,0-.55-.1.63.63,0,0,0-.3.13l-.31.2a1.43,1.43,0,0,1-.41.18,1.67,1.67,0,0,1-.49.08,1.74,1.74,0,0,1-.5-.08,1.36,1.36,0,0,1-.4-.18L12,9.26a.67.67,0,0,0-.3-.13,1.69,1.69,0,0,0-.56.1,1.28,1.28,0,0,0-.43.28,1.45,1.45,0,0,0-.3.39.59.59,0,0,0,0,.08,3,3,0,0,0-.16.37l-.06.22a2.14,2.14,0,0,0-.06.27,4.66,4.66,0,0,0-.06.49,3.31,3.31,0,0,0,0,.45,1.27,1.27,0,0,0,.38,1,1.34,1.34,0,0,0,1,.36H15a1.36,1.36,0,0,0,1-.36,1.27,1.27,0,0,0,.38-1C16.36,11.62,16.35,11.47,16.34,11.33Z"/></g></g></svg>