<svg id="light" enable-background="new 0 0 24 24" height="512" viewBox="0 0 24 24" width="512" xmlns="http://www.w3.org/2000/svg"><path d="m9.5 14.5c-3.083 0-5.883-1.938-6.968-4.824-.043-.113-.043-.238 0-.352 1.085-2.886 3.885-4.824 6.968-4.824s5.883 1.938 6.968 4.824c.043.113.043.238 0 .352-1.085 2.886-3.885 4.824-6.968 4.824zm-5.963-5c.985 2.4 3.357 4 5.963 4s4.978-1.6 5.963-4c-.985-2.4-3.357-4-5.963-4s-4.978 1.6-5.963 4z"/><path d="m9.5 12c-1.378 0-2.5-1.121-2.5-2.5s1.122-2.5 2.5-2.5 2.5 1.121 2.5 2.5-1.122 2.5-2.5 2.5zm0-4c-.827 0-1.5.673-1.5 1.5s.673 1.5 1.5 1.5 1.5-.673 1.5-1.5-.673-1.5-1.5-1.5z"/><path d="m9.5 19c-5.238 0-9.5-4.262-9.5-9.5s4.262-9.5 9.5-9.5 9.5 4.262 9.5 9.5-4.262 9.5-9.5 9.5zm0-18c-4.687 0-8.5 3.813-8.5 8.5s3.813 8.5 8.5 8.5 8.5-3.813 8.5-8.5-3.813-8.5-8.5-8.5z"/><path d="m23.5 24c-.128 0-.256-.049-.354-.146l-7.636-7.636c-.195-.195-.195-.512 0-.707s.512-.195.707 0l7.636 7.636c.195.195.195.512 0 .707-.097.097-.225.146-.353.146z"/></svg>