<svg xmlns="http://www.w3.org/2000/svg" viewBox="0 0 18.2 14.1"><defs><style>.cls-1{fill:#9fa2a7;}</style></defs><g id="Layer_2" data-name="Layer 2"><g id="Layer_1-2" data-name="Layer 1"><path class="cls-1" d="M17,6.15A5.12,5.12,0,0,0,17,5.28,5.29,5.29,0,0,0,7.14,2.69a3.67,3.67,0,0,0-1.57-.34A3.81,3.81,0,0,0,1.77,6a2.35,2.35,0,0,0,.58,4.62H10l0-.13a.83.83,0,0,1,0-.15A2,2,0,0,1,10.1,10H2.35A1.77,1.77,0,0,1,.58,8.22a1.85,1.85,0,0,1,1.77-1.8V6.17A3.23,3.23,0,0,1,5.57,2.94a3.42,3.42,0,0,1,1.82.54A4.94,4.94,0,0,1,11.74.59a4.69,4.69,0,0,1,4.69,4.69,4.14,4.14,0,0,1-.15,1.22,1.81,1.81,0,0,1,1.33,1.72A1.75,1.75,0,0,1,16.2,9.93a3.16,3.16,0,0,1,.1.58,2.35,2.35,0,0,0,1.9-2.29A2.32,2.32,0,0,0,17,6.15Z"/><path class="cls-1" d="M16.2,12.26V10.6A1.56,1.56,0,0,0,16,9.89L15,8.09a.68.68,0,0,0-.6-.36H12.77a.47.47,0,0,0-.46.46V12H12V7a.71.71,0,0,0-.71-.71H6.3v6.36H7.36a1.45,1.45,0,0,1,1.38-1.06,1.41,1.41,0,0,1,1.38,1.06H12.7a1.45,1.45,0,0,1,1.38-1.06,1.34,1.34,0,0,1,1.23.78.54.54,0,0,0,.46.28A.41.41,0,0,0,16.2,12.26Zm-3.18-2V8.44h1.41l1,1.77Z"/><path class="cls-1" d="M14.08,12A1.06,1.06,0,1,0,15.14,13,1,1,0,0,0,14.08,12Zm0,1.55a.5.5,0,1,1,.49-.49A.48.48,0,0,1,14.08,13.53Z"/><path class="cls-1" d="M8.77,12A1.06,1.06,0,1,0,9.84,13,1,1,0,0,0,8.77,12Zm0,1.55a.5.5,0,1,1,.5-.49A.48.48,0,0,1,8.77,13.53Z"/><circle class="cls-1" cx="8.77" cy="13.04" r="0.18"/><circle class="cls-1" cx="14.08" cy="13.04" r="0.18"/></g></g></svg>