<svg xmlns="http://www.w3.org/2000/svg" width="1086.762" height="541.244" viewBox="0 0 1086.762 541.244"><defs><style>.a,.d{fill:#bbdff5;}.a{opacity:0.15;}.b,.c{fill:#fff;}.b{opacity:0.5;}.e{fill:#fe8f7e;}.f{fill:#ffe07a;}.g{fill:#fefefe;}.h{fill:none;stroke:#687989;stroke-miterlimit:10;stroke-width:5px;}.i{fill:#687989;}.j{fill:#ececec;}</style></defs><g transform="translate(-6009.82 -8706.756)"><path class="a" d="M6818.166,8934.986c-29.813-57.314,3.084-58.417-29.813-98.1s-78.132-31.964-138.787-69.437c-35.608-22-68.026-11.714-98.713-4.371-15.449-8.595-33.139-13.963-55.6-11.119-70.733,8.958-108.7-16.814-155.085,5.656s-16.906,37.112-67.8,76.91-78.7,108.278-78.7,108.278,9.7,95.258,7.135,120.733,28.784,40.969,56.023,65.489,66.838,24.392,109.243,25.541,109.22,23.108,134.785,16.587c8.691-2.217,22.472-1.559,37.864-1.7,21.942,5.278,44.6,10.778,61.493,17.926,39.065,16.533,75.047,33.066,110,22.044s69.907-12.124,78.132-36.372,56.542-106.912,56.542-106.912S6847.979,8992.3,6818.166,8934.986Z"/><path class="b" d="M7053.937,8816.265a14.8,14.8,0,0,0-7.062-12.844c-4.4-2.627-10.923-2.078-15.365.471a10,10,0,0,0-3.816-10.649c-3.307-2.294-7.788-1.2-11.031,1.181-4.234-3.989-8.825-7.732-14.171-10.024s-11.564-3.014-16.991-.92c-5.341,2.063-9.408,6.638-12.027,11.729s-4.168,11.465-5.488,17.037c-1.75-2.852-6.511-2.855-9.32-1.039a26.108,26.108,0,0,0-13.3-9.051,16.077,16.077,0,0,0-10.2.018c-3.229,1.252-5.806,3.611-5.972,7.07-2.328-5.255-4.7-10.583-8.363-15.013s-8.842-7.927-14.58-8.266a12.76,12.76,0,0,0-12.679,9.361,10.447,10.447,0,0,0-11.579-4.082c-.018.583-.957.839-.975,1.422a20.285,20.285,0,0,0-23.451-6.374c-8.042,3.4-12.467,13.166-11.079,21.786a11.8,11.8,0,0,0-14.363-1.24c-4.3,2.915-7.043,8.978-5.077,13.789a24.568,24.568,0,0,0-18.824-2.554c-8.418,2.306-14.093,6.927-22.821,6.927h9.479c16.163,0,30.723,7.1,37.383,7.562s13.6-.538,19.293-4.03c22.33,7.826,47.545,9.125,70.321,2.711,20.376,6.739,43.349,6.127,63.085-2.306,5.107,5.533,15.031,5.76,20.809.931a26.879,26.879,0,0,0,23.938-.878,57.134,57.134,0,0,0,17.147.719c6.031-.684,5.437-4.708,22.022-4.708H7082C7062.914,8825,7062.92,8814.512,7053.937,8816.265Z"/><path class="b" d="M6112.818,8821.649a5.682,5.682,0,0,0-2.708-4.927,6.214,6.214,0,0,0-5.894.182,3.834,3.834,0,0,0-1.464-4.085,3.711,3.711,0,0,0-4.231.453,19.113,19.113,0,0,0-5.435-3.846,8.757,8.757,0,0,0-6.517-.353,9.159,9.159,0,0,0-4.613,4.5,29.694,29.694,0,0,0-2.1,6.535c-.671-1.095-2.5-1.1-3.575-.4a10,10,0,0,0-5.1-3.471,6.161,6.161,0,0,0-3.914.007,3.177,3.177,0,0,0-2.29,2.711,24.226,24.226,0,0,0-3.208-5.758,8.163,8.163,0,0,0-5.592-3.17,4.894,4.894,0,0,0-4.863,3.59,4.006,4.006,0,0,0-4.441-1.565c-.007.224-.367.321-.374.545a7.781,7.781,0,0,0-9-2.444c-3.084,1.3-4.782,5.05-4.249,8.355a4.527,4.527,0,0,0-5.509-.475c-1.651,1.118-2.7,3.442-1.948,5.289a9.421,9.421,0,0,0-7.22-.98c-3.228.884-5.405,2.657-8.753,2.657h3.636c6.2,0,11.784,2.724,14.339,2.9a12.5,12.5,0,0,0,7.4-1.548,45.46,45.46,0,0,0,26.972,1.04,34.644,34.644,0,0,0,24.2-.884,6.091,6.091,0,0,0,7.981.357,10.312,10.312,0,0,0,9.182-.337,21.9,21.9,0,0,0,6.577.275c2.313-.263,2.085-1.806,8.446-1.806h5.033C6116.261,8825,6116.264,8820.977,6112.818,8821.649Z"/><path class="b" d="M7085.818,8733.649a5.682,5.682,0,0,0-2.708-4.927,6.214,6.214,0,0,0-5.894.182,3.834,3.834,0,0,0-1.464-4.085,3.711,3.711,0,0,0-4.231.453,19.113,19.113,0,0,0-5.435-3.846,8.757,8.757,0,0,0-6.517-.353,9.159,9.159,0,0,0-4.613,4.5,29.694,29.694,0,0,0-2.1,6.535c-.671-1.095-2.5-1.1-3.575-.4a10,10,0,0,0-5.1-3.471,6.161,6.161,0,0,0-3.914.007,3.177,3.177,0,0,0-2.29,2.711,24.226,24.226,0,0,0-3.208-5.758,8.163,8.163,0,0,0-5.592-3.17,4.894,4.894,0,0,0-4.863,3.59,4.006,4.006,0,0,0-4.441-1.565c-.007.224-.367.321-.374.545a7.781,7.781,0,0,0-9-2.444c-3.084,1.3-4.782,5.05-4.249,8.355a4.527,4.527,0,0,0-5.509-.475c-1.651,1.118-2.7,3.442-1.948,5.289a9.421,9.421,0,0,0-7.22-.98c-3.228.884-5.405,2.657-8.753,2.657h3.636c6.2,0,11.784,2.724,14.339,2.9a12.5,12.5,0,0,0,7.4-1.548,45.46,45.46,0,0,0,26.972,1.04,34.644,34.644,0,0,0,24.2-.884,6.091,6.091,0,0,0,7.981.357,10.312,10.312,0,0,0,9.182-.337,21.9,21.9,0,0,0,6.577.275c2.313-.263,2.085-1.806,8.446-1.806h5.033C7089.261,8737,7089.264,8732.977,7085.818,8733.649Z"/><path class="b" d="M6252.975,8746.587a10.872,10.872,0,0,0-5.184-9.43c-3.229-1.929-8.02-1.525-11.281.346a7.342,7.342,0,0,0-2.8-7.819c-2.427-1.684-5.718-.882-8.1.867a36.661,36.661,0,0,0-10.4-7.359,16.76,16.76,0,0,0-12.475-.675c-3.921,1.514-6.907,4.872-8.83,8.611s-3.06,8.417-4.029,12.507c-1.285-2.092-4.78-2.095-6.843-.762a19.168,19.168,0,0,0-9.761-6.646,11.8,11.8,0,0,0-7.492.014c-2.371.919-4.263,2.65-4.384,5.19-1.71-3.857-3.452-7.77-6.14-11.022s-6.492-5.819-10.7-6.068a9.368,9.368,0,0,0-9.309,6.873,7.671,7.671,0,0,0-8.5-3c-.013.428-.7.616-.715,1.044a14.892,14.892,0,0,0-17.217-4.679c-5.9,2.5-9.153,9.666-8.134,15.994a8.665,8.665,0,0,0-10.545-.91c-3.16,2.14-5.171,6.59-3.728,10.124a18.037,18.037,0,0,0-13.82-1.875c-6.18,1.692-10.346,5.085-16.754,5.085h6.959c11.866,0,22.556,5.214,27.446,5.552s9.986-.4,14.164-2.96c16.394,5.746,34.906,6.7,51.628,1.991a66.313,66.313,0,0,0,46.315-1.693c3.75,4.063,11.035,4.229,15.278.684a19.731,19.731,0,0,0,17.574-.646,41.877,41.877,0,0,0,12.589.528c4.428-.5,3.992-3.456,16.168-3.456h9.633C6259.566,8753,6259.57,8745.3,6252.975,8746.587Z"/><path class="c" d="M6512.655,8979.027l62.271-11.834,61.1,60.826-54.822,20.046Z"/><path class="c" d="M6673.427,8819.8l8.287-22.062,33.135-.947s4.26,9.481,4.418,9.751-4.418,14.231-4.418,14.231,1.578,8.284,2.051,8.837-2.367,16.252-2.367,16.252l1.407,9.589.644,6.5.789,17.671,2.842,13.645,2.39,5.935,1.238,14.345,11.833,47.966s-5.6,31.32-5.68,31.873-5.838,17.515-6.942,19.565a20.281,20.281,0,0,1-11.045,8.993c-6.154,1.894-25.561,7.573-26.666,7.573s-19.644.868-19.88,0-9.152-6.548-9.625-10.57-9.941-22.564-10.256-24.773-2.367-10.293,0-16.664S6673.427,8819.8,6673.427,8819.8Z"/><rect class="c" width="338.292" height="244.311" transform="translate(6343.509 8710.368)"/><path class="d" d="M6386.149,8855.445c-.29,1.747-.075,3.022,1.975,3.754a13.747,13.747,0,0,1,4.668,2.9c1.681,1.583,3.383,1.375,5.067.553,3.788-1.852,7.744-3.251,11.658-4.78,2.384-.931,4.063-.5,5.573,1.52a86.1,86.1,0,0,1,7.464,12.405,2,2,0,0,1-.434,2.794c-4.367,3.985-8.7,8.017-14.084,10.647a1.872,1.872,0,0,0-1.123,2.025,48.731,48.731,0,0,1-.015,6.246,4.123,4.123,0,0,0,2.125,4.161c4.035,2.788,8,5.674,12.039,8.46,1.717,1.185,2.132,2.394,1.6,4.6a26.549,26.549,0,0,1-7.164,12.874c-.982.985-1.663,1.33-3.131.725-4.819-1.99-9.737-3.746-14.645-5.517a4.322,4.322,0,0,0-4.719.711,25.793,25.793,0,0,1-8.313,4.358,2.423,2.423,0,0,0-1.794,1.769,70.91,70.91,0,0,0-2.4,12.427c-.307,3.167-.375,3.425-3.54,4-.793.143-1.761-.18-2.25.813-3.03.079-6.066.416-9.076-.234a.759.759,0,0,0-.928-.4c-1.645-.642-3.319-1.218-4.926-1.945-1.462-.66-1.205-2.221-1.461-3.437-.873-4.135-1.637-8.294-2.446-12.443a3.589,3.589,0,0,0-1.951-2.676,15.142,15.142,0,0,1-3.34-2.021c-2.535-2.327-5.187-1.745-7.929-.627-3.968,1.617-8.288,2.25-12.091,4.332-.6.328-1.044-.083-1.4-.491a41.106,41.106,0,0,1-8.908-17.066c-.527-2.017,1.592-2.377,2.628-2.92,3.915-2.053,7.638-4.423,11.49-6.574a5.7,5.7,0,0,0,3.163-5.371c.09-3.476-.24-6.142-3.753-8.1-3.891-2.164-7.314-5.154-11.031-7.65a2.372,2.372,0,0,1-1.137-3.03c1.019-3.84,1.733-7.773,4.159-11.087a35.373,35.373,0,0,1,4.975-5.135c.941-.854,2.107-.609,3.245-.126,4.578,1.944,9.425,3.085,14.126,4.663a6.3,6.3,0,0,0,1.612.109c1.19,1.177,2.378,1.346,3.563-.006l1.227-.594a.961.961,0,0,0,1.106-.79,1.425,1.425,0,0,0,1.243-.521c3.606-.47,4.8-1.519,4.833-4.256l.141-.927c.884-.787.434-1.817.5-2.753q.04-2.068.08-4.139c.844-.212.968-.728.609-1.445l.186-1.867c.88-.787.433-1.815.5-2.75-.171-2.32.853-3.428,3.222-3.2a2.1,2.1,0,0,0,1.476-.557l3.706-.487a27.136,27.136,0,0,1,10.424,1.414c.528.2,1.054.34,1.1.994.038.579-.42.818-.875.888-.9.137-2.022-.019-1.743,1.444.273,1.434,1.482.855,2.259.818,1.5-.069,2.383.275,2.325,1.982a7.452,7.452,0,0,0,.377,1.784c-.133.265-.43.57-.374.788C6386.367,8849.441,6385.84,8852.468,6386.149,8855.445Zm-18.2,21.263c-5.418.4-10.269,5.181-11.393,11.527a13.94,13.94,0,0,0,11.375,16.6c1.691,1.694,3.868,1.037,5.872,1.21,7.489.646,15.121-8.884,13.92-17.046a14.3,14.3,0,0,0-9.06-11.779C6375.292,8875.821,6371.613,8874.883,6367.951,8876.708Z"/><path class="d" d="M6392.152,8837.353c.909-2.274,3.278-2.6,5.04-3.7,3.047-1.911,6.357-3.377,9.295-5.489a2.345,2.345,0,0,0,1.172-2.725,3.442,3.442,0,0,1-.17-1.812c1.085-3.081-.6-4.595-2.944-6.12-3.272-2.129-6.317-4.6-9.493-6.883-.741-.533-1.3-1.022-1.133-2.046.946-5.807,3.315-10.818,7.975-14.6a1.9,1.9,0,0,1,2.113-.408c4.743,1.985,9.673,3.418,14.572,4.949a3.547,3.547,0,0,0,3.438-.4,19.655,19.655,0,0,1,4.363-2.019,3.615,3.615,0,0,0,2.75-3.562c.053-4.019,1.55-7.838,1.546-11.879,0-1.811,1.276-2.7,3.1-2.685.656.022,1.362.247,1.838-.456q.928-.089,1.857-.177c.612.276.884-.094,1.095-.578l2.942,0c.569,1.035-.289,1.929-.289,2.906,0,.383-.016.806.38,1.017a.581.581,0,0,0,.9-.373c.206-.575.422-1.488,1.128-1.1.928.513-.025,1.143-.278,1.714a2.5,2.5,0,0,0,.307,3,1.913,1.913,0,0,0,2.344.4c2.179-1.056,2.459-2.7.84-4.548a5.1,5.1,0,0,1-.842-1.1c-.531-1.13.542-.355.763-.609,2.661,1.287,3.225,3.64,3.231,6.3.008,3.316.092,6.631.054,9.946a2.6,2.6,0,0,0,1.4,2.64,47.451,47.451,0,0,1,5.208,3.314c1.8,1.341,3.533.031,5.193-.613,3.413-1.325,6.691-2.987,10.351-3.664a2.5,2.5,0,0,1,2.774,1.01,67.992,67.992,0,0,1,6.772,11.182,2.374,2.374,0,0,1-.7,3.083,50.4,50.4,0,0,1-11.336,8.534c-1.172.605-1.817,1.323-1.619,2.691a5.369,5.369,0,0,1,.023,1.844c-.86,4.043.919,6.714,4.331,8.6,2.346,1.3,4.187,3.348,6.651,4.474a10.985,10.985,0,0,0,1.195,1.067c1.643,1.1,1.837,2.391,1.271,4.323a24.651,24.651,0,0,1-5.888,10.5c-1.259,1.312-2.283,1.526-3.811.816a115.339,115.339,0,0,0-11.755-4.609c-1.753-.592-3.074-.727-4.665.553a17.586,17.586,0,0,1-6.328,3.23c-1,.278-2.329.634-2.361,2.167a51.8,51.8,0,0,0-2.262,11c-.135,1.452-.584,2.306-1.968,2.664-5.251,1.363-10.4,1.661-15.425-1-1.987-1.054-1.855-2.869-2.073-4.55-.413-3.194-1.508-6.27-1.6-9.517-.006-.216-.393-.421-.6-.629a1.742,1.742,0,0,0-.791-1.573q-2.8-1.789-5.608-3.56a2.575,2.575,0,0,0-2.238-.047c-4.023,1.25-8.087,2.4-12.021,3.885a2.178,2.178,0,0,1-3.029-.9,45.042,45.042,0,0,1-6.269-12.444c.142-.6-.175-.918-.686-1.116A.624.624,0,0,0,6392.152,8837.353Zm59.252-12.686a13.339,13.339,0,0,0-13.809-13.1c-7.976.358-13.52,4.895-13.889,13.348-.289,6.621,7.415,13.407,14.794,13.319C6445.318,8838.152,6451.376,8831.784,6451.4,8824.667Zm-8.382-38.47a2.029,2.029,0,0,0-.626-2.051,26.121,26.121,0,0,1-3.688-3.573c-1.577-1.657-2.813-.077-4.061.977-1.171.989-1.147,1.684-.028,2.718,1.231,1.14,2.2,2.56,3.39,3.747.591.588,1.1,1.951,2.107,1.327C6441.356,8788.578,6442.881,8787.834,6443.022,8786.2Z"/><path class="d" d="M6367.969,8759.95c1.9.781,2.39,2.207,2.343,4.2a66.636,66.636,0,0,1-.826,10.1,3.22,3.22,0,0,0,1.549,3.74,6.5,6.5,0,0,1,2.032,1.476c2.065,2.851,4.679,2.394,7.342,1.288a63.807,63.807,0,0,1,6.872-1.905c3.016-.875,4.132-.407,5.6,2.364a67.216,67.216,0,0,1,3.994,8.778c.5,1.393.571,2.454-.926,3.563a50.227,50.227,0,0,1-11.426,6.745,1.929,1.929,0,0,0-1.212,2,29.909,29.909,0,0,1-.414,5.517c-.266,1.049.611,1.822,1.374,2.507,2.971,2.663,5.88,5.4,8.921,7.977,1.344,1.141,1.331,2.266.669,3.662-.947,2-1.859,4.019-2.786,6.029-.994.937-2.017,1.843-2.975,2.814-1.487,1.51-2.8,1.672-4.8.489-3.062-1.806-6.057-3.909-9.674-4.607-2.155-1.562-4.027-1.1-5.7.8-1.988.519-3.795,1.568-5.866,1.879-1.547.23-1.542,1.814-1.91,2.864-1.055,3.015-1.9,6.1-2.78,9.177-.2.7-.353,1.324-1.209,1.473-5.05.885-9.909.723-14.374-2.257a3.01,3.01,0,0,1-1.584-3.009c.106-1.764-.082-3.544-.142-5.317-.061-1.392.445-2.85-.474-4.144q-.075-1.154-.147-2.309v.01a32.8,32.8,0,0,1-4.379-3.245c-1.451-1.48-2.793-1.559-4.732-1.1-3.324.79-6.691,1.419-10,2.279a2,2,0,0,1-2.5-1.008,46.446,46.446,0,0,1-5.244-13.339c-.325-1.271.661-1.594,1.244-1.865q5.061-2.355,10.247-4.432c2.63-1.049,3.584-2.243,3.619-5.076a4.835,4.835,0,0,1,.3-2.034,1.652,1.652,0,0,0-.47-2.071c-3.372-3.01-6.663-6.115-10.12-9.022-1.448-1.219-.594-2.3-.316-3.49,1.1-.477.709-1.564.981-2.38a16.427,16.427,0,0,1,7.518-8.909,1.4,1.4,0,0,1,1.667-.056c4.022,2.343,8.494,3.7,12.647,5.762,1.737.861,3.2-.271,4.8-.461,4.751-.565,6.177-3.559,6.676-7.743a68.439,68.439,0,0,1,1.713-7.137c.339-1.473,1.26-1.872,2.675-1.963A29,29,0,0,1,6367.969,8759.95Zm-12.525,29.7c-6.713-.184-12.819,4.852-12.6,11.765.208,6.625,6.3,12.708,13.26,12.734,6.012.022,11.821-6.056,11.854-12.4C6367.991,8795.13,6362.38,8789.706,6355.444,8789.652Z"/><path class="e" d="M6354.035,8727.044c-1.5-1.16-1.466-2.971-1.945-4.565a1.874,1.874,0,0,0,.447-1.5c.817-3.139,4.734-5.6,7.32-4.6,3.953,1.532,5.714,5.116,4.377,8.543-1.281,3.282-5.492,5.218-8.6,3.311a3.685,3.685,0,0,0-1.105-.263Z"/><path class="f" d="M6383.3,8722.561c.009,3.588-2.47,6.309-5.788,6.354-3.2.044-6.708-3.109-6.722-6.04-.017-3.277,3.295-6.588,6.543-6.442C6381.2,8716.606,6383.759,8719.5,6383.3,8722.561Z"/><path class="d" d="M6390.144,8722.426c-.42-3.327,2.912-5.96,5.933-5.951a6.183,6.183,0,0,1,.039,12.366C6392.477,8728.812,6390.1,8726.259,6390.144,8722.426Z"/><path class="g" d="M6469.238,8924.988c-7.312-.473-14.634-.5-21.958-.483a24.183,24.183,0,0,1-3.417-.437c-.621-.09-1.606.284-1.587-.792.018-1.036.944-1.059,1.735-1.06a55.139,55.139,0,0,1,8.1.085,76.93,76.93,0,0,0,10.15.354c4.325.075,8.652.013,12.977.025.917,0,2.081-.11,2.007,1.251-.063,1.159-1.136,1.05-1.981,1.054C6473.255,8925,6471.247,8924.988,6469.238,8924.988Z"/><path class="d" d="M6619.964,9026.368c-5.6,1.014-10.988,2.859-16.476,4.311-4.229,1.119-8.46,2.235-12.719,3.23-1.279.3-2.517.678-3.765,1.063a5.544,5.544,0,0,1-5.593-.786c-7.527-5.836-14.4-12.4-21.348-18.87q-15.873-14.771-30.86-30.448c-.466-.484-2.319-.41-1.331-1.968,5.93-1.105,11.727-2.924,17.792-3.293.463-.029.934-.013,1.232-.467,7.716-1.3,15.435-2.576,23.141-3.933a2.6,2.6,0,0,1,2.437.829c16.859,15.022,32.259,31.535,48.294,47.4.22.218,3.348,1.178.314,2.276A.962.962,0,0,0,6619.964,9026.368Z"/><path class="d" d="M6746.54,8797.517c-3.83-7.383-9.976-12.1-17.131-15.767-5.79-2.965-12.166-4.636-17.839-7.833a15.037,15.037,0,0,1-7.943-10.722,4.009,4.009,0,0,1-.012-4.131,8.348,8.348,0,0,1,1.284-3.175c.478-.984.1-1.478-.972-1.359-5.615.62-11.169,1.823-15.617,5.4-5.931,4.766-10.821,10.429-12.382,18.3a21.638,21.638,0,0,0,3.516,17.475c4.194-3.513,8.64-6.642,13.86-8.436,5.593-1.923,11.243-2.791,17.178-1.307a30.8,30.8,0,0,1,13.763,7.016c.492.45,1.672.721.719,1.708a1.486,1.486,0,0,1-2.254.006,28.786,28.786,0,0,0-7.807-4.775,27.728,27.728,0,0,0-17.139-1.531,36.369,36.369,0,0,0-16.672,9.224c-.145.137-.174.4-.257.6,3.989,3.795,9.084,5.542,14,7.66,1.894.815,4.9,3.377,7.356,5.639.307.283.606.561.893.83.48.451.922.872,1.321,1.255a17.133,17.133,0,0,1,1.486,3.707l0,.156c.028.026.052.055.079.082.776,2.4,1.83,6.189,3.146,12.083a37.9,37.9,0,0,1-.135,7.473c-.417,4.965.193,9.82.792,14.7a25.656,25.656,0,0,0,1.571,6,7.277,7.277,0,0,0,4.69,4.721,56.155,56.155,0,0,1,7.075-22.161c2.79-5.021,5.765-10.016,7.326-15.569.187-.662.382-1.328.573-2h0a6.46,6.46,0,0,0,2.822-.75,41.572,41.572,0,0,1-2.413,6.988c-2.934,6.711-6.649,13.078-9.685,19.75a42.591,42.591,0,0,0-3.193,13.769c2.684-.19,4.785-1.713,6.705-3.312,12.173-10.127,21.123-22.4,24.438-38.172A34.332,34.332,0,0,0,6746.54,8797.517Z"/><path class="h" d="M6644.162,9042.535"/><path class="i" d="M6740.942,8967.514c-.5-12.714-1.343-25.342-4.472-37.729a86.489,86.489,0,0,0-7.741-20.325c-1.755-3.226-4.341-5.858-6.163-9.023-1.642-.3-2.3-1.851-3.453-2.769-8.644-6.879-18.28-8.51-28.858-5.762a56.062,56.062,0,0,0-30.642,20.194,50.048,50.048,0,0,0-9.228,18.567c-.32,1.236-.641,1.453-1.835,1.018-9.715-3.54-18.088-9.224-25.8-15.982a2.184,2.184,0,0,1-.6-2.856c2.7-6.268,6.029-12.221,9.152-18.275,1.708-3.311,3.439-6.607,5.282-10.146,1.341,5.154,4.571,8.588,8.326,11.438a25.483,25.483,0,0,0,17.718,5.317,27.012,27.012,0,0,0,9.055-2.474c.8-.357,1.918-.881,1.364-2.007-.46-.936-1.529-.583-2.275-.211a30.7,30.7,0,0,1-5.653,1.909c-8.483,2.341-19.439-2.684-24.416-10.241-.936-1.42-1.126-3.6-3.5-3.874-.52-.061-.033-.781.162-1.15,1.045-1.967,2.108-3.924,3.165-5.885q.149-.47.3-.94a4.623,4.623,0,0,1,1.812-2.863,1.644,1.644,0,0,1,.614-1.284c-.153-.921.573-1.549.782-2.351l-1.9.041a7.5,7.5,0,0,0-1.285,1.6c-1.8,4.221-4.388,8.011-6.485,12.069-4.483,8.682-9.179,17.254-13.324,26.1-3.664,7.824-6.934,15.857-12.345,22.721-3.1,3.935-6.04,8.057-10.666,10.443-3.1,2.611-6.888,3.515-10.727,4.225-7.12,1.318-13.692-.44-19.958-3.729a6.146,6.146,0,0,1-1.177-1.095.182.182,0,0,1-.273-.06l-.559-.422c-4.58-2.874-7.57-7.021-9.718-11.9-3.954-8.988-3.374-18.43-2.411-27.763.761-7.385,1.452-14.743.989-22.138-.41-6.551-2.276-12.712-6.98-17.577a9.959,9.959,0,0,1-2.723-6.372,79.713,79.713,0,0,1-3.157-11.147c-.788-2.175-1.649-4.327-2.348-6.531-1.113-3.509-.235-6.721,1.738-9.7a9.668,9.668,0,0,0,1.036-2.771c-.059-2.906.27-5.81-.928-8.647-1.79-4.244-4.975-6.981-8.927-9.022-.378-.075-.757-.144-1.134-.221-2.823-.577-3.23-.158-2.457,2.558.755,2.65,1.532,5.294,2.282,7.946.521,1.841.232,3.165-2.023,3.478a29.112,29.112,0,0,0-3.539.963c-2.668.725-3.386.278-4.079-2.423-.648-2.528-1.373-5.037-2-7.571-.213-.864-.487-1.777-1.334-1.977-.878-.206-1.478.658-2.03,1.261-6.671,7.267-5.087,19.054,3.587,23.681,2.862,1.526,3.874,3.519,4.541,6.2.149.6.3,1.192.461,1.786q1.921,6.971,3.848,13.942c1.36,2.431,1.563,5.239,2.53,7.8.211.558.595,1.5-.12,1.869-.623.323-1.272-.358-1.791-.782a4.264,4.264,0,0,1-1.138-5.562c.53-1.15,1.292-2.442-1.016-2.419-1.671,1.889-2.483,3.882-1.483,6.48a8.176,8.176,0,0,0,4.632,4.73c1.226.541,2.749.81,2.533,2.7,1.342,2.769,1.754,5.828,2.692,8.725.566,1.75.917,3.586,2.07,5.067a8.033,8.033,0,0,0,9.481,2.422,7.9,7.9,0,0,0,4.357-9.367c-.989-3.778-2.087-7.53-3.136-11.294-.2-.428-.6-.955.055-1.214.225-.088.324.554.309.92,2.534,2.73,2.98,6.262,3.509,9.682,1.431,9.256-.149,18.426-1,27.618-.876,9.463-.51,18.771,3.807,27.541,1.748,3.554,4.4,6.388,6.988,9.286.382.253.775.491,1.145.763,8.649,6.348,18.1,8.626,28.635,5.828a38.619,38.619,0,0,0,11.583-5.78q3.567-3.851,7.134-7.7.208-.451.419-.9c.047.054.122.1.136.163a.766.766,0,0,1-.341.923,24.489,24.489,0,0,1-2.722,7.3q-1.453,4.819-2.908,9.637c-1.8,5.919-3.35,11.905-4.572,17.967-.908,4.5-1.6,9.045-2.346,13.577-.151.91-.239,1.889.9,2.35,1.4-.291,1.486-1.512,1.577-2.534.2-2.232.6-4.422,1-6.623a221.186,221.186,0,0,1,8.239-31.909c3.022-8.954,6.592-17.68,10.369-26.332.726-1.664,1.1-1.779,2.474-.574,7.9,6.906,16.494,12.694,26.58,16.015,2.766.91,3.2.815,3.829-1.968a42.989,42.989,0,0,1,6.667-15.311c9.366-13.409,21.738-22.155,38.422-23.7a26.5,26.5,0,0,1,16.378,3.729c7.527,4.5,12.106,11.446,15.506,19.177,4.97,11.3,7.234,23.351,8.322,35.556.8,8.977.9,18.022,1.135,27.043.343,12.892-.335,25.767-1.116,38.626-.307,5.069-.877,10.142-1.471,15.188-1.195,10.166-2.725,20.292-4.121,30.435q-.139.757-.288,1.562a1.151,1.151,0,0,1-.14.1q-.12.945-.244,1.891l.014.018-.148.808c-.037.021-.073.041-.113.061-.037.39-.076.779-.114,1.168-2.214,12.027-5.139,27.88-5.893,31.787l.12.023c-.256,1.416-.515,2.832-.79,4.244-2.526,12.976-4.917,25.982-7.7,38.9-2.28,10.578-4.937,21.079-7.63,31.563-2.387,9.289-4.9,18.553-7.641,27.742q-3.883,13.006-8.424,25.813c-1.162,3.295-1.858,6.835-3.988,9.753-.159,1.729-2.079,2.458-2.34,4.128l.042.043-.042-.043c-1.7,1.024-3.417,1.954-5.515,1.434-3.4-.578-4.933-3.265-6.093-5.956-4.854-11.255-7.863-23.121-11-34.92-2.666-10.023-4.8-20.187-7.347-30.243-2.36-9.307-4.009-18.781-6.789-27.984-1.748-5.786-2.361-11.823-3.878-17.678-2.255-8.7-4.034-17.525-6.043-26.29q-2.654-11.575-5.369-23.136c-.7-2.99-1.388-5.983-2.178-8.949-.194-.727-.411-1.8-1.642-1.479-1.3.34-.771,1.233-.58,2.045,2.419,10.249,4.854,20.494,7.231,30.753,2.533,10.932,4.812,21.926,7.592,32.793,1.344,5.253,2.408,10.565,3.786,15.812,1.755,6.684,2.973,13.5,4.5,20.25,1.766,7.794,3.618,15.569,5.432,23.353,1.417,5.4,2.8,10.8,4.257,16.188,2.422,8.926,5.019,17.8,8.13,26.513,1.819,5.091,4.087,10.014,9.992,11.722,1.689-.167,3.609.44,4.793-1.428-.138-1.023.832-1.7.845-2.674l0,0,2.221-.363c2.189-.865,2.343-3.154,3.377-4.825,4-11.327,7.9-22.689,11.346-34.2q6.135-20.495,11.1-41.3c1.75-7.393,3.369-14.815,4.985-22.239,1.664-7.642,3.163-15.314,4.706-22.978.849-4.218,1.464-8.482,2.309-12.7.965-4.817,2.071-9.606,2.619-14.5,0-.018,0-.03,0-.046,1.378-7.439,3.113-16.857,4.431-24.02.1-.469.191-.939.26-1.413,1-5.413,1.7-9.233,1.72-9.355l-.36-.066c.981-6.777,1.95-13.557,2.787-20.353,1.508-12.242,2.311-24.559,2.723-36.877C6741.509,8987.422,6741.331,8977.469,6740.942,8967.514Zm-192.353-87.691a5.706,5.706,0,0,1-4.293,7.233c-3.121.657-5.919-1.434-6.726-4.793-.662-2.756-1.516-5.471-2.389-8.17-.89-2.752-.754-3.062,1.979-3.507.9-.146,2.04-.193,1.851-1.517-.16-1.122-1.2-.824-1.87-.676-2.712.606-3.8-.508-4.447-3.158-1.645-6.7-3.637-13.312-5.491-19.958a1.28,1.28,0,0,1-.6-1.438c-.636-2.292-1.265-4.587-1.912-6.876a2.559,2.559,0,0,0-1.8-1.887,13.129,13.129,0,0,1-7.394-18.93c.245-.442.7-1.032,1.1-1.063.6-.047.657.71.845,1.208.814,2.159,1.1,4.462,1.935,6.628a3.751,3.751,0,0,0,4.242,2.655c2.486-.181,4.747-1.246,7.119-1.867,1.984-.519,2.948-2.84,2.378-4.868-.624-2.217-1.294-4.421-1.911-6.64-.111-.4-.623-.844-.137-1.238.409-.33.829.026,1.261.2,5.147,2.064,8.351,9.067,6.662,14.625-.939,2.228-.9,4.921-3.149,6.526a1.2,1.2,0,0,0-.237,1.66c.844,1.618.929,3.458,1.831,5.131.839,1.558.617,3.686.862,5.563,1.315,1.32,1.371,3.187,1.806,4.792Q6544.22,8864.675,6548.589,8879.822Zm138.34,362.745.015.015Z"/><path class="i" d="M6722.557,8900.421l.009.015.019.006Z"/><path class="i" d="M6628.054,9033.909l-.008-.021h0Z"/><path class="i" d="M6673.207,8738.35c.758-.039,1.381-.343,1.431-1.189.053-.877-.675-1.186-1.328-1.352a7.717,7.717,0,0,0-1.844-.066q-12.4,0-24.8,0H6353.052a7.831,7.831,0,0,0-1.845.061c-.654.161-1.347.463-1.295,1.361.05.876.626,1.168,1.4,1.192.463.015.927,0,1.391,0h318.646C6671.972,8738.359,6672.591,8738.382,6673.207,8738.35Z"/><path class="i" d="M6656.062,9196.949c-1.194,5.4-2.616,10.744-4.159,16.06-2.1,7.225-3.389,14.68-5.889,21.782-1.182,3.361-2.44,6.834-5.349,9.251-2.678,2.225-5.172,1.86-7.211-.993-3.212-4.5-5.113-9.621-6.81-14.791a225.247,225.247,0,0,1-5.907-23.95c-2.064-9.79-3.625-19.668-5.107-29.55-1.417-9.442-3.3-18.8-4.71-28.244-.694-4.64-1.517-9.264-2.275-13.895-3.75-27.5-7.056-58.633-8.473-89.9l27.561-9.657a6.264,6.264,0,0,0,.313.83c3.6-1.08,7.227-2.1,10.8-3.268,1.54-.5,1.98-1.2.619-2.806a3.43,3.43,0,0,0-.648-.587,2.072,2.072,0,0,0-.6-1.061L6626.71,9015.2c.029-.287.37-.494.974-.742,1.634-.67,3.239-1.426,4.807-2.239a111.512,111.512,0,0,0,20.084-12.889c.992-.822,1.469-.87,2.072.6a33.934,33.934,0,0,0,4.9,8.29,36.965,36.965,0,0,0,20.894,13.407,27.659,27.659,0,0,0,19.486-2.182c7.91-4,13.035-10.744,16.99-18.429a92.965,92.965,0,0,0,7.26-20.776,118,118,0,0,0,3.344-24.2,125.827,125.827,0,0,0-.675-18.019c-.919-8.27-2.734-16.212-7.142-23.342-3.559-5.754-8.479-10.052-15.281-11.279-8.88-1.6-16.92.779-24.023,6.3-10.4,8.089-16.755,19.057-21.657,30.959a116.138,116.138,0,0,0-8.073,30.208,55.047,55.047,0,0,0,1.828,23.109c.537,1.738.179,2.491-.989,3.4a131.046,131.046,0,0,1-25.538,15.424,2.093,2.093,0,0,1-1.561.2l-49.08-46.762a2.092,2.092,0,0,0-1.844-.535l-60.533,12a2.087,2.087,0,0,0-1.068,3.523l67.632,67.472a2.107,2.107,0,0,0,2.164.492l16.214-5.682q.063,1.378.132,2.757l-.553.242c-.77,1.519.528,3.05-.028,4.568a.587.587,0,0,1,.039.4l.818.007q.2,3.633.439,7.255c-.381.414.089,1.077.009,1.572-.1.643.316,1.382-.368,1.915.825,2.7.426,5.471.5,8.215.536.2.878.483.467,1.09q.168,2.291.339,4.582c.79,1.484.407,3.084.453,4.641a72.05,72.05,0,0,0,.919,11.124c.784.994.43,2.149.46,3.249l.783,9.448c1.018.856.575,2.01.623,3.064a34.838,34.838,0,0,0,.917,7.879,1.429,1.429,0,0,1,.316.427c.051.423.1.843.155,1.265-.015.212-.032.427-.029.636q.391,3.8.783,7.6a1.743,1.743,0,0,1,.329.315q.149,1.14.3,2.269v.012q.387,3.337.776,6.673a1.576,1.576,0,0,1,.144.12q.266,1.925.533,3.824a63.748,63.748,0,0,0,.961,6.678c6.88,46.96,14.472,80.642,14.6,81.191l.695-.158a58.859,58.859,0,0,0,7.924,17.694c3.582,5.118,8.125,5.192,12.189.482a26.388,26.388,0,0,0,5.226-10.36q4.712-16.926,9.057-33.953c.391-1.523,1.525-3.178.315-4.874C6656.738,9195,6656.291,9195.911,6656.062,9196.949Zm-.68-238.266a114.861,114.861,0,0,1,11.524-29.4c4.568-7.914,10.087-15,18-19.82,11.482-6.989,26.187-6.131,33.757,8.067a55.544,55.544,0,0,1,5.876,20.941c.406,4.061,1.028,8.121.858,10.762-.069,15.67-2.3,29.527-7.13,42.874-2.936,8.108-7.008,15.634-13.738,21.4-7.295,6.246-15.6,8.077-24.79,5.546-11.412-3.142-18.946-10.657-23.6-21.354-.537-1.235.343-1.509.9-1.993a92.223,92.223,0,0,0,11.611-11.973c7.837-9.723,13.9-20.361,16.461-32.752.31-1.5.713-2.986,1.1-4.473.246-.952.039-1.836-.917-2.055-1.055-.24-1.4.644-1.543,1.551-3.063,18.956-13.084,33.92-26.851,46.722-.471.439-.885,1.192-1.7,1-.922-.214-.665-1.1-.827-1.724C6651.48,8980.8,6652.568,8969.737,6655.382,8958.684Zm-74.335,88.277-67.222-67.062,28.366-5.625a3.362,3.362,0,0,0,.5-.008c1.214-.085,2.427-.187,3.64-.281a4.966,4.966,0,0,1,2.9-.694c.346-.565.88-.473,1.408-.4,7.057-1.118,14.121-2.2,21.167-3.385a4.7,4.7,0,0,1,4.522,1.351q26.164,25.022,52.449,49.92c.219.208.4.452.6.68a7.708,7.708,0,0,1,1.162.6l3.227,3.075a32.29,32.29,0,0,0,2.253,2.564Z"/><path class="i" d="M6682.663,8708.541l0,.006.025.023Z"/><path class="i" d="M6597.734,8956.051c.014-1.925-2.12-1.26-3.382-1.261q-90.009-.041-180.02-.026c-2.162,0-4.324-.025-6.486-.041-.394,1.577.952,1.926,1.836,2.6.695-.016,1.389-.043,2.083-.043q91.285,0,182.569-.031C6595.576,8957.247,6597.719,8958,6597.734,8956.051Z"/><path class="i" d="M6675.278,8800.177c-7.546,8.327-11.119,18.745-15.2,28.9-3.513,8.744-7.139,17.438-11.27,25.915a.984.984,0,0,1-.74,1.182.178.178,0,0,1-.038.24c-.322,1.839-1.762,3.233-2.105,5.022-.43,2.245-2.772,3.667-2.515,6.157l1.211,1.382c2.724-5.558,5.568-11.062,8.139-16.689,2.635-5.769,5.028-11.646,7.48-17.5,2.722-6.494,5.35-13.027,8.092-19.513,2.684-6.35,6.959-11.64,11.442-16.772.2-.232.7-.206,1.059-.3.083-.2.112-.461.257-.6a36.369,36.369,0,0,1,16.672-9.224,27.728,27.728,0,0,1,17.139,1.531,28.786,28.786,0,0,1,7.807,4.775,1.486,1.486,0,0,0,2.254-.006c.953-.987-.227-1.258-.719-1.708a30.8,30.8,0,0,0-13.763-7.016c-5.935-1.484-11.585-.616-17.178,1.307-5.22,1.794-9.666,4.923-13.86,8.436C6678.054,8797.19,6676.647,8798.666,6675.278,8800.177Z"/><path class="i" d="M6723.107,8840.345a56.18,56.18,0,0,0-7.076,22.162c.024,3.46-.259,6.905.066,10.383.834,8.939,2.588,17.623,6.274,25.86.218.486.706,1.04.234,1.66,1.786-.393,2.537-.88,1.607-3.157a74.568,74.568,0,0,1-5.675-34.719,42.591,42.591,0,0,1,3.193-13.769c3.036-6.672,6.751-13.039,9.685-19.75,2.559-5.855,4.187-12.04,2.365-18.554q-.148-.652-.3-1.306c-1.412-.288-1.3-2.241-2.769-2.618.121,1.071.228,2.021.335,2.973a4.243,4.243,0,0,1,.3,2.737c1.735,4.316.22,8.486-.916,12.527C6728.872,8830.329,6725.9,8835.324,6723.107,8840.345Z"/><path class="i" d="M6722.585,8900.441c.009-.012.012-.021.02-.031l-.048.011Z"/><path class="i" d="M6347.036,8954.767c-3.294-.007-3.93-.62-3.932-3.887q-.01-12.716-.008-25.434c0-.922-.1-1.845-.159-2.768a2.58,2.58,0,0,0-1.857,0q-.165,6.743-.329,13.485c-.006.439-.011.881-.017,1.322.456,4.821.059,9.658.231,14.483.07,1.977.177,4.031,2.432,4.985.554-.483.877-.181,1.139.333l54.949.041c1.115-.688,2.4-1.187,2.894-2.573-.691.039-1.384.113-2.077.112Q6373.669,8954.822,6347.036,8954.767Z"/><path class="i" d="M6340.825,8768.457a5.9,5.9,0,0,0,.068,1.838c.449,1.3,1.16,1.873,2.14.352q-.018-16.206-.034-32.409-.009-12.47.009-24.938a13.192,13.192,0,0,1-.021-1.578l.232-.736a1.763,1.763,0,0,1,.09-.162c.066-.152.133-.3.2-.453-.073-.3.107-.4.357-.434l.458-.438,61.04-.423,0-.412q135.644.041,271.288.05c1.015,0,2.188-.481,3.037.563,1.945.669,1.716,2.355,1.719,3.853q.035,20.933.016,41.866c0,.692,0,1.389.059,2.077a.962.962,0,0,0,.915.89,1.031,1.031,0,0,0,1.181-.867,6.882,6.882,0,0,0,.076-1.609q0-21.627.025-43.255a6.636,6.636,0,0,0-1.011-3.682,5.667,5.667,0,0,0-3.6-1.768c-.838.076-1.677.219-2.515.219q-135.6.009-271.2-.01v-.232l-18.9.132c-.309-.036-.619-.074-.928-.1a6.593,6.593,0,0,1-.811.116l-.924.006a6.4,6.4,0,0,1-.926-.122,1.709,1.709,0,0,1-.393.131l-29.973.208a4.244,4.244,0,0,0-1.269-.115c-2.31-.021-4.62-.032-6.93-.047-.323.067-.646.136-.953.226l-1.359.01-.87,2.753a1.485,1.485,0,0,1-.358.221c0,.306,0,.612,0,.919l-.224.709v.176c-.159,45.95-.042,46.187.121,46.514l.145-.072Q6340.812,8763.435,6340.825,8768.457Z"/><path class="i" d="M6316.971,8922.672c-.407-1.9-1.435-1.816-2.6-.725q-8.078,7.542-16.1,15.142c-.795.749-1.757,1.6-.738,2.707,1.269,1.381,2.187-.214,2.754-.823,5.08-5.454,10.81-10.22,16.115-15.431C6316.529,8923.214,6316.543,8922.807,6316.971,8922.672Z"/><path class="i" d="M6308.386,8759.446l.827.911c1.813,3.6,4.455,6.657,6.615,10.031.363.568.724,1.783,1.883.786.932-.8.624-1.472.007-2.345-1.711-2.422-3.3-4.928-4.955-7.389-1.741-2.592-3.471-5.189-5.275-7.735-.455-.642-1.075-1.338-2.08-.719-1.083.666-.329,1.3.038,1.887C6306.4,8756.413,6307.4,8757.924,6308.386,8759.446Z"/><path class="i" d="M6310.56,8916.088c-.308-1.127-1.4-.985-2.338-.648a.977.977,0,0,1-.983.234q-7.867,2.651-15.735,5.3c-.723.245-1.618.51-1.2,1.541s1.187,1.132,2.255.749c5.39-1.926,10.782-3.846,16.311-5.359C6309.667,8917.689,6310.87,8917.219,6310.56,8916.088Z"/><path class="i" d="M6325.791,8928.93a1.039,1.039,0,0,0-1.469.093,7.931,7.931,0,0,0-1.27,1.6c-1.7,3.113-3.338,6.258-5.024,9.378-.83,1.537-1.781,3.012-2.558,4.574-.5,1.011-.423,1.965,1.11,2.271a8.927,8.927,0,0,0,1.991-2.345c1.161-2.351,2.464-4.632,3.692-6.951,1.266-2.389,2.508-4.79,3.764-7.183A1.018,1.018,0,0,0,6325.791,8928.93Z"/><path class="i" d="M6299.342,8773.056c3.061,1.283,6.035,2.791,9.144,3.934,1.263.465,2.6,2,4.174.5q.155-.429.31-.858a4.976,4.976,0,0,0-2-1.437,1.054,1.054,0,0,1-1.222-.7.134.134,0,0,1-.22-.021,1.41,1.41,0,0,1-1.384-.575.808.808,0,0,1-.419-.087c-2.693-.9-5.418-1.724-7.747-3.44-.889-.013-2.056-.368-2.263.891C6297.545,8772.277,6298.456,8772.685,6299.342,8773.056Z"/><path class="i" d="M6597.479,9051.5v-.012h0Z"/><path class="i" d="M6617.413,8947.529c.919-2.932,1.707-5.9,2.656-8.825a1.344,1.344,0,0,0-.729-1.891c-.928-.392-1.127.562-1.45,1.11a6.725,6.725,0,0,0-.566,1.5q-2.129,7.179-4.423,14.308c-1.165,3.646-2.794,7.181-3.146,10.9-.295,2.224,1.212,3.021,2.679,3.688,6.423,2.921,12.923,5.675,19.293,8.7,1.993.946,2.592.5,3.3-1.4,2.887-7.729,4.413-15.823,6.574-23.745.285-1.044.54-2.2-.8-2.432-1.137-.2-1.361,1-1.574,1.9-1.717,7.246-3.455,14.486-5.646,21.611-.449,1.461-1.06,1.862-2.445,1.229-5.929-2.716-11.855-5.44-17.82-8.076-1.355-.6-1.386-1.43-1.015-2.586C6614.018,8958.2,6615.737,8952.872,6617.413,8947.529Z"/><path class="i" d="M6687.987,9081.888a19.586,19.586,0,0,1-2.977-.316c-8.7-2.29-13-8.629-15.3-16.775a54.738,54.738,0,0,1-1.6-14.668c-.006-.944-.219-2.064-1.379-2.062-1.088,0-1.12,1.055-1.114,1.938.048,7.6.738,15.151,4.322,21.972,3.734,7.107,9.431,11.8,17.965,12.338.9-.28,2.592.412,2.615-1.281C6690.542,9081.431,6688.979,9081.99,6687.987,9081.888Z"/><path class="i" d="M6669.923,8837.9a.924.924,0,0,0-1.293.215c-1.428,2-3.181,6.6.4,9.729a6.038,6.038,0,0,0,4.013,1.686,4.957,4.957,0,0,0,1.092-.122c2.275-.514,4.359-2.614,5.721-5.764a.927.927,0,1,0-1.7-.735c-1.107,2.561-2.762,4.314-4.427,4.69a3.91,3.91,0,0,1-3.477-1.15c-3.209-2.807-.241-7.077-.113-7.257A.928.928,0,0,0,6669.923,8837.9Z"/><path class="d" d="M6431.094,8778.74s7.752-4.7,18.875,0c0,0-.088,16.952-.414,16.745s-13.2-3.55-13.254-3.712-2.9-1.17-3.017-1.376-1.775-3.983-1.539-5.72S6431.094,8778.74,6431.094,8778.74Z"/><path class="j" d="M6540.83,8817.155c1.2,2.838.869,5.741.928,8.647.614,0,1.234.039,1.842-.023,1.82-.19,2.45.62,2.4,2.409-.093,3.068-.011,6.144,0,9.217l105.189-.021c4.743,0,6.031-1.281,6.031-6.008q0-37.767,0-75.533c0-.541.033-1.084-.009-1.621a4.05,4.05,0,0,0-4.3-3.985c-4.711,0-9.423-.055-14.133.013-4.671.067-9.329-.292-14.013-.08-6.012.271-12.046.017-18.069.079-5.983.061-11.963-.163-17.948-.041-6.022.123-12.048.027-18.072.027h-18.3q-8.224,0-16.45,0c-3.709,0-4.768,1.062-4.769,4.8q0,24.561-.02,49.12a7.8,7.8,0,0,0,.782,3.977C6535.855,8810.174,6539.04,8812.911,6540.83,8817.155Zm40.465,2.162a103.448,103.448,0,0,1-11.759.454c-1.157-.03-2.316,0-3.475,0-3.4,0-6.795,0-10.193,0-.757,0-1.549.136-2.132-.591-.327-.405-.967-.687-.654-1.323.247-.5,1-.972,1.315-.747,1.748,1.256,3.353-.14,5.018-.129,7.335.045,14.672,0,22.008.037.72,0,1.981-.48,1.927.868C6583.309,8818.914,6582.325,8819.226,6581.295,8819.317Zm2.092-26.475a1.535,1.535,0,0,1-1.862,1.31c-6.491-1.154-13.045-.728-20.332-.819-4.473.335-9.729-.514-14.942.445-.717.131-1.751.22-1.906-.786-.167-1.088.967-1.126,1.629-1.225a49.942,49.942,0,0,1,6.621-.7c6.407-.092,12.818-.137,19.223.009,3.518.08,7.026.583,10.539.885C6582.937,8792.01,6583.567,8792.113,6583.387,8792.843Zm52.176-10.619c3.191,0,4.493,1.3,4.5,4.485q.015,13.389,0,26.776a4.61,4.61,0,0,1-4.723,4.871q-19.581.062-39.164,0a4.372,4.372,0,0,1-4.292-4.492c.18-7.939-.449-15.886.3-23.823.111-1.17-.383-2.4-.33-3.647a4.01,4.01,0,0,1,4.314-4.175q9.85-.006,19.7,0T6635.563,8782.224Zm-90-15.292q30.119-.013,60.235-.012a3.73,3.73,0,0,1,2.193.537,2.745,2.745,0,0,0,3.055-.021,2.2,2.2,0,0,1,.808-.422c.98-.066,2.028-.4,2.909.244a.965.965,0,0,1,.068,1.28c-.611,1.008-1.646.68-2.525.682q-15.405.032-30.812.015v.008c-9.885,0-19.77-.026-29.654.02-2.066.011-4.13.339-6.2.414-1.062.039-2.4.035-2.365-1.5C6543.3,8766.716,6544.581,8766.932,6545.558,8766.932Z"/><path class="j" d="M6490.274,8855.849a32.1,32.1,0,0,0-4.351-.394c-5.986-.119-11.962.289-17.959.07-7.06-.258-14.137-.061-21.207-.06a51.8,51.8,0,0,0-2.262,11c-.135,1.452-.584,2.306-1.968,2.664-5.251,1.363-10.4,1.661-15.425-1-1.987-1.054-1.855-2.869-2.073-4.55-.413-3.194-1.508-6.27-1.6-9.517-.006-.216-.393-.421-.6-.631.314,2.041-.575,2.6-2.573,2.533-4.419-.149-8.854.106-13.27-.084-5.819-.251-11.626.228-17.44.057a10.536,10.536,0,0,1-3.39-.494c-.289,1.747-.074,3.022,1.976,3.754a13.747,13.747,0,0,1,4.668,2.9c1.681,1.583,3.383,1.375,5.067.553,3.788-1.852,7.744-3.251,11.658-4.78,2.384-.931,4.063-.5,5.573,1.52a86.1,86.1,0,0,1,7.464,12.405,2,2,0,0,1-.434,2.794c-4.367,3.985-8.7,8.017-14.084,10.647a1.872,1.872,0,0,0-1.123,2.025,48.731,48.731,0,0,1-.015,6.246,4.123,4.123,0,0,0,2.125,4.161c4.035,2.788,8,5.674,12.039,8.46,1.717,1.185,2.132,2.394,1.6,4.6a26.549,26.549,0,0,1-7.164,12.874c-.982.985-1.663,1.33-3.131.725-4.819-1.99-9.737-3.746-14.645-5.517a4.322,4.322,0,0,0-4.719.711,25.793,25.793,0,0,1-8.313,4.358,2.423,2.423,0,0,0-1.794,1.769,70.91,70.91,0,0,0-2.4,12.427c-.307,3.167-.375,3.425-3.54,4-.793.143-1.761-.181-2.25.813,1,.061,2,.174,3,.175q54.8.013,109.6.006c.618,0,1.239.037,1.853-.012,2.746-.222,3.962-1.542,3.963-4.293q0-28.037,0-56.076c0-7.8-.021-15.6.014-23.4C6493.149,8857.261,6492.375,8856.178,6490.274,8855.849Zm-53.915,45.312c-.558-.269-1.107-.674-1.059-1.377.062-.915.839-.737,1.414-.74,2.848-.019,5.7-.009,8.543-.009,2.771,0,5.542-.007,8.312.007.437,0,1.007-.164,1.246.331.313.646-.351.926-.674,1.31a2.238,2.238,0,0,1-1.882.671c-4.926-.011-9.851,0-14.777-.013A2.673,2.673,0,0,1,6436.359,8901.16Zm38.9,23.825c-2.008.01-4.016,0-6.025,0-7.312-.473-14.634-.5-21.958-.483a24.183,24.183,0,0,1-3.417-.437c-.621-.09-1.606.284-1.587-.792.018-1.036.944-1.059,1.735-1.06a55.139,55.139,0,0,1,8.1.085,76.93,76.93,0,0,0,10.15.354c4.325.075,8.652.013,12.977.025.917,0,2.081-.11,2.007,1.251C6477.181,8925.091,6476.108,8924.981,6475.263,8924.985Zm1.222-24.1c-2.309.008-4.618,0-6.927,0-2.155,0-4.31.007-6.466,0-.7,0-1.487.025-1.416-1.021.059-.881.77-.825,1.379-.826q6.7-.012,13.393,0c.633,0,1.293.028,1.309.9S6477.128,8900.883,6476.485,8900.885Zm.776-25.51c-5.08.04-10.16.027-15.24.013-.9,0-2.154.189-2.125-1.106.027-1.15,1.238-1.174,2.159-1.192,1.693-.032,3.387-.009,5.639-.009,2.836-.433,6.162.586,9.545.484.758-.023,1.777.151,1.8,1.048C6479.067,8875.829,6477.914,8875.37,6477.261,8875.375Z"/><path class="j" d="M6598.026,8942.783c4.626-2.387,7.564-6.509,10.666-10.443,5.411-6.863,8.681-14.9,12.345-22.721,4.145-8.851,8.841-17.423,13.324-26.1,2.1-4.059,4.687-7.849,6.485-12.069a7.509,7.509,0,0,1,1.286-1.6c-.3-1.163.306-1.814,1.28-2.258-.257-2.49,2.085-3.912,2.515-6.157.343-1.789,1.783-3.184,2.105-5.022-.834-1.034-1.983-.956-3.151-.956q-48.376.018-96.753-.008a13.715,13.715,0,0,0-3.639.5,9.959,9.959,0,0,0,2.723,6.372c4.7,4.865,6.57,11.026,6.98,17.577.463,7.395-.228,14.753-.989,22.138-.963,9.333-1.543,18.774,2.411,27.763,2.148,4.883,5.138,9.03,9.718,11.9l.559.422a.182.182,0,0,0,.273.06c10.271.928,20.561.26,30.842.332C6597.4,8942.519,6597.753,8942.422,6598.026,8942.783Zm-24.415-68.774q9.026-.013,18.05,0c5.863,0,11.725-.012,17.588.014.837,0,2.025-.386,2.048,1.12s-1.149,1.17-2,1.172c-8.563.019-17.128.133-25.686-.049-3.366-.07-6.717.283-10.077.065-.847-.055-1.914.067-1.953-1.09C6571.533,8873.885,6572.7,8874.01,6573.611,8874.009Zm-7.418,25.067a9.127,9.127,0,0,1,1.156-.04q20.857,0,41.715,0c.3,0,.6.047,1.108.09a3.876,3.876,0,0,1-3.946,2.254c-12.823-.059-25.646-.032-38.47-.034a14.189,14.189,0,0,1-1.619-.05,1.074,1.074,0,0,1-1.071-1.021C6565.022,8899.527,6565.5,8899.165,6566.193,8899.076Zm19.319,24.991c-6.1,0-12.191.009-18.286-.011-.8,0-1.966.263-2.016-.918-.042-1.014,1.093-1.265,1.889-1.319,1.766-.124,3.546-.064,5.32-.065,6.558,0,13.119-.112,19.673.043,3.516.083,7.022-.073,10.532-.04a8.245,8.245,0,0,1,1.835.128c.681.164,1.361.481,1.233,1.4-.122.87-.831.775-1.432.779-2.392.014-4.784.008-7.175.008Z"/><path class="j" d="M6380.409,8780.758a63.807,63.807,0,0,1,6.872-1.905c3.016-.875,4.132-.407,5.6,2.364a67.216,67.216,0,0,1,3.994,8.778c.5,1.393.571,2.454-.926,3.563a50.227,50.227,0,0,1-11.426,6.745,1.929,1.929,0,0,0-1.212,2,29.909,29.909,0,0,1-.414,5.517c-.266,1.049.611,1.822,1.374,2.507,2.971,2.663,5.88,5.4,8.921,7.977,1.344,1.141,1.331,2.266.669,3.662-.947,2-1.859,4.019-2.786,6.028q.046,4.705.093,9.409l.982-.051c.91-2.274,3.279-2.6,5.041-3.7,3.047-1.911,6.357-3.377,9.295-5.489a2.345,2.345,0,0,0,1.172-2.725,3.442,3.442,0,0,1-.17-1.812c1.085-3.081-.6-4.595-2.944-6.12-3.272-2.129-6.317-4.6-9.493-6.883-.741-.533-1.3-1.022-1.133-2.046.946-5.807,3.315-10.818,7.975-14.6a1.9,1.9,0,0,1,2.113-.408c4.743,1.985,9.673,3.418,14.572,4.949a3.547,3.547,0,0,0,3.438-.4,19.655,19.655,0,0,1,4.363-2.019,3.615,3.615,0,0,0,2.75-3.562c.053-4.019,1.55-7.838,1.546-11.879,0-1.811,1.276-2.7,3.1-2.685.365-1.147,1.048-1.019,1.838-.456l1.857-.179c.164-.573.565-.7,1.095-.576l2.941.006c1.335.121,2.668.274,4,.353.68.04,1.184.186,1.25.964,2.661,1.287,3.225,3.64,3.231,6.3.008,3.316.092,6.631.054,9.946a2.6,2.6,0,0,0,1.4,2.64,47.451,47.451,0,0,1,5.208,3.314c1.8,1.341,3.533.031,5.193-.613,3.413-1.325,6.691-2.987,10.351-3.664a2.5,2.5,0,0,1,2.774,1.01,67.992,67.992,0,0,1,6.772,11.182,2.374,2.374,0,0,1-.7,3.083,50.4,50.4,0,0,1-11.336,8.534c-1.172.605-1.817,1.323-1.619,2.691a5.369,5.369,0,0,1,.023,1.844c-.86,4.043.919,6.714,4.331,8.6,2.346,1.3,4.187,3.348,6.65,4.474,3.4-.012,6.8.023,10.194-.049,2.842-.062,3.831-1.131,3.833-3.938q0-11.237,0-22.476,0-28.5,0-57c0-2.964-.74-3.705-3.662-3.719-1.931-.009-3.862-.038-5.792.009-1.86.045-3.167-.246-2.266-2.618.277-.73.163-1.963-.932-1.317-.942.557-3.1.507-2.39,2.694.1.308-.069.748-.437.565-1.585-.792-2.778.655-4.208.656-10.658,0-21.316-.012-31.975.023-1.128,0-2.136-1.337-3.03-.717-1.609,1.117-3.279.671-4.906.675q-30.932.063-61.865.03c-2.954,0-3.68.736-3.692,3.688-.008,2.008,0,4.017,0,6.024,1.9.781,2.39,2.207,2.343,4.2a66.636,66.636,0,0,1-.826,10.1,3.22,3.22,0,0,0,1.549,3.74,6.5,6.5,0,0,1,2.032,1.476C6375.132,8782.32,6377.746,8781.863,6380.409,8780.758Zm85.515-14.181a2.316,2.316,0,0,1,1.918-.577q6,.009,12,0c.938,0,2.037-.062,2.08,1.228.052,1.522-1.233,1.045-2.045,1.065-2.153.057-4.308.02-6.463.02-2.308,0-4.616.015-6.924-.013-.493,0-1.2.251-1.387-.445C6464.943,8767.261,6465.578,8766.962,6465.924,8766.577Zm-4.187,17.611c.172-.693.829-.568,1.347-.57,2.693-.011,5.387,0,8.08,0,2.462,0,4.925-.03,7.387.021.744.017,1.94-.44,1.962.9.02,1.227-1.092,1.352-2.017,1.374-2.153.051-4.309.023-6.463.024-2.54,0-5.079.014-7.618-.016a4.811,4.811,0,0,1-1.786-.279A1.265,1.265,0,0,1,6461.737,8784.188Zm-36.883,1.722q-7.989.016-15.978,0c-.95,0-1.811-.507-1.811-1.428,0-1.348,1.228-.829,1.95-.847,2.546-.062,5.094-.024,7.641-.024,2.7,0,5.4-.006,8.105.008.67,0,1.5-.138,1.55.9C6426.359,8785.5,6425.749,8785.908,6424.854,8785.91ZM6387.768,8766q31.155,0,62.31.014a2.73,2.73,0,0,1,.59.184,3.9,3.9,0,0,1-3.911,2.15c-19.611-.05-39.223-.024-58.835-.058-.846,0-2.286.608-2.255-1.084C6385.69,8765.914,6386.835,8766,6387.768,8766Z"/><path class="j" d="M6550.513,8905.141c.851-9.192,2.431-18.362,1-27.618-.529-3.42-.975-6.951-3.508-9.682l-.365.294c1.049,3.764,2.147,7.516,3.136,11.294a7.9,7.9,0,0,1-4.357,9.367,8.033,8.033,0,0,1-9.481-2.422c-1.153-1.481-1.5-3.317-2.07-5.067-.938-2.9-1.35-5.956-2.692-8.725a1.681,1.681,0,0,0-1.041,1.86c.023,1.077.005,2.157.005,3.236q0,30.409,0,60.816c0,2.725,1.418,4.538,3.757,4.552,8.247.048,16.5.017,24.742.022.816,0,1.581-.023,1.667-1.1-2.589-2.9-5.24-5.732-6.988-9.286C6550,8923.911,6549.637,8914.6,6550.513,8905.141Z"/><path class="j" d="M6738.38,8978.894c-.24-9.02-.335-18.065-1.135-27.043-1.089-12.2-3.353-24.255-8.323-35.556-3.4-7.73-7.978-14.673-15.506-19.177a26.5,26.5,0,0,0-16.377-3.729c-16.684,1.544-29.056,10.29-38.422,23.7a42.989,42.989,0,0,0-6.667,15.311c-.625,2.782-1.064,2.877-3.829,1.967-10.086-3.319-18.677-9.108-26.58-16.015-1.379-1.205-1.748-1.09-2.474.573-3.777,8.654-7.347,17.378-10.369,26.333a221.188,221.188,0,0,0-8.239,31.909c-.393,2.2-.795,4.391-1,6.624-.092,1.021-.173,2.242-1.578,2.533q-.083,1.162-.165,2.324c4.845,5.2,10.277,9.795,15.371,14.74,3.2,3.106,6.581,6.025,9.761,9.151a2.021,2.021,0,0,0,2.63.5,131.089,131.089,0,0,0,25.538-15.424c1.168-.908,1.526-1.662.989-3.4a55.039,55.039,0,0,1-1.828-23.109,116.082,116.082,0,0,1,8.073-30.207c4.9-11.9,11.257-22.871,21.657-30.959,7.1-5.524,15.143-7.908,24.023-6.3,6.8,1.229,11.722,5.525,15.281,11.28,4.408,7.13,6.223,15.072,7.142,23.34a125.991,125.991,0,0,1,.675,18.021,118.09,118.09,0,0,1-3.344,24.2,92.973,92.973,0,0,1-7.26,20.777c-3.955,7.684-9.08,14.432-16.99,18.428a27.66,27.66,0,0,1-19.486,2.183,36.974,36.974,0,0,1-20.9-13.407,33.982,33.982,0,0,1-4.894-8.29c-.6-1.468-1.08-1.421-2.072-.6a111.619,111.619,0,0,1-20.084,12.889c-1.569.813-3.173,1.568-4.807,2.239-1.113.456-1.345.772-.34,1.709a73.514,73.514,0,0,1,8.606,9.268c.863,1.141,2.473,1.147,3.515,2.379a5.083,5.083,0,0,1,.586.823l-42.179,13.818,4.082,15.883c-.37.544-.754,1.095-1.039,1.607q.141,2.051.284,4.1c1.261.486,1.039,1.161.242,1.908.5,10.48,1.615,20.906,2.65,31.346.86,8.672,2.1,17.291,3.173,25.931.966,7.792,2.494,15.513,3.655,23.281,1.411,9.441,3.294,18.8,4.71,28.244,1.482,9.881,3.044,19.76,5.107,29.549a225.445,225.445,0,0,0,5.908,23.951c1.7,5.17,3.6,10.295,6.81,14.79,2.038,2.854,4.533,3.219,7.211.994,2.909-2.417,4.167-5.891,5.349-9.251,2.5-7.1,3.791-14.559,5.888-21.783,1.544-5.316,2.966-10.656,4.16-16.061.229-1.036.675-1.948,2.047-1.583.213-1.048-.441-2.328.832-3.091-1.814-7.783-3.666-15.558-5.432-23.352-1.528-6.745-2.746-13.568-4.5-20.251-1.377-5.245-2.441-10.56-3.785-15.812-2.78-10.866-5.06-21.861-7.592-32.793-2.377-10.259-4.812-20.5-7.231-30.753-.192-.811-.724-1.705.58-2.044,1.231-.32,1.448.751,1.641,1.479.791,2.965,1.481,5.959,2.178,8.947q2.7,11.565,5.37,23.138c2.009,8.765,3.788,17.589,6.042,26.29,1.518,5.854,2.131,11.891,3.879,17.677,2.78,9.2,4.429,18.679,6.788,27.984,2.55,10.056,4.681,20.22,7.348,30.243,3.138,11.8,6.148,23.665,11,34.92,1.161,2.691,2.694,5.377,6.094,5.955-.027-5.538-.027-5.538,5.558-5.561.766,0,1.531,0,2.3,0,2.13-2.919,2.826-6.459,3.988-9.753q4.515-12.8,8.424-25.815c2.744-9.188,5.254-18.452,7.641-27.74,2.692-10.483,5.35-20.984,7.629-31.562,2.785-12.922,5.175-25.928,7.7-38.905.837-4.3,1.544-8.627,2.366-12.931a18.586,18.586,0,0,1,.9-2.6c.579-2.082.016-4.312.823-6.365.116-.771.231-1.539.349-2.311.9-2.587.581-5.335,1.029-7.986a5.919,5.919,0,0,1,.989-2.731q.114-1.147.226-2.3a.56.56,0,0,1,.245-.885q.123-.946.245-1.893c-.285-.591-.385-1.131.394-1.428,1.4-10.221,2.949-20.424,4.154-30.668.593-5.047,1.164-10.119,1.471-15.189C6738.045,9004.66,6738.723,8991.785,6738.38,8978.894Zm-97.26-26.772c-2.161,7.922-3.688,16.015-6.574,23.745-.71,1.9-1.309,2.347-3.3,1.4-6.37-3.028-12.871-5.781-19.293-8.7-1.467-.667-2.974-1.466-2.68-3.688.353-3.725,1.981-7.26,3.147-10.906q2.28-7.134,4.422-14.306a6.782,6.782,0,0,1,.567-1.5c.322-.549.522-1.5,1.449-1.111a1.345,1.345,0,0,1,.73,1.892c-.95,2.921-1.738,5.893-2.657,8.823-1.675,5.345-3.4,10.675-5.107,16-.371,1.157-.34,1.988,1.015,2.588,5.965,2.636,11.891,5.359,17.82,8.074,1.385.635,1.995.234,2.445-1.227,2.191-7.126,3.929-14.365,5.646-21.612.213-.9.437-2.1,1.574-1.9C6641.66,8949.919,6641.4,8951.076,6641.12,8952.121Zm46.3,132.429c-8.533-.533-14.23-5.229-17.964-12.336-3.584-6.822-4.274-14.371-4.323-21.972,0-.884.027-1.937,1.115-1.94,1.16,0,1.372,1.119,1.379,2.063a54.746,54.746,0,0,0,1.6,14.668c2.3,8.146,6.6,14.484,15.3,16.774a19.58,19.58,0,0,0,2.977.317c.992.1,2.555-.457,2.533,1.145C6690.014,9084.964,6688.325,9084.271,6687.421,9084.55Z"/><path class="d" d="M6362.695,8857.139l1.536-18.9s8.405-4.351,21.658,0c0,0,.415,19.5-.591,19.5S6362.695,8857.139,6362.695,8857.139Z"/></g></svg>