<svg xmlns="http://www.w3.org/2000/svg" width="15.937" height="20" viewBox="0 0 15.937 20"><defs><style>.a123{fill:#e8c169;}</style></defs><g transform="translate(-9198.568 -4532.5)"><path class="a123" d="M9212.161,4539.844h-1.407v-3.212a4.22,4.22,0,0,0-8.437,0v3.212h-1.405a2.345,2.345,0,0,0-2.343,2.344v7.968a2.346,2.346,0,0,0,2.343,2.344h11.25a2.346,2.346,0,0,0,2.344-2.344v-7.968A2.346,2.346,0,0,0,9212.161,4539.844Zm-8.282-3.212a2.658,2.658,0,0,1,5.313,0v3.212h-5.312v-3.212Zm9.064,13.524a.784.784,0,0,1-.782.782h-11.25a.783.783,0,0,1-.781-.782v-7.968a.783.783,0,0,1,.781-.782h11.25a.784.784,0,0,1,.782.782Z"/><path class="a123" d="M9206.536,4543.672a1.445,1.445,0,0,0-.782,2.66v1.715a.781.781,0,0,0,1.563,0v-1.713a1.445,1.445,0,0,0-.78-2.662Z"/></g></svg>