<svg xmlns="http://www.w3.org/2000/svg" width="8.667" height="10.876" viewBox="0 0 8.667 10.876"><defs><style>.a512{fill:#fff;}.b512{fill:#f4b34a;}</style></defs><g transform="translate(-1901.897 -28.377)"><path class="a512" d="M1904.785,30.624a1.445,1.445,0,0,1,2.889,0V32.37h-2.889V30.624Z"/><rect class="a512" width="6.967" height="5.183" rx="0.425" transform="translate(1902.747 33.22)"/><path class="b512" d="M1909.289,32.37h-.765V30.624a2.294,2.294,0,0,0-4.588,0V32.37h-.764a1.277,1.277,0,0,0-1.275,1.275v4.333a1.277,1.277,0,0,0,1.275,1.275h6.117a1.277,1.277,0,0,0,1.275-1.275V33.645A1.277,1.277,0,0,0,1909.289,32.37Zm-4.5-1.746a1.445,1.445,0,0,1,2.889,0V32.37h-2.889V30.624Zm4.929,7.354a.425.425,0,0,1-.425.425h-6.117a.425.425,0,0,1-.425-.425V33.645a.425.425,0,0,1,.425-.425h6.117a.425.425,0,0,1,.425.425Z"/><path class="b512" d="M1906.231,34.452a.786.786,0,0,0-.426,1.447v.932a.425.425,0,1,0,.85,0V35.9a.787.787,0,0,0-.424-1.448Z"/></g></svg>