<svg xmlns="http://www.w3.org/2000/svg" viewBox="0 0 41.45 33.16"><defs><style>.cls-1{fill:#fff;}</style></defs><title>microsite</title><g id="Layer_2" data-name="Layer 2"><g id="Layer_1-2" data-name="Layer 1"><path class="cls-1" d="M23.56,6.24H27.9A3.05,3.05,0,0,1,31,8.67a3.29,3.29,0,0,1,.1.82c0,1.57,0,3.14,0,4.71,0,.26-.07.33-.33.33-.82,0-1.64,0-2.45,0-.29,0-.34-.1-.34-.36,0-1.48,0-3,0-4.44,0-.29-.06-.39-.38-.39-2.87,0-5.74,0-8.61,0-.3,0-.37-.08-.36-.37,0-.81,0-1.63,0-2.45,0-.25.07-.31.32-.31Z"/><path class="cls-1" d="M17.88,26.94H13.64a3.15,3.15,0,0,1-3.28-3.23c0-1.59,0-3.18,0-4.77,0-.23.06-.3.3-.3.84,0,1.67,0,2.51,0,.25,0,.32.08.32.32,0,1.53,0,3.05,0,4.57,0,.26.06.34.33.34l8.64,0c.29,0,.38.08.37.37,0,.78,0,1.57,0,2.35,0,.28-.06.38-.36.38C20.93,26.93,19.4,26.94,17.88,26.94Z"/><path class="cls-1" d="M41.44,19.75a3.1,3.1,0,0,0-3.18-3.16c-3.4,0-6.81,0-10.21,0a3.1,3.1,0,0,0-3.18,3.16c0,3.42,0,6.83,0,10.25a3.07,3.07,0,0,0,.33,1.43,3.11,3.11,0,0,0,2.92,1.73c1.68,0,3.36,0,5,0s3.4,0,5.1,0A3.11,3.11,0,0,0,41.44,30Q41.46,24.88,41.44,19.75ZM38,30.06H28.29c-.24,0-.31-.06-.31-.31,0-1.63,0-3.25,0-4.87s0-3.23,0-4.84c0-.29.08-.34.35-.34q4.83,0,9.68,0c.25,0,.33.06.33.32q0,4.86,0,9.71C38.34,30,38.25,30.06,38,30.06Z"/><path class="cls-1" d="M16.58,3.22A3.09,3.09,0,0,0,14,.07c-.11,0-.23,0-.34-.06H3.2C3,0,2.8.12,2.58.07A3.09,3.09,0,0,0,0,3.22Q0,8.31,0,13.39a3.09,3.09,0,0,0,3.18,3.19c3.4,0,6.8,0,10.21,0a3.11,3.11,0,0,0,3.18-3.19Q16.6,8.31,16.58,3.22ZM13.14,13.48H3.43c-.25,0-.32-.06-.32-.31,0-1.62,0-3.25,0-4.87s0-3.2,0-4.81c0-.27.05-.37.36-.37h9.67c.26,0,.34.06.34.33,0,3.24,0,6.47,0,9.71C13.48,13.43,13.39,13.48,13.14,13.48Z"/><path class="cls-1" d="M35.22,24.91c0,.59,0,1.19,0,1.78,0,.19-.06.25-.25.25-1.21,0-2.42,0-3.64,0-.18,0-.24-.06-.24-.25V23.05c0-.18.06-.24.24-.24H35c.18,0,.24.06.24.24C35.21,23.67,35.22,24.29,35.22,24.91Z"/><path class="cls-1" d="M8.27,10.36H6.51c-.2,0-.29,0-.29-.27,0-1.21,0-2.41,0-3.61,0-.21.08-.26.27-.26H10.1c.21,0,.26.08.26.27,0,1.2,0,2.41,0,3.61,0,.21-.08.26-.27.26Z"/></g></g></svg>