<svg xmlns="http://www.w3.org/2000/svg" viewBox="0 0 18 18">
<g id="Layer_2" data-name="Layer 2"><g id="Layer_1-2" data-name="Layer 1"><path class="cls-30" d="M13.19,7.91a.44.44,0,0,0-.56-.24.43.43,0,0,0-.23.56,4.72,4.72,0,0,1,.32,1.71A4.67,4.67,0,1,1,8.06,5.28a4.72,4.72,0,0,1,1.71.32.43.43,0,0,0,.56-.23.44.44,0,0,0-.24-.56,5.62,5.62,0,0,0-2-.38,5.51,5.51,0,1,0,5.51,5.51A5.62,5.62,0,0,0,13.19,7.91Z"/><path class="cls-30" d="M15.8,7.72A.42.42,0,0,0,15,8a7.4,7.4,0,0,1,.27,2,7.21,7.21,0,1,1-7.2-7.21,7.47,7.47,0,0,1,2,.28.41.41,0,0,0,.52-.29.42.42,0,0,0-.29-.53,8.32,8.32,0,0,0-2.22-.31,8.06,8.06,0,1,0,8,8.06A7.94,7.94,0,0,0,15.8,7.72Z"/><path class="cls-30" d="M11,9.68a.42.42,0,0,0-.84.08c0,.06,0,.12,0,.18A2.12,2.12,0,1,1,8.06,7.82h.19A.43.43,0,0,0,8.33,7H8.06a3,3,0,1,0,3,3A2.28,2.28,0,0,0,11,9.68Z"/><path class="cls-30" d="M17.94,2.86a.86.86,0,0,0-.79-.53H15.67V.85a.85.85,0,0,0-.52-.78.84.84,0,0,0-.93.18L11.75,2.72a1.27,1.27,0,0,0-.38.9V6L7.92,9.48a.43.43,0,0,0,0,.6.44.44,0,0,0,.6,0L12,6.63h2.41a1.26,1.26,0,0,0,.9-.37l2.47-2.48A.83.83,0,0,0,17.94,2.86Zm-5.72.76a.43.43,0,0,1,.13-.3L14.82.85V2.58l-2.6,2.6V3.62Zm2.46,2a.43.43,0,0,1-.3.13H12.82l2.6-2.6h1.73Z"/></g></g></svg>