<svg xmlns="http://www.w3.org/2000/svg" xmlns:xlink="http://www.w3.org/1999/xlink" width="471.763" height="80.64" viewBox="0 0 471.763 80.64"><defs><style>.a{fill:none;stroke:#707070;stroke-miterlimit:10;stroke-width:3px;}.b{fill:url(#a);}</style><linearGradient id="a" y1="0.5" x2="1" y2="0.5" gradientUnits="objectBoundingBox"><stop offset="0" stop-color="#009cb7"/><stop offset="0.83" stop-color="#0082b7"/><stop offset="1" stop-color="#007db7"/></linearGradient></defs><g transform="translate(-8937.414 -2083.075)"><line class="a" x2="363.624" transform="translate(8987.851 2154.747)"/><circle class="b" cx="4.596" cy="4.596" r="4.596" transform="translate(9357.985 2150.619)"/><circle class="b" cx="6.5" cy="6.5" r="6.5" transform="translate(9373.177 2148.715)"/><circle class="b" cx="8.5" cy="8.5" r="8.5" transform="translate(9392.177 2146.715)"/><path class="b" d="M9206.31,2083.075H8945.7a8.29,8.29,0,0,0-8.281,8.281v36.466a8.289,8.289,0,0,0,8.281,8.281h5.479c2.558,6.576,9.863,15.344,30.2,18.875,0,0-9.742-9.742-10.229-18.875h235.284a8.289,8.289,0,0,0,8.281-8.281v-36.588A8.453,8.453,0,0,0,9206.31,2083.075Z"/></g></svg>