<?xml version="1.0" encoding="utf-8"?>
<!-- Generator: Adobe Illustrator 23.1.0, SVG Export Plug-In . SVG Version: 6.00 Build 0)  -->
<svg version="1.1" xmlns="http://www.w3.org/2000/svg" xmlns:xlink="http://www.w3.org/1999/xlink" x="0px" y="0px"
	 viewBox="0 0 91 66" style="enable-background:new 0 0 91 66;" xml:space="preserve">
<style type="text/css">
	.st0{fill:#EDEFF3;}
	.st1{fill:#FAFAFC;}
	.st2{fill:#F7F8FA;stroke:#E1E2E5;stroke-miterlimit:10;}
	.st3{fill:#007DB8;}
	.st4{fill:#FFFFFF;}
	.st5{fill:#202628;}
	.st6{fill:#131516;}
	.st7{opacity:0.7;}
	.st8{opacity:0.1;fill:none;stroke:#FFFFFF;stroke-miterlimit:10;}
	.st9{fill:#E7ECED;}
	.st10{fill:#777777;}
	.st11{fill:#9FA2A7;}
	.st12{fill:none;stroke:#DDDDDD;stroke-width:0.5;stroke-miterlimit:10;}
	.st13{fill:none;stroke:#DDDDDD;stroke-width:0.5;stroke-miterlimit:10;stroke-dasharray:2.9977,4.9962;}
	.st14{fill:none;stroke:#DDDDDD;stroke-width:0.5;stroke-miterlimit:10;stroke-dasharray:3,5;}
	.st15{opacity:0.58;fill:url(#SVGID_1_);}
	.st16{fill:none;stroke:url(#SVGID_2_);stroke-width:1.5;stroke-linecap:round;stroke-miterlimit:10;}
	.st17{opacity:0.2;}
	.st18{fill:#0093B8;}
	.st19{fill:none;stroke:#0093B8;stroke-miterlimit:10;}
	.st20{fill:#FFFFFF;stroke:#0093B8;stroke-miterlimit:10;}
	.st21{opacity:0.15;fill:#42AEAF;}
	.st22{fill:#42AEAF;}
	.st23{opacity:0.15;fill:#00447C;}
	.st24{fill:#00447C;}
	.st25{opacity:0.15;fill:#F63B55;}
	.st26{fill:#F63B55;}
	.st27{fill:#F4BF3B;}
	.st28{fill:#6FAD28;}
	.st29{opacity:0.2;fill:#F9F9F9;}
	.st30{fill:#F9F9F9;stroke:#E1E2E5;stroke-miterlimit:10;}
	.st31{fill:#C1D82F;fill-opacity:0.15;stroke:#C1D82F;stroke-miterlimit:10;}
	.st32{fill:#42AEAF;fill-opacity:0.15;stroke:#42AEAF;stroke-miterlimit:10;}
	.st33{fill:#6E2585;fill-opacity:0.15;stroke:#6E2585;stroke-miterlimit:10;}
	.st34{opacity:0.15;fill:#C1D82F;}
	.st35{opacity:0.15;fill:#EE6411;}
	.st36{fill:#C1D82F;}
	.st37{opacity:0.15;fill:#B7295A;}
	.st38{fill:#B7295A;}
	.st39{opacity:0.15;fill:#D74324;}
	.st40{fill:#D74324;}
	.st41{fill:#EE6411;}
	.st42{opacity:0.15;}
	.st43{opacity:0.15;fill:#6E2585;}
	.st44{fill:#6E2585;}
	.st45{opacity:0.15;fill:#007DB8;}
	.st46{opacity:0.15;fill:#6FAD28;}
	.st47{opacity:0.15;fill:#B2B632;}
	.st48{fill:#B2B632;}
	.st49{opacity:0.15;fill:#F4BF3B;}
	.st50{fill:#FFC10E;}
	.st51{opacity:0.15;fill:#F57D48;}
	.st52{fill:#F57D48;}
	.st53{opacity:0.25;fill:#007DB8;}
	.st54{opacity:0.8;}
	.st55{fill:#E2E2E2;stroke:#FFFFFF;stroke-width:0.7;stroke-miterlimit:10;}
	.st56{opacity:0;fill:#E2E2E2;}
	.st57{fill:none;stroke:#FFFFFF;stroke-width:0.7;stroke-miterlimit:10;}
	.st58{fill:#007DB8;fill-opacity:0.4;stroke:#FFFFFF;stroke-miterlimit:10;}
	.st59{fill:none;stroke:#DDDDDD;stroke-width:0.5;stroke-miterlimit:10;stroke-dasharray:3.0097,5.0162;}
	.st60{opacity:0.2;fill:#42AEAF;}
	.st61{opacity:0.2;fill:#C1D82F;}
	.st62{opacity:0.2;fill:#EE6411;}
	.st63{opacity:0.2;fill:#B7295A;}
	.st64{opacity:0.2;fill:#6E2585;}
	.st65{fill:#6FAD28;stroke:#6FAD28;stroke-width:0.5;stroke-miterlimit:10;}
	.st66{fill:#CCE5F1;}
	.st67{fill:#88C2DE;}
	.st68{fill:#6FAD28;fill-opacity:0.2;stroke:#6FAD28;stroke-width:0.5;stroke-miterlimit:10;}
	.st69{fill:#F78FA1;}
	.st70{fill:#7F2030;}
	.st71{opacity:0.2;fill:#6FAD28;}
	.st72{opacity:0.2;fill:#CCE5F1;}
	.st73{opacity:0.2;fill:#88C2DE;}
	.st74{opacity:0.2;fill:#007DB8;}
	.st75{opacity:0.2;fill:#00447C;}
	.st76{opacity:0.2;fill:#F78FA1;}
	.st77{opacity:0.2;fill:#F63B55;}
	.st78{opacity:0.2;fill:#7F2030;}
	.st79{opacity:0.9;fill:#131516;}
	.st80{opacity:0.1;fill:#007DB8;}
	.st81{fill:none;stroke:#EDEEEF;stroke-miterlimit:10;}
	.st82{fill:url(#SVGID_3_);}
	.st83{opacity:0.15;fill:#FFFFFF;}
	.st84{fill:url(#SVGID_4_);}
	.st85{opacity:0.58;fill:url(#SVGID_5_);}
	.st86{fill:none;stroke:url(#SVGID_6_);stroke-width:1.5;stroke-linecap:round;stroke-miterlimit:10;}
	.st87{fill:url(#SVGID_7_);}
	.st88{fill:url(#SVGID_8_);}
	.st89{stroke:#000000;stroke-width:0.5;stroke-miterlimit:10;}
	.st90{fill:url(#SVGID_9_);}
	.st91{fill:url(#SVGID_10_);}
	.st92{fill:url(#SVGID_11_);}
	.st93{fill:url(#SVGID_12_);}
	.st94{fill:url(#SVGID_13_);}
	.st95{fill:url(#SVGID_14_);}
	.st96{fill:url(#SVGID_15_);}
	.st97{fill:url(#SVGID_16_);}
	.st98{fill:#2E3E44;}
	.st99{fill:url(#SVGID_17_);}
	.st100{fill:url(#SVGID_18_);}
	.st101{fill:url(#SVGID_19_);}
	.st102{fill:url(#SVGID_20_);}
	.st103{fill:url(#SVGID_21_);}
	.st104{fill:url(#SVGID_22_);}
	.st105{fill:url(#SVGID_23_);}
	.st106{fill:url(#SVGID_24_);stroke:#007DB8;stroke-miterlimit:10;}
	.st107{fill:url(#SVGID_25_);stroke:#007DB8;stroke-miterlimit:10;}
	.st108{fill:url(#SVGID_26_);stroke:#007DB8;stroke-miterlimit:10;}
	.st109{fill:none;stroke:#D3D3D3;stroke-miterlimit:10;}
	.st110{fill:url(#SVGID_27_);}
	.st111{fill:url(#SVGID_28_);stroke:#007DB8;stroke-miterlimit:10;}
	.st112{fill:url(#SVGID_29_);stroke:#007DB8;stroke-miterlimit:10;}
	.st113{fill:url(#SVGID_30_);}
	.st114{fill:#C6CACC;}
</style>
<g id="Layer_1">
	<g>
		<g>
			<g>
				<linearGradient id="SVGID_1_" gradientUnits="userSpaceOnUse" x1="46.2713" y1="47.0306" x2="19.537" y2="19.1791">
					<stop  offset="0" style="stop-color:#FFFFFF;stop-opacity:0"/>
					<stop  offset="0.4" style="stop-color:#0087CC"/>
					<stop  offset="1" style="stop-color:#202628"/>
				</linearGradient>
				<path style="fill:url(#SVGID_1_);" d="M33.5,56.9c-0.9,0.7-1.9,1.3-2.9,1.9c-1,0.6-2.1,1.1-3.1,1.5c-1.1,0.5-2.2,0.8-3.3,1.1
					c-1.1,0.3-2.3,0.5-3.4,0.5c-1.2,0-2.4-0.1-3.5-0.4c-1.2-0.3-2.3-0.8-3.4-1.5c-2.2-1.4-3.8-3.9-4.7-6.6c-0.4-1.4-0.7-2.8-0.8-4.2
					c-0.1-1.4-0.1-2.8,0-4.2c0-0.7,0.1-1.4,0.2-2.1c0.1-0.7,0.2-1.4,0.4-2c0.1-0.7,0.3-1.3,0.5-2c0.2-0.6,0.4-1.3,0.6-1.9
					c1.6-5.1,4.1-9.8,7-13.9c1.5-2.1,3-4,4.7-5.9c1.7-1.8,3.5-3.5,5.4-5.1c1.9-1.5,3.9-2.9,6-4.1c1-0.6,2.1-1.1,3.2-1.6
					c1.1-0.5,2.2-0.9,3.3-1.2c2.3-0.6,4.6-1,7-0.8c1.2,0.1,2.4,0.4,3.5,0.8c1.1,0.5,2.2,1.1,3.2,2c1,0.9,1.8,1.9,2.4,3.1
					c0.6,1.2,1.1,2.5,1.3,3.8c0.3,1.3,0.4,2.7,0.3,4c0,1.3-0.2,2.6-0.4,3.9c0.1-1.3,0.1-2.6-0.1-3.9c-0.1-1.3-0.3-2.5-0.7-3.7
					c-0.7-2.4-2-4.4-3.8-5.7c-1.7-1.3-3.8-1.8-5.9-1.8c-1,0-2.1,0.1-3.1,0.3c-1,0.2-2.1,0.5-3.1,0.9c-2,0.7-4,1.7-5.9,2.9
					c-1,0.6-1.9,1.2-2.8,1.9c-0.9,0.7-1.8,1.4-2.7,2.1c-1.7,1.5-3.4,3.1-5,4.9c-1.6,1.7-3,3.6-4.4,5.5c-1.4,1.9-2.6,4-3.8,6.1
					l-0.4,0.8L15,33.2c-0.3,0.5-0.5,1.1-0.8,1.7c-0.5,1.1-0.9,2.2-1.3,3.4c-0.2,0.6-0.4,1.2-0.6,1.7c-0.2,0.6-0.3,1.2-0.5,1.8
					c-0.2,0.6-0.3,1.2-0.4,1.8c-0.1,0.6-0.2,1.2-0.3,1.8c-0.3,2.4-0.3,4.8,0.3,7.1c0.6,2.2,1.7,4.2,3.4,5.5c1.6,1.3,3.7,2,5.8,2.1
					c2.1,0.2,4.3-0.2,6.5-0.7c1.1-0.3,2.1-0.7,3.2-1.1C31.4,57.8,32.5,57.4,33.5,56.9z"/>
			</g>
			<g>
				<linearGradient id="SVGID_2_" gradientUnits="userSpaceOnUse" x1="5.2866" y1="23.953" x2="60.629" y2="42.1193">
					<stop  offset="0" style="stop-color:#202628"/>
					<stop  offset="0.6" style="stop-color:#007DB8"/>
					<stop  offset="1" style="stop-color:#FFFFFF;stop-opacity:0"/>
				</linearGradient>
				<path style="fill:url(#SVGID_2_);" d="M54,57.5c-0.7,1-1.7,1.9-2.7,2.5c-1,0.6-2.2,1.1-3.3,1.3c-1.2,0.3-2.3,0.4-3.5,0.3
					c-1.2,0-2.4-0.2-3.5-0.4c-2.3-0.5-4.6-1.4-6.7-2.5C32,57.8,30,56.4,28,54.9c-2-1.5-3.8-3.2-5.6-5c-1.8-1.8-3.4-3.8-4.9-5.9
					c-1.5-2.1-2.9-4.3-4.2-6.7c-0.6-1.2-1.2-2.4-1.7-3.6c-0.5-1.2-1-2.5-1.5-3.8c-0.9-2.6-1.5-5.3-1.8-8.2c-0.1-1.4-0.2-2.9-0.1-4.3
					C8.3,15.9,8.5,14.5,9,13c0.4-1.4,1.1-2.8,1.9-4c0.8-1.2,1.9-2.2,3-3c1.1-0.8,2.4-1.3,3.6-1.6c1.2-0.3,2.5-0.4,3.7-0.4
					c1.2,0,2.4,0.2,3.6,0.5c1.2,0.3,2.3,0.7,3.4,1.1c1.1,0.5,2.2,1,3.3,1.6C32,7.6,32.5,8,33,8.3c0.5,0.3,1,0.7,1.5,1
					c4,2.8,7.5,6.4,10.5,10.5c-3.5-3.5-7.2-6.6-11.2-8.9c-0.5-0.3-1-0.6-1.5-0.8c-0.5-0.2-1-0.5-1.5-0.7c-1-0.5-2.1-0.9-3.1-1.2
					c-2.1-0.7-4.3-1.1-6.4-1.1C19,7.1,17,7.7,15.3,8.9c-0.8,0.6-1.5,1.4-2.1,2.3c-0.6,0.9-1,1.9-1.3,3c-0.6,2.2-0.7,4.7-0.4,7.1
					c0.3,2.5,0.9,4.9,1.7,7.3c1.6,4.7,4,9.2,6.7,13.2c2.8,4,6,7.7,9.6,10.7c1.8,1.5,3.7,2.9,5.6,4.1c2,1.2,4,2.2,6.2,2.9
					c2.1,0.7,4.4,1.1,6.6,0.9c1.1-0.1,2.2-0.4,3.2-0.8C52.1,59.1,53.1,58.4,54,57.5z"/>
			</g>
			<g>
				<g>
					<path class="st98" d="M55.9,41.7c0,1.9-0.2,3.5-0.7,4.9c-0.5,1.4-1.1,2.5-1.9,3.4c-0.8,0.9-1.8,1.6-2.9,2
						c-1.1,0.4-2.2,0.7-3.5,0.7c-1.5,0-2.7-0.2-3.8-0.7c-1.1-0.5-2-1.2-2.7-2.1c-0.7-0.9-1.2-2.1-1.6-3.4c-0.3-1.3-0.5-2.8-0.5-4.5
						c0-1.9,0.2-3.5,0.7-4.9c0.5-1.4,1.1-2.5,1.9-3.4c0.8-0.9,1.8-1.6,2.9-2c1.1-0.4,2.2-0.7,3.5-0.7c1.5,0,2.7,0.2,3.8,0.7
						c1.1,0.5,2,1.2,2.7,2.1c0.7,0.9,1.3,2.1,1.6,3.4C55.7,38.6,55.9,40.1,55.9,41.7z M52.7,41.9c0-1.2-0.1-2.4-0.3-3.4
						c-0.2-1-0.5-1.9-1-2.7c-0.5-0.7-1-1.3-1.7-1.7c-0.7-0.4-1.6-0.6-2.6-0.6c-1,0-1.8,0.2-2.5,0.7c-0.7,0.4-1.3,1-1.7,1.8
						c-0.5,0.8-0.8,1.6-1,2.6c-0.2,1-0.3,2.1-0.3,3.2c0,1.3,0.1,2.4,0.3,3.4c0.2,1,0.5,1.9,1,2.7c0.4,0.7,1,1.3,1.7,1.7
						c0.7,0.4,1.6,0.6,2.5,0.6c1,0,1.8-0.2,2.5-0.7c0.7-0.4,1.3-1,1.7-1.8c0.5-0.8,0.8-1.6,1-2.6C52.5,44.2,52.7,43.1,52.7,41.9z"/>
					<path class="st98" d="M71.1,52.5H59.1V32.8h11.9v2.3H62v6.1h8.7v2.3H62v6.8h9.1V52.5z"/>
					<path class="st98" d="M88.2,38.8c0,0.8-0.2,1.6-0.5,2.4c-0.3,0.8-0.8,1.5-1.5,2.1c-0.7,0.6-1.5,1.1-2.6,1.5
						c-1,0.4-2.3,0.6-3.8,0.6h-2.6v7h-2.9V32.8h5.9c1,0,2,0.1,3,0.3c1,0.2,1.8,0.6,2.5,1c0.7,0.5,1.3,1.1,1.7,1.9
						C88,36.8,88.2,37.8,88.2,38.8z M85.3,39c0-1.3-0.4-2.2-1.3-2.9c-0.9-0.7-2.1-1-3.7-1h-2.9v8.1H80c1.7,0,3-0.3,3.9-1
						C84.8,41.4,85.3,40.4,85.3,39z"/>
				</g>
			</g>
			<g>
				<linearGradient id="SVGID_3_" gradientUnits="userSpaceOnUse" x1="16.6356" y1="13.897" x2="42.5404" y2="44.9587">
					<stop  offset="0" style="stop-color:#009CB8"/>
					<stop  offset="0.6" style="stop-color:#0087CC"/>
					<stop  offset="1" style="stop-color:#FFFFFF;stop-opacity:0"/>
				</linearGradient>
				<path class="st82" d="M27.2,52c-4.1-0.2-8.3-1.1-12.3-2.9c-2-0.9-3.9-2-5.7-3.5c-0.9-0.7-1.7-1.5-2.5-2.4
					c-0.8-0.9-1.5-1.9-2.1-3c-0.6-1.1-1.1-2.3-1.5-3.7c-0.3-1.3-0.5-2.7-0.4-4.1c0.1-1.4,0.3-2.8,0.7-4c0.4-1.3,1-2.5,1.7-3.6
					c0.7-1.1,1.4-2.1,2.3-3c0.8-0.9,1.7-1.7,2.6-2.4c1.8-1.4,3.8-2.6,5.8-3.5c2-0.9,4.1-1.7,6.2-2.2c2.1-0.5,4.2-0.9,6.3-1.1
					c4.2-0.4,8.5-0.2,12.7,0.7c4.2,0.9,8.3,2.4,12,4.8c0.9,0.6,1.8,1.3,2.7,2c0.9,0.7,1.7,1.5,2.4,2.4c0.8,0.9,1.5,1.8,2.1,2.8
					c0.6,1,1.1,2.1,1.5,3.2c-0.5-1-1.1-2-1.9-2.9c-0.7-0.9-1.5-1.7-2.3-2.4c-1.6-1.4-3.4-2.6-5.3-3.5c-3.7-1.9-7.7-2.9-11.7-3.5
					c-2-0.3-4-0.4-6-0.4c-2,0-4,0.1-6,0.4c-2,0.3-4,0.6-5.9,1.2c-1.9,0.5-3.8,1.2-5.7,2.1c-1.8,0.8-3.6,1.9-5.2,3.1
					c-0.8,0.6-1.6,1.3-2.3,2c-0.7,0.7-1.3,1.5-1.9,2.4c-1.1,1.7-1.9,3.7-2,5.7c-0.2,2,0.3,4.1,1.2,6c0.9,1.9,2.3,3.6,3.8,5
					c1.5,1.4,3.2,2.7,5,3.8C19.2,49.6,23.2,51,27.2,52z"/>
			</g>
		</g>
	</g>
</g>
<g id="Layer_5">
</g>
<g id="Layer_3">
</g>
</svg>
