<svg xmlns="http://www.w3.org/2000/svg" viewBox="0 0 22.29 22.3"><g id="Layer_2" data-name="Layer 2"><g id="Layer_1-2" data-name="Layer 1"><path class="cls-10" d="M22.08,7,17.5,11.38l-.94-1L20,7a.85.85,0,0,0,0-1.19L17,2.63a.8.8,0,0,0-.59-.25.84.84,0,0,0-.6.23L13,5.25,15.4,7.71a.52.52,0,0,1-.55.85L11.4,4.91,15.91.56a.69.69,0,0,1,1,0L22.09,6A.69.69,0,0,1,22.08,7ZM6.53,20.06a.85.85,0,0,1-.6.24.89.89,0,0,1-.6-.26L2.24,16.83a.83.83,0,0,1,0-1.19l1.42,1.48a.51.51,0,0,0,.72,0,.5.5,0,0,0,0-.72L3,14.93l.38-.37L4.8,16a.51.51,0,0,0,.72,0,.52.52,0,0,0,0-.72L4.1,13.86l.38-.37L5.91,15a.52.52,0,0,0,.72,0,.51.51,0,0,0,0-.72L5.22,12.79l.38-.37L7,13.9a.51.51,0,0,0,.72,0,.46.46,0,0,0,.15-.26l-2.64-2.8-5,4.87a.69.69,0,0,0,0,1l5.21,5.4a.68.68,0,0,0,1,0l5-4.79-.94-1ZM15.62,6.79a1.72,1.72,0,1,1,2.42,0A1.72,1.72,0,0,1,15.62,6.79Zm.74-.71a.7.7,0,0,0,1,0,.69.69,0,1,0-1,0Zm2.77,8.77-4.49,4.22-10-10.6L9.14,4.25ZM9.89,7.21a.38.38,0,0,0-.11-.28L9.3,6.41a.39.39,0,0,0-.55,0l-.26.25a.38.38,0,0,0,0,.54L9,7.71a.34.34,0,0,0,.27.12c.1,0,.54-.35.54-.35A.4.4,0,0,0,9.89,7.21ZM16.83,15a.38.38,0,0,0,0-.55L11.23,8.47a.39.39,0,0,0-.54,0l-.27.25a.39.39,0,0,0,0,.55L16,15.2a.34.34,0,0,0,.27.12.37.37,0,0,0,.28-.1ZM4.2,8,8.68,3.77,7.53,2.54,3.05,6.76ZM1.05,4.64a1.31,1.31,0,0,1-.37-.95,1.39,1.39,0,0,1,.42-.93L3.64.36A1.34,1.34,0,0,1,5.53.42L7.1,2.09,2.62,6.31Zm.8-.92.82.88L5.39,2l-.83-.88ZM21.4,20.88a.64.64,0,0,1-.18.68.65.65,0,0,1-.69.14l-5.32-2,4.48-4.22ZM20,19.06l-.67-2.14L16.7,19.38l2.1.79Z"/></g></g></svg>