<svg xmlns="http://www.w3.org/2000/svg" width="63.121" height="63.131" viewBox="0 0 63.121 63.131">
    <defs>
        <style>
            .cls-1{fill:#9fa2a7}
        </style>
    </defs>
    <g id="Group_1271" data-name="Group 1271" transform="translate(2328.159 340.131)">
        <path id="Path_688" d="M-2328.159-277.874v-46.97c.023-.033.061-.063.067-.1a6.16 6.16 0 0 1 4.732-5.172.862.862 0 0 0 .475-.522 6.072 6.072 0 0 1 4.149-4.269.8.8 0 0 0 .618-.649 5.922 5.922 0 0 1 1.568-2.742 6.82 6.82 0 0 1 3.678-1.834h32.177a.644.644 0 0 0 .164.078 6.012 6.012 0 0 1 5.079 4.5.719.719 0 0 0 .627.55 5.7 5.7 0 0 1 4.162 3.506 2.7 2.7 0 0 0 1.73 1.737 5.939 5.939 0 0 1 3.893 6.04v44.984c0 1.339-.388 1.728-1.724 1.728q-29.825 0-59.65.011a1.758 1.758 0 0 1-1.745-.876zm60.655-1.625v-.554-43.753a3.732 3.732 0 0 0-4.015-3.995h-50.162a3.725 3.725 0 0 0-4.006 4.06V-279.502zm-5.347-50.8a.714.714 0 0 0-.023-.188 2.989 2.989 0 0 0-.189-.386 3.79 3.79 0 0 0-3.507-1.871q-15.463.015-30.928.005c-3.121 0-6.243-.007-9.364.008a3.5 3.5 0 0 0-3.479 2.432zm-5.1-4.924a3.627 3.627 0 0 0-3.672-2.446h-29.085c-.575 0-1.152-.017-1.725.018a3.42 3.42 0 0 0-3.143 2.427z" class="cls-1" data-name="Path 688"/>
        <path id="Path_689" d="M-2282.359-315.475h10.657a4.1 4.1 0 0 1 .675.029 1.23 1.23 0 0 1 1.057 1.244 1.234 1.234 0 0 1-1.072 1.167 3.509 3.509 0 0 1-.553.023h-21.437a4.22 4.22 0 0 1-.857-.055 1.214 1.214 0 0 1-.974-1.187 1.219 1.219 0 0 1 .989-1.176 3.673 3.673 0 0 1 .735-.047l10.78.002z" class="cls-1" data-name="Path 689"/>
        <path id="Path_690" d="M-2282.44-317.94h-8.253a4.045 4.045 0 0 1-.614-.024 1.243 1.243 0 0 1-1.09-1.219 1.245 1.245 0 0 1 1.112-1.2 3.911 3.911 0 0 1 .553-.019h16.628a3.694 3.694 0 0 1 .614.028 1.234 1.234 0 0 1 1.054 1.185 1.229 1.229 0 0 1-1.016 1.216 3.6 3.6 0 0 1-.674.037l-8.314-.004z" class="cls-1" data-name="Path 690"/>
        <path id="Path_691" d="M-2279.988-301.667h-8.373a2.622 2.622 0 0 1-.668-.07 1.222 1.222 0 0 1-.906-1.18 1.223 1.223 0 0 1 .938-1.155 2.877 2.877 0 0 1 .67-.056h16.622c1.116 0 1.713.423 1.728 1.221s-.6 1.244-1.7 1.244z" class="cls-1" data-name="Path 691"/>
        <path id="Path_692" d="M-2284.931-286.873h-8.188a4.654 4.654 0 0 1-.614-.017 1.251 1.251 0 0 1-1.134-1.243 1.256 1.256 0 0 1 1.125-1.191 4.248 4.248 0 0 1 .553-.017h16.621a3.78 3.78 0 0 1 .553.02 1.249 1.249 0 0 1 1.1 1.208 1.246 1.246 0 0 1-1.1 1.214 4.182 4.182 0 0 1-.614.022z" class="cls-1" data-name="Path 692"/>
        <path id="Path_693" d="M-2284.825-294.273h8.134a4.624 4.624 0 0 1 .677.024 1.248 1.248 0 0 1 1.1 1.211 1.248 1.248 0 0 1-1.1 1.21 4.2 4.2 0 0 1-.615.022h-16.639c-1-.005-1.595-.466-1.595-1.232s.6-1.232 1.595-1.232h8.443z" class="cls-1" data-name="Path 693"/>
        <path id="Path_694" d="M-2290.341-296.735h-2.765c-.922 0-1.519-.495-1.511-1.248.008-.732.579-1.211 1.478-1.214q2.828-.01 5.654 0c.893 0 1.466.485 1.482 1.217.016.747-.581 1.242-1.511 1.246s-1.886-.001-2.827-.001z" class="cls-1" data-name="Path 694"/>
        <path id="Path_695" d="M-2274.3-296.736c-.945 0-1.89.008-2.834 0-.886-.009-1.466-.519-1.451-1.251a1.281 1.281 0 0 1 1.43-1.209q2.865-.017 5.73 0c.887 0 1.465.522 1.45 1.253s-.589 1.2-1.491 1.211c-.95.002-1.895-.004-2.834-.004z" class="cls-1" data-name="Path 695"/>
        <path id="Path_696" d="M-2282.295-299.192a1.269 1.269 0 0 1 1.22 1.228 1.268 1.268 0 0 1-1.229 1.218 1.267 1.267 0 0 1-1.217-1.23 1.256 1.256 0 0 1 1.226-1.216z" class="cls-1" data-name="Path 696"/>
        <path id="Path_697" d="M-2271.213-291.814a1.267 1.267 0 0 1-1.213-1.233 1.265 1.265 0 0 1 1.233-1.213 1.266 1.266 0 0 1 1.213 1.233 1.267 1.267 0 0 1-1.233 1.213z" class="cls-1" data-name="Path 697"/>
        <path id="Path_698" d="M-2302.624-290.917a3.063 3.063 0 0 1-3.06-3.06 3.051 3.051 0 0 1 .2-1.08h-5.151a3.034 3.034 0 0 1 .2 1.08 3.063 3.063 0 0 1-3.06 3.06 3.063 3.063 0 0 1-3.06-3.06 3.042 3.042 0 0 1 .244-1.192 3.1 3.1 0 0 1-2.279-2.983v-14.732l-3.114-1.314a.982.982 0 0 1-.533-.539.981.981 0 0 1 0-.758.987.987 0 0 1 .912-.607 1 1 0 0 1 .385.078l3.731 1.57.075.034.047.024.011.011.056.037.012.012.025.02a.426.426 0 0 1 .069.06l-.2.233.218-.218.067.067.017.027a.383.383 0 0 1 .031.046l.016.026.014.02.024.025.016.045a.46.46 0 0 1 .036.081l.016.048v.006l.02.061v.026l.012.038v.032a.363.363 0 0 1 .008.042.709.709 0 0 1 .007.113v2.125l16.871 2.328h.04l.023.009h.02l.031.008a.405.405 0 0 1 .1.026.407.407 0 0 1 .06.024l.121.06.016.014.024.015a.29.29 0 0 1 .038.024.366.366 0 0 1 .035.024l.012.007.048.048a.343.343 0 0 1 .06.064l.021.026.01.012a.351.351 0 0 1 .047.062.423.423 0 0 1 .024.039.423.423 0 0 1 .023.038v.012a.449.449 0 0 1 .027.047l.009.019.006.019a.236.236 0 0 1 .023.059l.011.031.009.03.019.039v.068a.368.368 0 0 1 .012.1v5.756a3.1 3.1 0 0 1-3.095 3.1h-13.533a3.121 3.121 0 0 1-1.115-.2v1.361a1.116 1.116 0 0 0 1.115 1.115h12.876a3.064 3.064 0 0 1 3.06 3.06 3.063 3.063 0 0 1-3.06 3.052zm.005-4.145a1.081 1.081 0 0 0-1.08 1.08 1.081 1.081 0 0 0 1.08 1.081 1.082 1.082 0 0 0 1.081-1.081 1.081 1.081 0 0 0-1.081-1.08zm-10.876 0a1.081 1.081 0 0 0-1.081 1.08 1.082 1.082 0 0 0 1.081 1.081 1.081 1.081 0 0 0 1.08-1.081 1.081 1.081 0 0 0-1.085-1.08zm-3.12-7.342a1.117 1.117 0 0 0 1.115 1.116h13.538a1.119 1.119 0 0 0 1.115-1.121v-4.836l-15.768-2.173z" class="cls-1" data-name="Path 698"/>
    </g>
</svg>
