<svg xmlns="http://www.w3.org/2000/svg" width="60.032" height="61" viewBox="0 0 60.032 61">
    <defs>
        <style>
            .cls-1{fill:#9fa2a7}
        </style>
    </defs>
    <g id="Group_1288" data-name="Group 1288" transform="translate(1720.614 360.066)">
        <g id="Group_1287" data-name="Group 1287">
            <path id="Path_702" d="M-1663.487-304.875a2.909 2.909 0 0 0-2.9 2.9 2.908 2.908 0 0 0 2.9 2.9 2.908 2.908 0 0 0 2.905-2.9 2.909 2.909 0 0 0-2.905-2.9zm0 3.873a.969.969 0 0 1-.968-.968.97.97 0 0 1 .968-.969.97.97 0 0 1 .968.969.969.969 0 0 1-.968.968zm0 0" class="cls-1" data-name="Path 702"/>
        </g>
        <path id="Path_703" d="M-1714.805-357.161a2.908 2.908 0 0 0-2.9-2.9 2.909 2.909 0 0 0-2.905 2.9 2.908 2.908 0 0 0 2.905 2.9 2.908 2.908 0 0 0 2.9-2.9zm-3.873 0a.97.97 0 0 1 .969-.968.97.97 0 0 1 .968.968.97.97 0 0 1-.968.969.97.97 0 0 1-.969-.969zm0 0" class="cls-1" data-name="Path 703"/>
        <path id="Path_704" d="M-1668.6-321.7l-1.913-3.824a21.46 21.46 0 0 0 1.039-2.483l4.048-1.349v-11.08l-4.048-1.349a21.269 21.269 0 0 0-1.039-2.483l1.915-3.828-7.834-7.833-3.828 1.914a21.289 21.289 0 0 0-2.483-1.039l-1.349-4.048h-11.08l-1.349 4.048a21.289 21.289 0 0 0-2.479 1.044l-3.828-1.914-7.833 7.833 1.914 3.828a21.269 21.269 0 0 0-1.039 2.483l-4.048 1.349v11.079l4.048 1.349a21.435 21.435 0 0 0 1.028 2.463l-1.245 2.268h-5.768v19.365h6.778v-2.9h7.345l2.905 2.9h5.242v.968a3.877 3.877 0 0 0 3.873 3.873 3.877 3.877 0 0 0 3.873-3.873v-.968h6.779a2.909 2.909 0 0 0 2.905-2.9 2.889 2.889 0 0 0-.755-1.936 2.885 2.885 0 0 0 .755-1.937 2.889 2.889 0 0 0-.755-1.936 2.885 2.885 0 0 0 .71-1.494zm-38.208-4.275a19.49 19.49 0 0 1-1.292-3.089l-.149-.471-3.653-1.218v-8.287l3.653-1.217.148-.472a19.327 19.327 0 0 1 1.292-3.088l.228-.439-1.729-3.457 5.86-5.86 3.457 1.729.439-.228a19.363 19.363 0 0 1 3.088-1.292l.472-.148 1.219-3.654h8.287l1.217 3.653.472.148a19.323 19.323 0 0 1 3.088 1.292l.439.228 3.458-1.729 5.859 5.86-1.729 3.457.228.439a19.364 19.364 0 0 1 1.292 3.088l.148.472 3.654 1.219v8.287l-3.653 1.217-.149.471a19.49 19.49 0 0 1-1.292 3.089l-.228.439 1.731 3.46-5.722 5.766a2.551 2.551 0 0 0-.155-.189 2.885 2.885 0 0 0 .755-1.937 2.9 2.9 0 0 0-2.638-2.877 17.325 17.325 0 0 0 6.51-13.583 17.448 17.448 0 0 0-17.429-17.428 17.448 17.448 0 0 0-17.429 17.428 17.438 17.438 0 0 0 6.483 13.556h-8.282l2.291-4.175zm28.8 15.285a.97.97 0 0 1-.968.969h-7.747a.97.97 0 0 1-.968-.969.969.969 0 0 1 .968-.968h7.747a.969.969 0 0 1 .968.968zm-13.957-24.206h4.674l1.536-1.536v-4.268a1.938 1.938 0 0 1 1.937 1.936v4.44l-3.306 3.306h-5.008l-3.3-3.306v-4.44a1.938 1.938 0 0 1 1.936-1.936v4.273zm.4 5.81h3.873v3.873h-3.873zm5.809-.568l3.873-3.873v-5.242a3.877 3.877 0 0 0-3.873-3.873h-1.936v5.409l-.4.4h-3.072l-.4-.4v-5.409h-1.937a3.877 3.877 0 0 0-3.873 3.873v5.242l3.873 3.873v4.441h-2.337l-.061.061a11.621 11.621 0 0 1-5.348-9.744 11.632 11.632 0 0 1 11.619-11.619 11.632 11.632 0 0 1 11.619 11.619 11.551 11.551 0 0 1-5.242 9.683h-2.5zm-11.554 5.911l-1.394 1.4a15.5 15.5 0 0 1-6.417-12.548 15.51 15.51 0 0 1 15.492-15.492 15.51 15.51 0 0 1 15.492 15.492 15.4 15.4 0 0 1-5.856 12.127 2.881 2.881 0 0 0-.964-1.723 13.465 13.465 0 0 0 4.884-10.4 13.57 13.57 0 0 0-13.556-13.555 13.57 13.57 0 0 0-13.556 13.555 13.566 13.566 0 0 0 5.875 11.153m18.333 4.339a.969.969 0 0 1 .968.968.97.97 0 0 1-.968.969h-7.747a.97.97 0 0 1-.968-.969.969.969 0 0 1 .968-.968zm-7.747 5.81a.97.97 0 0 1-.968-.969.969.969 0 0 1 .968-.968h7.747a.969.969 0 0 1 .968.968.97.97 0 0 1-.968.969zm-24.207 7.746h-2.9v-15.492h2.9zm12.989 0l-2.905-2.9h-8.147V-319.4h10.083l3.873-3.873h12.187a.969.969 0 0 1 .968.968.97.97 0 0 1-.968.969h-10.084l-4.156 4.156 1.369 1.369 2.22-2.22v12.187zm8.313 4.841a1.938 1.938 0 0 1-1.936-1.937V-319.4h2.114a2.884 2.884 0 0 0-.178.968 2.885 2.885 0 0 0 .755 1.937 2.88 2.88 0 0 0-.755 1.936 2.885 2.885 0 0 0 .755 1.937 2.88 2.88 0 0 0-.755 1.936 2.885 2.885 0 0 0 .755 1.937 2.88 2.88 0 0 0-.755 1.936 2.9 2.9 0 0 0 1.937 2.727v1.146a1.939 1.939 0 0 1-1.938 1.94zm10.652-4.841h-7.747a.97.97 0 0 1-.968-.969.969.969 0 0 1 .968-.968h7.747a.969.969 0 0 1 .968.968.97.97 0 0 1-.968.969zm0 0" class="cls-1" data-name="Path 704"/>
        <path id="Rectangle_751" d="M0 0h1.937v1.937H0z" class="cls-1" data-name="Rectangle 751" transform="translate(-1718.678 -351.351)"/>
        <path id="Rectangle_752" d="M0 0h1.937v1.937H0z" class="cls-1" data-name="Rectangle 752" transform="translate(-1718.678 -346.51)"/>
        <path id="Rectangle_753" d="M0 0h1.937v1.937H0z" class="cls-1" data-name="Rectangle 753" transform="translate(-1718.678 -341.669)"/>
        <path id="Rectangle_754" d="M0 0h1.937v1.937H0z" class="cls-1" data-name="Rectangle 754" transform="translate(-1664.455 -319.399)"/>
        <path id="Rectangle_755" d="M0 0h1.937v1.937H0z" class="cls-1" data-name="Rectangle 755" transform="translate(-1664.455 -314.558)"/>
        <path id="Rectangle_756" d="M0 0h1.937v1.937H0z" class="cls-1" data-name="Rectangle 756" transform="translate(-1664.455 -309.716)"/>
    </g>
</svg>
