<svg xmlns="http://www.w3.org/2000/svg" width="71.279" height="71.278" viewBox="0 0 71.279 71.278">
    <defs>
        <style>
            .cls-1{fill:#9fa2a7}
        </style>
    </defs>
    <g id="Group_1286" data-name="Group 1286" transform="translate(1728.418 690.344)">
        <g id="Group_1283" data-name="Group 1283">
            <g id="Group_1282" data-name="Group 1282">
                <path id="Path_700" d="M-1658.327-678.465h-28.511a1.188 1.188 0 0 0-1.188 1.188v10.692a1.187 1.187 0 0 0 1.188 1.187 1.192 1.192 0 0 0 .375-.06l1.493-.5a3.089 3.089 0 0 1 3.9 1.974 3.09 3.09 0 0 1-1.975 3.9 3.094 3.094 0 0 1-1.922 0l-1.493-.5a1.188 1.188 0 0 0-1.5.752 1.214 1.214 0 0 0-.061.374v9.5h-9.5a1.188 1.188 0 0 0-1.187 1.189 1.184 1.184 0 0 0 .06.374l.5 1.494a3.088 3.088 0 0 1-1.975 3.9 3.088 3.088 0 0 1-3.9-1.975 3.092 3.092 0 0 1 0-1.921l.5-1.494a1.188 1.188 0 0 0-.752-1.5 1.191 1.191 0 0 0-.374-.061h-10.692a1.188 1.188 0 0 0-1.188 1.188v28.512a1.187 1.187 0 0 0 1.188 1.187h57.023a1.187 1.187 0 0 0 1.188-1.187v-57.024a1.188 1.188 0 0 0-1.197-1.189zm-29.639 47.145a1.2 1.2 0 0 0-.06.375v9.5h-26.136v-26.136h7.856a5.464 5.464 0 0 0 3.568 6.855 5.463 5.463 0 0 0 6.855-3.568 5.454 5.454 0 0 0 0-3.287h7.857v9.5a1.187 1.187 0 0 0 1.188 1.187 1.191 1.191 0 0 0 .375-.061l1.493-.5a3.09 3.09 0 0 1 3.9 1.975 3.089 3.089 0 0 1-1.975 3.9 3.081 3.081 0 0 1-1.922 0l-1.493-.5a1.189 1.189 0 0 0-1.506.76zm28.451 9.879h-26.135v-7.859a5.465 5.465 0 0 0 6.855-3.569 5.465 5.465 0 0 0-3.568-6.855 5.473 5.473 0 0 0-3.288 0v-7.856h9.5a1.187 1.187 0 0 0 1.187-1.189 1.184 1.184 0 0 0-.06-.374l-.5-1.494a3.088 3.088 0 0 1 1.974-3.9 3.089 3.089 0 0 1 3.9 1.975 3.1 3.1 0 0 1 0 1.922l-.5 1.493a1.187 1.187 0 0 0 .752 1.5 1.158 1.158 0 0 0 .374.061h9.5v26.136zm0-28.512h-7.856a5.464 5.464 0 0 0-3.568-6.855 5.464 5.464 0 0 0-6.855 3.568 5.454 5.454 0 0 0 0 3.287h-7.856v-7.856a5.41 5.41 0 0 0 4.857-.776 5.465 5.465 0 0 0 1.276-7.622 5.464 5.464 0 0 0-6.133-2.025v-7.857h26.135z" class="cls-1" data-name="Path 700"/>
            </g>
        </g>
        <g id="Group_1285" data-name="Group 1285">
            <g id="Group_1284" data-name="Group 1284">
                <path id="Path_701" d="M-1694.243-680.112a5.454 5.454 0 0 0-3.287 0v-9.044a1.188 1.188 0 0 0-1.188-1.188h-28.512a1.188 1.188 0 0 0-1.188 1.188v28.511a1.188 1.188 0 0 0 1.188 1.188h9.044a5.465 5.465 0 0 0 3.568 6.855 5.465 5.465 0 0 0 6.856-3.568 5.471 5.471 0 0 0 0-3.287h9.044a1.188 1.188 0 0 0 1.188-1.188v-9.044a5.465 5.465 0 0 0 6.855-3.568 5.465 5.465 0 0 0-3.568-6.855zm-.685 8.147a3.094 3.094 0 0 1-1.922 0l-1.493-.5a1.188 1.188 0 0 0-1.5.752 1.163 1.163 0 0 0-.061.374v9.5h-9.5a1.188 1.188 0 0 0-1.187 1.189 1.169 1.169 0 0 0 .061.375l.5 1.493a3.088 3.088 0 0 1-1.974 3.9 3.089 3.089 0 0 1-3.9-1.975 3.092 3.092 0 0 1 0-1.921l.5-1.494a1.187 1.187 0 0 0-.751-1.5 1.2 1.2 0 0 0-.375-.061h-9.5v-26.135h26.136v9.5a1.188 1.188 0 0 0 1.189 1.188 1.22 1.22 0 0 0 .374-.061l1.493-.5a3.089 3.089 0 0 1 3.9 1.975 3.089 3.089 0 0 1-1.99 3.901z" class="cls-1" data-name="Path 701"/>
            </g>
        </g>
    </g>
</svg>
