<svg xmlns="http://www.w3.org/2000/svg" width="14.863" height="18.455" viewBox="0 0 14.863 18.455">
    <defs>
        <style>
            .cls-1{fill:#9fa2a7}
        </style>
    </defs>
    <path id="filter-button" d="M846.647 165.1a1.349 1.349 0 0 1-.644-.175 1.292 1.292 0 0 1-.711-1.229v-2.709c0-2.2-.006-4.92-.014-5.994a.983.983 0 0 0-.172-.541q-2.4-3.434-4.82-6.858a.57.57 0 0 1-.081-.637.56.56 0 0 1 .575-.312h13.6a.648.648 0 0 1 .506.208.517.517 0 0 1 .106.436.906.906 0 0 1-.173.358q-2.408 3.395-4.828 6.778a1.061 1.061 0 0 0-.207.661c.01 1.054.014 5.063.016 6.818v.573a1.365 1.365 0 0 1-.639 1.2q-.867.588-1.743 1.164a1.4 1.4 0 0 1-.771.259zm-4.361-16.611l.876 1.248q1.586 2.252 3.165 4.507a.4.4 0 0 1 .062.2c.009 1.086.014 3.726.017 5.933l.007 3.754.662-.4.406-.271c.3-.2.593-.4.893-.59a.61.61 0 0 0 .3-.561c-.011-1.341-.016-6.485-.012-7.825a.417.417 0 0 1 .069-.213q1.7-2.409 3.419-4.809l.714-1 .455-.674h-11.513z" class="cls-1" transform="translate(-840.137 -146.642)"/>
</svg>
