<svg xmlns="http://www.w3.org/2000/svg" width="10.825" height="13.668" viewBox="0 0 10.825 13.668"><defs><style>.ab{fill:#ff73d0;}</style></defs><g transform="translate(-198.175 -587.316)"><path class="ab" d="M209,600.984h-9.1c-.113-.01-.226-.017-.338-.033a4.143,4.143,0,0,1-.536-.09,1.12,1.12,0,0,1-.812-1.122c-.027-.472-.033-.945-.034-1.418q0-4.74,0-9.479a1.344,1.344,0,0,1,.019-.285,1.517,1.517,0,0,1,1.086-1.153c.12-.04.247-.059.37-.088h8.529v.813h-8.233a1.929,1.929,0,0,0-.38.032.722.722,0,0,0-.59.633.682.682,0,0,0,.531.662,1.508,1.508,0,0,0,.43.051q4.434,0,8.868,0H209Zm-.792-.812v-9.679c0-.177,0-.177-.179-.177h-8.213a1.034,1.034,0,0,1-.23-.017c-.2-.045-.4-.1-.619-.154v.17q0,1.668,0,3.335c0,1.8,0,3.607.013,5.41,0,.254.037.507.06.76a.31.31,0,0,0,.307.293,6.466,6.466,0,0,0,.721.055q3.969.008,7.939.005Z"/><path class="ab" d="M205.315,595h-.86l-.248-.779h-1.246l-.246.779h-.854l1.274-3.5h.936Zm-1.289-1.385-.375-1.176a1.427,1.427,0,0,1-.059-.315h-.019a1.424,1.424,0,0,1-.062.3l-.381,1.186Z"/><path class="ab" d="M204.756,599.357h-2.82V598.9l1.795-2.405h-1.665v-.642h2.685v.442L203,598.717h1.76Z"/></g></svg>