<svg xmlns="http://www.w3.org/2000/svg" width="10" height="14.176" viewBox="0 0 10 14.176">
    <defs>
        <style>
            .cls-1{fill:#9fa2a7}
        </style>
    </defs>
    <g id="order-recived" transform="translate(-341.318 -278.912)">
        <g id="Group_237" data-name="Group 237">
            <g id="Group_236" data-name="Group 236">
                <path id="Path_125" d="M349.236 283.784H343.4a.293.293 0 0 0 0 .586h5.846a.292.292 0 0 0 .293-.293.3.3 0 0 0-.303-.293z" class="cls-1" data-name="Path 125"/>
                <path id="Path_126" d="M349.236 285.44H343.4a.293.293 0 0 0 0 .586h5.846a.292.292 0 0 0 .293-.293.3.3 0 0 0-.303-.293z" class="cls-1" data-name="Path 126"/>
                <path id="Path_127" d="M349.236 287.1H343.4a.293.293 0 0 0 0 .586h5.846a.292.292 0 0 0 .293-.293.31.31 0 0 0-.303-.293z" class="cls-1" data-name="Path 127"/>
                <path id="Path_128" d="M349.529 289.045a.293.293 0 0 0-.293-.293H343.4a.293.293 0 0 0 0 .586h5.846a.29.29 0 0 0 .283-.293z" class="cls-1" data-name="Path 128"/>
                <path id="Path_129" d="M344.967 290.252a.293.293 0 0 0 0 .586h2.7a.293.293 0 0 0 0-.586z" class="cls-1" data-name="Path 129"/>
                <path id="Path_130" d="M348.221 281.307l.879.879h1.07v9.8h-7.7v-9.8h1.07l.879-.879h-3.1v11.781h10v-11.781z" class="cls-1" data-name="Path 130"/>
                <path id="Path_131" d="M345.068 281.464l-1.093 1.093h4.675l-1.082-1.081a.549.549 0 0 1-.1-.641 1.3 1.3 0 0 0-.992-1.914 1.314 1.314 0 0 0-1.465 1.3 1.348 1.348 0 0 0 .145.609.52.52 0 0 1-.088.634z" class="cls-1" data-name="Path 131"/>
            </g>
        </g>
    </g>
</svg>
