<svg xmlns="http://www.w3.org/2000/svg" viewBox="0 0 26.68 26.68"><defs><style>.cls-1{fill:#007db8;}</style></defs>
<g id="Layer_2" data-name="Layer 2"><g id="Layer_3" data-name="Layer 3"><path class="cls-1" d="M11.06,20.34,7.92,23.48A3.34,3.34,0,0,1,3.2,18.76l6.29-6.28a3.33,3.33,0,0,1,4.72,0,1.12,1.12,0,0,0,1.57,0,1.13,1.13,0,0,0,0-1.58,5.56,5.56,0,0,0-7.86,0L1.63,17.19a5.56,5.56,0,0,0,7.86,7.86l3.14-3.14a1.11,1.11,0,0,0-1.57-1.57Z"/><path class="cls-1" d="M25.05,9.49a5.56,5.56,0,0,0-7.86-7.86L13.42,5.4a1.12,1.12,0,0,0,0,1.57A1.1,1.1,0,0,0,15,7L18.76,3.2a3.34,3.34,0,0,1,4.72,4.72l-6.92,6.91a3.31,3.31,0,0,1-4.71,0,1.11,1.11,0,0,0-1.57,1.58,5.56,5.56,0,0,0,7.86,0Z"/><path class="cls-1" d="M20.8,19.23a1.11,1.11,0,0,0-1.57,1.57l3.33,3.33a1.11,1.11,0,0,0,1.57-1.57Z"/><path class="cls-1" d="M5.89,7.46A1.11,1.11,0,0,0,7.46,5.89L4.12,2.55A1.11,1.11,0,0,0,2.55,4.12Z"/><path class="cls-1" d="M25.57,16.68H22.23a1.11,1.11,0,1,0,0,2.22h3.34a1.11,1.11,0,0,0,0-2.22Z"/><path class="cls-1" d="M8.89,5.56A1.12,1.12,0,0,0,10,4.45V1.11a1.12,1.12,0,0,0-2.23,0V4.45A1.11,1.11,0,0,0,8.89,5.56Z"/><path class="cls-1" d="M1.11,10H4.45a1.12,1.12,0,0,0,0-2.23H1.11a1.12,1.12,0,0,0,0,2.23Z"/><path class="cls-1" d="M17.79,21.12a1.11,1.11,0,0,0-1.11,1.11v3.34a1.11,1.11,0,0,0,2.22,0V22.23A1.11,1.11,0,0,0,17.79,21.12Z"/></g></g></svg>