<svg xmlns="http://www.w3.org/2000/svg" width="16" height="16" viewBox="0 0 16 16">
    <defs>
        <style>
            .cls-1{fill:#6fad28}.cls-2{fill:#fff}
        </style>
    </defs>
    <g id="smiley-20" transform="translate(-91.382 -369.764)">
        <path id="Path_109" d="M99.382 385.764a8 8 0 1 1 8-8 8.008 8.008 0 0 1-8 8zm0-15.325a7.325 7.325 0 1 0 7.325 7.325 7.333 7.333 0 0 0-7.325-7.325z" class="cls-1" data-name="Path 109"/>
        <path id="Path_110" d="M94.352 377.769a5.03 5.03 0 1 0 10.06 0z" class="cls-1" data-name="Path 110"/>
        <path id="Path_111" d="M96.585 379.761a2.8 2.8 0 1 0 5.594 0z" class="cls-2" data-name="Path 111"/>
        <g id="Group_219" data-name="Group 219">
            <circle id="Ellipse_11" cx="1.203" cy="1.203" r="1.203" class="cls-1" data-name="Ellipse 11" transform="translate(95.903 373.918)"/>
            <circle id="Ellipse_12" cx="1.203" cy="1.203" r="1.203" class="cls-1" data-name="Ellipse 12" transform="translate(100.454 373.918)"/>
        </g>
    </g>
</svg>
