<svg xmlns="http://www.w3.org/2000/svg" width="16.918" height="15.584" viewBox="0 0 16.918 15.584"><defs><style>.aa{fill:#b2b632;}</style></defs><g transform="translate(-217.082 -586.36)"><path class="aa" d="M232.98,594.532a.5.5,0,0,0-.551.434,6.813,6.813,0,0,1-13.325,1l.593.325a.5.5,0,1,0,.477-.868l-1.521-.836a.51.51,0,0,0-.673.195l-.836,1.52a.5.5,0,0,0,.2.673.545.545,0,0,0,.673-.2l.194-.352a7.8,7.8,0,0,0,15.207-1.348A.5.5,0,0,0,232.98,594.532Z"/><path class="aa" d="M233.7,590.593a.5.5,0,0,0-.651.259l-.156.362a7.8,7.8,0,0,0-14.858,1.324.5.5,0,1,0,.97.2,6.813,6.813,0,0,1,13.042-.973l-.628-.27a.5.5,0,1,0-.391.911l1.574.677a.523.523,0,0,0,.671-.251l.686-1.592A.494.494,0,0,0,233.7,590.593Z"/><path class="aa" d="M225.888,597.558v1.06h-.713v-1.031a3.983,3.983,0,0,1-1.846-.449v-1.353a2.853,2.853,0,0,0,.845.425,3.872,3.872,0,0,0,1,.225v-1.777a3.792,3.792,0,0,1-1.561-.921,1.818,1.818,0,0,1-.417-1.208,1.777,1.777,0,0,1,.542-1.307,2.285,2.285,0,0,1,1.436-.627v-.908h.713v.889a3.606,3.606,0,0,1,1.538.332v1.318a3.693,3.693,0,0,0-1.538-.508v1.851a3.916,3.916,0,0,1,1.533.881,1.689,1.689,0,0,1,.464,1.2,1.727,1.727,0,0,1-.518,1.306A2.472,2.472,0,0,1,225.888,597.558Zm-.713-4.273v-1.547q-.678.121-.679.708Q224.5,592.949,225.175,593.285Zm.713,1.651v1.479q.7-.106.7-.7Q226.586,595.239,225.888,594.936Z"/></g></svg>