<svg xmlns="http://www.w3.org/2000/svg" width="16.586" height="18.862" viewBox="0 0 16.586 18.862">
    <defs>
        <style>
            .cls-1{fill:#9fa2a7}
        </style>
    </defs>
    <g id="sort-button" transform="translate(-758.276 -146.439)">
        <g id="Group_144" data-name="Group 144">
            <path id="Path_82" d="M764.069 161.508a.771.771 0 0 0 .769-.768v-13.529a.775.775 0 0 0-.423-.692.767.767 0 0 0-.807.077l-5.022 3.766a.769.769 0 0 0 .922 1.23l3.792-2.844v11.992a.771.771 0 0 0 .769.768z" class="cls-1" data-name="Path 82"/>
            <path id="Path_83" d="M769.066 150.362a.771.771 0 0 0-.769.769v13.4a.788.788 0 0 0 .423.692.847.847 0 0 0 .346.077.772.772 0 0 0 .461-.154l5.022-3.7a.77.77 0 1 0-.91-1.242l-3.8 2.805v-11.878a.771.771 0 0 0-.773-.769z" class="cls-1" data-name="Path 83"/>
        </g>
    </g>
</svg>
