<svg xmlns="http://www.w3.org/2000/svg" width="8" height="8" viewBox="0 0 8 8"><defs><style>.a{fill:#bcbcbc;}</style></defs><g transform="translate(-418.429 -217.688)"><path class="a" d="M422.429,217.688a3.881,3.881,0,0,1,2,.54,4.036,4.036,0,0,1,1.459,1.46,3.967,3.967,0,0,1,0,4,4.041,4.041,0,0,1-1.459,1.459,3.967,3.967,0,0,1-4,0,4.044,4.044,0,0,1-1.46-1.459,3.974,3.974,0,0,1,0-4,4.039,4.039,0,0,1,1.46-1.46A3.878,3.878,0,0,1,422.429,217.688Zm1.27,6.663v-.544a.273.273,0,0,0-.272-.273h-.273v-2.267a.27.27,0,0,0-.272-.272h-1.451a.27.27,0,0,0-.272.272v.544a.27.27,0,0,0,.272.272h.272v1.451h-.272a.271.271,0,0,0-.272.273v.544a.27.27,0,0,0,.272.272h2a.261.261,0,0,0,.192-.079A.264.264,0,0,0,423.7,224.351Zm-1.27-5.76a.967.967,0,1,0,.669.283A.914.914,0,0,0,422.429,218.591Z"/></g></svg>