<svg xmlns="http://www.w3.org/2000/svg" width="24.29" height="15.4" viewBox="0 0 24.29 15.4">
    <g id="watchlist-button" transform="translate(-921.668 -147.3)">
        <path id="Path_85" d="M933.813 162.7a13.253 13.253 0 0 1-6.786-1.889 14.6 14.6 0 0 1-5.127-5.011 1.49 1.49 0 0 1 .005-1.611 14.59 14.59 0 0 1 5.12-5 13.134 13.134 0 0 1 13.572 0 14.611 14.611 0 0 1 5.126 5.01 1.5 1.5 0 0 1-.005 1.611 14.52 14.52 0 0 1-5.12 5.008 13.29 13.29 0 0 1-6.785 1.882zm-5.513-12.87a14.006 14.006 0 0 0-5.407 5.007l-.106.163.106.163a14.706 14.706 0 0 0 4.728 4.629 11.939 11.939 0 0 0 12.38 0 14.706 14.706 0 0 0 4.728-4.629l.106-.163-.106-.163a14.007 14.007 0 0 0-5.407-5.007l-.916-.468.521.887a5.8 5.8 0 0 1 .806 2.973 5.922 5.922 0 0 1-11.844 0 5.8 5.8 0 0 1 .806-2.973l.521-.887zm5.511-1.542a4.873 4.873 0 1 0 4.873 4.873 4.878 4.878 0 0 0-4.871-4.873z" data-name="Path 85"/>
        <path id="Path_86" d="M933.813 162.7a13.253 13.253 0 0 1-6.786-1.889 14.6 14.6 0 0 1-5.127-5.011 1.49 1.49 0 0 1 .005-1.611 14.59 14.59 0 0 1 5.12-5 13.134 13.134 0 0 1 13.572 0 14.611 14.611 0 0 1 5.126 5.01 1.5 1.5 0 0 1-.005 1.611 14.52 14.52 0 0 1-5.12 5.008 13.29 13.29 0 0 1-6.785 1.882zm-5.513-12.87a14.006 14.006 0 0 0-5.407 5.007l-.106.163.106.163a14.706 14.706 0 0 0 4.728 4.629 11.939 11.939 0 0 0 12.38 0 14.706 14.706 0 0 0 4.728-4.629l.106-.163-.106-.163a14.007 14.007 0 0 0-5.407-5.007l-.916-.468.521.887a5.8 5.8 0 0 1 .806 2.973 5.922 5.922 0 0 1-11.844 0 5.8 5.8 0 0 1 .806-2.973l.521-.887zm5.511-1.542a4.873 4.873 0 1 0 4.873 4.873 4.878 4.878 0 0 0-4.871-4.873z" data-name="Path 86"/>
        <g id="Group_149" data-name="Group 149">
            <g id="Group_148" data-name="Group 148">
                <path id="Path_87" d="M936.592 152.581h-2.255v-2.255a.432.432 0 0 0-.838 0v2.255h-2.255a.432.432 0 0 0 0 .838h2.256v2.255a.432.432 0 0 0 .838 0v-2.255h2.255a.432.432 0 0 0 0-.838z" data-name="Path 87"/>
            </g>
        </g>
    </g>
</svg>
