<svg xmlns="http://www.w3.org/2000/svg" width="17.754" height="19.764" viewBox="0 0 17.754 19.764">
    <defs>
        <style>
            .cls-1{fill:#c1d82f}
        </style>
    </defs>
    <g id="Group_6401" data-name="Group 6401" transform="translate(-598.959 -217.236)">
        <g id="Group_6398" data-name="Group 6398">
            <g id="Group_6397" data-name="Group 6397">
                <path id="Path_4944" d="M616.555 231.867a4.017 4.017 0 0 0-2.187-2.539v-7.4a.336.336 0 0 0-.164-.288l-7.37-4.355a.336.336 0 0 0-.341 0l-7.369 4.355c-.007 0-.012.01-.019.014l-.02.016a.323.323 0 0 0-.074.082l-.005.006a.329.329 0 0 0-.038.109.3.3 0 0 1 0 .03c0 .01-.005.019-.005.029v8.709a.335.335 0 0 0 .165.289l7.369 4.354.027.012.028.012a.3.3 0 0 0 .231 0l.028-.012c.009 0 .018-.007.027-.012l2-1.182a4.018 4.018 0 0 0 7.721-2.228zm-9.891-13.908l1.741 1.03-2.582 1.526a.335.335 0 0 0 .341.577l2.9-1.713 1.742 1.03-6.711 3.964-1.742-1.029 2.807-1.658a.336.336 0 0 0-.341-.578l-3.124 1.846-1.742-1.029zm-2.9 6.995v2.236l-1.73-1.022v-2.237zm5.046 6.99a4.019 4.019 0 0 0-.133 1.035c0 .14.008.28.023.42l-1.7 1v-1.088a.335.335 0 0 0-.67 0v1.089l-6.7-3.959v-7.931l1.731 1.023v2.823a.334.334 0 0 0 .164.289l2.4 1.419a.339.339 0 0 0 .17.046.335.335 0 0 0 .335-.335v-2.428l1.9 1.122v5.5a.335.335 0 0 0 .67 0v-5.5l6.071-3.588a.335.335 0 1 0-.341-.576l-6.065 3.584-1.91-1.129 6.711-3.965 2.233 1.319v6.978a4 4 0 0 0-4.893 2.852zm3.887 4.385a3.35 3.35 0 1 1 3.35-3.35 3.35 3.35 0 0 1-3.354 3.35z" class="cls-1" data-name="Path 4944"/>
            </g>
        </g>
        <g id="Group_6400" data-name="Group 6400">
            <g id="Group_6399" data-name="Group 6399">
                <path id="Path_4945" d="M614.823 231.351a.577.577 0 0 0-.8 0l-2.2 2.194-.458-.459a.579.579 0 0 0-.818.818l.867.868a.578.578 0 0 0 .818 0l2.6-2.6a.578.578 0 0 0-.009-.821z" class="cls-1" data-name="Path 4945"/>
            </g>
        </g>
    </g>
</svg>
