<svg xmlns="http://www.w3.org/2000/svg" width="19.712" height="18.24" viewBox="0 0 19.712 18.24">
    <defs>
        <style>
            .cls-1{fill:#42aeaf}
        </style>
    </defs>
    <g id="Group_6420" data-name="Group 6420" transform="translate(-469.015 -217.998)">
        <g id="Group_6411" data-name="Group 6411">
            <g id="Group_6410" data-name="Group 6410">
                <path id="Path_4949" d="M477.281 232.77a1.734 1.734 0 1 0 1.733 1.734 1.736 1.736 0 0 0-1.733-1.734zm0 2.5a.766.766 0 1 1 .765-.766.767.767 0 0 1-.765.766z" class="cls-1" data-name="Path 4949"/>
            </g>
        </g>
        <g id="Group_6413" data-name="Group 6413">
            <g id="Group_6412" data-name="Group 6412">
                <path id="Path_4950" d="M483.361 232.77a1.734 1.734 0 1 0 1.739 1.73 1.735 1.735 0 0 0-1.739-1.73zm0 2.5a.766.766 0 1 1 .766-.766.766.766 0 0 1-.766.766z" class="cls-1" data-name="Path 4950"/>
            </g>
        </g>
        <g id="Group_6415" data-name="Group 6415">
            <g id="Group_6414" data-name="Group 6414">
                <path id="Path_4951" d="M483.788 223.643h-6.936a.484.484 0 0 0 0 .968h6.936a.484.484 0 1 0 0-.968z" class="cls-1" data-name="Path 4951"/>
            </g>
        </g>
        <g id="Group_6417" data-name="Group 6417">
            <g id="Group_6416" data-name="Group 6416">
                <path id="Path_4952" d="M483.411 226.157h-6.181a.483.483 0 1 0 0 .967h6.181a.483.483 0 1 0 0-.967z" class="cls-1" data-name="Path 4952"/>
            </g>
        </g>
        <g id="Group_6419" data-name="Group 6419">
            <g id="Group_6418" data-name="Group 6418">
                <path id="Path_4953" d="M488.509 221.487a.962.962 0 0 0-.75-.357h-15.076l-.3-1.477a.969.969 0 0 0-.563-.693l-2.124-.922a.484.484 0 1 0-.385.888l2.124.922 2.342 11.367a.971.971 0 0 0 .948.773h11.594a.484.484 0 1 0 0-.968h-11.598l-.285-1.383H486.4a.972.972 0 0 0 .948-.772l1.354-6.571a.962.962 0 0 0-.193-.807zm-2.1 7.182h-12.172l-1.354-6.571h14.876z" class="cls-1" data-name="Path 4953"/>
            </g>
        </g>
    </g>
</svg>
