<svg xmlns="http://www.w3.org/2000/svg" width="18.058" height="22.995" viewBox="0 0 18.058 22.995">
    <defs>
        <style>
            .cls-1{fill:#ee6411}
        </style>
    </defs>
    <g id="Group_6404" data-name="Group 6404" transform="translate(-740.854 -215.62)">
        <path id="Path_4946" d="M758.751 225.667l-1.12-1.912-.047-.066a.45.45 0 0 0-.182-.127l-5.841-1.955v-1.367h.738a.449.449 0 0 0 .377-.694l-2.416-3.721a.448.448 0 0 0-.753 0l-2.416 3.721a.449.449 0 0 0 .376.694h.739v1.367l-5.853 1.96a.437.437 0 0 0-.218.19l-1.119 1.91a1.175 1.175 0 0 0 .58 1.687l.478.19v7.274a1.3 1.3 0 0 0 .836 1.208l6.815 2.56a.445.445 0 0 0 .316 0l6.815-2.56a1.3 1.3 0 0 0 .837-1.208v-7.274l.477-.19a1.176 1.176 0 0 0 .581-1.687zm-8.868-8.773l1.589 2.447h-.36a.45.45 0 0 0-.449.449v3.959H749.1v-3.959a.45.45 0 0 0-.449-.449h-.36zm-1.228 7.753h2.457a.449.449 0 0 0 .449-.449v-1.644l4.357 1.458-6.035 2.326-6.034-2.326 4.357-1.458v1.646a.449.449 0 0 0 .449.447zm-6.887 1.705a.277.277 0 0 1 .023-.231l.926-1.582 6.483 2.5-1.123 1.689a.279.279 0 0 1-.333.1l-5.816-2.311a.27.27 0 0 1-.16-.165zm15.027 8.466a.394.394 0 0 1-.255.367l-6.207 2.333V235.3a.449.449 0 0 0-.9 0v2.221l-6.208-2.333a.394.394 0 0 1-.254-.367V227.9l4.44 1.764a1.18 1.18 0 0 0 1.413-.442l.609-.917v2.929a.449.449 0 0 0 .9 0v-2.929l.608.917a1.181 1.181 0 0 0 1.414.442l4.44-1.764zm1.2-8.466a.273.273 0 0 1-.16.167l-5.816 2.311a.28.28 0 0 1-.334-.1l-1.122-1.689 6.482-2.5.927 1.582a.278.278 0 0 1 .028.229z" class="cls-1" data-name="Path 4946"/>
        <path id="Path_4947" d="M749.883 233.707a.449.449 0 1 1 .443-.376.453.453 0 0 1-.443.376z" class="cls-1" data-name="Path 4947"/>
    </g>
</svg>
