<svg xmlns="http://www.w3.org/2000/svg" width="9.345" height="12.293" viewBox="0 0 9.345 12.293"><defs><style>.a{fill:#007db8;}</style></defs><path class="a" d="M66.2,298.593V286.3h6.9a.184.184,0,0,1,.15.05L75.5,288.6c.05.05.05.05.05.1v9.895Zm.55-.55H75V289H72.8v-2.2H66.75Zm6.6-9.545h1.2l-1.2-1.249Z" transform="translate(-66.2 -286.3)"/><g transform="translate(1.499 2.998)"><path class="a" d="M75.1,298h.45v.4H74.6V297.05h.5Zm-1.549-.05-.8.6-.7-.55a.67.67,0,0,1-.65.4h-.6V297.05h.6a.754.754,0,0,1,.65.4l.7-.55.25.2-.65.5.15.1.65-.5.25.25-.65.5.15.1.65-.5v-.45h.5v.949h.45v.4h-.949Zm-1.9-.2a.265.265,0,0,0-.3-.3h-.1v.6h.1c.15-.05.3-.1.3-.3" transform="translate(-70 -294.601)"/><path class="a" d="M72.348,292.3a3.148,3.148,0,1,0,3.148,3.148,3.135,3.135,0,0,0-3.148-3.148m0,6a2.8,2.8,0,1,1,2.8-2.8,2.794,2.794,0,0,1-2.8,2.8" transform="translate(-69.2 -292.3)"/></g></svg>