<svg xmlns="http://www.w3.org/2000/svg" width="50.788" height="52.992" viewBox="0 0 50.788 52.992"><defs><style>.a{fill:#0099b8;}.b{fill:#007eb8;}.c{fill:#c6cacf;}.d{fill:#ecedef;}.e{fill:#a1a7af;}.f{fill:#fcb73f;}.g{fill:#ebf0f3;}.h{fill:#d5d6db;}</style></defs><path class="a" d="M516.075,701.4H493.222a3.44,3.44,0,0,0-3.422,3.422v25.116a3.44,3.44,0,0,0,3.422,3.422h22.853a3.44,3.44,0,0,0,3.422-3.422V704.822A3.44,3.44,0,0,0,516.075,701.4Z" transform="translate(-489.8 -701.4)"/><path class="b" d="M493.222,730.038V704.922a3.44,3.44,0,0,1,3.422-3.422h-3.422a3.44,3.44,0,0,0-3.422,3.422v25.116a3.44,3.44,0,0,0,3.422,3.422h3.422A3.44,3.44,0,0,1,493.222,730.038Z" transform="translate(-489.8 -701.445)"/><path class="c" d="M507.426,709.7a11.426,11.426,0,1,0,11.426,11.426A11.449,11.449,0,0,0,507.426,709.7Z" transform="translate(-492.578 -705.118)"/><path class="d" d="M509.263,713.8a9.163,9.163,0,1,0,9.163,9.163A9.176,9.176,0,0,0,509.263,713.8Z" transform="translate(-494.414 -706.955)"/><g transform="translate(3.422 4.526)"><path class="e" d="M515.759,715.341a1.166,1.166,0,0,0,1.159-1.159v-4.526a12.2,12.2,0,0,0-2.318,0v4.526A1.166,1.166,0,0,0,515.759,715.341Z" transform="translate(-504.333 -709.6)"/><path class="e" d="M515.759,740.7a1.166,1.166,0,0,0-1.159,1.159v4.526a12.2,12.2,0,0,0,2.318,0v-4.526A1.2,1.2,0,0,0,515.759,740.7Z" transform="translate(-504.333 -723.533)"/><path class="e" d="M532.686,728.3h-4.526A1.166,1.166,0,0,0,527,729.459a1.132,1.132,0,0,0,1.159,1.159h4.526a12.2,12.2,0,0,0,0-2.318Z" transform="translate(-509.888 -717.978)"/><path class="e" d="M501.741,729.459a1.166,1.166,0,0,0-1.159-1.159h-4.526a12.191,12.191,0,0,0,0,2.318h4.526A1.2,1.2,0,0,0,501.741,729.459Z" transform="translate(-496 -717.978)"/></g><path class="f" d="M512.076,727.876a.964.964,0,0,1-.662-.221l-4.582-3.422a1.143,1.143,0,0,1,1.38-1.822l3.754,2.815,1.6-1.6a1.132,1.132,0,0,1,1.6,1.6L512.9,727.49A1.067,1.067,0,0,1,512.076,727.876Z" transform="translate(-497.227 -710.709)"/><g transform="translate(24.564 12.42)"><path class="e" d="M554.53,729.751c-2.263,0-4.03-1.27-4.03-2.926s1.766-2.926,4.03-2.926,4.03,1.27,4.03,2.926S556.793,729.751,554.53,729.751Zm0-4.526c-1.49,0-2.76.773-2.76,1.656s1.27,1.656,2.76,1.656,2.76-.773,2.76-1.656C557.29,725.942,556.02,725.225,554.53,725.225Z" transform="translate(-541.558 -723.9)"/><path class="f" d="M559.471,731H535.349a1.048,1.048,0,0,0-1.049,1.049V766.6a1.048,1.048,0,0,0,1.049,1.049h24.122a1.048,1.048,0,0,0,1.049-1.049V732.049A.985.985,0,0,0,559.471,731Z" transform="translate(-534.3 -727.081)"/><rect class="g" width="21.638" height="31.354" transform="translate(2.153 6.734)"/><g transform="translate(4.637 12.144)"><rect class="h" width="16.726" height="1.214"/><rect class="h" width="16.726" height="1.214" transform="translate(0 3.312)"/><rect class="h" width="16.726" height="1.214" transform="translate(0 6.624)"/><rect class="h" width="16.726" height="1.214" transform="translate(0 9.936)"/><rect class="h" width="16.726" height="1.214" transform="translate(0 13.248)"/><rect class="h" width="16.726" height="1.214" transform="translate(0 16.56)"/><rect class="h" width="16.726" height="1.214" transform="translate(0 19.872)"/></g><path class="e" d="M545.4,733.485v-1.711a2.356,2.356,0,0,1,2.374-2.374h9a2.356,2.356,0,0,1,2.374,2.374v1.711" transform="translate(-539.273 -726.364)"/></g></svg>