<svg xmlns="http://www.w3.org/2000/svg" xmlns:xlink="http://www.w3.org/1999/xlink" width="98.152" height="98.152" viewBox="0 0 98.152 98.152"><defs><style>.a{fill:#fff;stroke:#046c97;stroke-miterlimit:10;}.b{fill:url(#a);}.c{fill:url(#b);}.d{fill:url(#c);}.e{fill:#2e3e44;}</style><linearGradient id="a" x1="0.736" y1="0.744" x2="0.254" y2="0.242" gradientUnits="objectBoundingBox"><stop offset="0" stop-color="#fff" stop-opacity="0"/><stop offset="0.4" stop-color="#0087cc"/><stop offset="1" stop-color="#202628"/></linearGradient><linearGradient id="b" x1="0.252" y1="-0.011" x2="0.681" y2="0.883" gradientUnits="objectBoundingBox"><stop offset="0" stop-color="#009cb8"/><stop offset="0.6" stop-color="#0087cc"/><stop offset="1" stop-color="#fff" stop-opacity="0"/></linearGradient><linearGradient id="c" x1="-0.041" y1="0.323" x2="1.12" y2="0.678" gradientUnits="objectBoundingBox"><stop offset="0" stop-color="#202628"/><stop offset="0.6" stop-color="#007db8"/><stop offset="1" stop-color="#fff" stop-opacity="0"/></linearGradient></defs><g transform="translate(0.5 0.5)"><circle class="a" cx="48.576" cy="48.576" r="48.576"/><g transform="translate(12.089 27.71)"><g transform="translate(4.742 0.172)"><path class="b" d="M338.5,204.483c-.773.5-1.656.938-2.484,1.38a19.049,19.049,0,0,1-2.65,1.1,15.736,15.736,0,0,1-2.76.773,12.85,12.85,0,0,1-2.926.331,13.627,13.627,0,0,1-2.981-.276,9.1,9.1,0,0,1-2.87-1.1,8.867,8.867,0,0,1-3.919-4.8,11.49,11.49,0,0,1-.662-3.036,17.636,17.636,0,0,1,.276-4.526,10.936,10.936,0,0,1,.331-1.435c.11-.5.276-.938.386-1.435a13.8,13.8,0,0,1,.5-1.38,35.944,35.944,0,0,1,5.906-10.046,48.267,48.267,0,0,1,3.974-4.25,40.849,40.849,0,0,1,4.526-3.643,41.5,41.5,0,0,1,5.023-2.981,23.449,23.449,0,0,1,2.7-1.159c.938-.331,1.877-.607,2.815-.883a19.353,19.353,0,0,1,5.906-.552,11.453,11.453,0,0,1,2.981.607,9.139,9.139,0,0,1,2.7,1.435,8.02,8.02,0,0,1,2.042,2.263,7.087,7.087,0,0,1,1.1,2.76,12.652,12.652,0,0,1,.276,2.87,23.093,23.093,0,0,1-.331,2.815,15.991,15.991,0,0,0-.055-2.815,11.3,11.3,0,0,0-.607-2.7,7.67,7.67,0,0,0-3.2-4.085,9.325,9.325,0,0,0-4.968-1.325,14.309,14.309,0,0,0-2.65.221c-.883.166-1.766.386-2.594.607a32.673,32.673,0,0,0-4.968,2.1c-.828.442-1.6.883-2.374,1.38s-1.546.994-2.263,1.546a44.964,44.964,0,0,0-11.15,11.978l-.331.607-.331.607c-.221.386-.442.773-.662,1.214-.386.828-.773,1.6-1.1,2.484-.166.442-.331.828-.5,1.27-.11.442-.276.828-.386,1.27s-.221.883-.331,1.27c-.055.442-.166.883-.221,1.325a12.378,12.378,0,0,0,.276,5.134,7.19,7.19,0,0,0,2.87,3.974,9.928,9.928,0,0,0,4.913,1.546,18.413,18.413,0,0,0,5.465-.552c.883-.221,1.822-.5,2.7-.773C336.792,205.2,337.62,204.814,338.5,204.483Z" transform="translate(-317.191 -166.512)"/></g><g transform="translate(0 5.943)"><path class="c" d="M329.355,205.689a31.048,31.048,0,0,1-10.378-2.1,23.554,23.554,0,0,1-4.8-2.539,13.088,13.088,0,0,1-2.153-1.766,14.365,14.365,0,0,1-1.822-2.208,11.525,11.525,0,0,1-1.214-2.65,10.777,10.777,0,0,1-.386-2.981,10.626,10.626,0,0,1,.607-2.926,9.17,9.17,0,0,1,1.435-2.594,14.2,14.2,0,0,1,1.932-2.153,22.106,22.106,0,0,1,2.208-1.766,24.392,24.392,0,0,1,4.913-2.539,35.157,35.157,0,0,1,5.189-1.6,34.763,34.763,0,0,1,5.354-.773,43.462,43.462,0,0,1,10.709.5,33.065,33.065,0,0,1,10.157,3.478c.773.442,1.546.938,2.263,1.435a20.3,20.3,0,0,1,2.1,1.711,12.7,12.7,0,0,1,1.766,2.042,11.781,11.781,0,0,1,1.27,2.318,14.688,14.688,0,0,0-1.546-2.1,14.276,14.276,0,0,0-1.932-1.711,23.468,23.468,0,0,0-4.416-2.539,35.672,35.672,0,0,0-9.881-2.539c-1.711-.221-3.367-.276-5.078-.331a38.624,38.624,0,0,0-5.078.276,37.316,37.316,0,0,0-4.968.828,34.644,34.644,0,0,0-4.8,1.49,25.617,25.617,0,0,0-4.416,2.263,16.409,16.409,0,0,0-1.932,1.49,11.56,11.56,0,0,0-1.6,1.711,8.315,8.315,0,0,0-1.711,4.14,7.321,7.321,0,0,0,1.049,4.361,13.358,13.358,0,0,0,3.2,3.643,24.143,24.143,0,0,0,4.25,2.7A35.615,35.615,0,0,0,329.355,205.689Z" transform="translate(-308.6 -176.966)"/></g><g transform="translate(4.521)"><path class="d" d="M355.657,204.84a8.482,8.482,0,0,1-2.318,1.822,12.174,12.174,0,0,1-2.815.994,10.871,10.871,0,0,1-2.981.221,13.7,13.7,0,0,1-2.981-.331,28.336,28.336,0,0,1-5.686-1.766,32.262,32.262,0,0,1-5.244-2.87,38.021,38.021,0,0,1-4.692-3.643,50.808,50.808,0,0,1-4.2-4.25,42.986,42.986,0,0,1-3.533-4.8c-.5-.828-1.049-1.711-1.49-2.594s-.883-1.822-1.27-2.76a26.572,26.572,0,0,1-1.546-5.906,14.994,14.994,0,0,1-.055-3.146,12.3,12.3,0,0,1,.662-3.146,9.148,9.148,0,0,1,1.6-2.87,8.649,8.649,0,0,1,2.539-2.153,10.158,10.158,0,0,1,3.036-1.159,15.16,15.16,0,0,1,3.146-.276,13.857,13.857,0,0,1,3.036.386,25.44,25.44,0,0,1,2.926.828,24.279,24.279,0,0,1,2.76,1.159l1.325.662c.442.276.883.5,1.27.718a36.731,36.731,0,0,1,8.887,7.618,43.47,43.47,0,0,0-9.494-6.4c-.442-.221-.883-.386-1.27-.607-.442-.166-.883-.386-1.325-.552a24.842,24.842,0,0,0-2.65-.883,18.315,18.315,0,0,0-5.41-.773,9.752,9.752,0,0,0-4.913,1.325,6.536,6.536,0,0,0-1.822,1.656,6.391,6.391,0,0,0-1.1,2.208,11.426,11.426,0,0,0-.331,5.134,22.3,22.3,0,0,0,1.38,5.244,37.37,37.37,0,0,0,5.686,9.55,45.17,45.17,0,0,0,8.114,7.783,32.608,32.608,0,0,0,4.747,2.981,26.206,26.206,0,0,0,5.189,2.1,15.9,15.9,0,0,0,5.575.607,9.512,9.512,0,0,0,2.76-.607A9.288,9.288,0,0,0,355.657,204.84Z" transform="translate(-316.791 -166.2)"/></g><g transform="translate(25.392 17.388)"><path class="e" d="M369.614,207.526a15.1,15.1,0,0,1-.607,4.471,8.522,8.522,0,0,1-1.656,3.146,6.413,6.413,0,0,1-2.429,1.822,7.712,7.712,0,0,1-2.926.607,7.628,7.628,0,0,1-3.257-.662,6.061,6.061,0,0,1-2.318-1.932,9.378,9.378,0,0,1-1.38-3.091,18.669,18.669,0,0,1-.442-4.14,15.364,15.364,0,0,1,.607-4.471,8.522,8.522,0,0,1,1.656-3.146,6.413,6.413,0,0,1,2.429-1.822,7.713,7.713,0,0,1,2.926-.607,7.627,7.627,0,0,1,3.257.662,6.061,6.061,0,0,1,2.318,1.932,9.377,9.377,0,0,1,1.38,3.091A19.432,19.432,0,0,1,369.614,207.526Zm-2.76.221a17.387,17.387,0,0,0-.276-3.091,7.4,7.4,0,0,0-.828-2.429,4.625,4.625,0,0,0-1.49-1.6,3.979,3.979,0,0,0-2.208-.552,3.938,3.938,0,0,0-2.153.607,4.625,4.625,0,0,0-1.49,1.6,8.925,8.925,0,0,0-.883,2.429,16.45,16.45,0,0,0-.276,2.926,18.039,18.039,0,0,0,.276,3.146,7.4,7.4,0,0,0,.828,2.429,4.625,4.625,0,0,0,1.49,1.6,4.289,4.289,0,0,0,4.306-.055,4.624,4.624,0,0,0,1.49-1.6,8.923,8.923,0,0,0,.883-2.429A10.981,10.981,0,0,0,366.854,207.746Z" transform="translate(-354.6 -197.7)"/><path class="e" d="M399.685,217.52H388.7V198.2h10.985v2.208H391.35v5.962h8v2.208h-8v6.679h8.335Z" transform="translate(-369.877 -197.924)"/><path class="e" d="M430.3,204.106a6.9,6.9,0,0,1-.442,2.318,5.783,5.783,0,0,1-1.38,2.1,7.265,7.265,0,0,1-2.374,1.49,9.193,9.193,0,0,1-3.478.552H420.25v6.955H417.6V198.2h5.465a11.448,11.448,0,0,1,2.76.331,6.362,6.362,0,0,1,2.318,1.049,5.618,5.618,0,0,1,1.6,1.822A5.922,5.922,0,0,1,430.3,204.106Zm-2.7.166a3.489,3.489,0,0,0-1.214-2.87,5.268,5.268,0,0,0-3.422-.994h-2.7v7.949h2.429a5.666,5.666,0,0,0,3.588-.994A3.705,3.705,0,0,0,427.591,204.272Z" transform="translate(-382.824 -197.924)"/></g></g></g></svg>