<svg xmlns="http://www.w3.org/2000/svg" width="51.281" height="55.57" viewBox="0 0 51.281 55.57"><defs><style>.a{fill:#ecedef;}.b{fill:#ffc119;}.c{fill:#d18d29;}.d{fill:#42c25e;}.e{fill:#0093ba;}.f{fill:#abbac2;}.g{fill:#d7e6eb;}.h{fill:#0099b8;}.i{fill:#007eb8;}.j{fill:#c6cacf;}.k{fill:#fcb73f;}</style></defs><path class="a" d="M490.946,982.8h29.311a1.58,1.58,0,0,1,1.546,1.546v37.812a2.332,2.332,0,0,1-2.318,2.318H490.946a1.58,1.58,0,0,1-1.546-1.546V984.345A1.509,1.509,0,0,1,490.946,982.8Z" transform="translate(-489.4 -979.709)"/><path class="b" d="M539.274,989.565H530l-4.637,3.091v-3.091h-1.546a2.332,2.332,0,0,1-2.318-2.318v-7.728a2.332,2.332,0,0,1,2.318-2.318h15.456a2.332,2.332,0,0,1,2.318,2.318v7.728A2.332,2.332,0,0,1,539.274,989.565Z" transform="translate(-503.781 -977.2)"/><path class="c" d="M539.465,987.437V982.8h-1.546v4.637h-1.546v-2.318h-1.546v2.318h-1.546v-3.864h-1.546v3.864h-1.546v-2.318h-1.546v2.318H527.1v1.546h13.91v-1.546Z" transform="translate(-506.29 -979.709)"/><path class="b" d="M516,1035.228a7.751,7.751,0,0,0,7.728-7.728H516Z" transform="translate(-501.317 -999.734)"/><path class="d" d="M504.128,1008a7.728,7.728,0,1,0,0,15.456v-7.728h7.728A7.751,7.751,0,0,0,504.128,1008Z" transform="translate(-492.536 -990.998)"/><g transform="translate(13.138 20.038)"><path class="e" d="M529.553,1038.062h-3.864a.709.709,0,0,1-.552-.221L520.5,1033.2l1.1-1.1,4.416,4.416h3.533Z" transform="translate(-516.47 -1021.833)"/><path class="e" d="M539.7,1040.1h1.546v1.546H539.7Z" transform="translate(-525.072 -1025.417)"/><path class="e" d="M513.2,1013.5h10.819v1.546H513.2Z" transform="translate(-513.2 -1013.5)"/></g><path class="f" d="M503.4,988.4h6.955v1.546H503.4Z" transform="translate(-495.672 -982.218)"/><path class="f" d="M495,994h11.592v1.546H495Z" transform="translate(-491.909 -984.726)"/><path class="f" d="M495,999.6h8.5v1.546H495Z" transform="translate(-491.909 -987.235)"/><path class="g" d="M552.3,1048.5h1.546v1.546H552.3Z" transform="translate(-517.579 -1009.142)"/><g transform="translate(20.314 24.564)"><path class="h" d="M554.277,1033.4h3.643a1.58,1.58,0,0,1,1.711,1.656V1049.9a2.646,2.646,0,0,1-2.76,2.7h-1.38c.055-.11.055-.221.11-.331a9.017,9.017,0,0,0,.662-5.63,9.348,9.348,0,0,0-4.14-6.293,9.449,9.449,0,0,0-11.04.276,9.576,9.576,0,0,0-2.926,11.978H531.7a.054.054,0,0,0,.055-.055,2.805,2.805,0,0,0,2.208-2.87V1035a1.536,1.536,0,0,1,1.6-1.6h18.713Z" transform="translate(-528.664 -1026.942)"/><path class="i" d="M551.813,1028.158H533.155a1.536,1.536,0,0,0-1.6,1.6v14.683a2.765,2.765,0,0,1-2.208,2.87.054.054,0,0,0-.055.055,2.693,2.693,0,0,1-3.036-2.1,3.4,3.4,0,0,1-.055-.773v-20.976a1.617,1.617,0,0,1,1.766-1.822h6.182a2.346,2.346,0,0,1,1.877.773c.386.386.773.773,1.1,1.159a2.15,2.15,0,0,0,1.766.718h11.15a1.594,1.594,0,0,1,1.711,1.711v.552A14.487,14.487,0,0,1,551.813,1028.158Z" transform="translate(-526.2 -1021.7)"/><path class="j" d="M542.689,1056.936a9.577,9.577,0,0,1,2.926-11.978,9.54,9.54,0,0,1,11.04-.276,9.348,9.348,0,0,1,4.14,6.293,9.865,9.865,0,0,1-.662,5.63c-.055.11-.055.221-.11.331-.11.055-.11.166-.166.276a9.686,9.686,0,0,1-17.167-.276Zm8.556,3.2a7.452,7.452,0,1,0,.055-14.9,7.452,7.452,0,0,0-.055,14.9Z" transform="translate(-533.14 -1031.268)"/><path class="a" d="M552.952,1061.9a7.452,7.452,0,1,1,7.452-7.452A7.374,7.374,0,0,1,552.952,1061.9Zm1.6-9.163v-2.429c0-.5-.166-.662-.718-.662h-1.766c-.552,0-.718.166-.718.718v4.526c0,.662,0,.662-.662.662a.852.852,0,0,0-.883.5.766.766,0,0,0,.221.938c.773.828,1.6,1.711,2.374,2.539.386.386.662.386,1.049,0,.5-.552.994-1.049,1.49-1.6a8.475,8.475,0,0,0,.938-1.049.75.75,0,0,0,.11-.883.739.739,0,0,0-.773-.442h-.442c-.276.055-.331-.11-.331-.331A12.674,12.674,0,0,0,554.553,1052.741Z" transform="translate(-534.846 -1033.034)"/><path class="k" d="M558.074,1054.846v2.429c0,.276.055.386.331.331h.442a.881.881,0,0,1,.773.442.75.75,0,0,1-.11.883,8.484,8.484,0,0,0-.938,1.049c-.5.552-.994,1.049-1.49,1.6-.386.386-.662.386-1.049,0-.773-.828-1.6-1.711-2.374-2.539a.782.782,0,0,1-.221-.938.853.853,0,0,1,.883-.5c.662,0,.662,0,.662-.662v-4.526c0-.552.166-.718.718-.718h1.766c.5,0,.718.166.718.662A19.13,19.13,0,0,0,558.074,1054.846Z" transform="translate(-538.367 -1035.14)"/></g></svg>