<svg xmlns="http://www.w3.org/2000/svg" width="56.069" height="46.959" viewBox="0 0 56.069 46.959"><defs><style>.a{fill:#fcb73f;}.b{fill:#fc7;}.c{fill:#ebeff2;}.d{fill:#e0e5e8;}.e{fill:#0099b8;}.f{fill:#007eb8;}.g{fill:#c6cacf;}.h{fill:#ecedef;}</style></defs><path class="a" d="M180.037,1034.323l-10.6,10.6a3.632,3.632,0,0,1-5.078,0,3.565,3.565,0,0,1,0-5.023l10.6-10.6Z" transform="translate(-163.325 -1004.846)"/><circle class="b" cx="16.726" cy="16.726" r="16.726" transform="translate(7.714)"/><circle class="c" cx="14.462" cy="14.462" r="14.462" transform="translate(9.977 2.263)"/><g transform="translate(2.147 30.648)"><rect class="d" width="1.159" height="7.121" transform="translate(0 3.28) rotate(-45)"/><rect class="d" width="1.159" height="7.121" transform="translate(2.479 0.82) rotate(-45)"/></g><g transform="translate(25.102 15.898)"><path class="e" d="M236.877,1025.5h3.643a1.58,1.58,0,0,1,1.711,1.656V1042a2.645,2.645,0,0,1-2.76,2.7h-1.38c.055-.11.055-.221.11-.331a9.017,9.017,0,0,0,.662-5.63,9.347,9.347,0,0,0-4.14-6.293,9.449,9.449,0,0,0-11.04.276,9.576,9.576,0,0,0-2.926,11.978H214.3a.054.054,0,0,0,.055-.055,2.805,2.805,0,0,0,2.208-2.87V1027.1a1.536,1.536,0,0,1,1.6-1.6h11.868C232.35,1025.555,234.614,1025.555,236.877,1025.5Z" transform="translate(-211.264 -1019.042)"/><path class="f" d="M234.413,1020.258H215.755a1.536,1.536,0,0,0-1.6,1.6v14.683a2.765,2.765,0,0,1-2.208,2.87.054.054,0,0,0-.055.055,2.693,2.693,0,0,1-3.036-2.1,3.4,3.4,0,0,1-.055-.773v-20.976a1.617,1.617,0,0,1,1.766-1.822h6.182a2.346,2.346,0,0,1,1.877.773c.386.386.773.773,1.1,1.159a2.15,2.15,0,0,0,1.766.718h11.15a1.594,1.594,0,0,1,1.711,1.711v.552A14.987,14.987,0,0,1,234.413,1020.258Z" transform="translate(-208.8 -1013.8)"/><path class="g" d="M225.289,1049.136a9.576,9.576,0,0,1,2.926-11.978,9.539,9.539,0,0,1,11.04-.276,9.348,9.348,0,0,1,4.14,6.293,9.865,9.865,0,0,1-.662,5.63c-.055.11-.055.221-.11.331-.11.055-.11.166-.166.276a9.686,9.686,0,0,1-17.167-.276Zm8.611,3.146a7.452,7.452,0,1,0,.055-14.9,7.452,7.452,0,0,0-.055,14.9Z" transform="translate(-215.74 -1023.413)"/><path class="h" d="M235.652,1054a7.452,7.452,0,1,1,7.452-7.452A7.374,7.374,0,0,1,235.652,1054Zm1.6-9.108v-2.429c0-.5-.166-.662-.718-.662h-1.766c-.552,0-.718.166-.718.718v4.526c0,.662,0,.662-.662.662a.852.852,0,0,0-.883.5.766.766,0,0,0,.221.938c.773.828,1.6,1.711,2.374,2.539.386.386.662.386,1.049,0,.5-.552.994-1.049,1.49-1.6a8.479,8.479,0,0,0,.938-1.049.75.75,0,0,0,.11-.883.739.739,0,0,0-.773-.442h-.442c-.276.055-.331-.11-.331-.331A19.546,19.546,0,0,0,237.253,1044.9Z" transform="translate(-217.491 -1025.134)"/><path class="a" d="M240.774,1047.046v2.429c0,.276.055.386.331.331h.442a.881.881,0,0,1,.773.442.75.75,0,0,1-.11.883,8.477,8.477,0,0,0-.938,1.049c-.5.552-.994,1.049-1.49,1.6-.386.386-.662.386-1.049,0-.773-.828-1.6-1.711-2.374-2.539a.782.782,0,0,1-.221-.938.853.853,0,0,1,.883-.5c.662,0,.662,0,.662-.662v-4.526c0-.552.166-.718.718-.718h1.766c.5,0,.718.166.718.662A18.7,18.7,0,0,0,240.774,1047.046Z" transform="translate(-221.012 -1027.285)"/></g></svg>