<svg xmlns="http://www.w3.org/2000/svg" viewBox="0 0 18.46 18.52"><defs><style>.cls-1{fill:#007db8;}</style></defs><title>Euro</title><g id="Layer_2" data-name="Layer 2"><g id="Layer_5" data-name="Layer 5"><path class="cls-1" d="M16.64,14.35l1.82,1.84c-.43.31-.86.67-1.34,1A8.91,8.91,0,0,1,9.47,18,9,9,0,0,1,3.75,12.7c-.19-.44,0-.36-.54-.36H0v-2H3.1V8.24H0V6.17H3.39A.28.28,0,0,0,3.7,6a9.07,9.07,0,0,1,5-5.18A9,9,0,0,1,15.88.73a9.23,9.23,0,0,1,2.41,1.49l.17.15-1.81,1.8A6.6,6.6,0,0,0,10.08,3,6.52,6.52,0,0,0,6.41,6.16H12.3V8.23H5.7v2h6.6v2.05H6.39a6.69,6.69,0,0,0,10.25,2Z"/></g></g></svg>