<svg xmlns="http://www.w3.org/2000/svg" viewBox="0 0 13.27 18.23"><defs><style>.cls-1{fill:#007db8;}</style></defs><title>yen </title><g id="Layer_2" data-name="Layer 2"><g id="Layer_1-2" data-name="Layer 1"><path class="cls-1" d="M5.16,13.55H1.6c-.46,0-.57-.12-.57-.58s0-.77,0-1.15a.39.39,0,0,1,.44-.44H5.14V10.29H1.6c-.47,0-.57-.11-.57-.58V8.58a.42.42,0,0,1,.48-.48H4.17L4,7.82C2.74,5.5,1.45,3.17.16.85L.08.7C-.12.32.05,0,.48,0,1.12,0,1.76,0,2.4,0c.85,0,.76,0,1.14.7L6.22,6c.21.41.38.84.58,1.29l1-2.27L10,.35A.51.51,0,0,1,10.5,0h2.24c.49,0,.66.31.43.74Q11.25,4.31,9.31,7.88l-.1.2h2.62c.41,0,.55.14.55.54V9.75c0,.4-.13.54-.54.54H8.23v1.09h3.62c.4,0,.53.13.53.52V13c0,.36-.15.51-.51.51H8.22v4.13c0,.4-.15.55-.55.55h-2c-.41,0-.54-.13-.54-.54V13.55Z"/></g></g></svg>