<svg xmlns="http://www.w3.org/2000/svg" width="48.7" height="64" viewBox="0 0 48.7 64"><defs><style>.a{fill:#9fa2a7;}</style></defs><g transform="translate(-953.2 -539.9)"><path class="a" d="M987.2,586.4a.9.9,0,0,0-.9.9V589a1.2,1.2,0,0,1-.7,1,.939.939,0,0,0,.4,1.8.367.367,0,0,0,.3-.1,2.96,2.96,0,0,0,1.9-2.8v-1.7A.993.993,0,0,0,987.2,586.4Z"/><path class="a" d="M969.7,590.2H956.1a1.11,1.11,0,0,1-1.1-1.1V554.7a.9.9,0,0,0-1.8,0v34.4a2.9,2.9,0,0,0,2.9,2.9h13.6a.9.9,0,0,0,.9-.9C970.7,590.6,970.3,590.2,969.7,590.2Z"/><path class="a" d="M954.2,551.7a.9.9,0,0,0,.9-.9v-2.6a1.11,1.11,0,0,1,1.1-1.1H963v1.3a1.9,1.9,0,0,0,1.9,1.9h11.8a1.9,1.9,0,0,0,1.9-1.9v-1.3h6.8a1.11,1.11,0,0,1,1.1,1.1v5.2a.9.9,0,0,0,1.8,0v-5.2a2.9,2.9,0,0,0-2.9-2.9h-6.8a1.831,1.831,0,0,0-1.8-1.6h-1.3a4.724,4.724,0,0,0-4.6-3.8,4.628,4.628,0,0,0-4.6,3.8H965a1.831,1.831,0,0,0-1.8,1.6h-6.8a2.9,2.9,0,0,0-2.9,2.9v2.6C953.2,551.3,953.6,551.7,954.2,551.7Zm16.5-10a2.927,2.927,0,0,1,2.7,1.9H968A2.927,2.927,0,0,1,970.7,541.7Zm-5.9,3.8h11.7v.6h0v2.2H964.7v-2.8Z"/><path class="a" d="M988.2,564.3v-3.1a.9.9,0,0,0-1.8,0v3.1a.9.9,0,0,0,.9.9A.839.839,0,0,0,988.2,564.3Z"/><path class="a" d="M987.2,582.5a6.8,6.8,0,1,0,6.8,6.8A6.807,6.807,0,0,0,987.2,582.5Zm0,11.8a4.9,4.9,0,1,1,4.9-4.9A4.784,4.784,0,0,1,987.2,594.3Z"/><path class="a" d="M1001.1,585.9l-2.6-.4c-.2-.5-.4-.9-.6-1.4l1.6-2.1a.91.91,0,0,0-.1-1.2l-.3-.3a.853.853,0,0,0-1.3,0,.955.955,0,0,0-.2,1l-1.5,2a1.183,1.183,0,0,0-.1,1,9.494,9.494,0,0,1,.9,2.1.969.969,0,0,0,.8.7l2.4.4v3.4l-2.4.4a.969.969,0,0,0-.8.7,9.492,9.492,0,0,1-.9,2.1.769.769,0,0,0,.1,1l1.4,2-2.4,2.4-2-1.4a1.183,1.183,0,0,0-1-.1,9.494,9.494,0,0,1-2.1.9.969.969,0,0,0-.7.8l-.4,2.4h-3.4l-.4-2.4a.969.969,0,0,0-.7-.8,9.492,9.492,0,0,1-2.1-.9.769.769,0,0,0-1,.1l-2,1.4-2.4-2.4,1.4-2a1.183,1.183,0,0,0,.1-1,9.494,9.494,0,0,1-.9-2.1.969.969,0,0,0-.8-.7l-2.4-.4v-3.4l2.4-.4a.969.969,0,0,0,.8-.7,9.492,9.492,0,0,1,.9-2.1.769.769,0,0,0-.1-1l-1.4-2,2.4-2.4,2,1.4a1.183,1.183,0,0,0,1,.1,9.494,9.494,0,0,1,2.1-.9.969.969,0,0,0,.7-.8l.4-2.4h3.4l.4,2.4a.969.969,0,0,0,.7.8,9.492,9.492,0,0,1,2.1.9.769.769,0,0,0,1-.1l2-1.4a.919.919,0,0,0,1.3-1.3l-.6-.6a.91.91,0,0,0-1.2-.1l-2.1,1.6c-.4-.2-.9-.4-1.4-.6l-.4-2.6a.948.948,0,0,0-.9-.8h-1.6v-2.4a.9.9,0,0,0-1.8,0v2.4h-1.6a.817.817,0,0,0-.9.8l-.4,2.6c-.5.2-.9.4-1.4.6l-2.1-1.6a.91.91,0,0,0-1.2.1l-3.6,3.6a.91.91,0,0,0-.1,1.2l1.6,2.1c-.2.4-.4.9-.6,1.4l-2.6.4a.948.948,0,0,0-.8.9v5a.817.817,0,0,0,.8.9l2.6.4c.2.5.4.9.6,1.4l-1.6,2.1a.91.91,0,0,0,.1,1.2l3.6,3.6a.91.91,0,0,0,1.2.1l2.1-1.6c.4.2.9.4,1.4.6l.4,2.6a.948.948,0,0,0,.9.8h5a.817.817,0,0,0,.9-.8l.4-2.6c.5-.2.9-.4,1.4-.6l2.1,1.6a.91.91,0,0,0,1.2-.1l3.6-3.6a.91.91,0,0,0,.1-1.2l-1.6-2.1c.2-.4.4-.9.6-1.4l2.6-.4a.948.948,0,0,0,.8-.9v-5A.948.948,0,0,0,1001.1,585.9Z"/><path class="a" d="M976.2,558.6h0v-.7c0-.1,0-.1-.1-.2v-.1c0-.1,0-.1-.1-.2v-.1c0-.1,0-.1-.1-.2V557c0-.1,0-.1-.1-.2a.1.1,0,0,0-.1-.1.1.1,0,0,0-.1-.1.1.1,0,0,0-.1-.1.1.1,0,0,0-.1-.1l-.1-.1v-.1c-.2-.3-.4-.5-.6-.8h0c0-.1-.1-.1-.1-.2h0l-.1-.1-.1-.1-.1-.1h0l-.1-.1h-.1l-.1-.1h0l-.1-.1-.1-.1-.1-.1a.1.1,0,0,1-.1-.1h-.3c-.1,0-.1-.1-.2-.1h0a5.639,5.639,0,0,0-1.2-.4h-1.1a5.549,5.549,0,0,0-5.5,5.5v2.2a5.5,5.5,0,0,0,11,0v-2.8A.1.1,0,0,1,976.2,558.6Zm-5.3-3.1h.9c.1,0,.1,0,.2.1h0c.1,0,.1,0,.2.1h0c.1,0,.1,0,.2.1h.1a.1.1,0,0,1,.1.1h0a.1.1,0,0,1,.1.1h0a.1.1,0,0,1,.1.1h0a.1.1,0,0,1,.1.1h0l.1.1.1.1.1.1.1.1.1.1v.1a.1.1,0,0,0,.1.1v.1a.1.1,0,0,0,.1.1v.1a.1.1,0,0,0,.1.1v.1a.1.1,0,0,0,.1.1v.7h0v.1h0c.1.2.1.5.2.7v.1a2.66,2.66,0,0,1-1.1-1,1.012,1.012,0,0,0-.7-.4,1.135,1.135,0,0,0-.8.3,4.817,4.817,0,0,1-3.3,1.5,5.018,5.018,0,0,1-1.2-.2v-1.1h0c0-.1,0-.1.1-.2v-.7a.1.1,0,0,1,.1-.1v-.1a.1.1,0,0,1,.1-.1v-.1l.1-.1.1-.1.1-.1.1-.1.1-.1.1-.1.1-.1.1-.1.1-.1.1-.1.1-.1h.1l.1-.1H971C970.8,555.5,970.8,555.5,970.9,555.5Zm-.2,9.5a3.585,3.585,0,0,1-3.6-3.6v-.5a5.284,5.284,0,0,0,1.3.1,6.708,6.708,0,0,0,4-1.4,4.665,4.665,0,0,0,2,1.2v.6A3.81,3.81,0,0,1,970.7,565Z"/><path class="a" d="M978.4,573.1a6.087,6.087,0,0,0-3.8-4.8h-.1c-.1,0-.1,0-.2-.1h-6.9c-.1,0-.1,0-.2.1h-.1a5.615,5.615,0,0,0-3.8,4.8,1.086,1.086,0,0,0,.4.9,12.779,12.779,0,0,0,7.3,2.2,13.582,13.582,0,0,0,7.3-2.2C978.3,573.8,978.4,573.4,978.4,573.1Zm-7.7,1.2a10.461,10.461,0,0,1-5.7-1.6,3.975,3.975,0,0,1,2.5-2.7h5.8a3.787,3.787,0,0,1,2.5,2.7A7.429,7.429,0,0,1,970.7,574.3Z"/><path class="a" d="M981.5,556.4a.9.9,0,0,0,0,1.8h9.9a3.33,3.33,0,0,0,3.2,2.4,3.4,3.4,0,0,0,0-6.8,3.33,3.33,0,0,0-3.2,2.4h-9.9Zm13.2-.6a1.5,1.5,0,1,1-1.5,1.5A1.473,1.473,0,0,1,994.7,555.8Z"/><path class="a" d="M980.6,568.3a.9.9,0,0,0,.9.9h9.9a3.33,3.33,0,0,0,3.2,2.4,3.4,3.4,0,0,0,0-6.8,3.33,3.33,0,0,0-3.2,2.4h-9.9A1.273,1.273,0,0,0,980.6,568.3Zm14.1-1.5a1.5,1.5,0,1,1-1.5,1.5A1.473,1.473,0,0,1,994.7,566.8Z"/></g></svg>