<svg xmlns="http://www.w3.org/2000/svg" width="71.7" height="71.4" viewBox="0 0 71.7 71.4"><defs><style>.a{fill:#9fa2a7;}</style></defs><g transform="translate(-939.7 -211.2)"><path class="a" d="M975.4,215.5a3.3,3.3,0,1,0,3.3,3.3A3.329,3.329,0,0,0,975.4,215.5Zm0,4.5a1.2,1.2,0,1,1,1.2-1.2A1.216,1.216,0,0,1,975.4,220Z"/><path class="a" d="M975.4,215.5a3.3,3.3,0,1,0,3.3,3.3A3.329,3.329,0,0,0,975.4,215.5Zm0,4.5a1.2,1.2,0,1,1,1.2-1.2A1.216,1.216,0,0,1,975.4,220Z"/><path class="a" d="M975.4,215.5a3.3,3.3,0,1,0,3.3,3.3A3.329,3.329,0,0,0,975.4,215.5Zm0,4.5a1.2,1.2,0,1,1,1.2-1.2A1.216,1.216,0,0,1,975.4,220Z"/><path class="a" d="M1007.1,211.2H943.6a3.9,3.9,0,0,0-3.9,3.9v46.5a3.9,3.9,0,0,0,3.9,3.9h6.8a1.071,1.071,0,0,0,.1,1.4l5.1,5.1a24.416,24.416,0,0,0-1,2.4h-7.2a1.11,1.11,0,0,0-1.1,1.1v6a1.11,1.11,0,0,0,1.1,1.1h20.8a1.11,1.11,0,0,0,1.1-1.1,5.8,5.8,0,0,1,11.6,0,1.11,1.11,0,0,0,1.1,1.1h20.8a1.11,1.11,0,0,0,1.1-1.1v-6a1.11,1.11,0,0,0-1.1-1.1h-7.2a24.416,24.416,0,0,0-1-2.4l5.1-5.1a1.071,1.071,0,0,0,.1-1.4h7.4a3.9,3.9,0,0,0,3.9-3.9V235.5a1.1,1.1,0,1,0-2.2,0v26.1a1.792,1.792,0,0,1-1.8,1.8h-9.5l-6.2-6.2V250a1.11,1.11,0,0,0-1.1-1.1h-1.9v-6.5l1.5-1.4a1.128,1.128,0,0,0,.3-1.1l-2.5-8.1a.993.993,0,0,0-1-.7H984a.993.993,0,0,0-1,.7l-2.5,8.1a1.129,1.129,0,0,0,.3,1.1l1.5,1.4v6.5h-1.9a1.11,1.11,0,0,0-1.1,1.1v2.7H971V251l4-4a1.08,1.08,0,0,0,.3-.7v-8.6a.778.778,0,0,0-.3-.7l-5.6-5.5a.937.937,0,0,0-1.1-.2,1,1,0,0,0-.6,1v9.4l-2.7,1.7-2.7-1.7v-.6a1.1,1.1,0,1,0-2.2,0v1.2a1.05,1.05,0,0,0,.5.9l3.8,2.4a1.083,1.083,0,0,0,1.1,0l3.8-2.4a1.05,1.05,0,0,0,.5-.9v-7.5l3.5,3.5v7.8l-4,4a1.08,1.08,0,0,0-.3.7v2.1a.974.974,0,0,0-.8,1v7.2a24.431,24.431,0,0,0-2.4,1l-4.8-4.8v-6.5a.908.908,0,0,0-.3-.7l-4-4V238l3.5-3.5v1.3a1.1,1.1,0,1,0,2.2,0V232a1.326,1.326,0,0,0-.6-1,.913.913,0,0,0-1.1.2l-5.6,5.5a1.08,1.08,0,0,0-.3.7V246a.908.908,0,0,0,.3.7l4,4v6.1l-6.2,6.2H944a1.792,1.792,0,0,1-1.8-1.8v-35h67v4.1a1.1,1.1,0,1,0,2.2,0V215A4.488,4.488,0,0,0,1007.1,211.2ZM984,241.1l-1.3-1.2,2.1-6.8h1.3l2.1,6.8-1.3,1.2a1.135,1.135,0,0,0-.3.8v7h-2.1v-7A5.582,5.582,0,0,0,984,241.1Zm5.4,9.8V257l-4.8,4.8a24.418,24.418,0,0,0-2.4-1v-7.2a1.077,1.077,0,0,0-.8-1v-1.7ZM965.9,264a15.062,15.062,0,0,1,3.5-1.4.993.993,0,0,0,.7-1v-6.9h10v6.9a.993.993,0,0,0,.7,1,21.3,21.3,0,0,1,3.5,1.4,1.063,1.063,0,0,0,1.2-.2l4.9-4.9,6.1,6.1h0l1,1-4.9,4.9a1.063,1.063,0,0,0-.2,1.2,15.067,15.067,0,0,1,1.4,3.5.993.993,0,0,0,1,.7h6.9v3.9H991a15.961,15.961,0,0,0-15.9-14.9,16.157,16.157,0,0,0-6.5,1.4,1.051,1.051,0,1,0,.9,1.9,13.807,13.807,0,0,1,19.4,11.6H983a7.972,7.972,0,0,0-15.8,0h-5.9a13.946,13.946,0,0,1,4.3-9,1.061,1.061,0,0,0-1.5-1.5,16.527,16.527,0,0,0-5,10.6H948.4v-3.9h6.9a.993.993,0,0,0,1-.7,21.3,21.3,0,0,1,1.4-3.5,1.064,1.064,0,0,0-.2-1.2l-4.9-4.9,1-1h0l6.1-6.1,4.9,4.9A1.059,1.059,0,0,0,965.9,264Zm-24-39.6V215a1.793,1.793,0,0,1,1.8-1.8h63.5a1.793,1.793,0,0,1,1.8,1.8v9.3H941.9Z"/></g></svg>