<svg xmlns="http://www.w3.org/2000/svg" width="13" height="17.796" viewBox="0 0 13 17.796">
    <g transform="translate(-1191 -24.602)">
        <path d="M1195.936,40.834a1.564,1.564,0,1,0,3.128,0V40.66h-3.128Z" fill="#9fa2a7"/>
        <path d="M1202.436,36.489h-9.872a1.565,1.565,0,0,0,0,3.129h9.872a1.565,1.565,0,0,0,0-3.129Z" fill="#9fa2a7"/>
        <path d="M1201.7,31.125a4.225,4.225,0,0,0-2.672-3.459,1.912,1.912,0,1,0-3.048,0,4.225,4.225,0,0,0-2.672,3.459l-.495,4.322h9.382Zm-4.2-3.743a.869.869,0,1,1,.869-.869A.87.87,0,0,1,1197.5,27.382Z" fill="#9fa2a7"/>
    </g>
</svg>