<svg xmlns="http://www.w3.org/2000/svg" viewBox="0 0 36 16"><defs><style>.cls-1{fill:#9fa2a7;stroke:#fff;stroke-miterlimit:10;}.cls-2{fill:#f2b233;}.cls-3{fill:#04af76;}.cls-4{fill:#fff6e1;}</style></defs>
<g id="Layer_3" data-name="Layer 3"><rect class="cls-1" x="1" y="4.5" width="7" height="7" transform="translate(9 16) rotate(-180)"/><path class="cls-2" d="M29,13c0,3.09-3,2.91-6.81,2.91S15.37,16,15.37,13s3-8.23,6.82-8.23S29,9.89,29,13Z"/><path class="cls-2" d="M18.87,1.55C18.87.06,20.36.13,22.19.13S25.5.06,25.5,1.55s-1.49,4-3.31,4S18.87,3.05,18.87,1.55Z"/><path class="cls-3" d="M25.1,5a.45.45,0,0,1-.46.46H19.73A.46.46,0,0,1,19.27,5V4.9a.46.46,0,0,1,.46-.46h4.94a.45.45,0,0,1,.45.46V5Z"/><circle class="cls-3" cx="22.19" cy="10.87" r="3.04"/><path class="cls-4" d="M21.93,13.33V12.7a2.18,2.18,0,0,1-1-.26l.15-.68A2.12,2.12,0,0,0,22,12c.33,0,.56-.12.56-.35s-.18-.36-.63-.51c-.63-.2-1-.5-1-1.06s.23-.91,1-1V8.52h.5V9a1.67,1.67,0,0,1,.87.2l-.16.66a1.62,1.62,0,0,0-.83-.21c-.38,0-.51.16-.51.33s.2.31.71.51c.68.25,1,.56,1,1.09s-.28,1-1,1.09v.63Z"/></g></svg>