<svg xmlns="http://www.w3.org/2000/svg" width="22.278" height="23" viewBox="0 0 22.278 23">

  <g transform="translate(-953.966 -381.362)">
    <path class="a" d="M975.655,381.362h-21.1a.589.589,0,0,0,0,1.178h1.271v21.219a.589.589,0,0,0,.309.52.582.582,0,0,0,.6-.029l2.557-1.7,2.566,1.707a.584.584,0,0,0,.653,0l2.557-1.7,2.566,1.707a.584.584,0,0,0,.653,0l2.556-1.7,2.567,1.707a.594.594,0,0,0,.324.1.634.634,0,0,0,.279-.068.591.591,0,0,0,.31-.52l-.01-21.219h1.339a.591.591,0,0,0,.589-.589A.6.6,0,0,0,975.655,381.362Zm-2.5,21.3-1.978-1.315a.583.583,0,0,0-.652,0l-2.557,1.707-2.567-1.707a.583.583,0,0,0-.652,0l-2.557,1.7-2.566-1.7a.584.584,0,0,0-.653,0L957,402.655v-20.12h16.145Z"/>
    <path class="a" d="M959.712,390.765h6.168a.589.589,0,0,0,0-1.178h-6.168a.589.589,0,0,0,0,1.178Z"/>
    <path class="a" d="M959.712,392.811h4.623a.589.589,0,0,0,0-1.178h-4.623a.589.589,0,0,0,0,1.178Z"/>
    <path class="a" d="M968.962,390.765H970.5a.589.589,0,0,0,0-1.178h-1.541a.589.589,0,0,0,0,1.178Z"/>
    <path class="a" d="M968.962,392.811H970.5a.589.589,0,0,0,0-1.178h-1.541a.589.589,0,0,0,0,1.178Z"/>
    <path class="a" d="M959.712,386.039h6.168a.589.589,0,0,0,0-1.178h-6.168a.589.589,0,0,0,0,1.178Z"/>
    <path class="a" d="M959.712,388.08h4.623a.588.588,0,0,0,0-1.177h-4.623a.588.588,0,1,0,0,1.177Z"/>
    <path class="a" d="M968.962,386.039H970.5a.589.589,0,0,0,0-1.178h-1.541a.589.589,0,0,0,0,1.178Z"/>
    <path class="a" d="M968.962,388.08H970.5a.588.588,0,1,0,0-1.177h-1.541a.588.588,0,1,0,0,1.177Z"/>
    <path class="a" d="M959.712,395.549h6.168a.589.589,0,0,0,0-1.178h-6.168a.589.589,0,0,0,0,1.178Z"/>
    <path class="a" d="M959.712,397.591h4.623a.589.589,0,0,0,0-1.178h-4.623a.589.589,0,0,0,0,1.178Z"/>
    <path class="a" d="M968.962,395.549H970.5a.589.589,0,0,0,0-1.178h-1.541a.589.589,0,0,0,0,1.178Z"/>
    <path class="a" d="M968.962,397.591H970.5a.589.589,0,0,0,0-1.178h-1.541a.589.589,0,0,0,0,1.178Z"/>
  </g>
</svg>
