<svg xmlns="http://www.w3.org/2000/svg" width="34.647" height="34.714" viewBox="0 0 34.647 34.714"><defs><style>.billplan{fill:#b7295a;}</style></defs><g transform="translate(-1057.353 -213.661)"><path class="billplan" d="M1073.362,213.661h13.061a2.678,2.678,0,0,1,2.886,2.877q0,8.689-.008,17.379c0,.311.022.44.4.445a2.288,2.288,0,0,1,2.254,2.184,37.4,37.4,0,0,1-.064,4.746,9.433,9.433,0,0,1-4.192,6.923.668.668,0,1,1-.748-1.1,8.288,8.288,0,0,0,3.481-5.1,8.068,8.068,0,0,0,.206-1.859c0-1.111,0-2.222,0-3.334a1.063,1.063,0,0,0-.95-1.157c-.562-.033-.959.348-1.045,1a.676.676,0,0,1-.708.661.666.666,0,0,1-.62-.705c-.011-.388,0-.778,0-1.166a1.055,1.055,0,0,0-.945-1.123,1,1,0,0,0-1.048,1,.669.669,0,1,1-1.334-.074c-.005-.194.007-.389,0-.583a1.047,1.047,0,0,0-.971-1.012.99.99,0,0,0-1.019.942c-.06.476-.31.737-.692.723-.4-.014-.641-.311-.642-.81,0-1.9,0-3.807-.006-5.71,0-.7-.394-1.151-.981-1.149a1.059,1.059,0,0,0-1.01,1.184q0,4.377,0,8.752c0,.181,0,.362,0,.542,0,.555-.25.867-.678.859s-.651-.307-.653-.841c0-.833.007-1.667-.006-2.5a2,2,0,0,0-1.65-1.966c-.665-.128-1.006.152-1.006.834,0,1.833-.008,3.667,0,5.5a8.251,8.251,0,0,0,3.53,6.948c.373.275.505.6.343.92a.651.651,0,0,1-.725.366.823.823,0,0,1-.365-.188,9.561,9.561,0,0,1-4.114-7.664,5.838,5.838,0,0,1,0-.916c.043-.387-.059-.5-.477-.5-3.8.02-7.6.012-11.4.012-.457,0-.915,0-1.372,0a2.658,2.658,0,0,1-2.733-2.734q-.008-6.564,0-13.129,0-3.333,0-6.668a2.663,2.663,0,0,1,2.821-2.813Q1066.77,213.659,1073.362,213.661Zm3.968,14.589c.114-.114.111-.276.166-.415a2.393,2.393,0,0,1,2.159-1.488,2.348,2.348,0,0,1,2.135,1.452c.07.175.125.356.187.535V232.5a.586.586,0,0,0,.15,0,2.231,2.231,0,0,1,2.7.794c.135.172.22.084.338.016a2.269,2.269,0,0,1,1.8-.212,3.39,3.39,0,0,1,1.01.586c0-4.386-.005-8.718.009-13.051,0-.338-.164-.3-.378-.3q-5.281,0-10.564,0-9,0-18.009-.006c-.247,0-.356.028-.356.326q.016,7.813.01,15.627a1.318,1.318,0,0,0,1.385,1.388c4.311,0,8.623,0,12.935.012.292,0,.331-.1.328-.354q-.02-1.5,0-3a1.979,1.979,0,0,1,2.047-2,3.6,3.6,0,0,1,1.95.642ZM1073.346,219v0q7.112,0,14.223.008c.327,0,.424-.082.413-.413-.025-.749,0-1.5-.008-2.25a1.294,1.294,0,0,0-1.331-1.344q-13.329,0-26.659,0a1.286,1.286,0,0,0-1.3,1.289c-.005.764.018,1.529-.012,2.292-.014.363.113.426.445.425Q1066.234,218.987,1073.346,219Z"/><path class="billplan" d="M1062.012,217.005a.664.664,0,1,0-.663.656A.667.667,0,0,0,1062.012,217.005Zm3.328-.038a.664.664,0,1,0-.672.693A.684.684,0,0,0,1065.34,216.967Zm2.647.694a.666.666,0,1,0-.646-.673A.669.669,0,0,0,1067.987,217.661Z"/><path class="billplan" d="M1066.8,224.155l4.708,0q0,2.177,0,4.354H1062.5v-.932l.005-3.423h4.293m0-1.157h-4.607c-.622,0-.841.227-.843.86q0,2.479-.006,4.958c0,.626.22.85.847.851h7.645l2,0c.6,0,.826-.231.827-.833q0-2.5,0-5c0-.6-.228-.834-.825-.834l-5.04,0Z"/><path class="billplan" d="M1067.009,233c-1.621,0-3.242,0-4.864,0a.7.7,0,0,1-.77-.5c-.14-.45.207-.837.75-.839q2.578-.009,5.156-.007c1.538,0,3.076.006,4.614,0a.7.7,0,0,1,.71.4.617.617,0,0,1-.07.667.74.74,0,0,1-.661.27c-1.622-.006-3.243,0-4.865,0Z"/><path class="billplan" d="M1065.044,234.337c.942,0,1.883,0,2.825,0,.5,0,.789.244.8.649.011.421-.293.682-.808.683q-2.845.006-5.69.007c-.515,0-.821-.258-.819-.676s.3-.662.828-.663Q1063.612,234.335,1065.044,234.337Z"/></g></svg>