<svg xmlns="http://www.w3.org/2000/svg" width="27.752" height="26" viewBox="0 0 27.752 26">
    <g id="Builed-count" transform="translate(-1177.124 -725)">
        <path id="Rectangle_151" d="M0 0h8.673v.849H0z" class="cls-1b" data-name="Rectangle 151" transform="translate(1180.159 744.947)"/>
        <path id="Rectangle_152" d="M0 0h.849v2.602H0z" class="cls-1b" data-name="Rectangle 152" transform="translate(1190.575 744.938)"/>
        <path id="Rectangle_153" d="M0 0h.849v2.602H0z" class="cls-1b" data-name="Rectangle 153" transform="translate(1193.177 744.938)"/>
        <path id="Rectangle_154" d="M0 0h.849v2.602H0z" class="cls-1b" data-name="Rectangle 154" transform="translate(1195.779 744.938)"/>
        <path id="Rectangle_155" d="M0 0h.849v2.602H0z" class="cls-1b" data-name="Rectangle 155" transform="translate(1198.381 744.938)"/>
        <path id="Rectangle_156" d="M0 0h.849v2.602H0z" class="cls-1b" data-name="Rectangle 156" transform="translate(1200.983 744.938)"/>
        <path id="Path_214" d="M1204.434 750.151v-12.838l-6.108 3.054-.854-15.367h-4.272l-.877 14.031-2.684 1.342-.85-11.47h-4.252l-.881 10.124-6.093 3.047v8.077h-.442V751h27.752v-.849zM1194 725.849h2.668l.049.886h-2.773zm-.109 1.735h2.874l.049.885h-2.978zm-.108 1.734h3.078l.637 11.463-1.738.868v-4.336l-2.557 1.278zm-8.466.434H1188l.066.885h-2.829zm-.151 1.734h2.965l.066.886h-3.108zm-.15 1.735h3.244l.56 7.562-1.733.866v-4.336l-2.538 1.269zm-4.849 16.93h-1.753v-.885h1.753v.885zm7.806 0h-6.957V747.1h6.957zm15.611 0h-14.762v-.885h14.762zm0-1.735h-14.762v-2.168h-8.655v2.168h-1.753V742.6l7.824-3.912v4.336l8.673-4.336v4.336l8.673-4.336v9.729z" class="cls-1b" data-name="Path 214"/>
    </g>
</svg>
