<svg xmlns="http://www.w3.org/2000/svg" width="70.72" height="68" viewBox="0 0 70.72 68">
<defs><style>.axxx{fill:#b3b6ba;}</style></defs><g transform="translate(-604.64 -291)"><path class="axxx" d="M674.17,338.432a3.929,3.929,0,0,0-2.89-1.19H653.133a8.394,8.394,0,0,1-3,3.909,7.8,7.8,0,0,1-4.7,1.53H634.56a7.792,7.792,0,0,1-4.7-1.53,8.388,8.388,0,0,1-3-3.909H608.72a4.063,4.063,0,0,0-4.08,4.079v13.6A4.063,4.063,0,0,0,608.72,359h62.561a4.063,4.063,0,0,0,4.079-4.079v-13.6A3.928,3.928,0,0,0,674.17,338.432Zm-15.937,14.322a2.67,2.67,0,1,1,.807-1.913A2.617,2.617,0,0,1,658.233,352.754Zm10.88,0a2.67,2.67,0,1,1,.807-1.913A2.616,2.616,0,0,1,669.113,352.754Z"/><path class="axxx" d="M620.96,315.481h10.88v19.04a2.758,2.758,0,0,0,2.72,2.721h10.881a2.758,2.758,0,0,0,2.719-2.721v-19.04h10.88a2.54,2.54,0,0,0,2.508-1.7,2.417,2.417,0,0,0-.595-2.933l-19.041-19.04a2.667,2.667,0,0,0-3.825,0l-19.04,19.04a2.418,2.418,0,0,0-.595,2.933A2.542,2.542,0,0,0,620.96,315.481Z"/></g></svg>