<svg xmlns="http://www.w3.org/2000/svg" width="20" height="15.201" viewBox="0 0 20 15.201"><defs><style>.a{fill:#9fa2a7;}</style></defs><g transform="translate(-1648.777 -157.556)"><path class="a" d="M1664.583,166.426v-6.935a1.937,1.937,0,0,0-1.935-1.935h-11.936a1.937,1.937,0,0,0-1.935,1.935v6.935a1.937,1.937,0,0,0,1.935,1.936h1.737l.038,1.748a.645.645,0,0,0,1.033.5l2.983-2.249h6.145a1.937,1.937,0,0,0,1.935-1.936Zm-8.3.646a.64.64,0,0,0-.388.13l-2.149,1.62-.024-1.119a.644.644,0,0,0-.645-.631h-2.369a.646.646,0,0,1-.645-.645v-6.936a.645.645,0,0,1,.645-.645h11.936a.646.646,0,0,1,.645.645v6.936a.647.647,0,0,1-.645.645Zm12.49-3.549v5.323a1.938,1.938,0,0,1-1.936,1.935h-1.74l-.034,1.347a.645.645,0,0,1-.645.629c-.258,0-.114.045-3.341-1.976h-2.949a.645.645,0,1,1,0-1.29c3.422,0,3.262-.036,3.477.1l2.2,1.376.021-.845a.645.645,0,0,1,.645-.629h2.369a.645.645,0,0,0,.645-.645v-5.323a.645.645,0,0,0-.645-.645.645.645,0,0,1,0-1.29,1.938,1.938,0,0,1,1.936,1.935Zm-8.065-1.734a.646.646,0,0,1-.645.646h-6.774a.646.646,0,0,1,0-1.291h6.774A.645.645,0,0,1,1660.712,161.789Zm-1.169,2.823a.645.645,0,0,1-.645.645h-4.436a.645.645,0,1,1,0-1.29h4.436A.645.645,0,0,1,1659.543,164.612Z"/></g></svg>