<svg xmlns="http://www.w3.org/2000/svg" width="13.605" height="13.353" viewBox="0 0 13.605 13.353"><defs><style>.adsx{fill:#fff;}</style></defs><g transform="translate(-360.515 -211.209)"><path class="adsx" d="M362.06,224.562a1.433,1.433,0,0,1-1.545-1.544V212.764a1.444,1.444,0,0,1,1.556-1.555h10.474a1.447,1.447,0,0,1,1.575,1.575V223a1.438,1.438,0,0,1-1.566,1.563H362.06Zm-.664-1.538a.58.58,0,0,0,.652.656h10.533a.58.58,0,0,0,.658-.65v-7.106H361.4Zm11.838-8.018v-.556c0-.634,0-1.262-.008-1.889a.461.461,0,0,0-.389-.436c-.191-.014-.382-.019-.574-.019l-.674.008,0,.161c0,.2,0,.4-.005.6a.223.223,0,0,0,.074.213.7.7,0,0,1,.229.5.778.778,0,0,1-1.274.636.813.813,0,0,1-.289-.6.609.609,0,0,1,.191-.471c.12-.111.125-.215.124-.422V212.1h-2.721v.1c0,.285,0,.561.005.838a.786.786,0,0,1,.3.593.758.758,0,0,1-.221.544.776.776,0,0,1-1.111,0,.756.756,0,0,1-.215-.541.821.821,0,0,1,.26-.58,6.478,6.478,0,0,0,.036-.849V212.1H364v.079c0,.221,0,.437,0,.653a.29.29,0,0,0,.09.269.7.7,0,0,1,.22.5.793.793,0,0,1-.24.575.768.768,0,0,1-.54.218.777.777,0,0,1-.514-.194.792.792,0,0,1-.266-.575.667.667,0,0,1,.2-.505.371.371,0,0,0,.1-.329c0-.208,0-.416,0-.63v-.079h-1.008a.579.579,0,0,0-.647.644v2.271Z"/><path class="adsx" d="M366.221,220.624h2.193v1.93h-2.193Z"/><path class="adsx" d="M362.444,222.558v-1.926h2.2v1.926Z"/><path class="adsx" d="M372.186,222.563H370v-1.936h2.183Z"/><path class="adsx" d="M366.221,217.515h2.193v1.929h-2.193Z"/><path class="adsx" d="M362.444,219.448v-1.925h2.2v1.925Z"/><path class="adsx" d="M372.186,219.454H370v-1.937h2.183Z"/></g></svg>