<svg xmlns="http://www.w3.org/2000/svg" width="69" height="69" viewBox="0 0 69 69">
    <defs>
        <style>
            .chat-1{fill:url(#linear-gradient)}.chat-2AC{fill:#fff}.chat-3{filter:url(#Ellipse_1)}
        </style>
        <linearGradient id="linear-gradient" x1=".848" x2=".174" y1=".147" y2=".83" gradientUnits="objectBoundingBox">
            <stop offset="0" stop-color="#FFC200"/>
            <stop offset=".806" stop-color="#FFA800"/>
            <stop offset="1" stop-color="#FF9D00"/>
        </linearGradient>
        <filter id="Ellipse_1" width="69" height="69" x="0" y="0" filterUnits="userSpaceOnUse">
            <feOffset dx="-1"/>
            <feGaussianBlur result="blur" stdDeviation="1.5"/>
            <feFlood flood-opacity=".302"/>
            <feComposite in2="blur" operator="in"/>
            <feComposite in="SourceGraphic"/>
        </filter>
    </defs>
    <g id="Chat-right-bottom" transform="translate(-1196.5 -719.5)">
        <g id="Group_42" class="chat-3" data-name="Group 42" transform="translate(1196.5 719.5)">
            <circle id="Ellipse_1-2" cx="30" cy="30" r="30" class="chat-1" data-name="Ellipse 1" transform="translate(5.5 4.5)"/>
        </g>
        <path id="Path_20" d="M1241.394 741h-18.788a2.355 2.355 0 0 0-2.348 2.348v16.607a2.355 2.355 0 0 0 2.348 2.348h16.439l4.7 4.7v-23.655a2.355 2.355 0 0 0-2.351-2.348zm-9.373 18.5a9.232 9.232 0 0 1-6.686-2.845.963.963 0 0 1-.2-1.058 1.03 1.03 0 0 1 .929-.634.95.95 0 0 1 .687.3 7.288 7.288 0 0 0 5.274 2.257 7.286 7.286 0 0 0 5.228-2.213.954.954 0 0 1 .685-.3 1.033 1.033 0 0 1 .933.638.958.958 0 0 1-.21 1.055 9.243 9.243 0 0 1-6.64 2.8zm.151-15.509a1.013 1.013 0 0 1 1.088 1.06 1.424 1.424 0 0 1-1.45 1.36.971.971 0 0 1-1.069-1.077 1.393 1.393 0 0 1 1.431-1.343zm1.02 3.8c.572 0 .668.689.381 1.749l-.752 2.9c-.134.512-.076.689.057.689a2.953 2.953 0 0 0 1.288-.654l.325.441a5.956 5.956 0 0 1-3.407 1.909c-.572 0-.992-.353-.592-1.908l.658-2.757c.114-.441.133-.618 0-.618a4.321 4.321 0 0 0-1.355.606l-.286-.477a7.563 7.563 0 0 1 3.683-1.882z" class="chat-2AC" data-name="Path 20"/>
    </g>
</svg>