<svg xmlns="http://www.w3.org/2000/svg" width="21.162" height="30" viewBox="0 0 21.162 30">
    <defs>
        <style>
            .cls-1cc{fill:#c1d82f}
        </style>
    </defs>
    <g id="confirmed-count" transform="translate(-784.419 -723)">
        <g id="Group_338" data-name="Group 338">
            <g id="Group_337" data-name="Group 337">
                <path id="Path_202" d="M799.026 728.07l1.86 1.86h2.265v20.739h-16.3v-20.74h2.265l1.86-1.86h-6.555V753h21.162v-24.93z" class="cls-1cc" data-name="Path 202"/>
                <path id="Path_203" d="M795 744.513a6.977 6.977 0 0 1-2.388-1.972 8.042 8.042 0 0 1-1.265-2.458 9.96 9.96 0 0 1-.462-2.637 8.656 8.656 0 0 0 1.542-.381 9.914 9.914 0 0 0 1.483-.658 9.692 9.692 0 0 0 1.09-.687 9.573 9.573 0 0 0 1.089.687 9.881 9.881 0 0 0 1.484.658 8.615 8.615 0 0 0 1.542.381 9.941 9.941 0 0 1-.454 2.613 8.083 8.083 0 0 1-1.264 2.47 6.979 6.979 0 0 1-2.397 1.984z" class="cls-1cc" data-name="Path 203"/>
                <path id="Path_204" d="M792.355 728.4l-2.314 2.314h9.894l-2.29-2.29a1.161 1.161 0 0 1-.215-1.356 2.723 2.723 0 0 0 .307-1.761 2.772 2.772 0 0 0-5.505.454 2.857 2.857 0 0 0 .307 1.289 1.1 1.1 0 0 1-.184 1.35z" class="cls-1cc" data-name="Path 204"/>
            </g>
        </g>
    </g>
</svg>
