<svg xmlns="http://www.w3.org/2000/svg" width="25.774" height="26" viewBox="0 0 25.774 26"><defs><style>.avdd2{fill:#ffffff;}</style></defs><g transform="translate(-490.113 -1944.034)"><path class="avdd2" d="M496.423,1959.164a6.869,6.869,0,0,0,1.854-.356,5.316,5.316,0,0,0,3.352-3.428,7.729,7.729,0,0,0,.461-2.7c-.009-1.928,0-3.856,0-5.784v-.25c-.162.161-.3.294-.434.43l-1.492,1.5a.764.764,0,0,1-.854.222.726.726,0,0,1-.5-.649.763.763,0,0,1,.247-.639q1.1-1.1,2.2-2.2.509-.507,1.013-1.017a.77.77,0,0,1,1.148-.005q1.619,1.616,3.235,3.233a.765.765,0,1,1-1.07,1.092q-.878-.872-1.748-1.749c-.062-.062-.114-.134-.171-.2l-.041.028c0,.045,0,.09,0,.135,0,2.056.034,4.113-.011,6.168a8.143,8.143,0,0,1-2.1,5.5,6.5,6.5,0,0,1-3.083,1.866,7.857,7.857,0,0,1-1.907.316c-.111,0-.118.075-.135.146a2.938,2.938,0,0,1-.962,1.54,3.2,3.2,0,0,1-5.251-2.981,3.13,3.13,0,0,1,1.874-2.369,3.2,3.2,0,0,1,4.339,2.022Zm-4.774.788a1.671,1.671,0,1,0,3.341-.011,1.671,1.671,0,0,0-3.341.011Z"/><path class="avdd2" d="M503.061,1958.349c.167.181.353.374.529.577.031.035.026.107.026.162,0,1.472,0,2.945,0,4.418a.234.234,0,0,0,.2.276,3.189,3.189,0,0,1,2.232,3.189,3.116,3.116,0,0,1-.874,2.057,3.175,3.175,0,0,1-4.121.445,3.126,3.126,0,0,1-1.4-2.635,3.181,3.181,0,0,1,2.268-3.066.2.2,0,0,0,.172-.231q-.008-2,0-4.007a.345.345,0,0,1,.086-.205C502.467,1959,502.764,1958.677,503.061,1958.349Zm-.23,10.148a1.67,1.67,0,1,0-1.652-1.7A1.67,1.67,0,0,0,502.831,1968.5Z"/><path class="avdd2" d="M503.817,1963.782a.234.234,0,0,1-.2-.276c.007-1.473,0-2.946,0-4.418,0-.055.005-.127-.026-.162-.176-.2-.362-.4-.529-.577-.3.328-.594.651-.884.98a.345.345,0,0,0-.086.205q-.008,2,0,4.007a.2.2,0,0,1-.172.231,3.181,3.181,0,0,0-2.268,3.066,3.126,3.126,0,0,0,1.4,2.635,3.175,3.175,0,0,0,4.121-.445,3.116,3.116,0,0,0,.874-2.057A3.189,3.189,0,0,0,503.817,1963.782Zm-.986,4.715a1.67,1.67,0,1,1,1.693-1.65A1.669,1.669,0,0,1,502.831,1968.5Z"/><path class="avdd2" d="M501.509,1958.5a8.143,8.143,0,0,0,2.1-5.5c.045-2.055.01-4.112.011-6.168,0-.045,0-.09,0-.135l.041-.028c.057.067.109.139.171.2q.873.876,1.748,1.749a.765.765,0,1,0,1.07-1.092q-1.616-1.618-3.235-3.233a.77.77,0,0,0-1.148.005q-.5.51-1.013,1.017-1.1,1.1-2.2,2.2a.763.763,0,0,0-.247.639.726.726,0,0,0,.5.649.764.764,0,0,0,.854-.222l1.492-1.5c.135-.136.272-.269.434-.43v.25c0,1.928-.006,3.856,0,5.784a7.729,7.729,0,0,1-.461,2.7,5.316,5.316,0,0,1-3.352,3.428,6.869,6.869,0,0,1-1.854.356l-.039-.126a3.2,3.2,0,0,0-4.339-2.022,3.13,3.13,0,0,0-1.874,2.369,3.2,3.2,0,0,0,5.251,2.981,2.938,2.938,0,0,0,.962-1.54c.017-.071.024-.142.135-.146a7.857,7.857,0,0,0,1.907-.316A6.5,6.5,0,0,0,501.509,1958.5Zm-8.178,3.127a1.673,1.673,0,1,1-.013-3.345,1.673,1.673,0,0,1,.013,3.345Z"/><path class="avdd2" d="M514.706,1957.482a3.183,3.183,0,0,0-5.09,1.559.144.144,0,0,1-.179.122,8.517,8.517,0,0,1-2.329-.463,4.976,4.976,0,0,1-2.977-2.753c-.014-.033-.032-.063-.063-.122l-.023.106a6.678,6.678,0,0,1-.583,1.67.22.22,0,0,0,.029.275,6.594,6.594,0,0,0,3.1,2.261,9.789,9.789,0,0,0,2.834.546.168.168,0,0,1,.181.146,3.165,3.165,0,0,0,3.729,2.25,3.2,3.2,0,0,0,1.375-5.6Zm-1.971,4.142a1.673,1.673,0,1,1,1.613-1.705A1.673,1.673,0,0,1,512.735,1961.624Z"/></g></svg>