<svg xmlns="http://www.w3.org/2000/svg" viewBox="0 0 12.4 14.26">
<g id="Layer_2" data-name="Layer 2"><g id="Layer_1-2" data-name="Layer 1"><path class="cls-1" d="M1.09,14.26a1.06,1.06,0,0,1-.77-.32A1,1,0,0,1,0,13.16V3.88A1,1,0,0,1,.32,3.1a1,1,0,0,1,.77-.31H3.71V1.09A1.06,1.06,0,0,1,4,.32,1,1,0,0,1,4.81,0h5a1,1,0,0,1,.77.32l1.51,1.51a1,1,0,0,1,.32.77v7.78a1,1,0,0,1-.32.77,1,1,0,0,1-.77.32H8.69v1.69a1.09,1.09,0,0,1-1.1,1.1ZM1.27,3.58a.42.42,0,0,0-.33.15.44.44,0,0,0-.15.32V13a.48.48,0,0,0,.15.33.44.44,0,0,0,.33.14H7.42A.48.48,0,0,0,7.89,13V11.47H4.81a1.09,1.09,0,0,1-1.1-1.09V3.58ZM5,.79a.48.48,0,0,0-.33.15.44.44,0,0,0-.14.33V10.2a.44.44,0,0,0,.14.33.49.49,0,0,0,.33.15h6.15a.52.52,0,0,0,.48-.48V4H8.75a.38.38,0,0,1-.39-.39V.79ZM9.15,3.25h2.46V2.66a.48.48,0,0,0-.15-.33L10.07.94A.48.48,0,0,0,9.74.79H9.15Z"/></g></g></svg>