<svg xmlns="http://www.w3.org/2000/svg" width="16.721" height="16" viewBox="0 0 16.721 16">
  <defs>
    <style>
      .cls-1 {
        fill: #6fad28;
      }
    </style>
  </defs>
  <path id="Customer-Score-icon" class="cls-1" d="M16.5-8.656a.948.948,0,0,1,.641.375,1.044,1.044,0,0,1,.219.688.959.959,0,0,1-.3.656L13.75-3.719,14.531.844a.987.987,0,0,1-.141.7.917.917,0,0,1-.578.422.964.964,0,0,1-.719-.094L9-.25,4.906,1.875a.964.964,0,0,1-.719.094.917.917,0,0,1-.578-.422.987.987,0,0,1-.141-.7L4.25-3.719.938-6.937a.959.959,0,0,1-.3-.656,1.044,1.044,0,0,1,.219-.687A.948.948,0,0,1,1.5-8.656l4.563-.656,2.031-4.125a.951.951,0,0,1,.547-.5,1.064,1.064,0,0,1,.719,0,.951.951,0,0,1,.547.5l2.031,4.125ZM12.156-4.25l3.125-3.062-4.344-.625L9-11.875,7.063-7.937l-4.344.625L5.844-4.25,5.125.094,9-1.969,12.875.094Z" transform="translate(-0.64 14)"/>
</svg>
