<svg xmlns="http://www.w3.org/2000/svg" width="43.2" height="45.368" viewBox="0 0 43.2 45.368">
    <defs>
        <style>
            .cls-1{fill:#fff}
        </style>
    </defs>
    <g id="Group_5796" data-name="Group 5796" transform="translate(-668.4 -382.736)">
        <g id="Group_5794" data-name="Group 5794">
            <path id="Path_4552" d="M672.677 428.1a4.231 4.231 0 0 1-4.277-4.277v-23.642a4.241 4.241 0 0 1 .8-2.512l.07-.12a.891.891 0 0 1 .076-.086 4.3 4.3 0 0 1 3.326-1.548h2.671v1.946h-2.671a1.233 1.233 0 0 0-.248.02l-.858.175 18.437 14.191 1.756-1.438 16.441-12.948h-4.741v-1.946h3.859a4.25 4.25 0 0 1 2.687.929l.061.049.075.022a.747.747 0 0 1 .414.321 2.239 2.239 0 0 1 .127.266 4.5 4.5 0 0 1 .913 2.689v23.636a4.231 4.231 0 0 1-4.277 4.277zm-.905-1.936h36.165l-15.427-13.5-1.977 1.553-.034.05c-.164.236-.255.236-.5.236a1.629 1.629 0 0 1-.648-.23l-2.03-1.585zm22.267-14.721l15.431 13.494.134-.68a2.2 2.2 0 0 0 .039-.423v-23.643a1.07 1.07 0 0 0-.02-.238l-.131-.632zm-23.682 13.382l15.409-13.35-15.409-11.9z" class="cls-1" data-name="Path 4552"/>
        </g>
        <g id="Group_5795" data-name="Group 5795">
            <path id="Path_4553" d="M698.3 391.976a6.782 6.782 0 0 1-1.369 3.951 4.5 4.5 0 0 1-3.81 1.666 2.315 2.315 0 0 1-1.455-.473 2.5 2.5 0 0 1-.861-1.334 3.267 3.267 0 0 1-1.074 1.324 2.642 2.642 0 0 1-1.521.441 2.673 2.673 0 0 1-2.367-1.229 4.838 4.838 0 0 1-.6-3.266 7.861 7.861 0 0 1 1.521-4.173 3.764 3.764 0 0 1 3.038-1.567 6.211 6.211 0 0 1 2.019.269 9.028 9.028 0 0 1 1.677.831l-.032.041h.051l-.529 5.876a2.715 2.715 0 0 0 .12 1.241.516.516 0 0 0 .462.337 2.119 2.119 0 0 0 1.863-1.116 5.751 5.751 0 0 0 .784-2.819 8.037 8.037 0 0 0-1.381-5.486 5.7 5.7 0 0 0-4.775-1.967 6.28 6.28 0 0 0-4.984 2.117 9.107 9.107 0 0 0-2 5.773 8.016 8.016 0 0 0 1.5 5.626 5.84 5.84 0 0 0 4.812 2.066 9.05 9.05 0 0 0 1.812-.192 8.627 8.627 0 0 0 1.624-.482l.4 1.722a5.7 5.7 0 0 1-1.77.681 9.52 9.52 0 0 1-2.1.243 8.123 8.123 0 0 1-6.457-2.585 9.759 9.759 0 0 1-2.086-7.079 10.475 10.475 0 0 1 2.678-7.065 8.727 8.727 0 0 1 6.623-2.612 7.8 7.8 0 0 1 6.213 2.472 9.361 9.361 0 0 1 1.974 6.768zm-10.485 1.08a4.166 4.166 0 0 0 .185 1.884.929.929 0 0 0 .9.639 1.692 1.692 0 0 0 1-.312 2.509 2.509 0 0 0 .773-1.153l.416-4.692a7.163 7.163 0 0 0-.447-.087 2.556 2.556 0 0 0-.435-.037 1.813 1.813 0 0 0-1.647.94 6.885 6.885 0 0 0-.744 2.818z" class="cls-1" data-name="Path 4553"/>
        </g>
    </g>
</svg>
