<svg xmlns="http://www.w3.org/2000/svg" width="27.674" height="25.4" viewBox="0 0 27.674 25.4">
  <defs>
    <style>
            .customer-count{fill:#c1d82f}
    </style>
  </defs>
  <path id="customer-count" d="M744.163 270.2v-1.926a3.8 3.8 0 0 1 1.983-3.339l3.013-1.891a.8.8 0 0 0 .439-.7v-1.168a7.139 7.139 0 0 1-1.633-2.823 1.818 1.818 0 0 1-.619-1.37v-1.57a1.743 1.743 0 0 1 .454-1.135v-2.005c0-.052.248-4.292 5.2-4.292a6.257 6.257 0 0 1 2.581.509 4.122 4.122 0 0 1 .946-2.017 7.311 7.311 0 0 1 9.309 0 4.269 4.269 0 0 1 1 3.118v2.325a2 2 0 0 1 .454 1.266V255a2.016 2.016 0 0 1-1.1 1.788 10.667 10.667 0 0 1-1.341 2.608c-.1.141-.2.271-.291.387v1.466a1 1 0 0 0 .554.9l4.343 2.17a4.277 4.277 0 0 1 2.377 3.846v2.035zm26.364-1.309v-.729a2.976 2.976 0 0 0-1.654-2.676l-4.342-2.171a2.3 2.3 0 0 1-1.277-2.066V259.3l.163-.186a5.91 5.91 0 0 0 .368-.474 9.333 9.333 0 0 0 1.261-2.542l.1-.325.326-.1a.7.7 0 0 0 .5-.672v-1.818a.7.7 0 0 0-.238-.522l-.216-.2v-2.98a3.018 3.018 0 0 0-.687-2.158 6.106 6.106 0 0 0-7.331.009 2.951 2.951 0 0 0-.692 1.938l.016.111v3.081l-.217.194a.7.7 0 0 0-.238.522V255a.707.707 0 0 0 .329.594l.224.144.059.26c.034.147.074.289.115.429l-.158.165.191-.06c.041.13.083.255.128.375l.171.423a9.191 9.191 0 0 0 .506.981l.148.24c.1.153.181.272.247.364l.082.111-.088.211.156-.124.162.2v1.9a2.313 2.313 0 0 1-1.2 2.029l-4.054 2.212a2.986 2.986 0 0 0-1.559 2.626v.817zm-20 0v-.817a4.3 4.3 0 0 1 2.242-3.777l2.5-1.364.118-.247.287.026 1.149-.627a1 1 0 0 0 .522-.878v-1.439l-.05-.069c-.081-.11-.179-.251-.292-.426s-.3-.492-.3-.492c-.056-.1-.242-.453-.242-.453a24.15 24.15 0 0 1-.22-.467c-.069-.163-.19-.465-.19-.465l-.092-.256-.107-.334a8.168 8.168 0 0 1-.079-.279 2 2 0 0 1-.5-.653 1.281 1.281 0 0 1-.074-.195l.15-.181-.186.074-.04-.119a2.114 2.114 0 0 1-.052-.453v-1.818a2 2 0 0 1 .455-1.266v-1.97a4.594 4.594 0 0 0-2.527-.655c-3.67 0-3.885 2.9-3.893 3.02v2.522l-.215.2a.611.611 0 0 0-.24.385v1.57a.522.522 0 0 0 .243.438l.224.144.06.26a5.856 5.856 0 0 0 1.516 2.6l.209.2v1.719a2.084 2.084 0 0 1-1.087 1.83l-3.012 1.891a2.521 2.521 0 0 0-1.334 2.209v.617z" class="customer-count" transform="translate(-744.163 -244.8)"/>
</svg>
