<svg xmlns="http://www.w3.org/2000/svg" width="21.998" height="23.875" viewBox="0 0 21.998 23.875">
  <defs>
  </defs>
  <g id="Group_2542" data-name="Group 2542" transform="translate(-955.25 -535)">
    <path id="Path_1737" data-name="Path 1737" class="cls-1-ci" d="M977.213,554.863,975.4,542.039h-4.43v-2.463a4.576,4.576,0,1,0-9.151,0v2.463h-4.659l-1.874,12.807a3.52,3.52,0,0,0,3.483,4.029h14.958a3.519,3.519,0,0,0,3.485-4.012Zm-13.668-15.469a2.893,2.893,0,0,1,5.7,0v2.645h-5.7Zm12.13,17.45a1.3,1.3,0,0,1-1,.455H957.821a1.321,1.321,0,0,1-1.309-1.513l1.781-12.171H962v2.644h1.9v-2.644h5.024v2.644H971v-2.644h3.266l1.72,12.177A1.3,1.3,0,0,1,975.675,556.844Z"/>
    <g id="Group_2541" data-name="Group 2541">
      <g id="Group_2540" data-name="Group 2540">
        <path id="Path_1738" data-name="Path 1738" class="cls-1-ci" d="M961.749,551.921a1.636,1.636,0,0,0,1.456-1.769c0-.977-.214-1.77-1.456-1.77s-1.457.793-1.457,1.77A1.636,1.636,0,0,0,961.749,551.921Z"/>
        <path id="Path_1739" data-name="Path 1739" class="cls-1-ci" d="M961.749,554.622c0-.059,0-.017,0,0Z"/>
        <path id="Path_1740" data-name="Path 1740" class="cls-1-ci" d="M961.749,554.669Z"/>
        <path id="Path_1741" data-name="Path 1741" class="cls-1-ci" d="M964.5,554.551c-.027-1.7-.249-2.187-1.951-2.494a1.2,1.2,0,0,1-1.6,0c-1.682.3-1.918.781-1.949,2.439,0,.135,0,.142,0,.126v.179s.405.817,2.751.817,2.751-.817,2.751-.817v-.132C964.5,554.679,964.5,554.66,964.5,554.551Z"/>
      </g>
      <rect id="Rectangle_774" data-name="Rectangle 774" class="cls-1-ci" width="7" height="1" transform="translate(966.5 550)"/>
      <rect id="Rectangle_775" data-name="Rectangle 775" class="cls-1-ci" width="7" height="1" transform="translate(966.5 552)"/>
      <rect id="Rectangle_776" data-name="Rectangle 776" class="cls-1-ci" width="5" height="1" transform="translate(966.5 554)"/>
    </g>
  </g>
</svg>