<svg xmlns="http://www.w3.org/2000/svg" width="15.096" height="12" viewBox="0 0 15.096 12">
    <defs>
        <style>
            .cls-1{fill:#9fa2a7}
        </style>
    </defs>
    <g id="dashboard" transform="translate(-1150.06 -149.54)">
        <g id="Group_85" data-name="Group 85">
            <g id="Group_84" data-name="Group 84">
                <path id="Path_54" d="M1162.89 151.806a.59.59 0 0 0-.749-.07c-.882.6-5.308 3.625-5.784 4.1a1.769 1.769 0 0 0 2.5 2.5c.476-.476 3.5-4.9 4.1-5.784a.589.589 0 0 0-.067-.746zm-4.865 5.7a.59.59 0 1 1-.834-.834c.185-.183 1.441-1.079 2.987-2.153-1.078 1.545-1.97 2.801-2.153 2.986z" class="cls-1" data-name="Path 54"/>
                <path id="Path_55" d="M1152.78 159.831l-.728.355a6.342 6.342 0 0 1-.4-5.359l.834.4a.6.6 0 0 0 .255.058.589.589 0 0 0 .255-1.121l-.823-.4a6.374 6.374 0 0 1 4.843-3.023v.887a.59.59 0 0 0 1.18 0v-.887a6.3 6.3 0 0 1 2.027.534.59.59 0 1 0 .486-1.075 7.542 7.542 0 0 0-9.372 11.073.591.591 0 0 0 .491.262.58.58 0 0 0 .258-.06l1.209-.589a.59.59 0 0 0-.517-1.06z" class="cls-1" data-name="Path 55"/>
                <path id="Path_56" d="M1164.491 153.985a.59.59 0 1 0-1.075.486 6.344 6.344 0 0 1-.254 5.719l-.76-.362a.59.59 0 1 0-.507 1.065l1.238.59a.6.6 0 0 0 .254.057.59.59 0 0 0 .49-.262 7.531 7.531 0 0 0 .614-7.293z" class="cls-1" data-name="Path 56"/>
            </g>
        </g>
    </g>
</svg>
