<svg xmlns="http://www.w3.org/2000/svg" width="12.938" height="16" viewBox="0 0 12.938 16">
<g transform="translate(-326.328 -341)"><path class="a" d="M337.438,342.917h-2.49a2.165,2.165,0,0,0-4.3,0h-2.491a1.83,1.83,0,0,0-1.827,1.828v.094a1.829,1.829,0,0,0,1.155,1.7v8.635A1.83,1.83,0,0,0,329.311,357h6.972a1.83,1.83,0,0,0,1.828-1.828v-8.635a1.829,1.829,0,0,0,1.155-1.7v-.094A1.83,1.83,0,0,0,337.438,342.917Zm-4.641-1.05a1.3,1.3,0,0,1,1.275,1.05h-2.55A1.3,1.3,0,0,1,332.8,341.867Zm4.447,13.3a.962.962,0,0,1-.961.961h-6.972a.962.962,0,0,1-.961-.961v-8.505h8.894Zm1.155-10.333a.962.962,0,0,1-.961.961h-9.283a.962.962,0,0,1-.96-.961v-.094a.962.962,0,0,1,.96-.961h9.283a.962.962,0,0,1,.961.961v.094Z"/><path class="a" d="M330.473,355.024a.433.433,0,0,0,.433-.433v-4.88a.433.433,0,1,0-.866,0v4.88A.433.433,0,0,0,330.473,355.024Z"/><path class="a" d="M332.8,355.024a.433.433,0,0,0,.433-.433v-4.88a.434.434,0,1,0-.867,0v4.88A.433.433,0,0,0,332.8,355.024Z"/><path class="a" d="M335.121,355.024a.433.433,0,0,0,.433-.433v-4.88a.433.433,0,1,0-.867,0v4.88A.433.433,0,0,0,335.121,355.024Z"/></g></svg>