<svg xmlns="http://www.w3.org/2000/svg" width="26.439" height="26" viewBox="0 0 26.439 26">
    <defs>
        <style>
            .cls-1dc{fill:#b7295a}
        </style>
    </defs>
    <g id="Deliverd-count" transform="translate(-784.467 -880)">
        <g id="Group_341" data-name="Group 341">
            <g id="Group_340" data-name="Group 340">
                <path id="Path_205" d="M793.141 897.878a70.706 70.706 0 0 0 2.9 3.793c.1.129.2.248.3.363h-2.174a.44.44 0 1 0 0 .881h7.05a.44.44 0 1 0 0-.881h-2.174l.3-.363a74.422 74.422 0 0 0 2.9-3.793 38.7 38.7 0 0 0 2.91-4.691 10.305 10.305 0 0 0 1.357-4.36 8.806 8.806 0 0 0-2.581-6.24.441.441 0 1 0-.624.622 7.929 7.929 0 0 1 2.323 5.618 9.49 9.49 0 0 1-1.26 3.96 37.731 37.731 0 0 1-2.845 4.582 71.924 71.924 0 0 1-3.49 4.509.447.447 0 0 1-.672 0 71.985 71.985 0 0 1-3.491-4.509 37.86 37.86 0 0 1-2.844-4.582 9.48 9.48 0 0 1-1.261-3.96 7.935 7.935 0 0 1 11.021-7.32.44.44 0 0 0 .344-.811 8.817 8.817 0 0 0-12.246 8.131 10.32 10.32 0 0 0 1.357 4.362 38.68 38.68 0 0 0 2.9 4.689z" class="cls-1dc" data-name="Path 205"/>
                <path id="Path_206" d="M797.687 884.849a.44.44 0 0 0 0-.881 4.406 4.406 0 1 0 3.116 1.29.441.441 0 1 0-.623.623 3.525 3.525 0 1 1-2.493-1.032z" class="cls-1dc" data-name="Path 206"/>
                <path id="Path_207" d="M810.74 904.048l-2.71-4.847a1.37 1.37 0 0 0-1.2-.692h-3.14a.441.441 0 1 0 0 .881h3.14a.492.492 0 0 1 .431.241l2.709 4.847a.4.4 0 0 1 0 .407.486.486 0 0 1-.427.234h-23.709a.483.483 0 0 1-.426-.234.394.394 0 0 1 0-.407l2.709-4.847a.488.488 0 0 1 .43-.241h3.14a.441.441 0 1 0 0-.881h-3.14a1.37 1.37 0 0 0-1.2.692l-2.71 4.847a1.279 1.279 0 0 0 .014 1.283 1.357 1.357 0 0 0 1.187.669h23.702a1.355 1.355 0 0 0 1.186-.669 1.277 1.277 0 0 0 .014-1.283z" class="cls-1dc" data-name="Path 207"/>
                <path id="Path_208" d="M806.059 900.712H804.3a.443.443 0 0 0-.245.074l-1.322.881a.441.441 0 0 0 .489.734l1.21-.808h1.63a.441.441 0 1 0 0-.881z" class="cls-1dc" data-name="Path 208"/>
                <path id="Path_209" d="M803.415 903.8a.44.44 0 0 0 .441.44h3.525a.44.44 0 1 0 0-.881h-3.525a.44.44 0 0 0-.441.441z" class="cls-1dc" data-name="Path 209"/>
                <path id="Path_210" d="M792.4 902.475a.441.441 0 0 0 .245-.808l-1.322-.881a.443.443 0 0 0-.245-.074h-1.762a.441.441 0 1 0 0 .881h1.63l1.211.808a.448.448 0 0 0 .243.074z" class="cls-1dc" data-name="Path 210"/>
                <path id="Path_211" d="M787.993 903.356a.44.44 0 1 0 0 .881h3.525a.44.44 0 1 0 0-.881z" class="cls-1dc" data-name="Path 211"/>
            </g>
        </g>
    </g>
</svg>
