<svg xmlns="http://www.w3.org/2000/svg" width="16.995" height="12.025" viewBox="0 0 16.995 12.025">

  <g transform="translate(-873.003 -535.938)">
    <path class="a1" d="M888.372,540.11l1.57-2.1a.277.277,0,0,0-.222-.443h-6.759v-.354a.665.665,0,1,0-.555,0v10.2h-.351a.277.277,0,0,0,0,.555h1.257a.277.277,0,1,0,0-.555h-.351v-4.762h6.749a.276.276,0,0,0,.222-.442Zm-5.688-3.34a.166.166,0,1,1,.166-.166A.166.166,0,0,1,882.684,536.77Z"/>
    <rect class="a1" width="0.752" height="9.329" transform="translate(878.501 535.939)"/>
    <path class="a1" d="M877,544.719l1.874,3.245,1.874-3.245Z"/>
    <rect class="a1" width="0.752" height="9.329" transform="translate(874.501 538.635)"/>
    <path class="a1" d="M876.75,539.184l-1.874-3.245L873,539.184Z"/>
  </g>
</svg>
