<svg xmlns="http://www.w3.org/2000/svg" width="15.333" height="15.331" viewBox="0 0 15.333 15.331">
<g transform="translate(-818.068 -341.335)"><path class="a5" d="M832.408,342.327a3.382,3.382,0,0,0-4.786,0l-8.776,8.772a.438.438,0,0,0-.124.251l-.65,4.816a.442.442,0,0,0,.124.369.446.446,0,0,0,.311.131.3.3,0,0,0,.059,0l2.9-.392a.441.441,0,1,0-.118-.875l-2.326.313.454-3.358,3.535,3.535a.449.449,0,0,0,.31.13.433.433,0,0,0,.311-.13l8.775-8.772a3.38,3.38,0,0,0,0-4.786Zm-4.617,1.078,1.474,1.473-8.007,8.008-1.474-1.474Zm-4.466,11.545-1.44-1.44,8.007-8.008,1.441,1.441Zm8.622-8.637-3.525-3.526a2.5,2.5,0,0,1,3.525,3.526Z"/></g></svg>