<svg xmlns="http://www.w3.org/2000/svg" viewBox="0 0 36 16"><defs><style>.cls-1,.cls-3{fill:#9fa2a7;}.cls-1{stroke:#fff;stroke-miterlimit:10;}.cls-2{fill:#6fad28;}</style></defs><title>message</title><g id="Layer_3" data-name="Layer 3"><rect class="cls-1" x="1" y="4.5" width="7" height="7" transform="translate(9 16) rotate(-180)"/><path class="cls-2" d="M18.14,6.13h-3.6a.54.54,0,1,1,0-1.07h3.6a.54.54,0,1,1,0,1.07Z"/><path class="cls-2" d="M31.42,6.13H27.81a.54.54,0,0,1,0-1.07h3.61a.54.54,0,0,1,0,1.07Z"/><path class="cls-2" d="M27.81,0H18.14a.54.54,0,0,0-.53.54V8.23a.54.54,0,1,0,1.07,0V1.07h8.6V8.22a.54.54,0,1,0,1.07,0V.55A.54.54,0,0,0,27.81,0Z"/><path class="cls-2" d="M25.34,3.28H20.61a.54.54,0,1,0,0,1.07h4.73a.54.54,0,1,0,0-1.07Z"/><path class="cls-2" d="M25.34,5.26H20.61a.54.54,0,1,0,0,1.07h4.73a.54.54,0,1,0,0-1.07Z"/><path class="cls-2" d="M25.34,7.23H20.61a.54.54,0,1,0,0,1.07h4.73a.54.54,0,1,0,0-1.07Z"/><path class="cls-3" d="M31.66,5.12a.52.52,0,0,0-.56,0L23,11.11,14.85,5.16a.54.54,0,0,0-.85.43v9.87a.54.54,0,0,0,.54.54H31.42a.54.54,0,0,0,.53-.54V5.59A.52.52,0,0,0,31.66,5.12Zm-.78,9.11L26.37,10l4.51-3.3Zm-7.59-2,2.2-1.61,4.58,4.33H15.88l4.58-4.34,2.2,1.62A.52.52,0,0,0,23.29,12.21ZM19.58,10l-4.51,4.27V6.65Z"/></g></svg>