<svg xmlns="http://www.w3.org/2000/svg" width="14.588" height="13" viewBox="0 0 14.588 13">
  <g transform="translate(-874.392 -421.451)">
    <path class="a" d="M877.756,426.43h-2.929a.435.435,0,0,1,0-.87h2.929a.435.435,0,0,1,0,.87Z"/>
    <path class="a" d="M888.544,426.43h-2.929a.435.435,0,0,1,0-.87h2.929a.435.435,0,1,1,0,.87Z"/>
    <path class="a" d="M885.615,421.451a.371.371,0,0,1-.133,0h-7.726a.435.435,0,0,0-.435.435v6.255a.435.435,0,1,0,.87,0v-5.82h6.989v5.812a.435.435,0,1,0,.87,0v-6.239A.44.44,0,0,0,885.615,421.451Z"/>
    <path class="a" d="M883.609,424.119h-3.847a.435.435,0,0,0,0,.87h3.847a.435.435,0,0,0,0-.87Z"/>
    <path class="a" d="M883.609,425.724h-3.847a.435.435,0,1,0,0,.87h3.847a.435.435,0,1,0,0-.87Z"/>
    <path class="a" d="M883.609,427.328h-3.847a.435.435,0,1,0,0,.87h3.847a.435.435,0,1,0,0-.87Z"/>
    <path class="a" d="M888.741,425.607a.435.435,0,0,0-.454.037l-6.6,4.837-6.6-4.837a.435.435,0,0,0-.692.351v8.021a.435.435,0,0,0,.435.435h13.717a.435.435,0,0,0,.435-.435v-8.021A.433.433,0,0,0,888.741,425.607Zm-.631,7.4-3.665-3.472,3.665-2.685Zm-6.167-1.639,1.788-1.31,3.716,3.52H875.918l3.719-3.522,1.792,1.312A.432.432,0,0,0,881.943,431.371Zm-3.02-1.835-3.661,3.469v-6.152Z"/>
  </g>
</svg>
