<svg xmlns="http://www.w3.org/2000/svg" width="19.998" height="19.999" viewBox="0 0 19.998 19.999"><g transform="translate(-1190.001 -201.361)"><path class="axd" d="M1209.374,215.423a.625.625,0,0,0-.625.625v4.062h-4.062a.625.625,0,0,0,0,1.25h4.687a.625.625,0,0,0,.625-.625v-4.687A.625.625,0,0,0,1209.374,215.423Z"/><path class="axd" d="M1195.313,220.11h-4.062v-4.062a.625.625,0,0,0-1.25,0v4.687a.625.625,0,0,0,.625.625h4.687a.625.625,0,0,0,0-1.25Z"/><path class="axd" d="M1195.313,201.361h-4.687a.625.625,0,0,0-.625.625v4.687a.625.625,0,1,0,1.25,0v-4.062h4.062a.625.625,0,0,0,0-1.25Z"/><path class="axd" d="M1209.374,201.361h-4.687a.625.625,0,0,0,0,1.25h4.062v4.062a.625.625,0,1,0,1.25,0v-4.687A.625.625,0,0,0,1209.374,201.361Z"/><g class="bbc"><path class="axd" d="M1206.562,214.2a.438.438,0,0,0-.438.437v2.844h-2.843a.438.438,0,0,0,0,.875h3.281a.437.437,0,0,0,.437-.438v-3.281A.437.437,0,0,0,1206.562,214.2Z"/><path class="axd" d="M1196.719,217.485h-2.843v-2.844a.438.438,0,0,0-.875,0v3.281a.437.437,0,0,0,.437.438h3.281a.438.438,0,0,0,0-.875Z"/><path class="axd" d="M1196.719,204.361h-3.281a.437.437,0,0,0-.437.437v3.281a.438.438,0,1,0,.875,0v-2.843h2.843a.438.438,0,0,0,0-.875Z"/><path class="axd" d="M1206.562,204.361h-3.281a.438.438,0,0,0,0,.875h2.843v2.843a.438.438,0,1,0,.875,0V204.8A.437.437,0,0,0,1206.562,204.361Z"/></g></g></svg>