<svg xmlns="http://www.w3.org/2000/svg" width="22.758" height="15.235" viewBox="0 0 22.758 15.235" opacity="1">
    <!--<defs>
        <style>
            .cls-1{fill:#9fa2a7}.cls-2{opacity:.5}      //"translate(-1190.001 -201.361)" in g id="expand-grey" //data-name="Path 1019" //data-name="Path 1020"/
        </style> //data-name="Path 1017"  //data-name="Path 1018"/
    </defs>-->
    <g id="expand-grey" transform="translate(-1190.001 -201.361)">
        <!--<g id="Group_1423" data-name="Group 1423">
            <g id="Group_1422" data-name="Group 1422">
                <g id="Group_1421" data-name="Group 1421">-->
                    <path id="Path_1017" class="a" d="M1209.374 215.423a.625.625 0 0 0-.625.625v4.062h-4.062a.625.625 0 0 0 0 1.25h4.687a.625.625 0 0 0 .625-.625v-4.687a.625.625 0 0 0-.625-.625z" />
                    <path id="Path_1018" class="a" d="M1195.313 220.11h-4.062v-4.062a.625.625 0 0 0-1.25 0v4.687a.625.625 0 0 0 .625.625h4.687a.625.625 0 0 0 0-1.25z" />
                    <path id="Path_1019" class="a" d="M1195.313 201.361h-4.687a.625.625 0 0 0-.625.625v4.687a.625.625 0 1 0 1.25 0v-4.062h4.062a.625.625 0 0 0 0-1.25z" />
                    <path id="Path_1020" class="a" d="M1209.374 201.361h-4.687a.625.625 0 0 0 0 1.25h4.062v4.062a.625.625 0 1 0 1.25 0v-4.687a.625.625 0 0 0-.625-.625z" >
               <!-- </g>
            </g>-->
        </g>
       <!-- <g id="Group_1426" class="cls-2" data-name="Group 1426">
            <g id="Group_1425" data-name="Group 1425">
                <g id="Group_1424" data-name="Group 1424">
                    <path id="Path_1021" d="M1206.562 214.2a.438.438 0 0 0-.438.437v2.844h-2.843a.438.438 0 0 0 0 .875h3.281a.437.437 0 0 0 .437-.438v-3.281a.437.437 0 0 0-.437-.437z" class="cls-1" data-name="Path 1021"/>
                    <path id="Path_1022" d="M1196.719 217.485h-2.843v-2.844a.438.438 0 0 0-.875 0v3.281a.437.437 0 0 0 .437.438h3.281a.438.438 0 0 0 0-.875z" class="cls-1" data-name="Path 1022"/>
                    <path id="Path_1023" d="M1196.719 204.361h-3.281a.437.437 0 0 0-.437.437v3.281a.438.438 0 1 0 .875 0v-2.843h2.843a.438.438 0 0 0 0-.875z" class="cls-1" data-name="Path 1023"/>
                    <path id="Path_1024" d="M1206.562 204.361h-3.281a.438.438 0 0 0 0 .875h2.843v2.843a.438.438 0 1 0 .875 0V204.8a.437.437 0 0 0-.437-.439z" class="cls-1" data-name="Path 1024"/>
                </g>
            </g>
        </g>
    </g>-->
</svg>
