<svg xmlns="http://www.w3.org/2000/svg" width="31" height="26" viewBox="0 0 31 26"><defs><style>.amdg{fill:#fff;}</style></defs><g transform="translate(-964.5 -1814.034)"><path class="amdg" d="M991.5,1816.534v-.5a2,2,0,0,0-4,0v.5h-15v-.5a2,2,0,0,0-4,0v.5h-4v23.5h31v-23.5Zm-3-.5a1,1,0,0,1,2,0v2a1,1,0,0,1-2,0Zm-19,0a1,1,0,0,1,2,0v2a1,1,0,0,1-2,0Zm3.526,23a6.992,6.992,0,0,1,13.949,0Zm19.474,0h-4.525a7.99,7.99,0,0,0-15.95,0H967.5v-2h1.781l.1-.37a10.963,10.963,0,0,1,1.082-2.609l.191-.332-1.26-1.261,3.535-3.535,1.261,1.261.332-.192a10.955,10.955,0,0,1,2.608-1.082l.37-.1v-1.781h5v1.781l.37.1a10.916,10.916,0,0,1,2.609,1.082l.332.191,1.26-1.26,3.536,3.535-1.261,1.26.191.332a10.966,10.966,0,0,1,1.083,2.609l.1.37H992.5Zm2,0h-1v-3h-2.021a11.83,11.83,0,0,0-.889-2.141l1.431-1.43-4.95-4.949-1.43,1.43a11.935,11.935,0,0,0-2.141-.888v-2.022h-7v2.021a11.905,11.905,0,0,0-2.141.888l-1.43-1.43-4.95,4.949,1.431,1.431a11.976,11.976,0,0,0-.889,2.141H966.5v3h-1v-17.5h29Zm0-18.5h-29v-3h3v.5a2,2,0,0,0,4,0v-.5h15v.5a2,2,0,0,0,4,0v-.5h3Z"/><rect class="amdg" width="1" height="1" transform="translate(974.5 1837.034)"/><rect class="amdg" width="1" height="1" transform="translate(976.5 1837.034)"/><rect class="amdg" width="1" height="1" transform="translate(978.5 1837.034)"/><rect class="amdg" width="1" height="1" transform="translate(980.5 1837.034)"/><rect class="amdg" width="1" height="1" transform="translate(982.5 1837.034)"/><rect class="a" width="1" height="1" transform="translate(984.5 1837.034)"/></g></svg>