<svg xmlns="http://www.w3.org/2000/svg" width="52.514" height="39.899" viewBox="0 0 52.514 39.899"><defs><style>.a{fill:#fff;}</style></defs><g transform="translate(-726.486 -9874.88)"><path class="a" d="M776.21,9874.88H734.684a2.793,2.793,0,0,0-2.788,2.79v2.591h-2.62a2.792,2.792,0,0,0-2.79,2.788v20.87a2.793,2.793,0,0,0,2.79,2.79H731.1v7.044a1.026,1.026,0,0,0,1.644.819l10.408-7.863H769.45l3.286,2.482a1.026,1.026,0,0,0,1.644-.819v-7.044h1.83a2.794,2.794,0,0,0,2.79-2.79V9877.67a2.794,2.794,0,0,0-2.79-2.79Zm.739,23.657a.749.749,0,0,1-.739.739h-2.856a1.026,1.026,0,0,0-1.025,1.025v6.01l-9.041-6.827a1.018,1.018,0,0,0-.618-.208H750.977a1.026,1.026,0,1,0,0,2.052h11.349l4.408,3.329H742.813a1.025,1.025,0,0,0-.619.208l-9.037,6.828v-6.011a1.027,1.027,0,0,0-1.026-1.025h-2.855a.739.739,0,0,1-.739-.739v-20.869a.747.747,0,0,1,.739-.735h2.62v16.224a2.793,2.793,0,0,0,2.788,2.791h7.082a1.026,1.026,0,1,0,0-2.052h-7.082a.747.747,0,0,1-.736-.739V9877.67a.747.747,0,0,1,.736-.738H776.21a.74.74,0,0,1,.739.738Z"/><path class="a" d="M756.594,9888.8a.478.478,0,0,0-.023-.052l-2.2-5.224a.315.315,0,0,0-.015-.031.711.711,0,0,0-1.3.031l-2.212,5.244,0,.009-1.225,2.9a.713.713,0,0,0,.38.934.692.692,0,0,0,.277.057.714.714,0,0,0,.657-.436l1.043-2.473h3.481l1.042,2.473a.714.714,0,0,0,.658.436.691.691,0,0,0,.276-.057.713.713,0,0,0,.38-.934Zm-4.022-.463,1.14-2.7,1.139,2.7Z"/><path class="a" d="M766.421,9890.3a5.189,5.189,0,0,0,.892-2.937A4.342,4.342,0,1,0,763,9892.2a3.976,3.976,0,0,0,2.446-.856l1.339,1.329a.713.713,0,1,0,1-1.012Zm-1.033-1.024-1.239-1.23a.713.713,0,1,0-1.005,1.012l1.279,1.27a2.532,2.532,0,0,1-1.423.445,3.456,3.456,0,1,1,2.887-3.409A3.831,3.831,0,0,1,765.388,9889.278Z"/><path class="a" d="M749.264,9887.534a.712.712,0,0,0-.712-.713h-3.86v-2.311h3.859a.713.713,0,1,0,0-1.426h-4.572a.714.714,0,0,0-.713.713v8.369a.713.713,0,0,0,1.426,0v-3.92h3.859a.713.713,0,0,0,.713-.713Z"/><path class="a" d="M746.371,9899.276a1.026,1.026,0,0,0,0,2.052h0a1.026,1.026,0,0,0,0-2.052Z"/></g></svg>