<svg xmlns="http://www.w3.org/2000/svg" width="29.798" height="25.721" viewBox="0 0 29.798 25.721">
    <defs>
        <style>
            .cls-1{fill:#007db8;stroke:rgba(0,0,0,0)}
        </style>
    </defs>
    <g id="filter-hover" transform="translate(-1060.702 -325.761)">
        <path id="Path_18" d="M1069.923 350.982a1.815 1.815 0 0 1-.862-.234 1.732 1.732 0 0 1-.953-1.647l-.005-3.629c0-2.948-.008-6.591-.018-8.029a1.327 1.327 0 0 0-.231-.725q-3.218-4.6-6.456-9.187a.761.761 0 0 1-.108-.853.746.746 0 0 1 .77-.417h18.22a.869.869 0 0 1 .679.278.7.7 0 0 1 .142.584 1.218 1.218 0 0 1-.233.48q-3.225 4.547-6.467 9.08a1.425 1.425 0 0 0-.277.885c.013 1.412.018 6.783.021 9.133v.768a1.83 1.83 0 0 1-.855 1.614q-1.163.787-2.335 1.56a1.886 1.886 0 0 1-1.032.339zm-5.842-22.251l1.175 1.671q2.123 3.016 4.239 6.038a.526.526 0 0 1 .084.266c.012 1.455.018 4.991.023 7.948l.009 5.03.886-.541.544-.364c.4-.266.8-.532 1.2-.79a.812.812 0 0 0 .406-.751c-.014-1.8-.021-8.687-.015-10.482a.554.554 0 0 1 .092-.286q2.285-3.225 4.58-6.442l.957-1.343.609-.9h-15.428z" class="cls-1" data-name="Path 18"/>
        <path id="Rectangle_16" d="M0 0h10.45v1.147H0z" class="cls-1" data-name="Rectangle 16" transform="translate(1079.55 339.059)"/>
        <path id="Rectangle_17" d="M0 0h8.156v1.147H0z" class="cls-1" data-name="Rectangle 17" transform="translate(1081.844 333.798)"/>
        <path id="Rectangle_18" d="M0 0h13.253v1.147H0z" class="cls-1" data-name="Rectangle 18" transform="translate(1076.747 343.993)"/>
    </g>
</svg>
