<svg xmlns="http://www.w3.org/2000/svg" width="28.084" height="28.084" viewBox="0 0 28.084 28.084"><defs><style>.a{fill:#fff;}</style></defs><g transform="translate(-7930.463 -2503.358)"><path class="a" d="M7938.293,2527.335a26.726,26.726,0,0,0,12.424,0c2.044-.577,3.08-1.412,3.08-2.483s-1.036-1.906-3.08-2.483a19.355,19.355,0,0,0-3.233-.584c2.346-4,4.67-8.537,4.67-10.779a7.648,7.648,0,0,0-15.3,0c0,2.242,2.324,6.775,4.67,10.779a19.386,19.386,0,0,0-3.234.584c-2.043.577-3.079,1.412-3.079,2.483S7936.25,2526.758,7938.293,2527.335ZM7944.5,2505a6.01,6.01,0,0,1,6,6c0,1.7-2.1,6.157-5.627,11.923a.441.441,0,0,1-.752,0c-3.523-5.766-5.627-10.222-5.627-11.923A6.01,6.01,0,0,1,7944.5,2505Zm-5.465,18.869a19.963,19.963,0,0,1,3.423-.516l.262.431a2.087,2.087,0,0,0,3.56,0c.087-.143.175-.287.262-.432a20.057,20.057,0,0,1,3.424.517,1.3,1.3,0,1,1,0,1.96,25.611,25.611,0,0,1-10.932,0,1.3,1.3,0,1,1,0-1.96Z"/><path class="a" d="M7956.152,2523.048a.823.823,0,0,0-.792,1.443c.98.538,1.542,1.135,1.542,1.637,0,.615-.871,1.567-3.314,2.4a33.06,33.06,0,0,1-18.166,0c-2.443-.83-3.313-1.782-3.313-2.4,0-.5.562-1.1,1.542-1.638a.823.823,0,1,0-.792-1.442c-1.093.6-2.4,1.622-2.4,3.08,0,1.118.769,2.711,4.43,3.955a34.675,34.675,0,0,0,19.224,0c3.662-1.244,4.43-2.837,4.43-3.955C7958.547,2524.67,7957.245,2523.649,7956.152,2523.048Z"/><path class="a" d="M7947.58,2510.481a3.074,3.074,0,1,0-3.075,3.074A3.078,3.078,0,0,0,7947.58,2510.481Zm-4.5,0a1.428,1.428,0,1,1,1.428,1.429A1.429,1.429,0,0,1,7943.077,2510.481Z"/></g></svg>