<svg xmlns="http://www.w3.org/2000/svg" width="35.998" height="36" viewBox="0 0 35.998 36">
  <defs>
    <style>
      .cls-1 {
        fill: #e7eced;
      }

      .cls-2 {
        fill: #777;
      }
    </style>
  </defs>
  <g id="Group_612" data-name="Group 612" transform="translate(-93 -411)">
    <path id="Path_392" data-name="Path 392" class="cls-1" d="M105.643,439.224l-5.371,2.929a4.787,4.787,0,0,0-.862.614,17.986,17.986,0,0,0,23.112.059,4.8,4.8,0,0,0-.946-.634l-5.752-2.875a2.194,2.194,0,0,1-1.212-1.962V435.1a8.711,8.711,0,0,0,.544-.7,13.225,13.225,0,0,0,1.788-3.6,1.806,1.806,0,0,0,1.281-1.718v-2.409a1.8,1.8,0,0,0-.6-1.334v-3.482s.715-5.418-6.623-5.418-6.622,5.418-6.622,5.418v3.482a1.794,1.794,0,0,0-.6,1.334v2.409a1.806,1.806,0,0,0,.833,1.515,11.964,11.964,0,0,0,2.177,4.506v2.2A2.2,2.2,0,0,1,105.643,439.224Z"/>
    <g id="Group_611" data-name="Group 611">
      <path id="Path_393" data-name="Path 393" class="cls-2" d="M111.308,411a17.989,17.989,0,0,0-11.891,31.758,4.814,4.814,0,0,1,.854-.607l5.371-2.93a2.193,2.193,0,0,0,1.143-1.925v-2.2a11.958,11.958,0,0,1-2.178-4.505,1.809,1.809,0,0,1-.832-1.516v-2.408a1.8,1.8,0,0,1,.6-1.335v-3.482s-.716-5.418,6.622-5.418,6.623,5.418,6.623,5.418v3.482a1.8,1.8,0,0,1,.6,1.335v2.408a1.808,1.808,0,0,1-1.282,1.719,13.2,13.2,0,0,1-1.787,3.6,8.764,8.764,0,0,1-.544.7v2.256a2.193,2.193,0,0,0,1.212,1.962l5.751,2.875a4.822,4.822,0,0,1,.944.633A17.995,17.995,0,0,0,111.308,411Z"/>
    </g>
  </g>
</svg>
