<svg xmlns="http://www.w3.org/2000/svg" width="52.114" height="42.672" viewBox="0 0 52.114 42.672">
    <defs>
        <style>
            .cls-1{fill:#fff}
        </style>
    </defs>
    <g id="Group_6096" data-name="Group 6096" transform="translate(-371.943 -453.789)">
        <g id="Group_6095" data-name="Group 6095">
            <path id="Path_4744" d="M423.217 457.561a21.8 21.8 0 0 1-6.336-1.579c-2.969-1.028-6.335-2.193-9.825-2.193a10.041 10.041 0 0 0-9.056 4.86 10.041 10.041 0 0 0-9.056-4.86c-3.49 0-6.855 1.165-9.825 2.193a21.8 21.8 0 0 1-6.336 1.579.84.84 0 0 0-.84.841v33.856a.841.841 0 0 0 .84.841 22.8 22.8 0 0 0 6.886-1.671c2.844-.985 6.068-2.1 9.275-2.1a8.56 8.56 0 0 1 6.617 2.707.841.841 0 0 0 1.239-1.135 10.244 10.244 0 0 0-7.858-3.254c-3.49 0-6.856 1.165-9.825 2.193a28.088 28.088 0 0 1-5.495 1.528V459.2a27.763 27.763 0 0 0 6.045-1.629c2.844-.985 6.068-2.1 9.275-2.1 6.487 0 8.184 5.151 8.252 5.368a.841.841 0 0 0 1.608 0 8.372 8.372 0 0 1 8.252-5.368c3.207 0 6.431 1.116 9.275 2.1a27.763 27.763 0 0 0 6.045 1.629v32.167a28.088 28.088 0 0 1-5.495-1.528c-2.969-1.028-6.335-2.193-9.825-2.193a10.241 10.241 0 0 0-7.854 3.254.841.841 0 1 0 1.241 1.134 8.562 8.562 0 0 1 6.617-2.707c3.207 0 6.431 1.116 9.275 2.1a22.807 22.807 0 0 0 6.886 1.671.84.84 0 0 0 .84-.841V458.4a.84.84 0 0 0-.842-.839z" class="cls-1" data-name="Path 4744"/>
            <path id="Path_4745" d="M423.217 494.78a21.8 21.8 0 0 1-6.336-1.579c-2.969-1.028-6.335-2.193-9.825-2.193a10.3 10.3 0 0 0-7.6 2.981h-2.916a10.3 10.3 0 0 0-7.6-2.98c-3.49 0-6.856 1.165-9.825 2.193a21.8 21.8 0 0 1-6.336 1.579.841.841 0 0 0 0 1.681 22.8 22.8 0 0 0 6.886-1.671c2.844-.985 6.068-2.1 9.275-2.1a8.563 8.563 0 0 1 6.617 2.707.84.84 0 0 0 .62.273h3.638a.841.841 0 0 0 .62-.274 8.56 8.56 0 0 1 6.617-2.707c3.207 0 6.431 1.116 9.275 2.1a22.8 22.8 0 0 0 6.885 1.671.841.841 0 1 0 0-1.681z" class="cls-1" data-name="Path 4745"/>
            <g id="Group_6094" data-name="Group 6094">
                <path id="Path_4746" d="M393.986 474.206a3.639 3.639 0 0 1-.969 2.6 3.3 3.3 0 0 1-2.517 1.032 3.125 3.125 0 0 1-2.429-1.032 3.716 3.716 0 0 1-.934-2.6v-1.518a3.734 3.734 0 0 1 .934-2.6 3.119 3.119 0 0 1 2.429-1.037 3.3 3.3 0 0 1 2.517 1.034 3.654 3.654 0 0 1 .969 2.6zm-1.154-1.53a2.878 2.878 0 0 0-.633-1.922 2.109 2.109 0 0 0-1.7-.75 1.953 1.953 0 0 0-1.608.75 2.976 2.976 0 0 0-.6 1.922v1.53a2.993 2.993 0 0 0 .6 1.933 1.953 1.953 0 0 0 1.608.75 2.111 2.111 0 0 0 1.7-.747 2.9 2.9 0 0 0 .63-1.936z" class="cls-1" data-name="Path 4746"/>
                <path id="Path_4747" d="M400.771 473.754h-3.908v3.046h4.506v.909h-5.66v-8.532h5.6v.909h-4.442v2.759h3.908z" class="cls-1" data-name="Path 4747"/>
                <path id="Path_4748" d="M403.877 474.288v3.422h-1.154v-8.532h3.263a3 3 0 0 1 2.121.7 2.656 2.656 0 0 1 0 3.712 3.018 3.018 0 0 1-2.121.7zm0-.909h2.109a1.691 1.691 0 0 0 1.292-2.819 1.661 1.661 0 0 0-1.292-.473h-2.109z" class="cls-1" data-name="Path 4748"/>
            </g>
        </g>
    </g>
</svg>
