<svg xmlns="http://www.w3.org/2000/svg" width="26.928" height="27" viewBox="0 0 26.928 27">
    <defs>
        <style>
            .cls-1-rf{fill:#646d74}
        </style>
    </defs>
    <g id="Result-found" transform="translate(-129.536 -262.5)">
        <g id="Group_516" data-name="Group 516">
            <path id="Path_347" d="M138.8 272.667h-4.236a.791.791 0 1 0 0 1.582h4.236a.791.791 0 1 0 0-1.582z" class="cls-1-rf" data-name="Path 347"/>
            <path id="Path_348" d="M134.564 277.638h3.389a.791.791 0 1 0 0-1.582h-3.389a.791.791 0 1 0 0 1.582z" class="cls-1-rf" data-name="Path 348"/>
            <path id="Path_349" d="M134.564 281.027h3.389a.791.791 0 1 0 0-1.582h-3.389a.791.791 0 1 0 0 1.582z" class="cls-1-rf" data-name="Path 349"/>
            <path id="Path_350" d="M138.8 282.834h-4.236a.791.791 0 1 0 0 1.582h4.236a.791.791 0 1 0 0-1.582z" class="cls-1-rf" data-name="Path 350"/>
            <path id="Path_351" d="M155.881 286.031l-2.118-2.118a1.987 1.987 0 0 0-2.139-.443l-1.373-1.373a5.862 5.862 0 0 0-.493-7.679v-9.432a2.484 2.484 0 0 0-2.485-2.486h-11.862a.791.791 0 0 0-.56.232l-5.083 5.083a.8.8 0 0 0-.232.56v18.639a2.489 2.489 0 0 0 2.486 2.486h15.25a2.489 2.489 0 0 0 2.486-2.486v-3.173l.748.747a1.993 1.993 0 0 0 .443 2.139l2.119 2.118a1.989 1.989 0 1 0 2.813-2.814zm-10.3-3.2a4.293 4.293 0 1 1 4.293-4.292 4.3 4.3 0 0 1-4.296 4.295zM135.47 264.35v3.174a.9.9 0 0 1-.9.9h-3.174zm11.806 23.565h-15.254a.9.9 0 0 1-.9-.9v-17h3.445a2.489 2.489 0 0 0 2.486-2.486v-3.445h10.223a.9.9 0 0 1 .9.9v8.288a5.874 5.874 0 1 0 0 10.536v3.2a.9.9 0 0 1-.903.91zm7.489-.192a.408.408 0 0 1-.576 0l-2.118-2.118a.407.407 0 0 1 .576-.576l2.118 2.118a.406.406 0 0 1 0 .576z" class="cls-1-rf" data-name="Path 351"/>
        </g>
    </g>
</svg>
