<svg xmlns="http://www.w3.org/2000/svg" width="24.825" height="23.482" viewBox="0 0 24.825 23.482"><defs><style>.appk{fill:#fff;}</style></defs><g transform="translate(-95.728 -274.21)"><path class="appk" d="M116.426,297.692H99.856a4.124,4.124,0,0,1-3.546-6.235l8.273-15.2a4.127,4.127,0,0,1,4.582-1.915,4.093,4.093,0,0,1,2.527,1.894l8.286,15.237a4.123,4.123,0,0,1-3.552,6.223Zm-8.287-21.742a2.648,2.648,0,0,0-2.272,1.3L97.88,291.926a2.648,2.648,0,0,0,2.264,4.024h15.993a2.646,2.646,0,0,0,2.277-4l-.013-.022-7.993-14.7a2.614,2.614,0,0,0-1.608-1.2A2.667,2.667,0,0,0,108.139,275.95Z"/><path class="appk" d="M108.14,292.871a1.374,1.374,0,1,1,1.375-1.374A1.374,1.374,0,0,1,108.14,292.871Z"/><path class="appk" d="M109.515,287.376a1.375,1.375,0,0,1-2.748,0v-6.867a1.375,1.375,0,0,1,2.748-.075q0,.038,0,.075Z"/></g></svg>