<svg xmlns="http://www.w3.org/2000/svg" width="14.097" height="17.765" viewBox="0 0 14.097 17.765">
    <defs>
        <style>
            .cls-1-hld{fill:#ffc10e}
        </style>
    </defs>
    <path id="Path_4807" d="M-5484.254 3583.235a.793.793 0 0 1 .792.792v7.13a.634.634 0 0 0 .634.633.634.634 0 0 0 .633-.633v-4.912a.794.794 0 0 1 .792-.792.794.794 0 0 1 .793.792v7.502l.009.548.541-.087a1.149 1.149 0 0 0 .8-.57 5.052 5.052 0 0 1 1.53-1.7 2.7 2.7 0 0 1 1.393-.464.248.248 0 0 1 .242.122.777.777 0 0 1 .051.5 1.954 1.954 0 0 1-.452.6 4.293 4.293 0 0 0-1 1.317c-.126.239-1.252 2.007-1.925 3.063-.4.626-.733 1.153-.857 1.353l-.006.009v.01a5.267 5.267 0 0 1-4.663 2.552c-2.516 0-4.883-.554-5.167-4.569v-8.6a.634.634 0 0 1 .634-.634.635.635 0 0 1 .636.634v3.96a.635.635 0 0 0 .634.634.634.634 0 0 0 .634-.634v-6.337a.634.634 0 0 1 .634-.633.634.634 0 0 1 .633.633v5.7a.635.635 0 0 0 .634.633.635.635 0 0 0 .634-.633v-7.13a.793.793 0 0 1 .792-.792" class="cls-1-hld" data-name="Path 4807" transform="translate(5490.119 -3583.235)"/>
</svg>
