<svg xmlns="http://www.w3.org/2000/svg" viewBox="0 0 24 24"><defs><style>.cls-1{fill:#007db8;}</style></defs><g id="Layer_2" data-name="Layer 2"><g id="Layer_3" data-name="Layer 3"><path class="cls-1" d="M24,11a.51.51,0,0,0,0-.13l0-.05a.33.33,0,0,0-.1-.14h0L21,7.79V5s0,0,0,0a.51.51,0,0,0,0-.13l0,0a.33.33,0,0,0-.1-.14L16.35.15a.33.33,0,0,0-.14-.1l-.05,0L16,0H3.5A.5.5,0,0,0,3,.5V7.79L.15,10.65h0a.33.33,0,0,0-.1.14l0,.05A.51.51,0,0,0,0,11V20.5a.5.5,0,0,0,.5.5H3v2.5a.5.5,0,0,0,.5.5h17a.5.5,0,0,0,.5-.5V21h2.5a.5.5,0,0,0,.5-.5V11Zm-1.7-.47H21V9.21Zm-3-6H16.5V1.71ZM4,1H15.5V5a.5.5,0,0,0,.5.5h4v5H4V1ZM3,9.21V10.5H1.71ZM20,23H4V21H20Zm3-3H1V11.5H23Z"/><polygon class="cls-1" points="14.46 17.39 14.43 17.39 13.28 12.98 11.91 12.98 11.91 19 12.83 19 12.82 14.38 12.84 14.38 14.02 19 14.82 19 16.03 14.38 16.05 14.38 16.04 19 17.03 19 17.03 12.98 15.6 12.98 14.46 17.39"/><polygon class="cls-1" points="8.05 13.85 9.18 13.85 9.18 19 10.18 19 10.18 13.85 11.31 13.85 11.31 12.98 8.05 12.98 8.05 13.85"/><polygon class="cls-1" points="6.44 15.42 4.64 15.42 4.64 12.98 3.63 12.98 3.63 19 4.64 19 4.64 16.33 6.44 16.33 6.44 19 7.45 19 7.45 12.98 6.44 12.98 6.44 15.42"/><polygon class="cls-1" points="19.28 12.98 18.25 12.98 18.25 19 20.93 19 20.93 18.06 19.28 18.06 19.28 12.98"/></g></g></svg>