<svg xmlns="http://www.w3.org/2000/svg" width="44.244" height="39.75" viewBox="0 0 44.244 39.75"><defs><style>.a{fill:#fff;}</style></defs><g transform="translate(-399.621 -9970.096)"><path class="a" d="M440.624,9970.1H402.862a3.245,3.245,0,0,0-3.241,3.241v27.22a3.245,3.245,0,0,0,3.241,3.241h13.182l-.78,2.73a3,3,0,0,1-2.681,2.021h-4.234a.648.648,0,1,0,0,1.3h26.788a.648.648,0,1,0,0-1.3H430.9a3,3,0,0,1-2.682-2.021l-.78-2.73h13.183a3.245,3.245,0,0,0,3.241-3.241v-27.22A3.245,3.245,0,0,0,440.624,9970.1Zm-13.649,36.788a3.951,3.951,0,0,0,.995,1.666H415.516a3.96,3.96,0,0,0,.995-1.666l.881-3.086h8.7Zm15.593-6.327a1.946,1.946,0,0,1-1.944,1.944H402.862a1.946,1.946,0,0,1-1.945-1.944v-27.22a1.946,1.946,0,0,1,1.945-1.944h37.762a1.946,1.946,0,0,1,1.944,1.944Z"/><circle class="a" cx="0.648" cy="0.648" r="0.648" transform="translate(440.035 9999.906)"/><circle class="a" cx="0.648" cy="0.648" r="0.648" transform="translate(437.442 9999.906)"/><path class="a" d="M419.292,9988.718v.76a1.263,1.263,0,0,0,.312.832v2.718a1.141,1.141,0,0,0,1.14,1.14h2a1.141,1.141,0,0,0,1.141-1.14v-2.718a1.262,1.262,0,0,0,.311-.832v-.76a5.762,5.762,0,1,0-4.9,0Zm3.732,4.31a.286.286,0,0,1-.283.282h-2a.286.286,0,0,1-.282-.282v-.569h1.42a.429.429,0,0,0,0-.858h-1.42v-.855c.033,0,.066,0,.1,0h2.362c.033,0,.067,0,.1,0Zm-1.281-14.433a4.906,4.906,0,0,1,1.859,9.446.429.429,0,0,0-.266.4v1.039a.413.413,0,0,1-.413.412h-2.361a.412.412,0,0,1-.412-.412v-1.039a.429.429,0,0,0-.266-.4,4.906,4.906,0,0,1,1.859-9.446Zm-.429-2.437v-1.189a.429.429,0,0,1,.858,0v1.189a.429.429,0,0,1-.858,0Zm0,3.962a.428.428,0,0,1,.429-.429,4.032,4.032,0,0,1,4.028,4.027.429.429,0,1,1-.858,0,3.173,3.173,0,0,0-3.17-3.17A.428.428,0,0,1,421.314,9980.119Zm6.524-3.055a.428.428,0,0,1,0,.605l-.791.791a.429.429,0,1,1-.607-.605l.791-.791A.429.429,0,0,1,427.838,9977.064Zm2.524,6.095a.428.428,0,0,1-.428.429h-.947a.429.429,0,1,1,0-.857h.947A.428.428,0,0,1,430.362,9983.159Zm-2.842,10.988c0,.592-.619,1.031-1.893,1.344a17.062,17.062,0,0,1-3.884.4,16.624,16.624,0,0,1-4.089-.449c-1.136-.31-1.688-.732-1.688-1.291,0-.659.764-1.132,2.338-1.442a.429.429,0,1,1,.166.841,3.408,3.408,0,0,0-1.629.6,2.313,2.313,0,0,0,1.039.465,15.764,15.764,0,0,0,3.863.419,16.865,16.865,0,0,0,3.476-.325,2.885,2.885,0,0,0,1.426-.561,3.448,3.448,0,0,0-1.63-.6.429.429,0,1,1,.167-.841C426.755,9993.016,427.52,9993.488,427.52,9994.147Zm-11.081-15.686-.791-.792a.428.428,0,1,1,.606-.605l.792.791a.429.429,0,0,1-.607.606Zm-1.511,4.7a.428.428,0,0,1-.429.429h-.947a.429.429,0,1,1,0-.857h.947A.428.428,0,0,1,414.928,9983.159Z"/></g></svg>