<svg xmlns="http://www.w3.org/2000/svg" width="11.625" height="11.625" viewBox="0 0 11.625 11.625">
    <defs>
    </defs>
    <path id="info-icon-search" d="M6-10.312a5.634 5.634 0 0 1 2.906.785 5.873 5.873 0 0 1 2.121 2.121 5.634 5.634 0 0 1 .786 2.906 5.634 5.634 0 0 1-.785 2.906A5.873 5.873 0 0 1 8.906.527 5.634 5.634 0 0 1 6 1.313 5.634 5.634 0 0 1 3.094.527 5.873 5.873 0 0 1 .973-1.594 5.634 5.634 0 0 1 .188-4.5a5.634 5.634 0 0 1 .785-2.906 5.873 5.873 0 0 1 2.121-2.121A5.634 5.634 0 0 1 6-10.312zm0 2.578a.946.946 0 0 0-.691.293.946.946 0 0 0-.293.691.946.946 0 0 0 .293.691.946.946 0 0 0 .691.293.946.946 0 0 0 .691-.293.946.946 0 0 0 .293-.691.946.946 0 0 0-.293-.691A.946.946 0 0 0 6-7.734zm1.313 5.953v-.562a.271.271 0 0 0-.082-.2.271.271 0 0 0-.2-.082H6.75v-2.344a.271.271 0 0 0-.082-.2.271.271 0 0 0-.2-.082h-1.5a.271.271 0 0 0-.2.082.271.271 0 0 0-.082.2v.563a.271.271 0 0 0 .082.2.271.271 0 0 0 .2.082h.282v1.5h-.281a.271.271 0 0 0-.2.082.271.271 0 0 0-.082.2v.563a.271.271 0 0 0 .082.2.271.271 0 0 0 .2.082h2.062a.271.271 0 0 0 .2-.082.271.271 0 0 0 .082-.202z" transform="translate(-.188 10.313)"/>
</svg>
