<svg xmlns="http://www.w3.org/2000/svg" width="34.662" height="33" viewBox="0 0 34.662 33"><defs><style>.a2z{fill:#42aeaf;}</style></defs><g transform="translate(-1188.169 -1404.162)"><path class="a2z" d="M1214.728,1409.081l.046,0a.636.636,0,0,0,.077-.005,1.255,1.255,0,0,1,1.23,1.253.561.561,0,0,0,1.123,0,2.383,2.383,0,0,0-1.869-2.323v-.539a.561.561,0,1,0-1.123,0v.565a2.377,2.377,0,0,0,.614,4.674,1.255,1.255,0,1,1-1.254,1.255.562.562,0,1,0-1.123,0,2.382,2.382,0,0,0,1.763,2.3v.615a.561.561,0,1,0,1.123,0v-.589a2.377,2.377,0,0,0-.509-4.7,1.254,1.254,0,0,1-.1-2.505Z"/><path class="a2z" d="M1214.858,1404.162a8.057,8.057,0,0,0-7.507,5.272h-13.938a.589.589,0,0,0-.562.587l-.132,19.7h-3.973a.553.553,0,0,0-.577.535v2.5a4.411,4.411,0,0,0,4.212,4.393v.013h17.338v-.017c.141.005.2.017.288.017h.012a4.412,4.412,0,0,0,4.4-4.411v-12.64c.14.008.289.012.434.012a7.981,7.981,0,0,0,0-15.961Zm-22.263,31.877h0a3.305,3.305,0,0,1-3.3-3.289v-1.906h16.286v1.9a4.408,4.408,0,0,0,1.3,3.122c.059.059.132.1.194.175Zm20.7-3.289a3.288,3.288,0,0,1-3.281,3.289h-.011a3.313,3.313,0,0,1-3.306-3.3v-2.487a.515.515,0,0,0-.152-.384.521.521,0,0,0-.384-.151h-12.323l.129-19.164h13.068a8.516,8.516,0,0,0-.154,1.56,7.924,7.924,0,0,0,.678,3.214h-5.3a.561.561,0,1,0,0,1.123h5.913a7.926,7.926,0,0,0,5.127,3.517Zm1.559-13.75a6.85,6.85,0,1,1,6.85-6.85A6.849,6.849,0,0,1,1214.858,1419Z"/><path class="a2z" d="M1198.654,1419.068a1.741,1.741,0,1,0,1.8,1.741A1.772,1.772,0,0,0,1198.654,1419.068Zm0,2.358a.62.62,0,1,1,.675-.617A.648.648,0,0,1,1198.654,1421.426Z"/><path class="a2z" d="M1201.7,1420.806a.563.563,0,0,0,.562.562h7.487a.562.562,0,0,0,0-1.124h-7.487A.562.562,0,0,0,1201.7,1420.806Z"/><path class="a2z" d="M1198.654,1414.187a1.741,1.741,0,1,0,1.8,1.74A1.771,1.771,0,0,0,1198.654,1414.187Zm0,2.357a.619.619,0,1,1,.675-.617.648.648,0,0,1-.675.617Z"/><path class="a2z" d="M1198.654,1423.949a1.741,1.741,0,1,0,1.8,1.741A1.772,1.772,0,0,0,1198.654,1423.949Zm0,2.358a.62.62,0,1,1,.675-.617A.648.648,0,0,1,1198.654,1426.307Z"/><path class="a2z" d="M1209.746,1425.158h-7.487a.562.562,0,1,0,0,1.123h7.487a.562.562,0,0,0,0-1.123Z"/></g></svg>