<svg xmlns="http://www.w3.org/2000/svg" width="15.219" height="15.711" viewBox="0 0 15.219 15.711">
<g transform="translate(-3982.423 -1949.98)"><path  d="M3997.16,1960.108h-1.653v-9.645a.483.483,0,0,0-.483-.483h-12.118a.483.483,0,0,0-.483.483v12.726a2.5,2.5,0,0,0,2.5,2.5h10.1a2.881,2.881,0,0,0,1.811-.611,2.032,2.032,0,0,0,.805-1.591v-2.9A.482.482,0,0,0,3997.16,1960.108Zm-2.619,4.617h-9.616a1.538,1.538,0,0,1-1.536-1.536v-12.243h11.152Zm2.136-1.236a1.346,1.346,0,0,1-1.17,1.183v-3.6h1.17Z"/><path  d="M3985.718,1960.693h6.494a.483.483,0,1,0,0-.966h-6.494a.483.483,0,0,0,0,.966Z"/><path  d="M3985.718,1963h6.494a.483.483,0,1,0,0-.966h-6.494a.483.483,0,0,0,0,.966Z"/><path  d="M3988.248,1955.886l.009,0,.225.106v1.24a1.761,1.761,0,0,1-.527-.22.483.483,0,0,0-.517.815,2.745,2.745,0,0,0,1.044.389v.076a.483.483,0,1,0,.966,0v-.061a1.7,1.7,0,0,0,.451-.121,1.368,1.368,0,0,0,.9-1.342c-.065-.758-.777-1.111-1.119-1.28l-.01,0-.224-.105v-1.24a1.758,1.758,0,0,1,.527.22.483.483,0,1,0,.517-.815,2.775,2.775,0,0,0-1.044-.39v0a.483.483,0,0,0-.965-.012,1.68,1.68,0,0,0-.453.122,1.368,1.368,0,0,0-.9,1.341C3987.193,1955.363,3987.905,1955.716,3988.248,1955.886Zm1.591.968c.012.137-.117.289-.313.37l-.016.006a.4.4,0,0,1-.062.022v-.793C3989.709,1956.608,3989.828,1956.73,3989.839,1956.854Zm-1.435-2.7.015-.007a.585.585,0,0,1,.063-.022v.793c-.261-.148-.381-.271-.391-.4S3988.208,1954.234,3988.4,1954.154Z"/></g></svg>