<svg xmlns="http://www.w3.org/2000/svg" width="21.714" height="24.275" viewBox="0 0 21.714 24.275"><defs><style>.ainv{fill:#125185;}</style></defs><g transform="translate(-954.248 -557.725)"><path class="ainv" d="M975.488,569.388h-3.509V558.2a.474.474,0,0,0-.809-.335l-1.344,1.343-1.343-1.343a.474.474,0,0,0-.67,0l-1.343,1.343-1.343-1.343a.475.475,0,0,0-.671,0l-1.343,1.343-1.343-1.343a.475.475,0,0,0-.671,0l-1.343,1.343-1.343-1.343a.474.474,0,0,0-.67,0l-1.343,1.343-1.343-1.343a.474.474,0,0,0-.809.348v21.323A2.468,2.468,0,0,0,956.713,582H973.5a2.468,2.468,0,0,0,2.465-2.465v-9.673A.474.474,0,0,0,975.488,569.388Zm-18.775,11.664a1.519,1.519,0,0,1-1.517-1.517V559.344l.868.869a.475.475,0,0,0,.671,0l1.343-1.344,1.343,1.344a.475.475,0,0,0,.671,0l1.343-1.344,1.343,1.344a.475.475,0,0,0,.671,0l1.343-1.344,1.343,1.344a.474.474,0,0,0,.67,0l1.343-1.344,1.343,1.344a.475.475,0,0,0,.671,0l.869-.869v20.191a2.454,2.454,0,0,0,.524,1.517Zm18.3-1.517a1.517,1.517,0,1,1-3.034,0v-9.2h3.034v9.2Z"/><path class="ainv" d="M963.113,565.257a.74.74,0,1,1,.854-.731.474.474,0,0,0,.948,0,1.706,1.706,0,0,0-1.327-1.62v-.321a.475.475,0,0,0-.949,0v.321a1.706,1.706,0,0,0-1.327,1.62,1.745,1.745,0,0,0,1.8,1.679.739.739,0,1,1-.853.73.474.474,0,0,0-.948,0,1.706,1.706,0,0,0,1.327,1.62v.387a.475.475,0,0,0,.949,0v-.387a1.706,1.706,0,0,0,1.327-1.62A1.745,1.745,0,0,0,963.113,565.257Z"/><path class="ainv" d="M967.877,565.257h-.924a.474.474,0,0,0,0,.948h.924a.474.474,0,0,0,0-.948Z"/><path class="ainv" d="M959.274,565.257h-.924a.474.474,0,0,0,0,.948h.924a.474.474,0,0,0,0-.948Z"/><path class="ainv" d="M968.117,570.527H960.6a.474.474,0,0,0,0,.948h7.512a.474.474,0,0,0,0-.948Z"/><path class="ainv" d="M958.445,570.665a.476.476,0,0,0-.67,0,.474.474,0,1,0,.67.671.474.474,0,0,0,0-.671Z"/><path class="ainv" d="M968.117,573.656H960.6a.474.474,0,0,0,0,.948h7.512a.474.474,0,0,0,0-.948Z"/><path class="ainv" d="M958.445,573.795a.474.474,0,0,0-.809.335.474.474,0,0,0,.948,0A.473.473,0,0,0,958.445,573.795Z"/><path class="ainv" d="M968.117,576.785H960.6a.474.474,0,0,0,0,.948h7.512a.474.474,0,0,0,0-.948Z"/><path class="ainv" d="M958.445,576.924a.473.473,0,1,0,.139.335A.477.477,0,0,0,958.445,576.924Z"/></g></svg>