<svg xmlns="http://www.w3.org/2000/svg" width="22.758" height="22.235" viewBox="0 0 22.758 22.235">
  <path id="Item-in-order" d="M974.366 225.4l-1.574-14.557a.705.705 0 0 0-.7-.629h-2.6v-.472a4.384 4.384 0 1 0-8.767 0v.472h-2.6a.7.7 0 0 0-.7.629l-1.581 14.557a2.67 2.67 0 0 0 2.656 2.958h13.21a2.67 2.67 0 0 0 2.656-2.958zm-12.234-15.658a2.973 2.973 0 0 1 5.947 0v.472h-5.947zm10.517 16.788a1.247 1.247 0 0 1-.939.418H958.5a1.26 1.26 0 0 1-1.254-1.4l1.506-13.928h1.97v1.8a.705.705 0 0 0 1.41 0v-1.8h5.947v1.8a.705.705 0 0 0 1.41 0v-1.8h1.969l1.506 13.928a1.248 1.248 0 0 1-.315.986zm-11.7-10.195a1.1 1.1 0 1 0 1.1 1.1 1.1 1.1 0 0 0-1.099-1.096zm8.263.486h-5.754a.621.621 0 1 0 0 1.242h5.756a.621.621 0 1 0 0-1.242zm-8.263 2.637a1.1 1.1 0 1 0 1.1 1.1 1.1 1.1 0 0 0-1.099-1.096zm8.263.466h-5.754a.634.634 0 0 0 0 1.268h5.756a.634.634 0 0 0 0-1.268zm-8.262 2.876a1.1 1.1 0 1 0 1.1 1.1 1.1 1.1 0 0 0-1.1-1.1zm8.263.464h-5.754a.634.634 0 0 0 0 1.267h5.756a.634.634 0 0 0 0-1.267z" transform="translate(-955.829 -205.362)"/>
</svg>
