<svg xmlns="http://www.w3.org/2000/svg" viewBox="0 0 17.47 16.15">
<g id="Layer_2" data-name="Layer 2"><g id="Layer_1-2" data-name="Layer 1"><g id="Layer_1-3" data-name="Layer 1"><path class="cls-10" d="M17.43,6.82a.36.36,0,0,0-.33-.21H16a8.06,8.06,0,1,0-.94,5.5.73.73,0,0,0-1.27-.73,6.62,6.62,0,1,1,.71-4.77H13.43a.36.36,0,0,0-.33.21.37.37,0,0,0,.05.39L15,9.41a.39.39,0,0,0,.29.13.39.39,0,0,0,.28-.13l1.83-2.2A.37.37,0,0,0,17.43,6.82Z"/><path class="cls-10" d="M8.07,1.84a.73.73,0,0,0-.73.73V7a1.29,1.29,0,0,0,.73,2.34,1.27,1.27,0,0,0,.55-.13l2.55,1.48a.73.73,0,0,0,1-.27.73.73,0,0,0-.27-1L9.35,8A1.32,1.32,0,0,0,8.81,7V2.57A.73.73,0,0,0,8.07,1.84Zm0,6.78a.55.55,0,0,1-.55-.55.55.55,0,0,1,.55-.55.55.55,0,0,1,.55.55A.54.54,0,0,1,8.07,8.62Z"/></g></g></g></svg>