<svg xmlns="http://www.w3.org/2000/svg" viewBox="0 0 36 16"><defs><style>.cls-1,.cls-3{fill:#9fa2a7;}.cls-1{stroke:#fff;stroke-miterlimit:10;}.cls-2{fill:#f63b55;}</style></defs><title>message-red</title><g id="Layer_3" data-name="Layer 3"><rect class="cls-1" x="1" y="4.5" width="7" height="7" transform="translate(9 16) rotate(-180)"/><path class="cls-2" d="M19,6.13h-3.6a.54.54,0,1,1,0-1.07H19a.54.54,0,1,1,0,1.07Z"/><path class="cls-2" d="M32.24,6.13H28.63a.54.54,0,0,1,0-1.07h3.61a.54.54,0,0,1,0,1.07Z"/><path class="cls-2" d="M28.63,0H19a.54.54,0,0,0-.53.54V8.23a.54.54,0,1,0,1.07,0V1.07h8.6V8.22a.54.54,0,1,0,1.07,0V.55A.54.54,0,0,0,28.63,0Z"/><path class="cls-2" d="M26.17,3.28H21.43a.54.54,0,1,0,0,1.07h4.74a.54.54,0,0,0,0-1.07Z"/><path class="cls-2" d="M26.17,5.26H21.43a.54.54,0,1,0,0,1.07h4.74a.54.54,0,0,0,0-1.07Z"/><path class="cls-2" d="M26.17,7.23H21.43a.54.54,0,1,0,0,1.07h4.74a.54.54,0,0,0,0-1.07Z"/><path class="cls-3" d="M32.48,5.12a.52.52,0,0,0-.56,0L23.8,11.11,15.67,5.16a.54.54,0,0,0-.85.43v9.87a.54.54,0,0,0,.54.54H32.24a.53.53,0,0,0,.53-.54V5.59A.52.52,0,0,0,32.48,5.12Zm-.78,9.11L27.19,10l4.51-3.3Zm-7.59-2,2.21-1.61,4.57,4.33H16.7l4.58-4.34,2.2,1.62A.52.52,0,0,0,24.11,12.21ZM20.4,10l-4.51,4.27V6.65Z"/></g></svg>