<svg xmlns="http://www.w3.org/2000/svg" width="6" height="24" viewBox="0 0 6 24">
    <!-- <defs>
        <style>
            .cls-1-more{fill:#9fa2a7}
        </style>
    </defs> -->
    <g id="Group_349" data-name="Group 349" transform="translate(-441 -703)">
        <g id="Group_348" data-name="Group 348">
            <g id="Group_347" data-name="Group 347">
                <path id="Path_215" d="M444 713a2 2 0 1 1-2 2 2 2 0 0 1 2-2m0-1a3 3 0 1 0 3 3 3 3 0 0 0-3-3z" class="cls-1-more" data-name="Path 215"/>
                <path id="Path_216" d="M444 722a2 2 0 1 1-2 2 2 2 0 0 1 2-2m0-1a3 3 0 1 0 3 3 3 3 0 0 0-3-3z" class="cls-1-more" data-name="Path 216"/>
                <path id="Path_217" d="M444 704a2 2 0 1 1-2 2 2 2 0 0 1 2-2m0-1a3 3 0 1 0 3 3 3 3 0 0 0-3-3z" class="cls-1-more" data-name="Path 217"/>
            </g>
        </g>
    </g>
</svg>
