<svg xmlns="http://www.w3.org/2000/svg" width="24.543" height="24.543" viewBox="0 0 24.543 24.543"><defs><style>.akn{fill:#b7295a;}</style></defs><path class="akn" d="M12.272,24.543A12.272,12.272,0,1,1,24.543,12.272,12.286,12.286,0,0,1,12.272,24.543Zm0-23.009A10.738,10.738,0,1,0,23.009,12.272,10.75,10.75,0,0,0,12.272,1.534Z"/><path class="akn" d="M169.6,174.2a4.6,4.6,0,1,1,4.6-4.6A4.607,4.607,0,0,1,169.6,174.2Zm0-7.67a3.068,3.068,0,1,0,3.068,3.068A3.071,3.071,0,0,0,169.6,166.534Z" transform="translate(-157.33 -157.33)"/><path class="akn" d="M232.534,234.068a1.534,1.534,0,1,1,1.534-1.534A1.536,1.536,0,0,1,232.534,234.068Z" transform="translate(-220.262 -220.262)"/><path class="akn" d="M112.445,70.323l-1.183-.977a9.181,9.181,0,0,1,7.1-3.347v1.534A7.648,7.648,0,0,0,112.445,70.323Z" transform="translate(-106.09 -62.932)"/><path class="akn" d="M264,373.315v-1.534a7.648,7.648,0,0,0,5.916-2.789l1.183.977A9.181,9.181,0,0,1,264,373.315Z" transform="translate(-251.728 -351.84)"/></svg>