<svg xmlns="http://www.w3.org/2000/svg" width="23.992" height="32.381" viewBox="0 0 23.992 32.381"><defs><style>.a2b{fill:#00447c;}</style></defs><g transform="translate(-1198.15 -1516.38)"><path class="a2b" d="M1215.36,1516.38a6.579,6.579,0,0,1,3.391.916,6.86,6.86,0,0,1,2.475,2.475,6.733,6.733,0,0,1,0,6.781,6.852,6.852,0,0,1-2.475,2.475,6.733,6.733,0,0,1-6.781,0,6.845,6.845,0,0,1-2.475-2.475,6.733,6.733,0,0,1,0-6.781,6.853,6.853,0,0,1,2.475-2.475A6.579,6.579,0,0,1,1215.36,1516.38Zm0,12.25a5.309,5.309,0,0,0,2.735-.738,5.5,5.5,0,0,0,2-2,5.435,5.435,0,0,0,0-5.469,5.5,5.5,0,0,0-2-2,5.435,5.435,0,0,0-5.469,0,5.5,5.5,0,0,0-2,2,5.435,5.435,0,0,0,0,5.469,5.5,5.5,0,0,0,2,2A5.308,5.308,0,0,0,1215.36,1528.63Zm2.789-7.164a.4.4,0,0,0,.082-.246.292.292,0,0,0-.082-.218l-.628-.629a.3.3,0,0,0-.219-.082.4.4,0,0,0-.246.082l-1.7,1.695-1.695-1.695a.4.4,0,0,0-.246-.082.3.3,0,0,0-.219.082l-.629.629a.3.3,0,0,0-.082.218.4.4,0,0,0,.082.246l1.7,1.7-1.7,1.7a.4.4,0,0,0-.082.246.3.3,0,0,0,.082.219l.629.629a.3.3,0,0,0,.219.082.4.4,0,0,0,.246-.082l1.695-1.7,1.7,1.7a.4.4,0,0,0,.246.082.3.3,0,0,0,.219-.082l.628-.629a.3.3,0,0,0,.082-.219.4.4,0,0,0-.082-.246l-1.7-1.7Z"/><path class="a2b" d="M1205.25,1529.474c-1.016,0-1.875-.643-1.875-1.406s.859-1.406,1.875-1.406a2.109,2.109,0,0,1,1.339.446.938.938,0,1,0,1.185-1.455,3.849,3.849,0,0,0-1.587-.748v-1.056a.938.938,0,0,0-1.875,0v1.054a3.394,3.394,0,0,0-2.812,3.165,3.543,3.543,0,0,0,3.75,3.281c1.016,0,1.875.643,1.875,1.406s-.859,1.407-1.875,1.407a2.11,2.11,0,0,1-1.339-.447.938.938,0,0,0-1.185,1.455,3.88,3.88,0,0,0,1.586.75v1.054a.938.938,0,1,0,1.875,0v-1.054a3.393,3.393,0,0,0,2.813-3.165A3.543,3.543,0,0,0,1205.25,1529.474Z"/><path class="a2b" d="M1211.813,1533.761a.537.537,0,1,1,0-1.074h3.75a.537.537,0,0,1,0,1.074Z"/><path class="a2b" d="M1211.813,1537.511a.537.537,0,1,1,0-1.074h3.75a.537.537,0,0,1,0,1.074Z"/><path class="a2b" d="M1202.438,1541.261a.537.537,0,1,1,0-1.074h13.125a.537.537,0,0,1,0,1.074Z"/><path class="a2b" d="M1202.438,1545.011a.537.537,0,1,1,0-1.074h13.125a.537.537,0,0,1,0,1.074Z"/><path class="a2b" d="M1218.775,1528.162v19.525h-19.55v-27.051H1210v-1.074h-10.375a1.476,1.476,0,0,0-1.475,1.475v26.25a1.476,1.476,0,0,0,1.475,1.474h18.75a1.476,1.476,0,0,0,1.475-1.474v-19.125Z"/></g></svg>