<svg xmlns="http://www.w3.org/2000/svg" xmlns:xlink="http://www.w3.org/1999/xlink" width="44" height="25.5" viewBox="0 0 44 25.5"><defs><style>.a{fill:url(#a);}.b{fill:url(#b);}.c{fill:url(#c);}.d{fill:#2e3e44;}</style><linearGradient id="a" x1="0.743" y1="0.744" x2="0.258" y2="0.243" gradientUnits="objectBoundingBox"><stop offset="0" stop-color="#fff" stop-opacity="0"/><stop offset="0.4" stop-color="#0087cc"/><stop offset="1" stop-color="#202628"/></linearGradient><linearGradient id="b" x1="0.249" y1="-0.001" x2="0.676" y2="0.886" gradientUnits="objectBoundingBox"><stop offset="0" stop-color="#009cb8"/><stop offset="0.6" stop-color="#0087cc"/><stop offset="1" stop-color="#fff" stop-opacity="0"/></linearGradient><linearGradient id="c" x1="-0.047" y1="0.331" x2="1.12" y2="0.683" gradientUnits="objectBoundingBox"><stop offset="0" stop-color="#202628"/><stop offset="0.6" stop-color="#007db8"/><stop offset="1" stop-color="#fff" stop-opacity="0"/></linearGradient></defs><g transform="translate(-256 -398.1)"><path class="a" d="M271.7,421.4a10.929,10.929,0,0,1-1.5.8,7.742,7.742,0,0,1-1.6.7,8.446,8.446,0,0,1-1.7.5,11.019,11.019,0,0,1-1.8.2,5.537,5.537,0,0,1-1.8-.2,3.63,3.63,0,0,1-1.7-.7,5.3,5.3,0,0,1-2.4-2.9,11.627,11.627,0,0,1-.4-1.8,10.818,10.818,0,0,1,0-1.8c0-.3.1-.6.1-.9.1-.3.1-.6.2-.9a2.92,2.92,0,0,0,.2-.9,6.9,6.9,0,0,1,.3-.8,20.9,20.9,0,0,1,3.6-6.1,29.567,29.567,0,0,1,2.4-2.6c.9-.8,1.8-1.5,2.7-2.2a23.809,23.809,0,0,1,3-1.8,11.114,11.114,0,0,1,1.6-.7,13.3,13.3,0,0,1,5.3-.8,5.84,5.84,0,0,1,1.8.4,5.072,5.072,0,0,1,1.6.9,4.071,4.071,0,0,1,1.2,1.4,5.094,5.094,0,0,1,.7,1.7,11.135,11.135,0,0,1,.2,1.7,8.806,8.806,0,0,1-.2,1.7v-1.7a7.493,7.493,0,0,0-.4-1.6,5.254,5.254,0,0,0-1.9-2.5,5.419,5.419,0,0,0-3-.8,8.6,8.6,0,0,0-1.6.1,9.365,9.365,0,0,0-1.6.4,19.444,19.444,0,0,0-3,1.3c-.5.3-1,.5-1.4.8-.5.3-.9.6-1.4.9-.9.7-1.7,1.4-2.5,2.1-.8.8-1.6,1.6-2.3,2.4a18.48,18.48,0,0,0-1.9,2.7l-.2.4-.2.4c-.1.2-.3.5-.4.7-.2.5-.5,1-.7,1.5-.1.3-.2.5-.3.8a2.353,2.353,0,0,0-.2.8c-.1.3-.1.5-.2.8,0,.3-.1.5-.1.8a8.132,8.132,0,0,0,.2,3.1,4.63,4.63,0,0,0,1.7,2.4,5.068,5.068,0,0,0,3,.9,12.306,12.306,0,0,0,3.3-.3,9.829,9.829,0,0,0,1.6-.5A13.761,13.761,0,0,0,271.7,421.4Z"/><path class="b" d="M268.5,419.3a20.243,20.243,0,0,1-6.3-1.3,15.933,15.933,0,0,1-2.9-1.5,10.254,10.254,0,0,1-2.4-2.4,4.6,4.6,0,0,1-.7-1.6,5.537,5.537,0,0,1-.2-1.8,5.84,5.84,0,0,1,.4-1.8,5.072,5.072,0,0,1,.9-1.6,4.894,4.894,0,0,1,1.2-1.3c.4-.4.9-.7,1.3-1.1a14.019,14.019,0,0,1,3-1.5c1-.4,2.1-.7,3.1-1,1.1-.2,2.1-.4,3.2-.5a23.659,23.659,0,0,1,6.5.3,19.219,19.219,0,0,1,6.1,2.1c.5.3.9.6,1.4.9.4.3.9.7,1.3,1,.4.4.7.8,1.1,1.2a6.375,6.375,0,0,1,.8,1.4,14.627,14.627,0,0,0-.9-1.3,5.8,5.8,0,0,0-1.2-1,11.739,11.739,0,0,0-2.7-1.5,20.337,20.337,0,0,0-6-1.5,30.283,30.283,0,0,0-3.1-.2,16.153,16.153,0,0,0-3.1.2c-1,.1-2,.3-3,.5a13.97,13.97,0,0,0-2.9.9,17.391,17.391,0,0,0-2.7,1.4l-1.2.9a9.428,9.428,0,0,0-1,1,4.589,4.589,0,0,0-1,2.5,4.023,4.023,0,0,0,.6,2.6,10.039,10.039,0,0,0,1.9,2.2,13.988,13.988,0,0,0,2.6,1.6A15.63,15.63,0,0,0,268.5,419.3Z"/><path class="c" d="M282.2,421.7a7.552,7.552,0,0,1-1.4,1.1,4.924,4.924,0,0,1-1.7.6,5.462,5.462,0,0,1-1.8.1,11.018,11.018,0,0,1-1.8-.2,13.521,13.521,0,0,1-3.4-1.1,32.387,32.387,0,0,1-3.2-1.7,20.932,20.932,0,0,1-2.8-2.2,30.7,30.7,0,0,1-2.5-2.6,19.409,19.409,0,0,1-2.1-2.9c-.3-.5-.6-1-.9-1.6-.3-.5-.5-1.1-.8-1.7a13.574,13.574,0,0,1-.9-3.6,6.054,6.054,0,0,1,0-1.9,12.863,12.863,0,0,1,.4-1.9,5.423,5.423,0,0,1,1-1.8,4.707,4.707,0,0,1,1.5-1.3,6.7,6.7,0,0,1,1.8-.7,12.252,12.252,0,0,1,1.9-.2,11.018,11.018,0,0,1,1.8.2,15.5,15.5,0,0,1,3.5,1.2c.3.1.5.3.8.4a2.994,2.994,0,0,0,.8.4,23.555,23.555,0,0,1,5.4,4.6,30.345,30.345,0,0,0-5.7-3.9,3,3,0,0,1-.8-.4c-.3-.1-.5-.2-.8-.3a9.829,9.829,0,0,0-1.6-.5,12.574,12.574,0,0,0-3.3-.5,6.109,6.109,0,0,0-3,.8,5.242,5.242,0,0,0-1.1,1,5.388,5.388,0,0,0-.7,1.3,6.458,6.458,0,0,0-.2,3.1,12.513,12.513,0,0,0,.8,3.2,22.634,22.634,0,0,0,3.4,5.8,27.278,27.278,0,0,0,4.9,4.7,17.481,17.481,0,0,0,2.9,1.8,17.879,17.879,0,0,0,3.2,1.3,9.629,9.629,0,0,0,3.4.4,5.257,5.257,0,0,0,1.7-.4C281.2,422.4,281.7,422.1,282.2,421.7Z"/><path class="d" d="M280.4,414.8a7.318,7.318,0,0,1-.4,2.7,4.895,4.895,0,0,1-1,1.9,3.269,3.269,0,0,1-1.5,1.1,5.839,5.839,0,0,1-1.8.4,4.212,4.212,0,0,1-2-.4,4.071,4.071,0,0,1-1.4-1.2,4.743,4.743,0,0,1-.8-1.9,9.518,9.518,0,0,1-.3-2.5,7.664,7.664,0,0,1,.4-2.7,4.895,4.895,0,0,1,1-1.9,3.269,3.269,0,0,1,1.5-1.1,5.839,5.839,0,0,1,1.8-.4,4.212,4.212,0,0,1,2,.4,4.071,4.071,0,0,1,1.4,1.2,4.743,4.743,0,0,1,.8,1.9A10.076,10.076,0,0,1,280.4,414.8Zm-1.7.2a11.075,11.075,0,0,0-.2-1.9,5.27,5.27,0,0,0-.5-1.5,2.837,2.837,0,0,0-.9-1,2.768,2.768,0,0,0-1.3-.3,2.01,2.01,0,0,0-1.3.4,2.189,2.189,0,0,0-.9,1,5.27,5.27,0,0,0-.5,1.5,9.908,9.908,0,0,0-.2,1.8,11.075,11.075,0,0,0,.2,1.9,5.27,5.27,0,0,0,.5,1.5,2.837,2.837,0,0,0,.9,1,2.768,2.768,0,0,0,1.3.3,2.01,2.01,0,0,0,1.3-.4,2.189,2.189,0,0,0,.9-1,5.27,5.27,0,0,0,.5-1.5A5.537,5.537,0,0,0,278.7,415Z"/><path class="d" d="M289.3,420.8h-6.6V409.1h6.6v1.3h-5V414h4.9v1.3h-4.9v4h5Z"/><path class="d" d="M300,412.7a3.53,3.53,0,0,1-.3,1.4,5.67,5.67,0,0,1-.8,1.3,4.194,4.194,0,0,1-1.4.9,6.648,6.648,0,0,1-2.1.3H294v4.2h-1.6V409.1h3.3a9.852,9.852,0,0,1,1.7.2,3.506,3.506,0,0,1,1.4.6,5.241,5.241,0,0,1,1,1.1A7.932,7.932,0,0,1,300,412.7Zm-1.7,0a1.94,1.94,0,0,0-.7-1.7,3.281,3.281,0,0,0-2.1-.6h-1.6v4.8h1.5a3.593,3.593,0,0,0,2.2-.6A2.226,2.226,0,0,0,298.3,412.7Z"/></g></svg>