<svg xmlns="http://www.w3.org/2000/svg" width="53.674" height="53.678" viewBox="0 0 53.674 53.678">
  <defs>
    <style>
      .cls-1 {
        fill: #f57d48;
        stroke: #fff;
        stroke-miterlimit: 10;
      }
    </style>
  </defs>
  <path id="Order-score" class="cls-1" d="M417.62,412.474h0a6.521,6.521,0,0,0-7.492,4.712v0a6.52,6.52,0,0,1-12.052,1.364v0a6.519,6.519,0,0,0-8.355-2.919h0a6.52,6.52,0,0,1-8.581-8.572l0,0a6.52,6.52,0,0,0-2.928-8.352l0,0a6.52,6.52,0,0,1,1.352-12.053h0a6.52,6.52,0,0,0,4.7-7.5v0a6.52,6.52,0,0,1,10.266-6.458l0,0a6.52,6.52,0,0,0,8.794-.995l0,0a6.52,6.52,0,0,1,11.45,4v0a6.519,6.519,0,0,0,6.261,6.254h0a6.52,6.52,0,0,1,4.012,11.446l0,0a6.52,6.52,0,0,0-.986,8.795l0,0A6.52,6.52,0,0,1,417.62,412.474Z" transform="translate(-374.222 -368.851)"/>
</svg>
