<svg xmlns="http://www.w3.org/2000/svg" width="28.331" height="28.401" viewBox="0 0 28.331 28.401">
  <defs>
  </defs>
  <g id="Group_2654" data-name="Group 2654" transform="translate(-947.921 -600)">
    <g id="Group_2535" data-name="Group 2535" transform="translate(-4.748 -1)">
      <path id="Path_1727" data-name="Path 1727" class="cls-1-oh" d="M952.669,622.132v5.58a1.689,1.689,0,0,0,2.867,1.211l5.018-4.877a.972.972,0,0,1,.677-.274h11.713a1.564,1.564,0,0,0,.963-.333l6.5-5.114a1.559,1.559,0,1,0-1.929-2.45l-4.224,3.323a.974.974,0,0,1-.6.208H963.623a.971.971,0,0,1,0-1.942h5.889a1.56,1.56,0,1,0,0-3.12h-8.124a5.176,5.176,0,0,0-3.545,1.4l-4.161,3.908A3.536,3.536,0,0,0,952.669,622.132Z"/>
    </g>
    <path id="Path_1728" data-name="Path 1728" class="cls-1-oh" d="M974.193,610.726l-.887-6.279h-2.169V603.24a2.241,2.241,0,0,0-4.481,0v1.207h-2.281l-.917,6.271a1.722,1.722,0,0,0,1.705,1.972h7.324a1.722,1.722,0,0,0,1.706-1.964ZM967.8,603.24a1.091,1.091,0,0,1,2.183,0v1.207H967.8Zm5.116,8.1a.569.569,0,0,1-.434.2h-7.324a.575.575,0,0,1-.569-.658l.774-5.288h1.288v1.149H967.8V605.6h2.183v1.149h1.149V605.6h1.171l.748,5.291A.572.572,0,0,1,972.921,611.344Z" transform="translate(-4.748 -1)"/>
  </g>
</svg>
