<svg id="logo-Layer_1" data-name="Layer 1" xmlns="http://www.w3.org/2000/svg" viewBox="0 0 466 320.96">
<path class="logo-cls-1" d="M47.74,155.55H88.46a270.3,270.3,0,0,1,3-38.52,355.85,355.85,0,0,1-36.54-6.77A170.64,170.64,0,0,0,47.74,155.55Z"/><path class="logo-cls-1" d="M99.13,25.2A139.9,139.9,0,0,0,66,40.54a123.81,123.81,0,0,0,11.55,6.13A160.63,160.63,0,0,1,99.13,25.2Z"/><path class="logo-cls-1" d="M45.07,107.73a314.57,314.57,0,0,1-30.4-10l-.19.1A141.24,141.24,0,0,0,0,155.55H37.49A184.09,184.09,0,0,1,45.07,107.73Z"/><path class="logo-cls-1" d="M71.15,54.92a160.15,160.15,0,0,1-14.31-8C43.58,56.79,28.51,72.72,19.33,88.76a290.89,290.89,0,0,0,28.9,9.35A169.48,169.48,0,0,1,71.15,54.92Z"/><path class="logo-cls-1" d="M71.16,54.92h0l.07,0Z"/><path class="logo-cls-1" d="M103.19,66.58a156.15,156.15,0,0,1-22.64-7.42A162.6,162.6,0,0,0,58.1,100.65,344.19,344.19,0,0,0,93,107,272.52,272.52,0,0,1,103.19,66.58Z"/><path class="logo-cls-1" d="M87.18,50.84A157.49,157.49,0,0,0,106.58,57a244,244,0,0,1,17.58-37A142,142,0,0,0,87.18,50.84Z"/><path class="logo-cls-1" d="M136.76,60.93V19a227.1,227.1,0,0,0-20,40A139.27,139.27,0,0,0,136.76,60.93Z"/><path class="logo-cls-1" d="M136.75,71.12a144.12,144.12,0,0,1-23.53-2.4,256.91,256.91,0,0,0-10.07,39.42,325,325,0,0,0,33.6,1.92Z"/><path class="logo-cls-1" d="M227.56,110.51A356.29,356.29,0,0,1,192.09,117a282.45,282.45,0,0,1,2.78,28.79A186.62,186.62,0,0,0,227.56,110.51Z"/><path class="logo-cls-1" d="M206,46.67a123.81,123.81,0,0,0,11.55-6.13,140,140,0,0,0-33.1-15.34A160.12,160.12,0,0,1,206,46.67Z"/><path class="logo-cls-1" d="M225.46,100.65A162.6,162.6,0,0,0,203,59.16a156.82,156.82,0,0,1-22.63,7.42A275,275,0,0,1,190.55,107,344.7,344.7,0,0,0,225.46,100.65Z"/><path class="logo-cls-1" d="M196.38,50.84a142.07,142.07,0,0,0-37-30.89A243.1,243.1,0,0,1,177,57,158,158,0,0,0,196.38,50.84Z"/><path class="logo-cls-1" d="M146.8,19V60.93a139.14,139.14,0,0,0,20-2A228.48,228.48,0,0,0,146.8,19Z"/><path class="logo-cls-1" d="M146.81,71.12v38.94a325.54,325.54,0,0,0,33.61-1.92,259.23,259.23,0,0,0-10.09-39.42A144,144,0,0,1,146.81,71.12Z"/><path class="logo-cls-1" d="M88.46,165.42H47.74a171.36,171.36,0,0,0,4.89,36.91,350.5,350.5,0,0,0,37.72-6.85A260.41,260.41,0,0,1,88.46,165.42Z"/><path class="logo-cls-1" d="M42.47,203.47a184.66,184.66,0,0,1-5-38.05H0a141.89,141.89,0,0,0,7.11,39.73A12.48,12.48,0,0,1,9.49,205,283.78,283.78,0,0,0,42.47,203.47Z"/><path class="logo-cls-1" d="M136.8,180.45v-15H98.62c.14,9.37.72,18.52,1.69,27.51,2.66-.72,5.33-1.49,8-2.3A294.4,294.4,0,0,0,136.8,180.45Z"/><path class="logo-cls-1" d="M250.48,70l.24-.22a149.47,149.47,0,0,0-24-22.84,161.48,161.48,0,0,1-14.32,8,169.58,169.58,0,0,1,22.94,43.18l.34-.1a192.73,192.73,0,0,0,12.08-24A12.35,12.35,0,0,1,250.48,70Z"/><path class="logo-cls-1" d="M212.34,55l.06,0h0Z"/><path class="logo-cls-1" d="M136.8,120.31c-12.68-.16-23.51-.86-35.26-2.07a296.18,296.18,0,0,0-2.92,37.31H136.8Z"/><path class="logo-cls-1" d="M146.76,165.42V176q10.56-4.93,20.22-10.62Z"/><path class="logo-cls-1" d="M182,118.24c-11.75,1.21-22.58,1.91-35.26,2.07v35.24h35.46c.9-.64,1.79-1.29,2.68-1.94A299.35,299.35,0,0,0,182,118.24Z"/><path class="cls-2" d="M221.28,155.55h14.54c-.08-4.68-.4-9.45-.91-14.2Q228.46,148.73,221.28,155.55Z"/><path class="cls-2" d="M243.71,130.55a186.53,186.53,0,0,1,2.37,25h37a140.51,140.51,0,0,0-14.47-57.71c-1.78.69-3.58,1.35-5.39,2A210.42,210.42,0,0,1,243.71,130.55Z"/><path class="cls-2" d="M77.59,274.29a120.7,120.7,0,0,0-11.34,6,141.05,141.05,0,0,0,32.2,14.89A160.91,160.91,0,0,1,77.59,274.29Z"/><path class="cls-2" d="M80.55,261.8a157.38,157.38,0,0,1,22.64-7.42,273.24,273.24,0,0,1-9-34.13c-12,2.81-23.35,4.82-33.63,6.26A162.78,162.78,0,0,0,80.55,261.8Z"/><path class="cls-2" d="M87.18,270.12a142.18,142.18,0,0,0,36.41,30.54l.4,0A243.27,243.27,0,0,1,106.58,264,157.49,157.49,0,0,0,87.18,270.12Z"/><path class="cls-2" d="M116.72,262A226.1,226.1,0,0,0,136.6,301.7h.16V260A142.18,142.18,0,0,0,116.72,262Z"/><path class="cls-2" d="M104,217.79a260,260,0,0,0,9.18,34.46,140.84,140.84,0,0,1,23.53-2.41V210.9c-3.06,0-6.74.09-10.61.23q-5.58,1.91-11.32,3.63Q109.38,216.38,104,217.79Z"/><path class="cls-2" d="M194.77,177.09c-.46,8.9-1.38,18.11-2.68,26.84a355.34,355.34,0,0,1,36.54,6.78,171.52,171.52,0,0,0,7.19-45.29H210.14c-2.69,2.22-5.42,4.41-8.23,6.53Q198.4,174.58,194.77,177.09Z"/><path class="cls-2" d="M185.66,294.72A140.59,140.59,0,0,0,216.87,280a122.5,122.5,0,0,0-10.9-5.75A160,160,0,0,1,185.66,294.72Z"/><path class="cls-2" d="M246.08,165.42a184,184,0,0,1-7.6,47.81,314.44,314.44,0,0,1,30,9.83A140.61,140.61,0,0,0,283,165.42Z"/><path class="cls-2" d="M180.38,254.38A158.06,158.06,0,0,1,203,261.8a162.6,162.6,0,0,0,22.45-41.49A344.7,344.7,0,0,0,190.55,214,275,275,0,0,1,180.38,254.38Z"/><path class="cls-2" d="M196.38,270.12A158,158,0,0,0,177,264a244.92,244.92,0,0,1-17.36,36.62l.55-.08A142.54,142.54,0,0,0,196.38,270.12Z"/><path class="cls-2" d="M146.8,260v41.65H147A228.37,228.37,0,0,0,166.84,262,142,142,0,0,0,146.8,260Z"/><path class="cls-2" d="M146.81,210.9v38.94a140.71,140.71,0,0,1,23.52,2.41,259.67,259.67,0,0,0,10.09-39.43A322.77,322.77,0,0,0,146.81,210.9Z"/><path class="cls-2" d="M71.16,266a167.24,167.24,0,0,1-21-38.2c-9.35,1-17.5,1.61-24.06,1.9-2.25.8-4.49,1.62-6.73,2.48,7.17,12.52,17.92,25,28.6,34.5,2.9,2.54,5.9,5,9,7.26A151.3,151.3,0,0,1,71.22,266Z"/><path class="cls-2" d="M212.39,266h0a149.37,149.37,0,0,1,13.83,7.66A142.29,142.29,0,0,0,263.6,232a290.24,290.24,0,0,0-28.26-9.11A169.35,169.35,0,0,1,212.39,266Z"/><path class="cls-2" d="M182,202.73q1.3-9.18,2-18.6a265.16,265.16,0,0,1-31.53,16.66C162.82,201.07,172.1,201.72,182,202.73Z"/><path class="logo-cls-1" d="M295.71,188.83h134v-56.7h-134a142.92,142.92,0,0,1,0,56.7Z"/><path class="logo-cls-1" d="M429.67,0H156.77a141.5,141.5,0,0,1,110.5,53l-.84,2.39a246,246,0,0,1-16.27,36.81,219.17,219.17,0,0,1-22.58,33.34,224.77,224.77,0,0,1-61.66,51.79c-23.46,13.55-49.1,23.27-75.51,29.76a343,343,0,0,1-40.15,7.31q-10.14,1.25-20.36,1.86c-6.8.4-13.62.63-20.44.44,6.81.36,13.65.29,20.47.06s13.64-.7,20.44-1.36A344.84,344.84,0,0,0,90.87,209c26.71-5.88,52.85-15,77-28.21a229.83,229.83,0,0,0,64.28-51.41A225.49,225.49,0,0,0,256.25,95.6,253.76,253.76,0,0,0,274,58.05l.51-1.35h155.2Z"/><path class="logo-cls-1" d="M378.93,302.6V264.26H270.19A141.53,141.53,0,0,1,156.77,321h272.9V302.6Z"/><polygon class="logo-cls-1" points="393.34 277.3 416.9 251.02 395.39 225.28 395.39 225.31 395.39 212.03 415.43 211.94 415.43 225.2 415.43 225.22 426.97 239.03 439.61 225.16 439.61 225.19 439.61 211.93 465.87 211.82 465.91 225.09 465.84 225.12 443.92 250.17 466 277.13 466 277.1 466 290.37 446.51 290.47 446.47 277.2 446.5 277.18 433.51 261.71 419.91 277.24 419.91 277.22 419.91 290.49 393.34 290.6 393.34 277.33 393.34 277.3"/></svg>
