<svg xmlns="http://www.w3.org/2000/svg" viewBox="0 0 25.71 33"><defs><style>.cls-1{fill:#9fa2a7;}</style></defs><title>Order-flag</title><g id="Layer_2" data-name="Layer 2"><g id="Layer_3" data-name="Layer 3"><path class="cls-1" d="M1,0a1,1,0,0,1,.72,1.09c0,.41.06.83.1,1.26C2.58,2.16,3.27,2,4,1.8a20.72,20.72,0,0,1,12.11.91,1,1,0,0,1,.73,1.22c-.06.57-.09,1.13-.14,1.74.59,0,1.14,0,1.68,0a15.19,15.19,0,0,0,5-1.18,1.77,1.77,0,0,1,.68-.15.85.85,0,0,1,.8.82c.14,1.85.26,3.71.4,5.56s.28,3.86.43,5.78a1,1,0,0,1-.7,1.12A20.7,20.7,0,0,1,18.75,19,20.72,20.72,0,0,1,9.8,17.62c-.38-.15-.67-.36-.69-.8a.89.89,0,0,1,.6-.92c.61-.28,1.21-.59,1.82-.88v-.09c-.57-.08-1.14-.18-1.72-.23a15.29,15.29,0,0,0-6.63,1,.39.39,0,0,0-.3.47c.2,2.47.37,4.95.55,7.42q.3,4.08.62,8.16a3.38,3.38,0,0,1,0,.45.86.86,0,0,1-1.72.08c-.11-1.35-.21-2.7-.31-4Q1.8,25.3,1.58,22.4c-.11-1.54-.22-3.08-.34-4.62S1,14.61.87,13L.6,9.14.3,5.29C.2,3.85.11,2.41,0,1A.93.93,0,0,1,.71,0ZM14.3,13.91c0-.56.07-1.06.11-1.56.19-2.6.37-5.2.58-7.8,0-.3-.06-.41-.33-.5a19.25,19.25,0,0,0-8.32-.89,17.33,17.33,0,0,0-4.07,1c-.09,0-.22.15-.22.23a4.91,4.91,0,0,0,0,.77c.09,1.33.2,2.66.3,4L2.65,13c0,.33.06.65.09,1A16.89,16.89,0,0,1,14.3,13.91Z"/></g></g></svg>