<svg xmlns="http://www.w3.org/2000/svg" viewBox="0 0 19.82 18.66"><defs></defs><g id="Layer_2" data-name="Layer 2"><g id="Layer_1-2" data-name="Layer 1"><path class="cls-1-or" d="M17.4,1.77H12.14a.4.4,0,0,0,0-.56.39.39,0,0,0-.55,0l-.67.67a.39.39,0,0,0,0,.55l.67.67a.39.39,0,0,0,.28.12.36.36,0,0,0,.27-.12.39.39,0,0,0,0-.55H17V7a.39.39,0,0,0,.78,0V2.16A.38.38,0,0,0,17.4,1.77Z"/><path class="cls-1-or" d="M8.88,16.88l-.67-.67a.39.39,0,0,0-.55,0,.39.39,0,0,0,0,.56H2.79V12.35a.39.39,0,0,0-.78,0v4.81a.39.39,0,0,0,.39.39H7.66a.38.38,0,0,0,0,.55.36.36,0,0,0,.27.12.39.39,0,0,0,.28-.12l.67-.67A.39.39,0,0,0,8.88,16.88Z"/><path class="cls-1-or" d="M9.8,8.87,9,3.14H7V2A2,2,0,0,0,2.93,2v1.1H.85L0,8.86a1.53,1.53,0,0,0,.36,1.25,1.56,1.56,0,0,0,1.19.55H8.25a1.6,1.6,0,0,0,1.19-.54A1.58,1.58,0,0,0,9.8,8.87ZM4,2A1,1,0,0,1,6,2v1.1H4ZM8.64,9.43a.5.5,0,0,1-.39.18H1.57a.5.5,0,0,1-.39-.18A.51.51,0,0,1,1.05,9l.71-4.82H2.93v1H4v-1H6v1H7v-1H8.09L8.77,9A.5.5,0,0,1,8.64,9.43Z"/><path class="cls-1-or" d="M19.8,16.87,19,11.14H17V10a2,2,0,0,0-4.09,0v1.1H10.85L10,16.86a1.53,1.53,0,0,0,.36,1.25,1.56,1.56,0,0,0,1.19.55h6.68a1.6,1.6,0,0,0,1.19-.54A1.58,1.58,0,0,0,19.8,16.87ZM14,10a1,1,0,0,1,2,0v1.1H14Zm4.66,7.39a.5.5,0,0,1-.39.18H11.57a.5.5,0,0,1-.39-.18.51.51,0,0,1-.13-.42l.71-4.82h1.17v1.05H14V12.19h2v1.05h1V12.19h1.07L18.77,17A.5.5,0,0,1,18.64,17.43Z"/></g></g></svg>