<svg xmlns="http://www.w3.org/2000/svg" width="23" height="23" viewBox="0 0 23 23"><g transform="translate(-954.248 -643.987)"><path class="a" d="M977.221,663.914l-1.388-9.82h-3.392v-1.886a3.5,3.5,0,1,0-7.008,0v1.886h-3.567l-1.435,9.807a2.695,2.695,0,0,0,2.667,3.086h11.454a2.7,2.7,0,0,0,2.669-3.073Zm-9.991-11.706a1.707,1.707,0,1,1,3.414,0v1.886H967.23Zm8,12.673a.887.887,0,0,1-.678.309H963.1a.9.9,0,0,1-.889-1.029l1.21-8.27h2.014v1.8h1.8v-1.8h3.414v1.8h1.8v-1.8h1.831l1.17,8.275A.885.885,0,0,1,975.23,664.881ZM960.222,652.3v-1.8H958.29l-2.238,13.675a.9.9,0,0,0,.891,1.014H958.7a4.5,4.5,0,0,0,.808,1.8h-2.561a2.7,2.7,0,0,1-2.673-3.041l2.441-15.242h3.511v-1.213a3.5,3.5,0,0,1,6.994-.3,5.308,5.308,0,0,0-1.783,1.04v-.743a1.707,1.707,0,1,0-3.414,0V648.7h2.944a5.3,5.3,0,0,0-1.045,1.8h-1.9v1.8Z"/></g>
</svg> 