<svg xmlns="http://www.w3.org/2000/svg" viewBox="0 0 19.31 15.6">
<g id="Layer_2" data-name="Layer 2"><g id="Layer_1-2" data-name="Layer 1"><path class="cls-10" d="M2.61,13.48a.67.67,0,0,1-.28-.06.73.73,0,0,1-.46-.68v-2.5H1.35A1.36,1.36,0,0,1,0,8.88V1.35A1.36,1.36,0,0,1,1.35,0H13.9a1.36,1.36,0,0,1,1.36,1.35V4.24a.74.74,0,0,1-1.48,0V1.48H1.48V8.75H2.61a.75.75,0,0,1,.74.68V11l2-2a.68.68,0,0,1,.47-.21h.86a.75.75,0,0,1,0,1.49h-.5l-3,3A.73.73,0,0,1,2.61,13.48Z"/><path class="cls-10" d="M17.21,15.6a.73.73,0,0,1-.52-.22l-2.14-2.14H9.17a1.35,1.35,0,0,1-1.35-1.35V6.75A1.35,1.35,0,0,1,9.17,5.4H18a1.36,1.36,0,0,1,1.35,1.35v5.14A1.36,1.36,0,0,1,18,13.24h0v1.62a.73.73,0,0,1-.45.68A.75.75,0,0,1,17.21,15.6Zm-2.36-3.84a.78.78,0,0,1,.49.18l1.13,1.13v-.63a.75.75,0,0,1,.74-.68h.62V6.88H9.3v4.88Z"/><circle class="cls-10" cx="13.56" cy="9.32" r="0.74"/><path class="cls-10" d="M3.61,4.4a.74.74,0,0,1,0-1.48h8a.74.74,0,1,1,0,1.48Z"/><path class="cls-10" d="M3.61,7.32a.74.74,0,1,1,0-1.48H6.66a.74.74,0,0,1,0,1.48Z"/><circle class="cls-10" cx="11.51" cy="9.32" r="0.74"/><circle class="cls-10" cx="15.61" cy="9.32" r="0.74"/></g></g></svg>