<svg xmlns="http://www.w3.org/2000/svg" width="25.936" height="24" viewBox="0 0 25.936 24">
    <defs>
        <style>
            .order-count{fill:#42aeaf}
        </style>
    </defs>
    <g id="Order-count" transform="translate(-475.032 -246.5)">
        <g id="Group_524" data-name="Group 524">
            <g id="Group_523" data-name="Group 523">
                <path id="Path_355" d="M485.907 265.938a2.281 2.281 0 1 0 2.281 2.281 2.283 2.283 0 0 0-2.281-2.281zm0 3.288a1.008 1.008 0 1 1 1.008-1.007 1.008 1.008 0 0 1-1.008 1.007z" class="order-count" data-name="Path 355"/>
            </g>
        </g>
        <g id="Group_526" data-name="Group 526">
            <g id="Group_525" data-name="Group 525">
                <path id="Path_356" d="M493.908 265.938a2.281 2.281 0 1 0 2.281 2.281 2.283 2.283 0 0 0-2.281-2.281zm0 3.288a1.008 1.008 0 1 1 1.008-1.007 1.008 1.008 0 0 1-1.008 1.007z" class="order-count" data-name="Path 356"/>
            </g>
        </g>
        <g id="Group_528" data-name="Group 528">
            <g id="Group_527" data-name="Group 527">
                <path id="Path_357" d="M494.47 253.928h-9.126a.637.637 0 0 0 0 1.274h9.126a.637.637 0 0 0 0-1.274z" class="order-count" data-name="Path 357"/>
            </g>
        </g>
        <g id="Group_530" data-name="Group 530">
            <g id="Group_529" data-name="Group 529">
                <path id="Path_358" d="M493.973 257.235h-8.132a.637.637 0 0 0 0 1.274h8.132a.637.637 0 0 0 0-1.274z" class="order-count" data-name="Path 358"/>
            </g>
        </g>
        <g id="Group_532" data-name="Group 532">
            <g id="Group_531" data-name="Group 531">
                <path id="Path_359" d="M500.682 251.091a1.27 1.27 0 0 0-.988-.469h-19.836l-.4-1.945a1.278 1.278 0 0 0-.741-.911l-2.8-1.213a.637.637 0 0 0-.507 1.168l2.795 1.213 3.082 14.958a1.278 1.278 0 0 0 1.247 1.016H497.8a.637.637 0 0 0 0-1.274h-15.261l-.375-1.819h15.749a1.278 1.278 0 0 0 1.248-1.017l1.781-8.645a1.271 1.271 0 0 0-.26-1.062zm-2.769 9.451H481.9l-1.781-8.646h19.573z" class="order-count" data-name="Path 359"/>
            </g>
        </g>
    </g>
</svg>
