<svg xmlns="http://www.w3.org/2000/svg" width="16.79" height="20.828" viewBox="0 0 16.79 20.828">
  <defs>
  </defs>
  <g id="Group_2590" data-name="Group 2590" transform="translate(-956.71 -403.172)">
    <g id="Group_2589" data-name="Group 2589">
      <g id="Group_2588" data-name="Group 2588">
        <circle id="Ellipse_288" data-name="Ellipse 288" class="cls-1-ot" cx="1.321" cy="1.321" r="1.321" transform="translate(956.71 403.832)"/>
        <path id="Path_1823" data-name="Path 1823" class="cls-1-ot" d="M958.031,412.265a1.321,1.321,0,1,0,1.321,1.321A1.322,1.322,0,0,0,958.031,412.265Z"/>
        <circle id="Ellipse_289" data-name="Ellipse 289" class="cls-1-ot" cx="1.321" cy="1.321" r="1.321" transform="translate(956.71 420.698)"/>
        <path id="Path_1824" data-name="Path 1824" class="cls-1-ot" d="M970.96,403.172h-7.874v4.572h7.874v-4.572Zm-6.6,1.27h2.921a.381.381,0,1,1,0,.762h-2.921a.381.381,0,1,1,0-.762Zm5.461,2.286h-5.461a.381.381,0,1,1,0-.762h5.461a.381.381,0,0,1,0,.762Z"/>
        <path id="Path_1825" data-name="Path 1825" class="cls-1-ot" d="M963.086,411.3v4.572H973.5V411.3Zm1.27,1.27h2.921a.381.381,0,1,1,0,.762h-2.921a.381.381,0,1,1,0-.762Zm5.461,2.286h-5.461a.381.381,0,1,1,0-.762h5.461a.381.381,0,0,1,0,.762Z"/>
        <path id="Path_1826" data-name="Path 1826" class="cls-1-ot" d="M963.086,424h7.874v-4.572h-7.874Zm1.27-3.3h2.921a.381.381,0,1,1,0,.762h-2.921a.381.381,0,1,1,0-.762Zm0,1.524h5.461a.381.381,0,0,1,0,.762h-5.461a.381.381,0,1,1,0-.762Z"/>
        <path id="Path_1827" data-name="Path 1827" class="cls-1-ot" d="M957.752,411.808h.508V406.83l-.508.025Z"/>
        <rect id="Rectangle_782" data-name="Rectangle 782" class="cls-1-ot" width="0.508" height="5.08" transform="translate(957.752 415.364)"/>
      </g>
    </g>
  </g>
</svg>
