<svg xmlns="http://www.w3.org/2000/svg" width="22.278" height="23" viewBox="0 0 22.278 23">
  <defs>
  </defs>
  <g id="Group_2568" data-name="Group 2568" transform="translate(-953.966 -332.8)">
    <g id="Group_2567" data-name="Group 2567">
      <path id="Path_1769" data-name="Path 1769" class="cls-1-ol" d="M975.655,332.8h-21.1a.589.589,0,0,0,0,1.178h1.271V355.2a.589.589,0,0,0,.309.52.579.579,0,0,0,.6-.03l2.557-1.7,2.566,1.707a.584.584,0,0,0,.653,0l2.557-1.7,2.566,1.708a.584.584,0,0,0,.653,0l2.556-1.7,2.567,1.708a.594.594,0,0,0,.324.1.634.634,0,0,0,.279-.068.593.593,0,0,0,.31-.521l-.01-21.218h1.339a.591.591,0,0,0,.589-.589A.6.6,0,0,0,975.655,332.8Zm-2.5,21.3-1.978-1.315a.586.586,0,0,0-.652,0l-2.557,1.708-2.567-1.708a.586.586,0,0,0-.652,0l-2.557,1.7-2.566-1.7a.588.588,0,0,0-.653,0L957,354.093v-20.12h16.145Z"/>
      <path id="Path_1770" data-name="Path 1770" class="cls-1-ol" d="M959.712,342.2h6.168a.589.589,0,1,0,0-1.177h-6.168a.589.589,0,1,0,0,1.177Z"/>
      <path id="Path_1771" data-name="Path 1771" class="cls-1-ol" d="M959.712,344.249h4.623a.589.589,0,0,0,0-1.178h-4.623a.589.589,0,0,0,0,1.178Z"/>
      <path id="Path_1772" data-name="Path 1772" class="cls-1-ol" d="M968.962,342.2H970.5a.589.589,0,1,0,0-1.177h-1.541a.589.589,0,1,0,0,1.177Z"/>
      <path id="Path_1773" data-name="Path 1773" class="cls-1-ol" d="M968.962,344.249H970.5a.589.589,0,0,0,0-1.178h-1.541a.589.589,0,0,0,0,1.178Z"/>
      <path id="Path_1774" data-name="Path 1774" class="cls-1-ol" d="M959.712,337.477h6.168a.589.589,0,0,0,0-1.178h-6.168a.589.589,0,0,0,0,1.178Z"/>
      <path id="Path_1775" data-name="Path 1775" class="cls-1-ol" d="M959.712,339.518h4.623a.589.589,0,0,0,0-1.178h-4.623a.589.589,0,0,0,0,1.178Z"/>
      <path id="Path_1776" data-name="Path 1776" class="cls-1-ol" d="M968.962,337.477H970.5a.589.589,0,0,0,0-1.178h-1.541a.589.589,0,0,0,0,1.178Z"/>
      <path id="Path_1777" data-name="Path 1777" class="cls-1-ol" d="M968.962,339.518H970.5a.589.589,0,0,0,0-1.178h-1.541a.589.589,0,0,0,0,1.178Z"/>
      <path id="Path_1778" data-name="Path 1778" class="cls-1-ol" d="M959.712,346.987h6.168a.589.589,0,0,0,0-1.178h-6.168a.589.589,0,0,0,0,1.178Z"/>
      <path id="Path_1779" data-name="Path 1779" class="cls-1-ol" d="M959.712,349.028h4.623a.589.589,0,0,0,0-1.177h-4.623a.589.589,0,1,0,0,1.177Z"/>
      <path id="Path_1780" data-name="Path 1780" class="cls-1-ol" d="M968.962,346.987H970.5a.589.589,0,0,0,0-1.178h-1.541a.589.589,0,0,0,0,1.178Z"/>
      <path id="Path_1781" data-name="Path 1781" class="cls-1-ol" d="M968.962,349.028H970.5a.589.589,0,1,0,0-1.177h-1.541a.589.589,0,1,0,0,1.177Z"/>
    </g>
  </g>
</svg>
