<svg id="Layer_1" data-name="Layer 1" xmlns="http://www.w3.org/2000/svg" viewBox="0 0 20 20"><title>Timeline-icon</title><path class="cls-1-olk" d="M18.45,9.06l-3.76,3.75a5.3,5.3,0,0,1-7.51,0,5.15,5.15,0,0,1-.8-1.07L8.12,10a1.81,1.81,0,0,1,.29-.19,2.7,2.7,0,0,0,.65,1.13,2.66,2.66,0,0,0,3.75,0l3.76-3.75a2.66,2.66,0,0,0-3.76-3.76L11.48,4.77A6.65,6.65,0,0,0,8.09,4.4l2.85-2.85a5.31,5.31,0,0,1,7.51,7.51ZM8.52,15.23,7.18,16.57a2.66,2.66,0,0,1-3.75-3.76L7.18,9.06a2.63,2.63,0,0,1,4.41,1.13,1.81,1.81,0,0,0,.29-.19l1.74-1.74a4.87,4.87,0,0,0-.81-1.07,5.29,5.29,0,0,0-7.5,0L1.55,10.94a5.31,5.31,0,0,0,7.51,7.51l2.85-2.85A6.65,6.65,0,0,1,8.52,15.23Z"/></svg>