<svg xmlns="http://www.w3.org/2000/svg" width="25.802" height="23" viewBox="0 0 25.802 23"><g transform="translate(-952.204 -470.498)"><path class="a" d="M977.021,473.869l-15.8-3.344a1.245,1.245,0,0,0-1.472.958l-.3,1.93,18.234,3.858.3-1.929A1.246,1.246,0,0,0,977.021,473.869Z"/><path class="a" d="M970.376,477.68a1.259,1.259,0,0,0-1.544-.873l-3,.833-7.072-1.5-.778,3.675-4.86,1.349a1.258,1.258,0,0,0-.873,1.543l2.739,9.869a1.257,1.257,0,0,0,1.544.873l15.709-4.359a1.257,1.257,0,0,0,.873-1.544l-.47-1.694,1.762.373a1.247,1.247,0,0,0,1.473-.959L976.993,480l-6.346-1.343Zm1.814,5.016.388-1.836a.513.513,0,0,1,.606-.394l1.836.389a.511.511,0,0,1,.395.6l-.389,1.837a.513.513,0,0,1-.606.394l-1.836-.389A.512.512,0,0,1,972.19,482.7Zm-18.794-.544,4.347-1.206L968,478.1l1.1-.306a.206.206,0,0,1,.06-.008.237.237,0,0,1,.225.169l.13.467.406,1.463-16.156,4.483-.536-1.93A.235.235,0,0,1,953.4,482.152Zm18.733,5.67a.228.228,0,0,1-.023.176.223.223,0,0,1-.138.11l-15.709,4.359a.213.213,0,0,1-.06.009.238.238,0,0,1-.226-.17l-1.6-5.756,16.156-4.484.985,3.55Z"/><path class="a" d="M958.8,488.216a.512.512,0,0,0-.629-.356l-1.835.51a.512.512,0,0,0-.356.629l.509,1.834a.514.514,0,0,0,.63.356l1.834-.509a.512.512,0,0,0,.356-.629Z"/></g></svg>