<svg xmlns="http://www.w3.org/2000/svg" width="12.523" height="14" viewBox="0 0 12.523 14">

  <g transform="translate(-875.239 -496.951)">
    <path class="a1" d="M887.488,503.678h-2.024v-6.453a.273.273,0,0,0-.466-.194l-.775.775-.775-.775a.274.274,0,0,0-.386,0l-.775.775-.774-.775a.275.275,0,0,0-.387,0l-.775.775-.774-.775a.275.275,0,0,0-.387,0l-.775.775-.774-.775a.275.275,0,0,0-.387,0l-.775.775-.774-.775a.273.273,0,0,0-.466.2v12.3a1.423,1.423,0,0,0,1.421,1.422h9.68a1.424,1.424,0,0,0,1.422-1.422v-5.578A.274.274,0,0,0,887.488,503.678ZM876.66,510.4a.876.876,0,0,1-.875-.875V497.885l.5.5a.273.273,0,0,0,.387,0l.774-.775.775.775a.273.273,0,0,0,.387,0l.774-.775.775.775a.273.273,0,0,0,.387,0l.774-.775.775.775a.273.273,0,0,0,.387,0l.774-.775.775.775a.272.272,0,0,0,.386,0l.5-.5v11.644a1.414,1.414,0,0,0,.3.875Zm10.555-.875a.875.875,0,0,1-1.75,0v-5.3h1.75v5.3Z"/>
    <path class="a1" d="M880.5,501.3a.427.427,0,1,1,.492-.422.273.273,0,1,0,.547,0,.985.985,0,0,0-.766-.934v-.185a.273.273,0,0,0-.546,0v.185a.985.985,0,0,0-.766.934,1.007,1.007,0,0,0,1.039.969.427.427,0,1,1-.492.421.273.273,0,0,0-.547,0,.983.983,0,0,0,.766.934v.223a.273.273,0,1,0,.546,0V503.2a.983.983,0,0,0,.766-.934A1.006,1.006,0,0,0,880.5,501.3Z"/>
    <path class="a1" d="M880.766,501.3h-.532a.273.273,0,1,0,0,.547h.532a.273.273,0,1,0,0-.547Z"/>
    <path class="a1" d="M880.766,501.3h-.532a.273.273,0,1,0,0,.547h.532a.273.273,0,1,0,0-.547Z"/>
    <path class="a1" d="M882.666,504.334h-4.332a.273.273,0,0,0,0,.547h4.332a.273.273,0,0,0,0-.547Z"/>
    <path class="a1" d="M880.693,504.414a.274.274,0,1,0,.08.194A.274.274,0,0,0,880.693,504.414Z"/>
    <path class="a1" d="M882.666,506.139h-4.332a.273.273,0,0,0,0,.547h4.332a.273.273,0,0,0,0-.547Z"/>
    <path class="a1" d="M880.693,506.219a.273.273,0,0,0-.386.387.273.273,0,0,0,.466-.194A.274.274,0,0,0,880.693,506.219Z"/>
    <path class="a1" d="M882.666,507.943h-4.332a.273.273,0,0,0,0,.547h4.332a.273.273,0,0,0,0-.547Z"/>
    <path class="a1" d="M880.693,508.024a.273.273,0,1,0,.08.193A.275.275,0,0,0,880.693,508.024Z"/>
  </g>
</svg>
