<svg xmlns="http://www.w3.org/2000/svg" width="9.371" height="11.25" viewBox="0 0 9.371 11.25"><defs><style>.a1{fill:#d69512;}</style></defs><g transform="translate(-2713.809 -3893.884)"><path class="a1" d="M2721.9,3897.231l.673-.673-.662-.663-.721.721a4.642,4.642,0,0,0-2.228-.834v-.961h.937v-.937h-2.811v.937h.937v.961a4.646,4.646,0,0,0-2.228.834l-.721-.721-.662.663.673.673a4.686,4.686,0,1,0,6.813,0Zm-3.406,6.961a3.748,3.748,0,1,1,3.748-3.748A3.748,3.748,0,0,1,2718.5,3904.192Z"/><path class="a1" d="M2718.5,3897.632v2.812h-2.812a2.811,2.811,0,1,0,2.812-2.812Z"/></g></svg>