<svg xmlns="http://www.w3.org/2000/svg" width="18.644" height="24.6" viewBox="0 0 18.644 24.6">
    <defs>
        <style>
            .po-count{fill:#ee6411}
        </style>
    </defs>
    <g id="PO-count" transform="translate(-1024.678 -246.2)">
        <path id="Path_353" d="M1024.678 270.8v-24.6h13.788a.322.322 0 0 1 .261.111q2.238 2.25 4.486 4.488a.293.293 0 0 1 .109.237V270.8zm1.082-1.076h16.479v-18.07h-4.385v-4.374h-12.094zm13.183-19.14h2.419l-2.419-2.462z" class="po-count" data-name="Path 353"/>
        <path id="Path_354" d="M1031.8 266.355a1.259 1.259 0 0 1-1.233-1.013c-.139-.662.2-1.163 1.034-1.531l-.081-.384h-.9l-1.465-8.78h-1.528v-1.058h2.433l.245 1.446h10.184l-.91 5.46h-8.364l.311 1.873h7.39v1.047H1038l-.082.382a1.584 1.584 0 0 1 .834.678 1.228 1.228 0 0 1 .095 1.019 1.265 1.265 0 0 1-1.178.861h-.1a1.268 1.268 0 0 1-1.163-1.1c-.088-.619.277-1.124 1.024-1.42l-.074-.387h-5.243l-.079.384c.794.34 1.132.843 1 1.495a1.27 1.27 0 0 1-1.236 1.033zm-1.253-9.82l.119.7c.1.591.2 1.182.292 1.774a.439.439 0 0 0 .493.436q2.152-.009 4.3-.006h2.531c.053 0 .32-.022.32-.022l.1-.16.524-3.134h-8.719s.033.369.04.412z" class="po-count" data-name="Path 354"/>
    </g>
</svg>
