<svg xmlns="http://www.w3.org/2000/svg" width="16" height="16" viewBox="0 0 16 16">
    <defs>
        <style>
            .cls-1{fill:#fff}
        </style>
    </defs>
    <g id="print" transform="translate(-1180.914 -141.685)">
        <g id="Group_250" data-name="Group 250">
            <path id="Path_145" d="M1194.914 147.685a1.974 1.974 0 0 1 2 2v3.5a.481.481 0 0 1-.5.5h-1.5v3a1.012 1.012 0 0 1-1 1h-10a1.015 1.015 0 0 1-1-1v-3h-1.5a.483.483 0 0 1-.5-.5v-3.5a1.976 1.976 0 0 1 2-2v-5a1.015 1.015 0 0 1 1-1h8.594a.939.939 0 0 1 .688.281l1.437 1.438a.931.931 0 0 1 .281.687zm-2 1v-3h-1.5a.483.483 0 0 1-.5-.5v-1.5h-6v5zm0 7v-3h-8v3zm1.5-4.75a.748.748 0 1 0-.531-.219.726.726 0 0 0 .531.219z" class="cls-1" data-name="Path 145"/>
        </g>
    </g>
</svg>
