<svg xmlns="http://www.w3.org/2000/svg" viewBox="0 0 36.79 30.58"><g id="Layer_2" data-name="Layer 2"><g id="Layer_1-2" data-name="Layer 1"><path class="rdd31" d="M26.72,27H16.89a3.51,3.51,0,0,1-1.35,2.84,3.36,3.36,0,0,1-2.3.75c-1.84-.05-3-1.29-3.4-3.59H8.91a3.51,3.51,0,0,1-1.43,2.91,3.43,3.43,0,0,1-2.36.68A3.55,3.55,0,0,1,1.88,27H.75C.1,27,0,26.86,0,26.21V4.62C0,4.18.16,4,.47,4s.46.23.46.67V21.88h23V4.69c0-.57.12-.78.44-.79s.47.2.47.8v3l.4,0c1.92,0,3.83,0,5.74,0a2,2,0,0,1,2,1.18c1.25,2.46,2.52,4.9,3.78,7.36.08.16.23.31,0,.52s0,.26,0,.4v9.09c0,.55-.09.66-.63.68s-1.16,0-1.74,0c-.17,0-.34,0-.55,0a3.56,3.56,0,0,1-1.47,2.94A3.45,3.45,0,0,1,30,30.5C28.21,30.39,27,29.11,26.72,27Zm-1.9-9.8V26H27a3.35,3.35,0,0,1,3.09-2.54A3.52,3.52,0,0,1,33.83,26H36V17.18Zm0-1H35.67l-.2-.43c-1.12-2.16-2.25-4.32-3.35-6.49A1.17,1.17,0,0,0,31,8.59c-1.93,0-3.87,0-5.8,0l-.36,0ZM2.11,26a3.45,3.45,0,0,1,3.32-2.55A3.44,3.44,0,0,1,8.92,26c.62.07,1.11.08,1.51-.61a3.47,3.47,0,0,1,5.95-.4,8.86,8.86,0,0,1,.54,1h7V22.8H1V26Zm14,1a2.63,2.63,0,1,0-2.64,2.63A2.6,2.6,0,0,0,16.12,27Zm-8,0A2.64,2.64,0,1,0,5.53,29.6,2.61,2.61,0,0,0,8.15,27Zm19.64,0a2.61,2.61,0,0,0,2.64,2.65A2.65,2.65,0,0,0,33.06,27a2.64,2.64,0,0,0-5.27,0Z"/><path class="rdd31" d="M2.42,10.36V.7c0-.61.09-.7.71-.7H21.81c.51,0,.63.12.63.63V20.12c0,.53-.12.64-.67.64H3.14c-.59,0-.72-.13-.72-.72Zm19.14,9.53v-14H3.35v14ZM17.33.93H13c.13.38-.22.81.29,1.1a1.43,1.43,0,0,1-.79,2.66,1.39,1.39,0,0,1-1.32-1.05A1.47,1.47,0,0,1,11.9,2c.08-.05.2-.14.21-.22,0-.27,0-.55,0-.82H7.65c0,.48-.14.92.42,1.25a1.3,1.3,0,0,1,.46,1.58,1.44,1.44,0,0,1-2.75-.15A1.5,1.5,0,0,1,6.44,2c.1-.06.25-.16.27-.25a7.51,7.51,0,0,0,0-.82H3.35V5H21.62V.93H18.26c0,.14,0,.26,0,.38a.71.71,0,0,0,.38.82,1.17,1.17,0,0,1,.58,1,1.43,1.43,0,0,1-2.75.68A1.49,1.49,0,0,1,17.05,2a.55.55,0,0,0,.27-.3A5,5,0,0,0,17.33.93Zm1,2.27a.57.57,0,0,0-.59-.57.56.56,0,0,0-.55.6.55.55,0,0,0,.57.55A.54.54,0,0,0,18.36,3.2ZM13,3.2a.54.54,0,0,0-.55-.57.58.58,0,1,0,0,1.15A.53.53,0,0,0,13,3.2Zm-5.33,0a.58.58,0,0,0-.6-.57.56.56,0,0,0-.53.59.57.57,0,1,0,1.13,0Z"/><path class="rdd31" d="M14.24,27a.79.79,0,0,0-.78-.74.77.77,0,0,0-.71.76.75.75,0,0,0,.77.73A.76.76,0,0,0,14.24,27Z"/><path class="rdd31" d="M5.53,27.69a.73.73,0,1,0,0-1.46.73.73,0,1,0,0,1.46Z"/><path class="rdd31" d="M30.39,27.7a.74.74,0,0,0,.76-.74.75.75,0,0,0-.71-.75.72.72,0,0,0-.75.75A.69.69,0,0,0,30.39,27.7Z"/><path class="rdd31" d="M6.67,7.87c.54,0,1.09,0,1.63,0,.36,0,.55.15.55.5v3.39a.48.48,0,0,1-.54.53H5a.48.48,0,0,1-.52-.55c0-1.1,0-2.21,0-3.31,0-.4.16-.55.58-.55Zm1.25,3.42V8.81H5.43v2.48Z"/><path class="rdd31" d="M20.76,10v1.64c0,.4-.17.57-.57.57H16.92c-.41,0-.56-.15-.56-.57q0-1.63,0-3.27c0-.42.17-.58.6-.58h3.23c.4,0,.56.17.57.58S20.76,9.47,20.76,10Zm-1-1.2h-2.5v2.47h2.5Z"/><path class="rdd31" d="M12.64,7.87h1.6c.41,0,.59.17.59.59,0,1.09,0,2.19,0,3.28a.48.48,0,0,1-.53.54H11a.48.48,0,0,1-.53-.53c0-1.12,0-2.24,0-3.35,0-.38.17-.53.56-.53Zm-1.29.93v2.48h2.51V8.8Z"/><path class="rdd31" d="M6.67,14.25h1.6c.45,0,.57.11.58.54,0,1.1,0,2.21,0,3.31,0,.39-.17.55-.55.55-1.1,0-2.21,0-3.31,0-.38,0-.54-.16-.54-.55,0-1.1,0-2.2,0-3.31,0-.37.16-.53.55-.54ZM5.42,17.67h2.5v-2.5H5.42Z"/><path class="rdd31" d="M14.83,16.5c0,.52,0,1,0,1.55s-.14.6-.57.6c-1.08,0-2.16,0-3.23,0-.44,0-.6-.15-.6-.58V14.84c0-.45.15-.59.59-.59h3.23c.4,0,.57.18.58.57C14.84,15.38,14.83,15.94,14.83,16.5Zm-1,1.17V15.18H11.35v2.49Z"/></g></g></svg>