<svg xmlns="http://www.w3.org/2000/svg" viewBox="0 0 36.79 30.58"><defs><style>.rdd1{fill:#c1d82f;}</style></defs><title>RDD-Count =1</title><g id="Layer_2" data-name="Layer 2"><g id="Layer_1-2" data-name="Layer 1"><path class="rdd1" d="M26.72,27H16.89a3.51,3.51,0,0,1-1.35,2.84,3.36,3.36,0,0,1-2.3.75c-1.84-.05-3-1.29-3.4-3.59H8.91a3.51,3.51,0,0,1-1.43,2.91,3.43,3.43,0,0,1-2.36.68A3.55,3.55,0,0,1,1.88,27H.75C.1,27,0,26.86,0,26.21V4.62C0,4.18.16,4,.47,4s.46.23.46.67V21.88h23V4.69c0-.57.12-.78.44-.79s.47.2.47.8v3l.4,0c1.92,0,3.83,0,5.74,0a2,2,0,0,1,2,1.18c1.25,2.46,2.52,4.9,3.78,7.36.08.16.23.31,0,.52s0,.26,0,.4v9.09c0,.55-.09.66-.63.68s-1.16,0-1.74,0c-.17,0-.34,0-.55,0a3.56,3.56,0,0,1-1.47,2.94A3.45,3.45,0,0,1,30,30.5C28.21,30.39,27,29.11,26.72,27Zm-1.9-9.8V26H27a3.35,3.35,0,0,1,3.09-2.54A3.52,3.52,0,0,1,33.83,26H36V17.18Zm0-1H35.67l-.2-.43c-1.12-2.16-2.25-4.32-3.35-6.49A1.17,1.17,0,0,0,31,8.59c-1.93,0-3.87,0-5.8,0l-.36,0ZM2.11,26a3.45,3.45,0,0,1,3.32-2.55A3.44,3.44,0,0,1,8.92,26c.62.07,1.11.08,1.51-.61a3.47,3.47,0,0,1,5.95-.4,8.86,8.86,0,0,1,.54,1h7V22.8H1V26Zm14,1a2.63,2.63,0,1,0-2.64,2.63A2.6,2.6,0,0,0,16.12,27Zm-8,0A2.64,2.64,0,1,0,5.53,29.6,2.61,2.61,0,0,0,8.15,27Zm19.64,0a2.61,2.61,0,0,0,2.64,2.65A2.65,2.65,0,0,0,33.06,27a2.64,2.64,0,0,0-5.27,0Z"/><path class="rdd1" d="M2.42,10.36V.7c0-.61.09-.7.71-.7H21.81c.51,0,.63.12.63.63V20.12c0,.53-.12.64-.67.64H3.14c-.59,0-.72-.13-.72-.72Zm19.14,9.53v-14H3.35v14ZM17.33.93H13c.13.38-.22.81.29,1.1a1.43,1.43,0,0,1-.79,2.66,1.39,1.39,0,0,1-1.32-1.05A1.47,1.47,0,0,1,11.9,2c.08-.05.2-.14.21-.22,0-.27,0-.55,0-.82H7.65c0,.48-.14.92.42,1.25a1.3,1.3,0,0,1,.46,1.58,1.44,1.44,0,0,1-2.75-.15A1.5,1.5,0,0,1,6.44,2c.1-.06.25-.16.27-.25a7.51,7.51,0,0,0,0-.82H3.35V5H21.62V.93H18.26c0,.14,0,.26,0,.38a.71.71,0,0,0,.38.82,1.17,1.17,0,0,1,.58,1,1.43,1.43,0,0,1-2.75.68A1.49,1.49,0,0,1,17.05,2a.55.55,0,0,0,.27-.3A5,5,0,0,0,17.33.93Zm1,2.27a.57.57,0,0,0-.59-.57.56.56,0,0,0-.55.6.55.55,0,0,0,.57.55A.54.54,0,0,0,18.36,3.2ZM13,3.2a.54.54,0,0,0-.55-.57.58.58,0,1,0,0,1.15A.53.53,0,0,0,13,3.2Zm-5.33,0a.58.58,0,0,0-.6-.57.56.56,0,0,0-.53.59.57.57,0,1,0,1.13,0Z"/><path class="rdd1" d="M14.24,27a.79.79,0,0,0-.78-.74.77.77,0,0,0-.71.76.75.75,0,0,0,.77.73A.76.76,0,0,0,14.24,27Z"/><path class="rdd1" d="M5.53,27.69a.73.73,0,1,0,0-1.46.73.73,0,1,0,0,1.46Z"/><path class="rdd1" d="M30.39,27.7a.74.74,0,0,0,.76-.74.75.75,0,0,0-.71-.75.72.72,0,0,0-.75.75A.69.69,0,0,0,30.39,27.7Z"/><path class="rdd1" d="M12.4,8.35c1.15,0,2.3,0,3.45,0,.75,0,1.14.3,1.15,1.05,0,2.38,0,4.76,0,7.14a1,1,0,0,1-1.13,1.12c-2.36,0-4.71,0-7.07,0-.72,0-1.08-.42-1.08-1.15,0-2.33,0-4.65,0-7,0-.84.35-1.15,1.23-1.16ZM15,15.56V10.34H9.79v5.22Z"/></g></g></svg>