<svg xmlns="http://www.w3.org/2000/svg" width="21.162" height="30" viewBox="0 0 21.162 30"><defs><style>.arrct{fill:#ffffff;}</style></defs><g transform="translate(-388.419 -1065.274)"><path class="arrct" d="M405.174,1075.585H392.826a.62.62,0,1,0,0,1.24H405.2a.618.618,0,0,0,.62-.62A.64.64,0,0,0,405.174,1075.585Z"/><path class="arrct" d="M405.174,1079.089H392.826a.62.62,0,1,0,0,1.24H405.2a.619.619,0,0,0,.62-.62A.64.64,0,0,0,405.174,1079.089Z"/><path class="arrct" d="M405.174,1082.594H392.826a.62.62,0,1,0,0,1.24H405.2a.619.619,0,0,0,.62-.62A.657.657,0,0,0,405.174,1082.594Z"/><path class="arrct" d="M405.794,1086.718a.618.618,0,0,0-.62-.62H392.826a.62.62,0,1,0,0,1.24H405.2A.613.613,0,0,0,405.794,1086.718Z"/><path class="arrct" d="M396.14,1089.272a.62.62,0,1,0,0,1.239h5.72a.62.62,0,1,0,0-1.239Z"/><path class="arrct" d="M403.026,1070.344l1.86,1.86h2.265v20.739h-16.3V1072.2h2.265l1.86-1.86h-6.555v24.93h21.162v-24.93Z"/><path class="arrct" d="M396.355,1070.675l-2.314,2.314h9.894l-2.29-2.29a1.161,1.161,0,0,1-.215-1.356,2.723,2.723,0,0,0,.307-1.761,2.772,2.772,0,0,0-5.505.454,2.856,2.856,0,0,0,.307,1.289A1.1,1.1,0,0,1,396.355,1070.675Z"/></g></svg>