<svg xmlns="http://www.w3.org/2000/svg" width="14.34" height="14.34" viewBox="0 0 14.34 14.34"><defs><style>.a{fill:#007db8;}</style></defs><g transform="translate(-1433.66 -401.709)"><path class="a" d="M1447.59,403.669a.541.541,0,0,0-.764,0l-6.484,6.467L1438,407.594a.541.541,0,0,0-.8.733l2.721,2.954a.539.539,0,0,0,.386.174h.011a.541.541,0,0,0,.382-.157l6.882-6.864A.541.541,0,0,0,1447.59,403.669Z"/><path class="a" d="M1447.46,408.339a.541.541,0,0,0-.541.54,6.089,6.089,0,1,1-6.089-6.089.54.54,0,0,0,0-1.081,7.17,7.17,0,1,0,7.17,7.17A.54.54,0,0,0,1447.46,408.339Z"/></g></svg>