<svg xmlns="http://www.w3.org/2000/svg" width="25.14" height="19.751" viewBox="0 0 25.14 19.751"><defs><style>.a1{fill:#23ada9;}</style></defs><g transform="translate(-3086.024 -1154.249)"><path class="a1" d="M3111.154,1169.332v-4.22a4.074,4.074,0,0,0-.449-1.8l-2.686-4.579a1.739,1.739,0,0,0-1.526-.9h-4.04a1.189,1.189,0,0,0-1.167,1.168v9.6h-.9v-12.568a1.8,1.8,0,0,0-1.795-1.8h-12.569v16.16h2.693a3.662,3.662,0,0,1,3.5-2.693,3.582,3.582,0,0,1,3.5,2.693h6.554a3.661,3.661,0,0,1,3.5-2.693,3.406,3.406,0,0,1,3.142,1.975,1.389,1.389,0,0,0,1.16.718A1.035,1.035,0,0,0,3111.154,1169.332Zm-8.073-5.207v-4.489h3.591l2.6,4.489Z"/><path class="a1" d="M3105.775,1168.613a2.693,2.693,0,1,0,2.693,2.694A2.647,2.647,0,0,0,3105.775,1168.613Zm0,3.951a1.257,1.257,0,1,1,1.256-1.257A1.227,1.227,0,0,1,3105.775,1172.564Z"/><path class="a1" d="M3092.308,1168.613a2.693,2.693,0,1,0,2.694,2.694A2.646,2.646,0,0,0,3092.308,1168.613Zm0,3.951a1.257,1.257,0,1,1,1.257-1.257A1.227,1.227,0,0,1,3092.308,1172.564Z"/></g></svg>