<svg xmlns="http://www.w3.org/2000/svg" xmlns:xlink="http://www.w3.org/1999/xlink" width="46.225" height="46.222" viewBox="0 0 46.225 46.222"><defs><style>.a{opacity:0.15;}.b{fill:url(#a);}.c{fill:url(#b);}.d{fill:url(#c);}.e{fill:url(#d);}.f{fill:url(#e);}.g{fill:url(#f);}.h{fill:url(#g);}</style><linearGradient id="a" x1="141.217" y1="0.5" x2="142.217" y2="0.5" gradientUnits="objectBoundingBox"><stop offset="0" stop-color="#009db8"/><stop offset="0.806" stop-color="#0083b8"/><stop offset="1" stop-color="#007db8"/></linearGradient><linearGradient id="b" x1="686.09" y1="0.5" x2="687.091" y2="0.5" xlink:href="#a"/><linearGradient id="c" x1="1295.411" y1="0.5" x2="1296.411" y2="0.5" xlink:href="#a"/><linearGradient id="d" x1="2797.548" y1="0.5" x2="2798.548" y2="0.5" xlink:href="#a"/><linearGradient id="e" x1="750.111" y1="0.5" x2="751.111" y2="0.5" xlink:href="#a"/><linearGradient id="f" x1="2801.393" y1="0.5" x2="2802.393" y2="0.5" xlink:href="#a"/><linearGradient id="g" x1="2784.559" y1="0.5" x2="2785.559" y2="0.5" xlink:href="#a"/></defs><g class="a" transform="translate(-3648.682 -1139.278)"><path class="b" d="M3649.909,1161.074l22.5,22.5h-10.243a.963.963,0,1,0,0,1.926h19.259a.963.963,0,0,0,0-1.926h-1.68l12.131-12.13h0l1.8-1.805a4.2,4.2,0,0,0,0-5.934l-23.2-23.2a4.207,4.207,0,0,0-5.935,0l-14.637,14.637A4.2,4.2,0,0,0,3649.909,1161.074Zm1.362-4.572,8.066-8.066,22.281,22.282a.963.963,0,0,0,1.362-1.362l-22.281-22.282,5.209-5.209a2.28,2.28,0,0,1,3.211,0l23.2,23.2a2.279,2.279,0,0,1,0,3.21l-1.125,1.124-22.281-22.281a.963.963,0,1,0-1.362,1.362l22.281,22.281-12.15,12.151a2.256,2.256,0,0,1-1.6.661h-.007a2.256,2.256,0,0,1-1.6-.661l-23.2-23.2A2.272,2.272,0,0,1,3651.271,1156.5Z"/><path class="c" d="M3671.181,1167.089a.962.962,0,0,1,1.361,0l7.578,7.578a.963.963,0,0,1-1.362,1.362l-7.577-7.578A.963.963,0,0,1,3671.181,1167.089Z"/><path class="d" d="M3674.289,1174.283l3.108,3.108a.963.963,0,0,1-1.362,1.362l-3.108-3.108a.963.963,0,0,1,1.362-1.362Z"/><path class="e" d="M3671.429,1171.423l.408.408a.963.963,0,0,1-1.362,1.362l-.408-.408a.963.963,0,0,1,1.362-1.362Z"/><path class="f" d="M3655.432,1156.788a.963.963,0,0,0,0,1.362l4.085,4.085a.963.963,0,0,0,1.362,0l2.724-2.723a.963.963,0,0,0,0-1.362l-4.086-4.086a.963.963,0,0,0-1.362,0Zm2.043.681,1.361-1.362,2.724,2.724-1.362,1.362Z"/><path class="g" d="M3665.986,1146.516a.959.959,0,0,1-.681-.282l-.409-.409a.963.963,0,1,1,1.362-1.361l.409.408a.963.963,0,0,1-.681,1.644Z"/><path class="h" d="M3685.227,1171.6l.409.408a.963.963,0,0,1-1.362,1.362l-.409-.408a.963.963,0,0,1,1.362-1.362Z"/></g></svg>