<svg xmlns="http://www.w3.org/2000/svg" xmlns:xlink="http://www.w3.org/1999/xlink" width="33.555" height="34.708" viewBox="0 0 33.555 34.708"><defs><style>.a{opacity:0.15;}.b{fill:url(#a);}.c{fill:url(#b);}.d{fill:url(#c);}.e{fill:url(#d);}.f{fill:url(#e);}</style><linearGradient id="a" y1="0.5" x2="1" y2="0.5" gradientUnits="objectBoundingBox"><stop offset="0" stop-color="#009db8"/><stop offset="0.806" stop-color="#0083b8"/><stop offset="1" stop-color="#007db8"/></linearGradient><linearGradient id="b" x1="0" y1="0.5" x2="1" y2="0.5" xlink:href="#a"/><linearGradient id="c" x1="0" y1="0.5" x2="1" y2="0.5" xlink:href="#a"/><linearGradient id="d" x1="0" y1="0.5" x2="1" y2="0.5" xlink:href="#a"/><linearGradient id="e" x1="0" y1="0.5" x2="1" y2="0.5" xlink:href="#a"/></defs><g class="a" transform="translate(-3655.017 -1284.035)"><path class="b" d="M3687.555,1301.118h-3.389V1299.6a4,4,0,0,0-3.05-3.865v-10.682a1.017,1.017,0,0,0-1.017-1.017h-24.065a1.016,1.016,0,0,0-1.017,1.017v27.861a1.017,1.017,0,0,0,1.017,1.017h15.659v.833a3.987,3.987,0,0,0,3.986,3.98h8.907a3.987,3.987,0,0,0,3.986-3.98v-12.628a1.017,1.017,0,0,0-1.017-1.017Zm-5.423-1.519v1.519h-4V1299.6a2,2,0,0,1,4,0Zm-25.082,12.3v-25.827h22.032v9.682a4,4,0,0,0-2.983,3.848v1.519h-3.389a1.016,1.016,0,0,0-1.017,1.017v9.761Zm29.489,2.867a1.952,1.952,0,0,1-1.953,1.946h-8.907a1.951,1.951,0,0,1-1.952-1.946v-11.612h2.372v2.678a1.017,1.017,0,1,0,2.034,0v-2.678h4v2.678a1.017,1.017,0,1,0,2.034,0v-2.678h2.373Z"/><path class="c" d="M3662.127,1288.426l-1.156,1.242-.077-.1a1.017,1.017,0,0,0-1.586,1.274l.814,1.013a1.017,1.017,0,0,0,.755.379h.037a1.018,1.018,0,0,0,.745-.324l1.956-2.1a1.017,1.017,0,1,0-1.488-1.386Z"/><path class="d" d="M3666.948,1291.187h9.083a1.017,1.017,0,1,0,0-2.034h-9.083a1.017,1.017,0,1,0,0,2.034Z"/><path class="e" d="M3662.127,1294.595l-1.156,1.241-.077-.1a1.017,1.017,0,0,0-1.586,1.274l.814,1.012a1.017,1.017,0,0,0,.755.38h.037a1.018,1.018,0,0,0,.745-.324l1.956-2.1a1.017,1.017,0,1,0-1.488-1.386Z"/><path class="f" d="M3666.948,1297.355h5.694a1.016,1.016,0,1,0,0-2.033h-5.694a1.016,1.016,0,1,0,0,2.033Z"/><path class="e" d="M3662.127,1300.764l-1.156,1.241-.077-.1a1.017,1.017,0,0,0-1.586,1.274l.814,1.012a1.013,1.013,0,0,0,.755.379h.037a1.018,1.018,0,0,0,.745-.324l1.956-2.1a1.017,1.017,0,1,0-1.488-1.386Z"/><path class="b" d="M3668.642,1301.491h-1.694a1.017,1.017,0,1,0,0,2.033h1.694a1.017,1.017,0,1,0,0-2.033Z"/></g></svg>