<svg xmlns="http://www.w3.org/2000/svg" width="15.969" height="15.969" viewBox="0 0 15.969 15.969"><defs><style>.saddy{fill:#FFC10E;}</style></defs><g transform="translate(-91.397 -657.78)"><path class="saddy" d="M99.382,673.749a7.984,7.984,0,1,1,7.984-7.985A7.994,7.994,0,0,1,99.382,673.749Zm0-15.3a7.31,7.31,0,1,0,7.31,7.31A7.319,7.319,0,0,0,99.382,658.454Z"/><circle class="saddy" cx="1.201" cy="1.201" r="1.201" transform="translate(95.856 661.925)"/><circle class="saddy" cx="1.201" cy="1.201" r="1.201" transform="translate(100.398 661.925)"/><path class="saddy" d="M95.132,668.656H103.5a.3.3,0,0,0,0-.6H95.132a.3.3,0,0,0,0,.6Z"/></g></svg>