<svg xmlns="http://www.w3.org/2000/svg" width="16" height="16" viewBox="0 0 16 16">
<defs><style>.perf{fill:#6FAD28;}.b{fill:#EAF3DF;}</style></defs>
<g transform="translate(-91.382 -369.764)"><path class="perf" d="M99.382,385.764a8,8,0,1,1,8-8A8.008,8.008,0,0,1,99.382,385.764Zm0-15.325a7.325,7.325,0,1,0,7.325,7.325A7.333,7.333,0,0,0,99.382,370.439Z"/><path class="perf" d="M94.352,377.769a5.03,5.03,0,1,0,10.06,0Z"/><path class="b" d="M96.585,379.761a2.8,2.8,0,1,0,5.594,0Z"/><circle class="perf" cx="1.203" cy="1.203" r="1.203" transform="translate(95.903 373.918)"/><circle class="perf" cx="1.203" cy="1.203" r="1.203" transform="translate(100.454 373.918)"/></g></svg>