<svg xmlns="http://www.w3.org/2000/svg" width="22.39" height="22.378" viewBox="0 0 22.39 22.378">
  <defs>
  </defs>
  <path id="Path_1845" data-name="Path 1845" class="cls-1-si" d="M964.893,764.289a2.618,2.618,0,0,1-1.326-.593,2.24,2.24,0,0,1-.729-2.182,2.2,2.2,0,0,1,1.635-1.764c.038-.2.033-.248-.169-.339-.664-.3-1.322-.614-1.978-.931l-.756-.362a1.816,1.816,0,0,1-.242-.131.589.589,0,0,1-.224-.757.572.572,0,0,1,.542-.364h.031l.115.016a1.309,1.309,0,0,1,.284.107l2.409,1.147,0-5.466c-1.076-.525-2.166-1.045-3.256-1.564l-.952-.454v1.078q0,2.18-.007,4.358c.177.108.334.191.49.275a.629.629,0,0,1,.31.817.6.6,0,0,1-.555.36.673.673,0,0,1-.273-.058c-.261-.115-.516-.241-.772-.367a.713.713,0,0,1-.434-.71v-2.687s-.439,0-.576,0a2.294,2.294,0,0,1-1.695,1.626,2.1,2.1,0,0,1-.537.069,2.337,2.337,0,0,1-2.279-1.921l-.041-.187v-.426a2.6,2.6,0,0,1,.593-1.326,2.233,2.233,0,0,1,1.686-.78,2.539,2.539,0,0,1,.5.052,2.214,2.214,0,0,1,1.766,1.632,2.045,2.045,0,0,0,.252.011l.333,0v-.708c0-.631,0-1.261-.006-1.892a.811.811,0,0,1,.551-.858c.163-.063.321-.143.479-.222l.267-.132a.919.919,0,0,1,.387-.1.605.605,0,0,1,.354,1.09l.61.291q1.7.81,3.4,1.614c1.209-.541,2.383-1.1,3.556-1.662l.478-.228-3.385-1.614v.258c0,.3,0,.594,0,.891a.625.625,0,0,1-.605.655h0a.635.635,0,0,1-.631-.651v-1.154l-2.224,1.059a1.255,1.255,0,0,1-.288.108l-.134.012a.581.581,0,0,1-.544-.362.589.589,0,0,1,.193-.738,1.273,1.273,0,0,1,.248-.142l.523-.25c.73-.349,1.461-.7,2.2-1.04a.918.918,0,0,0,.025-.266c0,.006-.006.009-.017.009a.566.566,0,0,1-.137-.039,2.314,2.314,0,0,1,.77-4.494,2.533,2.533,0,0,1,.31.02,2.308,2.308,0,0,1,.289,4.522c0,.167,0,.23.248.342.881.407,1.758.826,2.634,1.244q1.035.5,2.071.983a.839.839,0,0,1,.53.851c-.01.631-.008,1.261-.006,1.892v.707s.455,0,.576,0a2.291,2.291,0,0,1,1.7-1.626,2.1,2.1,0,0,1,.536-.07,2.337,2.337,0,0,1,2.28,1.921l.041.188v.426a2.63,2.63,0,0,1-.562,1.289,2.226,2.226,0,0,1-1.717.815,2.477,2.477,0,0,1-.5-.051,2.2,2.2,0,0,1-1.771-1.655c-.107.01-.228.012-.351.012l-.23,0v.655c-.019.628-.468.686-.606.689h0a.624.624,0,0,1-.63-.706v-3.7l-4.207,2c0,1.328,0,5.482,0,5.482s3.161-1.507,4.216-2.006a1.709,1.709,0,0,1,.013-.431.576.576,0,0,1,.6-.5.562.562,0,0,1,.6.53,4.738,4.738,0,0,1-.009.9c-.037.29-.369.463-.435.495q-1.707.825-3.421,1.637l-1.041.5c-.183.089-.366.177-.552.259.035.011.031.08.025.147,0,.021,0,.048-.005.071l.012,0a.188.188,0,0,1,.054.012c.046.014.091.027.132.044a2.315,2.315,0,0,1-.467,4.462l-.05.018-.076.016Zm.2-3.4a1.072,1.072,0,0,0-1.065,1.061,1.059,1.059,0,0,0,.294.761,1.085,1.085,0,0,0,.762.34h0a1.1,1.1,0,0,0,1.1-1.064,1.052,1.052,0,0,0-.291-.754,1.093,1.093,0,0,0-.768-.344l-.028-.3Zm8.882-8.869a1.079,1.079,0,0,0-.764.318,1.066,1.066,0,0,0-.316.76,1.079,1.079,0,0,0,1.846.756,1.069,1.069,0,0,0,.318-.76,1.081,1.081,0,0,0-1.081-1.074v-.3Zm-17.757,0a1.076,1.076,0,0,0-.008,2.151h0a1.076,1.076,0,1,0,.038-2.151l-.031-.3Zm8.884-8.878a1.1,1.1,0,0,0-1.078,1.083,1.078,1.078,0,1,0,1.081-1.083v-.3Z" transform="translate(-953.91 -741.911)"/>
</svg>
