<svg xmlns="http://www.w3.org/2000/svg" width="20.13" height="20" viewBox="0 0 20.13 20">
  <defs>
  </defs>
  <path id="Path_1836" data-name="Path 1836" class="cls-1-st" d="M963.208,675.707l-5.289,1.763-2.287-2.286a.35.35,0,0,0-.494.495l2.351,2.351-1.7,5.093,11.961,11.963,7.417-7.417Zm-1.692,5.855a1.748,1.748,0,0,1-2.694-2.2l.514.515a1.036,1.036,0,0,0,.2,1.191,1.074,1.074,0,0,0,1.483,0,1.046,1.046,0,0,0-1.191-1.686l-.515-.514a1.748,1.748,0,0,1,2.2,2.694Zm6.237,12.041-5.439-5.44.989-.989,5.439,5.44Zm1.483-1.484L963.8,686.68l.495-.494,5.439,5.438Zm.989-.989-5.439-5.439.989-.989,5.439,5.439Zm1.484-1.483-5.439-5.44.988-.989,5.44,5.44Zm-3.956-6.923.495-.494,5.439,5.439-.495.494Z" transform="translate(-955.04 -675.086)"/>
</svg>
