<svg xmlns="http://www.w3.org/2000/svg" width="16.482" height="16.146" viewBox="0 0 16.482 16.146"><defs><style>.gear{fill:#9fa2a7;}</style></defs><g transform="translate(-1129.518 -767.77)"><path class="gear" d="M1143.818,773.861l-.079-.028-.306-.731.033-.075c.928-2.1.864-2.166.71-2.319l-1.237-1.207a.333.333,0,0,0-.216-.085,7.9,7.9,0,0,0-2.108.827l-.074.033-.754-.3-.03-.076c-.859-2.127-.947-2.127-1.161-2.127h-1.747c-.214,0-.311,0-1.107,2.131l-.03.078-.75.306-.072-.03a11.484,11.484,0,0,0-2.148-.786.332.332,0,0,0-.216.084l-1.239,1.211c-.157.155-.222.22.754,2.279l.036.077-.306.73-.075.029c-2.178.842-2.178.924-2.178,1.143v1.712c0,.22,0,.311,2.182,1.093l.078.028.307.728-.033.074c-.928,2.105-.869,2.162-.711,2.319l1.235,1.209a.34.34,0,0,0,.218.085,7.931,7.931,0,0,0,2.108-.827l.074-.034.754.3.029.075c.86,2.127.949,2.127,1.163,2.127h1.748c.219,0,.31,0,1.108-2.133l.029-.077.752-.3.071.029a11.492,11.492,0,0,0,2.145.787.329.329,0,0,0,.217-.084l1.241-1.214c.156-.155.221-.219-.757-2.277l-.036-.077.306-.727.073-.029c2.181-.846,2.181-.928,2.181-1.148v-1.711C1146,774.731,1146,774.64,1143.818,773.861ZM1137.759,780a4.157,4.157,0,1,1,4.239-4.157A4.2,4.2,0,0,1,1137.759,780Z"/></g></svg>