<svg xmlns="http://www.w3.org/2000/svg" width="26.438" height="26" viewBox="0 0 26.438 26"><defs><style>.abm{fill:#007db8;}</style></defs><g transform="translate(-722.781 -1944.034)"><path class="abm" d="M731.455,1961.912c1.088,1.535,2.175,2.908,2.9,3.793l.3.363h-2.174a.44.44,0,0,0,0,.881h7.05a.44.44,0,1,0,0-.881h-2.174l.3-.363c.72-.882,1.807-2.258,2.9-3.793a38.783,38.783,0,0,0,2.911-4.691,10.3,10.3,0,0,0,1.356-4.361,8.809,8.809,0,0,0-2.581-6.24.441.441,0,1,0-.623.623,7.932,7.932,0,0,1,2.323,5.617,9.5,9.5,0,0,1-1.26,3.96,37.8,37.8,0,0,1-2.845,4.583c-1.074,1.515-2.148,2.873-2.86,3.746-.237.289-.449.546-.631.763a.446.446,0,0,1-.671,0c-.182-.217-.395-.474-.631-.763-.712-.872-1.786-2.23-2.86-3.746a37.8,37.8,0,0,1-2.845-4.583,9.483,9.483,0,0,1-1.26-3.96,7.934,7.934,0,0,1,11.02-7.319.441.441,0,1,0,.344-.812,8.815,8.815,0,0,0-12.245,8.131,10.316,10.316,0,0,0,1.356,4.363A38.637,38.637,0,0,0,731.455,1961.912Z"/><path class="abm" d="M736,1948.883a.441.441,0,0,0,0-.882,4.407,4.407,0,1,0,3.116,1.291.44.44,0,0,0-.743.2.437.437,0,0,0,.12.428,3.526,3.526,0,1,1-2.493-1.032Z"/><path class="abm" d="M749.053,1968.082l-2.71-4.847a1.366,1.366,0,0,0-1.2-.692H742a.44.44,0,1,0,0,.881h3.14a.488.488,0,0,1,.431.24l2.709,4.847a.4.4,0,0,1,0,.408.487.487,0,0,1-.427.233H724.147a.485.485,0,0,1-.426-.233.4.4,0,0,1,0-.408l2.709-4.847a.486.486,0,0,1,.43-.24H730a.44.44,0,1,0,0-.881h-3.14a1.368,1.368,0,0,0-1.2.692l-2.709,4.847a1.279,1.279,0,0,0,.013,1.283,1.359,1.359,0,0,0,1.187.669h23.706a1.362,1.362,0,0,0,1.187-.669A1.279,1.279,0,0,0,749.053,1968.082Z"/><path class="abm" d="M744.372,1964.746H742.61a.446.446,0,0,0-.245.074l-1.322.881a.441.441,0,1,0,.489.733l1.21-.807h1.63a.44.44,0,1,0,0-.881Z"/><path class="abm" d="M741.729,1967.83a.44.44,0,0,0,.44.441h3.525a.44.44,0,1,0,0-.881h-3.525A.44.44,0,0,0,741.729,1967.83Z"/><path class="abm" d="M730.712,1966.508a.44.44,0,0,0,.246-.807l-1.322-.881a.446.446,0,0,0-.245-.074h-1.763a.44.44,0,1,0,0,.881h1.63l1.211.807A.439.439,0,0,0,730.712,1966.508Z"/><path class="abm" d="M726.306,1967.39a.44.44,0,1,0,0,.881h3.525a.44.44,0,1,0,0-.881Z"/></g></svg>