<svg xmlns="http://www.w3.org/2000/svg" width="18.922" height="12.9" viewBox="0 0 18.922 12.9">
  <path class="a" d="M887.009,468.933a1.748,1.748,0,0,0-1.233.509,1.713,1.713,0,0,0,0,2.451,1.754,1.754,0,0,0,1.233.508,1.734,1.734,0,0,0,0-3.468Zm0,2.7a.964.964,0,1,1,0-1.927.964.964,0,0,1,0,1.927Zm.447-8.473a.373.373,0,0,0-.258-.1h-1.977a.386.386,0,0,0-.385.385V466.6a.387.387,0,0,0,.385.386h3.136a.388.388,0,0,0,.386-.386v-2.115a.388.388,0,0,0-.127-.285Zm.516,3.059h-2.366v-2.393h1.441l.925.833ZM877.6,468.933a1.748,1.748,0,0,0-1.233.509,1.711,1.711,0,0,0,0,2.451,1.754,1.754,0,0,0,1.233.508,1.734,1.734,0,0,0,0-3.468Zm0,2.7a.964.964,0,1,1,0-1.927.964.964,0,0,1,0,1.927Zm-2.57-2.224h-.775v-1.025a.385.385,0,0,0-.77,0v1.411a.386.386,0,0,0,.385.385h1.16a.385.385,0,0,0,0-.771Zm1.953-2.1a.386.386,0,0,0-.385-.385h-4.674a.385.385,0,0,0,0,.771H876.6A.384.384,0,0,0,876.983,467.307Zm-4.277-1.391,4.674.027a.388.388,0,0,0,.389-.381.381.381,0,0,0-.381-.389l-4.674-.027h0a.385.385,0,0,0,0,.77Zm.786-1.749h4.674a.385.385,0,1,0,0-.77h-4.674a.385.385,0,1,0,0,.77Zm16.827-.52h0l-2.759-2.285a.379.379,0,0,0-.247-.088h-3.244v-1.388a.386.386,0,0,0-.385-.385H873.87a.386.386,0,0,0-.385.385v2.821a.385.385,0,0,0,.77,0v-2.435H883.3v9.135h-3.159a.385.385,0,1,0,0,.771h4.7a.385.385,0,1,0,0-.771h-.774v-7.363h3.1l2.513,2.081-.027,5.275h-.4a.385.385,0,0,0,0,.77h.782a.382.382,0,0,0,.385-.381l.031-5.841A.409.409,0,0,0,890.319,463.647Z" transform="translate(-871.539 -459.501)"/>
</svg>
