<svg xmlns="http://www.w3.org/2000/svg" width="26.003" height="26" viewBox="0 0 26.003 26">
    <defs>
        <style>
            .cls-1ship{fill:#d74324}
        </style>
    </defs>
    <g id="Group_344" data-name="Group 344" transform="translate(-382.906 -882)">
        <path id="Path_213" d="M408.784 905.13a.508.508 0 0 0-.717-.05 4.613 4.613 0 0 1-1.753 1.155 3.085 3.085 0 0 1-2.256-.311l2.645-8.9a.508.508 0 0 0-.223-.579l-2.447-1.483v-4.329a.508.508 0 0 0-.508-.508h-1.016V888.6a.508.508 0 0 0-.508-.508h-1.6v-1.523a.508.508 0 0 0-.508-.508h-2.463v-3.555a.508.508 0 0 0-.508-.508h-2.032a.508.508 0 0 0-.508.508v3.555h-2.462a.508.508 0 0 0-.508.508v1.523h-1.6a.508.508 0 0 0-.508.508v1.524h-1.016a.508.508 0 0 0-.508.508v4.329l-2.447 1.483a.508.508 0 0 0-.223.579l2.639 8.881c-.045-.152-.858-.252-1-.27a4.6 4.6 0 0 0-3.669 1.475.509.509 0 0 0-.05.717.515.515 0 0 0 .717.05c1.1-.954 2.334-1.681 3.786-.955a4.225 4.225 0 0 0 4.042.218c1.1-.581 2.167-1.082 3.4-.5l1.266.6a3.843 3.843 0 0 0 3.392-.032 5.766 5.766 0 0 1 2.088-.823 4.155 4.155 0 0 1 2.106.55 3.885 3.885 0 0 0 2.788.253 5.61 5.61 0 0 0 2.12-1.35.508.508 0 0 0 .049-.707zm-5.767-13.989v3.207l-5.292-3.207zm-14.22 0h5.292l-5.292 3.207zm6.6 14.582c0-.09-.724-.257-.819-.277a3.917 3.917 0 0 0-2.634.352 5.439 5.439 0 0 1-1.807.748 2.924 2.924 0 0 1-1.162-.091l-2.777-9.345 9.2-5.576zm7.721-.206c.005-.157-1.424-.156-1.52-.146a7.248 7.248 0 0 0-2.422.936 3.035 3.035 0 0 1-2.763-.1v-14.672l9.2 5.576z" class="cls-1ship" data-name="Path 213"/>
    </g>
</svg>
