<svg xmlns="http://www.w3.org/2000/svg" width="22.758" height="22.235" viewBox="0 0 22.758 15.235">
  <g transform="translate(-953.726 -297.625)">
    <path class="a_ps" d="M971.609,300.781a.326.326,0,0,0-.265-.138h-2.466a.325.325,0,0,0-.325.325v2.246a.325.325,0,0,0,.325.324h4.046a.324.324,0,0,0,.265-.511Z"/>
    <path class="b_ps" d="M954.051,308.818a.325.325,0,0,0-.325.325v.985a.324.324,0,0,0,.325.325h3.629a2.669,2.669,0,0,1,.9-1.635Z"/>
    <path class="b_ps" d="M976.159,308.818h-14.1a2.669,2.669,0,0,1,.9,1.635h5.294a2.667,2.667,0,0,1,5.278,0h2.629a.325.325,0,0,0,.325-.325v-.985A.326.326,0,0,0,976.159,308.818Zm-3.235-5.28h-4.046a.325.325,0,0,1-.325-.324v-2.246a.325.325,0,0,1,.325-.325h2.466a.326.326,0,0,1,.265.138l1.58,2.246A.324.324,0,0,1,972.924,303.538Z"/>
    <path class="b_ps" d="M960.319,308.818a2.021,2.021,0,1,0,2.021,2.021A2.02,2.02,0,0,0,960.319,308.818Zm0,3.031a1.01,1.01,0,1,1,1.01-1.01A1.01,1.01,0,0,1,960.319,311.849Z"/>
    <path class="a_ps" d="M970.891,309.829a1.01,1.01,0,1,0,1.01,1.01A1.01,1.01,0,0,0,970.891,309.829Z"/>
    <path class="b_ps" d="M970.891,308.818a2.021,2.021,0,1,0,2.021,2.021A2.021,2.021,0,0,0,970.891,308.818Zm0,3.031a1.01,1.01,0,1,1,1.01-1.01A1.01,1.01,0,0,1,970.891,311.849Z"/>
    <path class="b_ps" d="M959.812,297.625A5.188,5.188,0,1,0,965,302.812,5.188,5.188,0,0,0,959.812,297.625Zm1.472,8.949q-.528.207-.842.317a2.217,2.217,0,0,1-.73.109,1.455,1.455,0,0,1-.994-.312,1.007,1.007,0,0,1-.354-.791,2.765,2.765,0,0,1,.027-.381,4.412,4.412,0,0,1,.085-.44l.44-1.555c.039-.149.072-.291.1-.423a1.844,1.844,0,0,0,.039-.366.567.567,0,0,0-.122-.415.694.694,0,0,0-.471-.117,1.248,1.248,0,0,0-.35.052c-.119.037-.222.07-.306.1l.116-.479c.288-.117.564-.218.828-.3a2.429,2.429,0,0,1,.746-.127,1.425,1.425,0,0,1,.979.307,1.017,1.017,0,0,1,.344.8q0,.1-.024.357a2.335,2.335,0,0,1-.088.47l-.438,1.551q-.053.186-.1.426a2.19,2.19,0,0,0-.043.362.517.517,0,0,0,.139.421.771.771,0,0,0,.478.112,1.4,1.4,0,0,0,.363-.056,2.089,2.089,0,0,0,.292-.1Zm-.078-6.3a1.044,1.044,0,0,1-.737.285,1.057,1.057,0,0,1-.741-.285.906.906,0,0,1-.309-.69.919.919,0,0,1,.309-.692,1.05,1.05,0,0,1,.741-.288,1.036,1.036,0,0,1,.737.288.931.931,0,0,1,0,1.382Z"/>
  </g>
</svg>
