<svg xmlns="http://www.w3.org/2000/svg" width="26.003" height="26" viewBox="0 0 26.003 26"><defs><style>.a{fill:#6e2585;}</style></defs><g transform="translate(-242.999 -1944.034)"><path class="a" d="M268.877,1967.164a.508.508,0,0,0-.717-.05,4.627,4.627,0,0,1-1.753,1.155,3.087,3.087,0,0,1-2.255-.311l2.644-8.9a.507.507,0,0,0-.223-.579L264.126,1957v-4.33a.509.509,0,0,0-.508-.508H262.6v-1.523a.507.507,0,0,0-.508-.508h-1.6V1948.6a.508.508,0,0,0-.508-.507h-2.463v-3.555a.508.508,0,0,0-.508-.508h-2.032a.508.508,0,0,0-.508.508v3.555h-2.463a.508.508,0,0,0-.508.507v1.524h-1.6a.507.507,0,0,0-.508.508v1.523h-1.016a.509.509,0,0,0-.508.508V1957l-2.447,1.483a.507.507,0,0,0-.223.579l2.639,8.88c-.045-.151-.858-.251-1-.27a4.6,4.6,0,0,0-3.669,1.476.508.508,0,0,0-.05.716.514.514,0,0,0,.717.05c1.1-.953,2.334-1.681,3.786-.955a4.222,4.222,0,0,0,4.042.219c1.1-.581,2.167-1.082,3.4-.5l1.266.6a3.84,3.84,0,0,0,3.392-.033,5.78,5.78,0,0,1,2.088-.822,4.155,4.155,0,0,1,2.106.55,3.885,3.885,0,0,0,2.788.253,5.62,5.62,0,0,0,2.12-1.35A.508.508,0,0,0,268.877,1967.164Zm-5.767-13.989v3.207l-5.292-3.207Zm-14.22,0h5.292l-5.292,3.207Zm6.6,14.582c0-.091-.724-.257-.819-.278a3.928,3.928,0,0,0-2.634.352,5.463,5.463,0,0,1-1.807.749h0a2.886,2.886,0,0,1-1.162-.091l-2.777-9.344,9.2-5.576Zm7.721-.206c0-.158-1.424-.156-1.52-.146a7.228,7.228,0,0,0-2.422.936,3.038,3.038,0,0,1-2.763-.1v-14.671l9.2,5.576Z"/></g></svg>