<svg xmlns="http://www.w3.org/2000/svg" width="15.969" height="15.969" viewBox="0 0 15.969 15.969"><defs><style>.a{fill:#f63b55;}</style></defs><g transform="translate(-91.397 -297.78)"><path class="a" d="M99.382,313.749a7.984,7.984,0,1,1,7.984-7.985A7.994,7.994,0,0,1,99.382,313.749Zm0-15.295a7.31,7.31,0,1,0,7.31,7.31A7.319,7.319,0,0,0,99.382,298.454Z"/><path class="a" d="M103.266,309.567a5.391,5.391,0,0,0-7.769,0c-.271.28.155.707.426.427a4.781,4.781,0,0,1,6.916,0c.271.28.7-.148.427-.427Z"/><circle class="a" cx="1.201" cy="1.201" r="1.201" transform="translate(95.856 303.133)"/><circle class="a" cx="1.201" cy="1.201" r="1.201" transform="translate(100.398 303.133)"/><path class="a" d="M101.944,300.324,99.168,303.1H99.6l-2.776-2.776a.3.3,0,0,0-.427.427l2.776,2.776a.305.305,0,0,0,.427,0l2.776-2.776a.3.3,0,0,0-.427-.427Z"/></g></svg>