<svg xmlns="http://www.w3.org/2000/svg" width="15.969" height="15.969" viewBox="0 0 15.969 15.969"><defs><style>.a{fill:#b2b632;}</style></defs><g transform="translate(-91.397 -586.78)"><path class="a" d="M99.382,602.749a7.984,7.984,0,1,1,7.984-7.985A7.994,7.994,0,0,1,99.382,602.749Zm0-15.3a7.31,7.31,0,1,0,7.31,7.31A7.319,7.319,0,0,0,99.382,587.454Z"/><path class="a" d="M104.1,594.025a4.718,4.718,0,0,1-9.437,0,.3.3,0,0,0-.6,0,5.322,5.322,0,0,0,10.644,0,.3.3,0,0,0-.6,0Z"/><circle class="a" cx="1.201" cy="1.201" r="1.201" transform="translate(95.857 590.181)"/><circle class="a" cx="1.201" cy="1.201" r="1.201" transform="translate(100.398 590.181)"/></g></svg>