<svg xmlns="http://www.w3.org/2000/svg" width="15.969" height="15.969" viewBox="0 0 15.969 15.969"><defs><style>.a{fill:#f57d48;}</style></defs><g transform="translate(-91.397 -439.78)"><path class="a" d="M99.382,455.749a7.984,7.984,0,1,1,7.984-7.985A7.994,7.994,0,0,1,99.382,455.749Zm0-15.295a7.31,7.31,0,1,0,7.31,7.31A7.319,7.319,0,0,0,99.382,440.454Z"/><path class="a" d="M103.245,451.544a5.392,5.392,0,0,0-7.748.023c-.271.28.155.707.426.427a4.782,4.782,0,0,1,6.9-.023c.273.279.7-.149.427-.427Z"/><circle class="a" cx="1.201" cy="1.201" r="1.201" transform="translate(95.856 443.925)"/><circle class="a" cx="1.201" cy="1.201" r="1.201" transform="translate(100.398 443.925)"/></g></svg>