<svg xmlns="http://www.w3.org/2000/svg" viewBox="0 0 34.69 30"><defs><style>.cls-1{fill:#fff;}</style></defs><title>Save-search</title><g id="Layer_2" data-name="Layer 2"><g id="Layer_1-2" data-name="Layer 1"><path class="cls-1" d="M32,0H2.7A2.7,2.7,0,0,0,0,2.7V27.3A2.7,2.7,0,0,0,2.7,30H32a2.7,2.7,0,0,0,2.7-2.7V2.7A2.7,2.7,0,0,0,32,0Zm.39,27.3a.38.38,0,0,1-.39.39H2.7a.39.39,0,0,1-.39-.39V8.08H32.38V27.3Zm0-21.53H2.31V2.7a.4.4,0,0,1,.39-.39H32a.39.39,0,0,1,.39.39V5.77Z"/><circle class="cls-1" cx="4.87" cy="4.04" r="0.87"/><circle class="cls-1" cx="7.65" cy="4.04" r="0.87"/><circle class="cls-1" cx="10.44" cy="4.04" r="0.87"/><path class="cls-1" d="M26.1,19.93l1.66,1.66a1.16,1.16,0,0,0,1.64,0,1.15,1.15,0,0,0,0-1.63l-1.67-1.67a3.17,3.17,0,1,0-1.63,1.64ZM24.21,16.4a.87.87,0,0,1,1.23,1.23h0a.87.87,0,1,1-1.22-1.23Z"/><path class="cls-1" d="M6.11,21.93H20.34a1.16,1.16,0,1,0,0-2.31H6.11a1.16,1.16,0,1,0,0,2.31Z"/></g></g></svg>