<svg xmlns="http://www.w3.org/2000/svg" viewBox="0 0 14.89 14.22"><defs><style>.cls-1{fill:#6fad28;}</style></defs><title>Star-5</title><g id="Layer_2" data-name="Layer 2"><g id="Layer_1-2" data-name="Layer 1"><path class="cls-1" d="M14.72,6a.58.58,0,0,0,.15-.59A.57.57,0,0,0,14.4,5l-4.15-.61a.55.55,0,0,1-.43-.31L8,.32A.55.55,0,0,0,7.45,0a.58.58,0,0,0-.52.32L5.08,4.08a.57.57,0,0,1-.44.31L.49,5A.58.58,0,0,0,.17,6l3,2.93a.57.57,0,0,1,.17.51l-.71,4.13a.59.59,0,0,0,.23.56.56.56,0,0,0,.61,0l3.71-2a.64.64,0,0,1,.54,0l3.7,2a.57.57,0,0,0,.84-.6l-.71-4.13a.57.57,0,0,1,.17-.51ZM10.2,8.27a.36.36,0,0,0-.11.33l.46,2.66a.37.37,0,0,1-.54.39L7.62,10.39a.36.36,0,0,0-.35,0L4.89,11.65a.41.41,0,0,1-.4,0,.36.36,0,0,1-.14-.36L4.8,8.6a.38.38,0,0,0-.1-.33L2.76,6.38A.38.38,0,0,1,2.67,6,.37.37,0,0,1,3,5.75l2.67-.39a.37.37,0,0,0,.28-.2L7.11,2.74a.39.39,0,0,1,.34-.21.36.36,0,0,1,.33.21L9,5.16a.39.39,0,0,0,.28.2l2.68.39a.36.36,0,0,1,.2.63Z"/></g></g></svg>