<svg xmlns="http://www.w3.org/2000/svg" width="21.122" height="21.141" viewBox="0 0 21.122 21.141"><defs><style>.aq{fill:#90bae1;}.bn{fill:#b0d3f0;}.cp{fill:#fff;}.dr{fill:#4482c3;}.ek{fill:#e64c3c;}</style></defs><g transform="translate(-9533.688 -8636.43)"><path class="aq" d="M9551.879,8639.69a10.561,10.561,0,0,0-17.021,12.133,10.317,10.317,0,0,0,1.762,2.471,10.519,10.519,0,0,0,7.6,3.259,10.388,10.388,0,0,0,3.8-.7,4.37,4.37,0,1,1,6.066-6.031,10.368,10.368,0,0,0,.721-3.8,10.5,10.5,0,0,0-2.932-7.332Zm-7.633,8.394a1.092,1.092,0,1,1,1.1-1.089A1.092,1.092,0,0,1,9544.246,8648.084Z"/><path class="bn" d="M9549.953,8638.1c-5.033,1.078-13.083,4.271-15.095,13.724a10.564,10.564,0,0,1,15.095-13.724Z"/><path class="cp" d="M9544.222,8656.461a9.478,9.478,0,0,1-9.44-9.5.364.364,0,1,1,.728,0,8.752,8.752,0,0,0,8.715,8.767.364.364,0,1,1,0,.729Z"/><path class="cp" d="M9553.353,8647.382a.365.365,0,0,1-.362-.365,8.75,8.75,0,0,0-8.715-8.766.364.364,0,1,1,0-.728,9.479,9.479,0,0,1,9.441,9.5A.364.364,0,0,1,9553.353,8647.382Z"/><path class="cp" d="M9544.227,8655a8.022,8.022,0,0,1-7.989-8.035.364.364,0,1,1,.729,0,7.294,7.294,0,0,0,7.263,7.306.364.364,0,1,1,0,.728Z"/><path class="cp" d="M9551.9,8647.378a.364.364,0,0,1-.363-.365,7.293,7.293,0,0,0-7.263-7.3.365.365,0,1,1,0-.729,8.022,8.022,0,0,1,7.988,8.036A.365.365,0,0,1,9551.9,8647.378Z"/><path class="dr" d="M9544.258,8644.078a2.911,2.911,0,1,0,2.059.858,2.914,2.914,0,0,0-2.059-.858Zm-.012,4.006a1.092,1.092,0,1,1,1.1-1.089A1.092,1.092,0,0,1,9544.246,8648.084Z"/><path class="ek" d="M9554.793,8653.213a4.371,4.371,0,1,1-.7-2.391,4.369,4.369,0,0,1,.7,2.391Z"/><path class="cp" d="M9550.423,8653.2l1.67,0a.365.365,0,0,0,.26-.621l-1.666-1.675a.362.362,0,0,0-.515,0l-1.675,1.666a.364.364,0,0,0,.256.622Z"/><path class="cp" d="M9552.6,8655.028l-4.369-.014a.364.364,0,1,1,0-.728l4.37.013a.364.364,0,0,1,0,.729Z"/></g></svg>