<svg xmlns="http://www.w3.org/2000/svg" width="16.209" height="17.806" viewBox="0 0 16.209 17.806">
    <defs>
        <style>
            .cls-1{fill:#f63b55}
        </style>
    </defs>
    <g id="Group_6190" data-name="Group 6190" transform="translate(-766.161 -218)">
        <path id="Path_4792" d="M770.146 230.514a1.708 1.708 0 1 0 1.708 1.709 1.711 1.711 0 0 0-1.708-1.709zm0 2.614a.905.905 0 1 1 .905-.9.906.906 0 0 1-.905.9z" class="cls-1" data-name="Path 4792"/>
        <path id="Path_4793" d="M769.368 224.5a6.5 6.5 0 1 0 6.5-6.5 6.507 6.507 0 0 0-6.5 6.5zm10.442 3.828l-7.279-8.188a5.492 5.492 0 0 1 7.279 8.188zm-9.44-3.828a5.471 5.471 0 0 1 1.426-3.682l7.254 8.16a5.49 5.49 0 0 1-8.68-4.478z" class="cls-1" data-name="Path 4793"/>
        <path id="Path_4794" d="M767.333 233.461a1.173 1.173 0 1 0 1.173 1.172 1.174 1.174 0 0 0-1.173-1.172zm0 1.542a.369.369 0 1 1 .37-.369.37.37 0 0 1-.37.366z" class="cls-1" data-name="Path 4794"/>
        <path id="Path_4795" d="M779.494 222.943a.408.408 0 0 1-.077.007.4.4 0 0 1-.394-.325c-.266-1.364-1.818-1.255-1.89-1.25a.4.4 0 0 1-.072-.8 2.471 2.471 0 0 1 2.75 1.9.4.4 0 0 1-.317.468z" class="cls-1" data-name="Path 4795"/>
    </g>
</svg>
