<svg xmlns="http://www.w3.org/2000/svg" width="7.347" height="6.455" viewBox="0 0 7.347 6.455">
<g transform="translate(-216.5 -271.245)"><path class="closed" d="M223.5,271.3c-.3-.2-.7.2-.9.4-.5.5-.9,1-1.4,1.5-.5.6-1,1.1-1.5,1.7a3.915,3.915,0,0,0-.8,1c-.5-.4-.9-.9-1.4-1.3-.4-.3-1-.5-1,.2a3.969,3.969,0,0,0,1.4,2.4,1.193,1.193,0,0,0,.9.5c.4,0,.9-.5,1.2-.8a18.26,18.26,0,0,0,1.3-1.6c.6-.7,1.1-1.4,1.7-2.1C223.3,272.8,224.4,271.8,223.5,271.3Zm-6.4,3.4h-.2C216.9,274.6,217,274.7,217.1,274.7Z"/></g></svg>