<svg xmlns="http://www.w3.org/2000/svg" width="5.7" height="7.6" viewBox="0 0 5.7 7.6">

<g transform="translate(-217.3 -412.4)"><path class="assigned" d="M221.6,412.4h-3.8a.472.472,0,0,0-.5.5v6.6a.472.472,0,0,0,.5.5h4.7a.472.472,0,0,0,.5-.5v-5.7Zm.2.7.6.6h-.6Zm.8,6.4c0,.1-.1.1,0,0l-4.7.1a.1.1,0,0,1-.1-.1v-6.6a.1.1,0,0,1,.1-.1h3.5v1.1a.215.215,0,0,0,.2.2h1Z"/><path class="assigned" d="M221.5,414.9c-.1-.1-.3.1-.4.2l-.6.6c-.2.2-.4.5-.6.7-.1.1-.3.3-.3.4-.2-.2-.3-.4-.6-.5-.2-.1-.4-.2-.4.1a1.524,1.524,0,0,0,.6,1,.52.52,0,0,0,.4.2.85.85,0,0,0,.5-.3,4.233,4.233,0,0,0,.5-.7,5.716,5.716,0,0,1,.7-.8C221.4,415.5,221.9,415.1,221.5,414.9Zm-2.6,1.4Z"/></g></svg>