<svg xmlns="http://www.w3.org/2000/svg" width="7.6" height="5" viewBox="0 0 7.6 5">
<g transform="translate(-216.4 -555.5)"><path class="review" d="M223.9,557.7a4.1,4.1,0,0,0-1.6-1.6,4.2,4.2,0,0,0-2.1-.6,3.936,3.936,0,0,0-2.1.6,4.1,4.1,0,0,0-1.6,1.6.5.5,0,0,0,0,.6,4.1,4.1,0,0,0,1.6,1.6,4.2,4.2,0,0,0,2.1.6,3.936,3.936,0,0,0,2.1-.6,4.1,4.1,0,0,0,1.6-1.6.5.5,0,0,0,0-.6Zm-4.6-1.2a1.222,1.222,0,0,1,.9-.4c.1,0,.1,0,.1.1l.1.1a.1.1,0,0,1-.1.1l-.1.1a.713.713,0,0,0-.6.3.864.864,0,0,0-.3.6c0,.1,0,.1-.1.1l-.1.1c-.1,0-.1,0-.1-.1l-.1-.1A1.222,1.222,0,0,1,219.3,556.5Zm2.7,2.9a3.86,3.86,0,0,1-3.8,0,3.759,3.759,0,0,1-1.4-1.4,3.814,3.814,0,0,1,1.6-1.5,1.689,1.689,0,0,0-.3,1,1.974,1.974,0,0,0,.6,1.4,1.816,1.816,0,0,0,1.4.6,1.974,1.974,0,0,0,1.4-.6,1.816,1.816,0,0,0,.6-1.4,1.929,1.929,0,0,0-.3-1,3.318,3.318,0,0,1,1.6,1.5A3.76,3.76,0,0,1,222,559.4Z"/></g></svg>