<svg xmlns="http://www.w3.org/2000/svg" width="4.8" height="6.4" viewBox="0 0 4.8 6.4">
<g transform="translate(-217.8 -835.6)"><path class="inProgress" d="M222,836.8h.4a.215.215,0,0,0,.2-.2v-.8a.215.215,0,0,0-.2-.2H218a.215.215,0,0,0-.2.2v.8a.215.215,0,0,0,.2.2h.4a2.582,2.582,0,0,0,1.2,2,2.879,2.879,0,0,0-1.2,2H218a.215.215,0,0,0-.2.2v.8a.215.215,0,0,0,.2.2h4.3a.215.215,0,0,0,.2-.2V841a.215.215,0,0,0-.2-.2H222a2.582,2.582,0,0,0-1.2-2A2.88,2.88,0,0,0,222,836.8Zm-1.6,2.6a3.431,3.431,0,0,1,.8,1.2v.1l-.1.1h-1.9c-.1,0-.1,0-.1-.1v-.1a11.138,11.138,0,0,1,.8-1.2h0v-.9h0c-.3-.3-.5-.6-.7-.8v-.2c0-.1.1-.1.2,0a1.7,1.7,0,0,0,1.6,0h.2v.2c-.2.2-.4.5-.7.8h0l-.1.9Z"/></g></svg>