<svg xmlns="http://www.w3.org/2000/svg" width="7.6" height="7.6" viewBox="0 0 7.6 7.6">
<g transform="translate(-216.4 -765)"><path class="rejected" d="M223.5,766.9a3.16,3.16,0,0,0-1.4-1.4,3.86,3.86,0,0,0-3.8,0,3.159,3.159,0,0,0-1.4,1.4,3.86,3.86,0,0,0,0,3.8,3.16,3.16,0,0,0,1.4,1.4,3.86,3.86,0,0,0,3.8,0,3.159,3.159,0,0,0,1.4-1.4,3.86,3.86,0,0,0,0-3.8Zm-1.5,2.8c.1.1.1.1.1.2s0,.2-.1.2l-.5.5c-.1.1-.1.1-.2.1s-.2,0-.2-.1l-.9-.9-.9.9c-.1.1-.1.1-.2.1s-.2,0-.2-.1l-.5-.5c-.1-.1-.1-.1-.1-.2s0-.2.1-.2l.9-.9-.9-.9c-.1-.1-.1-.1-.1-.2s0-.2.1-.2l.5-.5c.1-.1.1-.1.2-.1s.2,0,.2.1l.9.9.9-.9c.1-.1.1-.1.2-.1s.2,0,.2.1l.5.5c.1.1.1.1.1.2s0,.2-.1.2l-.9.9Z"/></g></svg>