<svg xmlns="http://www.w3.org/2000/svg" width="5.8" height="7.8" viewBox="0 0 5.8 7.8">
<g transform="translate(-217.3 -483.2)"><path class="open" d="M221.7,483.2h-3.9a.472.472,0,0,0-.5.5v6.8a.472.472,0,0,0,.5.5h4.8a.472.472,0,0,0,.5-.5v-5.8Zm.1.7.6.6h-.6Zm.9,6.6c0,.1-.1.1,0,0l-4.9.1a.1.1,0,0,1-.1-.1v-6.8a.1.1,0,0,1,.1-.1h3.6v1.2a.215.215,0,0,0,.2.2h1v5.5Zm-4.3-5.2h3.4a.2.2,0,0,1,0,.4h-3.4a.2.2,0,0,1,0-.4Zm3.6,1.2a.215.215,0,0,1-.2.2h-3.4a.2.2,0,0,1,0-.4h3.4A.215.215,0,0,1,222,486.5Zm0,1a.215.215,0,0,1-.2.2h-3.4a.2.2,0,0,1,0-.4h3.4A.215.215,0,0,1,222,487.5Zm0,1a.215.215,0,0,1-.2.2h-3.4a.2.2,0,0,1,0-.4h3.4A.215.215,0,0,1,222,488.5Z"/></g></svg>