<svg xmlns="http://www.w3.org/2000/svg" width="26.172" height="26.109" viewBox="0 0 26.172 26.109"><defs><style>.a{fill:#fff;}</style></defs><path class="a" d="M8117.433,2527.705v2.651l-.641-.518a42.988,42.988,0,0,1-4.845-4.736c-3.3-3.785-4.967-7.182-4.967-10.1v-.289a10.454,10.454,0,1,1,20.907,0V2515c0,.244-.013.493-.036.745l-2.045-1.865a8.414,8.414,0,0,0-16.787.831V2515C8109.019,2519.931,8115.367,2525.894,8117.433,2527.705Zm6.273-1.465h3.059v-3.059h-3.059Zm-6.273-15.859a4.334,4.334,0,1,1-4.334,4.335A4.34,4.34,0,0,1,8117.433,2510.381Zm0,2.04a2.295,2.295,0,1,0,2.295,2.3A2.3,2.3,0,0,0,8117.433,2512.421Zm14.345,12.433-.574-.523v3.275a2.769,2.769,0,0,1-2.765,2.765h-6.458a2.769,2.769,0,0,1-2.765-2.765v-3.275l-.574.523-1.375-1.507,7.943-7.246,7.942,7.246Zm-2.613-2.384-3.955-3.608-3.955,3.608v5.135a.727.727,0,0,0,.726.726h6.458a.727.727,0,0,0,.726-.726Z" transform="translate(-8106.98 -2504.262)"/></svg>