<svg xmlns="http://www.w3.org/2000/svg" width="55.111" height="42.252" viewBox="0 0 55.111 42.252">
    <defs>
        <style>
            .cls-1{fill:#fff}
        </style>
    </defs>
    <g id="Group_5792" data-name="Group 5792" transform="translate(-370.889 -387.022)">
        <g id="Group_5791" data-name="Group 5791">
            <path id="Path_4549" d="M418.652 390.7h-40.415v27.556h40.415zm-1.837 25.719h-36.741v-23.886h36.741z" class="cls-1" data-name="Path 4549"/>
            <path id="Path_4550" d="M422.326 420.089v-30.311a2.756 2.756 0 0 0-2.756-2.756h-42.251a2.756 2.756 0 0 0-2.756 2.756v30.311h-3.674v4.592a4.6 4.6 0 0 0 4.592 4.593h45.926a4.6 4.6 0 0 0 4.593-4.593v-4.592zM376.4 389.778a.918.918 0 0 1 .919-.919h42.251a.918.918 0 0 1 .919.919v30.311H376.4zm17.452 32.148h9.185v.918a.918.918 0 0 1-.918.919h-7.349a.918.918 0 0 1-.918-.919zm30.311 2.755a2.756 2.756 0 0 1-2.756 2.756h-45.926a2.756 2.756 0 0 1-2.755-2.756v-2.755h19.289v.918a2.756 2.756 0 0 0 2.755 2.756h7.349a2.756 2.756 0 0 0 2.755-2.756v-.918h19.289z" class="cls-1" data-name="Path 4550"/>
            <path id="Path_4551" d="M401.917 403.815a.886.886 0 0 1 0 1.318l-3.253 2.925-2.508 2.255a.885.885 0 0 1-1.478-.658v-10.362a.886.886 0 0 1 1.478-.658l2.508 2.255z" class="cls-1" data-name="Path 4551"/>
        </g>
    </g>
</svg>
