<svg xmlns="http://www.w3.org/2000/svg" width="21.714" height="24.275" viewBox="0 0 21.714 24.275">
  <defs>
  </defs>
  <g id="Group_2562" data-name="Group 2562" transform="translate(-954.248 -469.463)">
    <g id="Group_2548" data-name="Group 2548">
      <g id="Group_2547" data-name="Group 2547">
        <path id="Path_1750" data-name="Path 1750" class="cls-1-vd" d="M975.488,481.126h-3.509V469.937a.474.474,0,0,0-.809-.335l-1.344,1.343-1.343-1.343a.474.474,0,0,0-.67,0l-1.343,1.343-1.343-1.343a.475.475,0,0,0-.671,0l-1.343,1.343L961.77,469.6a.475.475,0,0,0-.671,0l-1.343,1.343-1.343-1.343a.474.474,0,0,0-.67,0l-1.343,1.343-1.343-1.343a.474.474,0,0,0-.809.348v21.323a2.468,2.468,0,0,0,2.465,2.465H973.5a2.468,2.468,0,0,0,2.465-2.465V481.6A.474.474,0,0,0,975.488,481.126ZM956.713,492.79a1.519,1.519,0,0,1-1.517-1.517V471.082l.868.869a.475.475,0,0,0,.671,0l1.343-1.343,1.343,1.343a.475.475,0,0,0,.671,0l1.343-1.343,1.343,1.343a.475.475,0,0,0,.671,0l1.343-1.343,1.343,1.343a.474.474,0,0,0,.67,0l1.343-1.343,1.343,1.343a.475.475,0,0,0,.671,0l.869-.869v20.191a2.452,2.452,0,0,0,.524,1.517Zm18.3-1.517a1.517,1.517,0,1,1-3.034,0v-9.2h3.034v9.2Z"/>
      </g>
    </g>
    <g id="Group_2550" data-name="Group 2550">
      <g id="Group_2549" data-name="Group 2549">
        <path id="Path_1751" data-name="Path 1751" class="cls-1-vd" d="M968.117,482.265H960.6a.474.474,0,0,0,0,.948h7.512a.474.474,0,0,0,0-.948Z"/>
      </g>
    </g>
    <g id="Group_2552" data-name="Group 2552">
      <g id="Group_2551" data-name="Group 2551">
        <path id="Path_1752" data-name="Path 1752" class="cls-1-vd" d="M958.445,482.4a.474.474,0,0,0-.809.335.474.474,0,0,0,.948,0A.473.473,0,0,0,958.445,482.4Z"/>
      </g>
    </g>
    <g id="Group_2554" data-name="Group 2554">
      <g id="Group_2553" data-name="Group 2553">
        <path id="Path_1753" data-name="Path 1753" class="cls-1-vd" d="M968.117,485.394H960.6a.474.474,0,0,0,0,.948h7.512a.474.474,0,0,0,0-.948Z"/>
      </g>
    </g>
    <g id="Group_2556" data-name="Group 2556">
      <g id="Group_2555" data-name="Group 2555">
        <path id="Path_1754" data-name="Path 1754" class="cls-1-vd" d="M958.445,485.533a.473.473,0,1,0,.139.335A.473.473,0,0,0,958.445,485.533Z"/>
      </g>
    </g>
    <g id="Group_2558" data-name="Group 2558">
      <g id="Group_2557" data-name="Group 2557">
        <path id="Path_1755" data-name="Path 1755" class="cls-1-vd" d="M968.117,488.523H960.6a.474.474,0,0,0,0,.948h7.512a.474.474,0,0,0,0-.948Z"/>
      </g>
    </g>
    <g id="Group_2560" data-name="Group 2560">
      <g id="Group_2559" data-name="Group 2559">
        <path id="Path_1756" data-name="Path 1756" class="cls-1-vd" d="M958.445,488.662a.473.473,0,1,0,.139.335A.477.477,0,0,0,958.445,488.662Z"/>
      </g>
    </g>
    <g id="Group_2561" data-name="Group 2561">
      <path id="Path_1757" data-name="Path 1757" class="cls-1-vd" d="M963.113,476.425a1.582,1.582,0,0,0,1.409-1.711c0-.945-.207-1.711-1.409-1.711s-1.408.766-1.408,1.711A1.582,1.582,0,0,0,963.113,476.425Z"/>
      <path id="Path_1758" data-name="Path 1758" class="cls-1-vd" d="M960.453,479.037c0-.057,0-.016,0,0Z"/>
      <path id="Path_1759" data-name="Path 1759" class="cls-1-vd" d="M965.774,479.082c0-.015,0-.109,0,0Z"/>
      <path id="Path_1760" data-name="Path 1760" class="cls-1-vd" d="M965.771,478.968c-.026-1.646-.241-2.115-1.886-2.412a1.156,1.156,0,0,1-1.543,0c-1.627.294-1.855.756-1.885,2.359,0,.131,0,.138,0,.122v.173s.392.79,2.66.79,2.661-.79,2.661-.79v-.127C965.774,479.092,965.773,479.074,965.771,478.968Z"/>
    </g>
  </g>
</svg>
