<svg xmlns="http://www.w3.org/2000/svg" viewBox="0 0 22.09 22.09"><defs></defs><title>Workflow-details</title><g id="Layer_2" data-name="Layer 2"><g id="Layer_1-2" data-name="Layer 1"><g id="Layer_1-3" data-name="Layer 1"><path class="cls-1-wd" d="M22.09,7V1a1,1,0,0,0-1-1h-6a1,1,0,0,0-1,1V3.51a10.56,10.56,0,0,0-10.2,7.92l-1-.18a.5.5,0,0,0-.54.72l1.09,2.14A4,4,0,1,0,8,18.57h3.55v1a.5.5,0,0,0,.27.45.53.53,0,0,0,.53-.05l1.76-1.32a4,4,0,1,0,4.46-4.57V10.54h1a.52.52,0,0,0,.45-.27A.53.53,0,0,0,20,9.74L18.7,8h2.38A1,1,0,0,0,22.09,7ZM4,20.08a2,2,0,1,1,2-2A2,2,0,0,1,4,20.08Zm16.06-2a2,2,0,1,1-2-2A2,2,0,0,1,20.08,18.07Zm-4-7.81a.5.5,0,0,0,.45.28h1v3.55a4,4,0,0,0-3.46,3.39l-1.76-1.32a.51.51,0,0,0-.53,0,.49.49,0,0,0-.27.45v1H8a4,4,0,0,0-3.49-3.48v0h0L6,12.63a.5.5,0,0,0-.26-.86l-.93-.17a9.55,9.55,0,0,1,9.21-7.08V7a1,1,0,0,0,1,1h2.39L16.17,9.74A.47.47,0,0,0,16.12,10.26Zm4-4.24h-4V2h4Z"/></g></g></g></svg>