<svg xmlns="http://www.w3.org/2000/svg" width="19.185" height="17.987" viewBox="0 0 19.185 17.987"><defs><style>.a{fill:#007db8;}</style></defs><g transform="translate(-1919.777 -155.913)"><path class="a" d="M1938.362,158.312h-7.794v-1.8a.6.6,0,0,0-.217-.461.587.587,0,0,0-.492-.127l-9.593,1.8a.6.6,0,0,0-.489.589V171.5a.6.6,0,0,0,.489.588l9.593,1.8a.571.571,0,0,0,.11.011.6.6,0,0,0,.6-.6v-1.8h7.794a.6.6,0,0,0,.6-.6V158.911A.6.6,0,0,0,1938.362,158.312Zm-10.34,8.6a.6.6,0,1,1-.9.789l-1.744-1.991-1.528,1.966a.6.6,0,0,1-.948-.737l1.672-2.149-1.649-1.885a.6.6,0,0,1,.9-.789l1.5,1.71,1.776-2.283a.6.6,0,0,1,.946.737l-1.918,2.466Zm9.741,3.393h-7.195v-1.2h1.8a.6.6,0,1,0,0-1.2h-1.8v-1.2h1.8a.6.6,0,1,0,0-1.2h-1.8v-1.2h1.8a.6.6,0,1,0,0-1.2h-1.8v-1.2h1.8a.6.6,0,1,0,0-1.2h-1.8v-1.2h7.195Z"/><path class="a" d="M1935.964,160.71h-1.2a.6.6,0,0,0,0,1.2h1.2a.6.6,0,1,0,0-1.2Z"/><path class="a" d="M1935.964,163.108h-1.2a.6.6,0,0,0,0,1.2h1.2a.6.6,0,1,0,0-1.2Z"/><path class="a" d="M1935.964,165.506h-1.2a.6.6,0,0,0,0,1.2h1.2a.6.6,0,1,0,0-1.2Z"/><path class="a" d="M1935.964,167.9h-1.2a.6.6,0,0,0,0,1.2h1.2a.6.6,0,1,0,0-1.2Z"/></g></svg>