<svg xmlns="http://www.w3.org/2000/svg" width="14" height="14" viewBox="0 0 14 14">
    <g id="Language-prefrence"  transform="translate(-31 -97.895)">
        <path id="Path_1472" d="M1094.324 163.359l2.188 1.641v-1.641H1099v-7.41h-4.949V151H1085v7.41h2.488v1.641l2.188-1.641h.273v4.949zm3.856-.82h-2.489v.82l-1.093-.82h-3.828v-5.769h7.41zm-8.778-4.949l-1.093.82v-.82h-2.489v-5.77h7.41v4.129h-1.8l-1.894-3.788-2.007 4.015.733.367.5-1h1.544l.2.41h-.567v1.641zm.5-2.871h-.724l.362-.724z" class="cls-2" data-name="Path 1472" transform="translate(-1054 -53.105)"/>
        <path id="Path_1473" d="M1093.886 160.308a2.125 2.125 0 0 1-1.066.563v.82a2.09 2.09 0 0 1 3.282 0v-.82a2.125 2.125 0 0 1-1.066-.563 3 3 0 0 0 .6-1.078h.878v-.82h-1.641v-.82h-.82v.82h-1.641v.82h.878a3 3 0 0 0 .596 1.078zm.575-.593a2.611 2.611 0 0 1-.3-.485h.606a2.616 2.616 0 0 1-.306.485z" class="cls-2" data-name="Path 1473" transform="translate(-1054 -53.105)"/>
    </g>
</svg>
