<svg xmlns="http://www.w3.org/2000/svg" width="10.354" height="10" viewBox="0 0 10.354 10">
    <g id="logout" transform="translate(-1086.823 -435.66)">
        <g id="Group_1927" data-name="Group 1927">
            <path id="Path_1465" d="M1093.356 444.446h-5.32v-7.572h5.32a.214.214 0 0 0 .214-.214v-.786a.214.214 0 0 0-.214-.214h-6.32a.213.213 0 0 0-.213.214v9.572a.213.213 0 0 0 .213.214h6.32a.214.214 0 0 0 .214-.214v-.786a.214.214 0 0 0-.214-.214z"  data-name="Path 1465"/>
            <path id="Path_1466" d="M1097.114 440.509l-2.875-2.875a.219.219 0 0 0-.3 0l-.682.682a.212.212 0 0 0 0 .3l1.3 1.3h-5.622a.214.214 0 0 0-.214.214v1.058a.214.214 0 0 0 .214.214h5.623l-1.3 1.3a.214.214 0 0 0 0 .3l.682.683a.215.215 0 0 0 .3 0l2.876-2.876a.212.212 0 0 0 .062-.151.209.209 0 0 0-.064-.149z" data-name="Path 1466"/>
        </g>
    </g>
</svg>
