<svg xmlns="http://www.w3.org/2000/svg" width="13.832" height="10" viewBox="0 0 13.832 10">
    <g id="request-higher-role"  transform="translate(-1085.084 -379.811)">
        <path id="Path_1480" d="M1098.916 381.051v4.188s-.9.176-1.081.2a1.28 1.28 0 0 1-1.181-.193c-.647-.619-2.943-2.9-2.943-2.9a.873.873 0 0 0-1.032-.053c-.583.308-1.449.759-1.81.934a.831.831 0 0 1-1.249-.653.85.85 0 0 1 .516-.742c.824-.5 2.561-1.474 3.285-1.859.439-.233.756-.253 1.36.255.743.625 1.405 1.2 1.405 1.2a.688.688 0 0 0 .56.108l2.17-.485zm-9.141 7.1a.731.731 0 0 0-.877-1.011.755.755 0 0 0-.159-.745.773.773 0 0 0-.738-.187.752.752 0 0 0-.16-.743.833.833 0 0 0-1.167.03c-.341.328-.559.921-.255 1.27s.653.136.919.075c-.074.264-.3.51-.022.856s.653.136.919.076c-.074.263-.286.533-.023.854s.7.15.986.061c-.111.284-.348.591-.043.935s1.006.186 1.35-.141a.819.819 0 0 0 .074-1.157.78.78 0 0 0-.804-.178zm6.261-2.178c-2.48-2.481-1.313-1.314-2.648-2.651a.869.869 0 0 0-.93-.168c-.371.163-.849.385-1.209.554a1.99 1.99 0 0 1-.813.27 1.38 1.38 0 0 1-.729-2.553c.552-.381 1.82-1.056 1.82-1.056a1.591 1.591 0 0 0-1.233-.49 7.7 7.7 0 0 0-2.615 1.159 1.384 1.384 0 0 1-1.217.032l-1.378-.48v4.791s.393.114.747.259a1.569 1.569 0 0 1 .388-.612 1.525 1.525 0 0 1 2.093-.015 1.314 1.314 0 0 1 .33.586 1.342 1.342 0 0 1 .567.346 1.31 1.31 0 0 1 .33.585 3.616 3.616 0 0 0 1.508 1.342 1.4 1.4 0 0 1 .365 1.208c.006.007.2.223.32.344a.608.608 0 0 0 .86-.86c-.009-.008-.853-.892-.785-.96s1.143 1.052 1.163 1.072a.608.608 0 0 0 .86-.859l-.078-.076s-1.067-.951-.986-1.032a9.773 9.773 0 0 1 1.41 1.155.6.6 0 0 0 .864-.83c0-.012-1.01-1.063-.931-1.143s1.075.945 1.077.947a.608.608 0 1 0 .859-.86z" class="cls-2" data-name="Path 1480"/>
    </g>
</svg>
