<svg xmlns="http://www.w3.org/2000/svg" width="12" height="12" viewBox="0 0 12 12">
    <g id="search-prefrence"  transform="translate(-32 -281.666)">
        <path id="Path_1478" d="M1094.673 336.259a5.078 5.078 0 1 0 1.489 3.592 5.043 5.043 0 0 0-1.489-3.592zm-3.592 7.7a4.112 4.112 0 1 1 4.111-4.112 4.117 4.117 0 0 1-4.111 4.116z" class="cls-2" data-name="Path 1478" transform="translate(-1054 -53.105)"/>
        <path id="Path_1479" d="M1097.858 345.943l-3.187-3.187a.485.485 0 0 0-.685.686l3.186 3.187a.485.485 0 0 0 .686-.686z" class="cls-2" data-name="Path 1479" transform="translate(-1054 -53.105)"/>
    </g>
</svg>
