<svg xmlns="http://www.w3.org/2000/svg" width="10" height="15" viewBox="0 0 10 15">
    <g id="watchlist"  transform="translate(-1087 -208.271)">
        <g id="Group_1938" data-name="Group 1938">
            <g id="Group_1933" data-name="Group 1933">
                <g id="watch">
                    <g id="Group_1932" data-name="Group 1932">
                        <path id="Path_1474" d="M1097 215.771a5.177 5.177 0 0 0-1.875-3.938l-.625-3.562h-5l-.625 3.562a5.072 5.072 0 0 0 0 7.875l.625 3.563h5l.625-3.563a5.175 5.175 0 0 0 1.875-3.937zm-9.5 0a4.5 4.5 0 1 1 4.5 4.5 4.513 4.513 0 0 1-4.5-4.5z" class="cls-2" data-name="Path 1474"/>
                    </g>
                </g>
            </g>
            <g id="Group_1937" data-name="Group 1937">
                <g id="Group_1934" data-name="Group 1934">
                    <path id="Path_1475" d="M1094.5 214.146h-5a.375.375 0 0 1 0-.75h5a.375.375 0 0 1 0 .75z" class="cls-2" data-name="Path 1475"/>
                </g>
                <g id="Group_1935" data-name="Group 1935">
                    <path id="Path_1476" d="M1094.5 216.146h-5a.375.375 0 0 1 0-.75h5a.375.375 0 0 1 0 .75z" class="cls-2" data-name="Path 1476"/>
                </g>
                <g id="Group_1936" data-name="Group 1936">
                    <path id="Path_1477" d="M1092.625 218.146h-3.125a.375.375 0 0 1 0-.75h3.125a.375.375 0 0 1 0 .75z" class="cls-2" data-name="Path 1477"/>
                </g>
            </g>
        </g>
    </g>
</svg>
