<svg xmlns="http://www.w3.org/2000/svg" width="17.725" height="20.837" viewBox="0 0 17.725 20.837">
    <defs>
        <style>
            .customer_icon{fill:#007db8}
        </style>
    </defs>
    <g id="Group_4706" data-name="Group 4706" transform="translate(-1112.638 -569.163)">
        <g id="Group_4705" data-name="Group 4705">
            <path id="Path_3627" d="M1121.424 580.39h.139a3.98 3.98 0 0 0 3.042-1.316c1.661-1.872 1.385-5.083 1.355-5.389a4.4 4.4 0 0 0-2.093-3.914 4.8 4.8 0 0 0-2.322-.608h-.073a4.8 4.8 0 0 0-2.322.591 4.4 4.4 0 0 0-2.118 3.931c-.03.306-.307 3.517 1.355 5.389a3.963 3.963 0 0 0 3.037 1.316zm-3.24-6.6v-.035c.143-3.094 2.339-3.426 3.28-3.426h.051c1.165.026 3.146.5 3.28 3.426a.093.093 0 0 0 0 .035c0 .03.306 2.964-1.066 4.509a2.823 2.823 0 0 1-2.222.923h-.043a2.816 2.816 0 0 1-2.218-.923c-1.36-1.533-1.066-4.48-1.062-4.506z" class="customer_icon" data-name="Path 3627"/>
            <path id="Path_3628" d="M1130.361 585.715v-.015-.108c-.026-.854-.082-2.852-1.955-3.49l-.043-.013a12.465 12.465 0 0 1-3.582-1.632.583.583 0 0 0-.669.954 13.441 13.441 0 0 0 3.94 1.8c1.005.359 1.118 1.433 1.148 2.417a.961.961 0 0 0 0 .108 7.868 7.868 0 0 1-.09 1.333 17.236 17.236 0 0 1-15.22 0 7.387 7.387 0 0 1-.09-1.334v-.107c.03-.984.143-2.059 1.148-2.417a13.586 13.586 0 0 0 3.94-1.8.583.583 0 0 0-.669-.954 12.322 12.322 0 0 1-3.582 1.631l-.043.013c-1.873.643-1.929 2.641-1.955 3.491a.961.961 0 0 1 0 .108v.013a6.621 6.621 0 0 0 .22 1.955.547.547 0 0 0 .225.271 18.225 18.225 0 0 0 16.845 0 .569.569 0 0 0 .225-.271 6.947 6.947 0 0 0 .207-1.953z" class="customer_icon" data-name="Path 3628"/>
        </g>
    </g>
</svg>
