<svg xmlns="http://www.w3.org/2000/svg" width="20" height="19.374" viewBox="0 0 20 19.374">
    <defs>
        <style>
            .facility_loc{fill:#42aeaf}
        </style>
    </defs>
    <path id="Path_3625" d="M737.386 581.26l-1.981-1.99v-1.865a.417.417 0 0 0 0-.05 1.72 1.72 0 0 0-.17-2.231l-4.617-4.618a2.094 2.094 0 0 0-2.959 0l-5.65 5.65a.37.37 0 0 0-.032.037 2.6 2.6 0 0 0-2.177 2.514l-1.337 5.779a1.37 1.37 0 0 0-.957 1.3v3.086a.39.39 0 0 0 .371.389h15.84a.391.391 0 1 0 0-.781h-6.434v-2.7a1.371 1.371 0 0 0-.951-1.3l-1.264-5.462 4.608-4.608 2.968 2.969v1.882l-1.98 1.99a.39.39 0 0 0-.067.461l.967 1.8a.391.391 0 0 0 .344.206.386.386 0 0 0 .185-.047.391.391 0 0 0 .159-.529l-.83-1.541 1.779-1.788h1.655l1.779 1.788-.83 1.541a.391.391 0 0 0 .159.529.382.382 0 0 0 .184.047.393.393 0 0 0 .345-.206l.967-1.8a.39.39 0 0 0-.074-.452zm-3.967-3.312a1.7 1.7 0 0 0 .6.108 1.718 1.718 0 0 0 .607-.11v1.091h-1.205zm-10.393-1.709l4.037-4.036a2.087 2.087 0 0 0 1.859 1.859l-4.022 4.022a2.611 2.611 0 0 0-1.874-1.845zm7.038-5.178a1.316 1.316 0 0 1 .049 1.808.362.362 0 0 0-.048.04 1.309 1.309 0 0 1-1.851-1.851.208.208 0 0 0 .031-.036 1.316 1.316 0 0 1 1.819.039zm-7.673 5.881a1.817 1.817 0 1 1-1.817 1.817 1.819 1.819 0 0 1 1.817-1.817zm4.1 11.545h-8.214v-2.7a.587.587 0 0 1 .586-.586h7.043a.586.586 0 0 1 .585.586zm-7.222-4.062l.972-4.2a2.6 2.6 0 0 0 4.291 0l.973 4.2zm11.344-10.953a2.088 2.088 0 0 0 .6-1.258l3.463 3.462a.937.937 0 0 1-1.321 1.324l-3.133-3.133z" class="facility_loc" data-name="Path 3625" transform="translate(-717.5 -569.894)"/>
</svg>
