<svg xmlns="http://www.w3.org/2000/svg" viewBox="0 0 38.5 38.5"><defs><style>.cls-1{fill:#fff;stroke:#e3f3f3;stroke-miterlimit:10;stroke-width:2.5px;}.cls-2{fill:#42aeaf;}</style></defs><title>Manifest-arrow</title><g id="Layer_2" data-name="Layer 2"><g id="Layer_3" data-name="Layer 3"><circle class="cls-1" cx="19.25" cy="19.25" r="18"/><path class="cls-2" d="M18.93,13.07a.69.69,0,0,1,1,0l5.69,5.68a.73.73,0,0,1,0,1l-5.69,5.68a.69.69,0,0,1-1,0l-.65-.64a.63.63,0,0,1-.22-.5.77.77,0,0,1,.22-.5l3.52-3.37H13.39a.68.68,0,0,1-.7-.7v-.94a.68.68,0,0,1,.7-.7H21.8l-3.52-3.37a.77.77,0,0,1-.22-.5.63.63,0,0,1,.22-.5Z"/></g></g></svg>