<svg xmlns="http://www.w3.org/2000/svg" xmlns:xlink="http://www.w3.org/1999/xlink" width="99.796" height="89.539" viewBox="0 0 99.796 89.539"><defs><style>.a,.d,.f{fill:#fff;}.a{stroke:#9fa2a7;}.a,.b,.c{stroke-miterlimit:10;}.b,.c{fill:#9fa2a7;}.c{stroke:#fff;stroke-width:2px;}.e,.f{stroke:none;}.g{fill:none;}.h{filter:url(#a);}</style><filter id="a" x="0" y="0" width="89.539" height="89.539" filterUnits="userSpaceOnUse"><feOffset dy="2" input="SourceAlpha"/><feGaussianBlur stdDeviation="1.5" result="b"/><feFlood flood-opacity="0.2"/><feComposite operator="in" in2="b"/><feComposite in="SourceGraphic"/></filter></defs><g transform="translate(-2303.539 -1035.585)"><g class="h" transform="matrix(1, 0, 0, 1, 2303.54, 1035.59)"><circle class="a" cx="39.77" cy="39.77" r="39.77" transform="translate(5 3)"/></g><g class="b"><path class="e" d="M 2358.441650390625 1098.38330078125 C 2358.44140625 1098.38330078125 2358.44140625 1098.38330078125 2358.441162109375 1098.38330078125 C 2356.07958984375 1098.383178710938 2353.7900390625 1097.529296875 2351.993896484375 1095.978759765625 C 2350.1806640625 1094.413208007813 2348.99951171875 1092.243041992188 2348.66845703125 1089.868041992188 C 2348.3037109375 1087.254638671875 2348.978515625 1084.655395507813 2350.56884765625 1082.549438476563 C 2351.820556640625 1080.891723632813 2353.521484375 1079.695922851563 2355.463623046875 1079.084228515625 L 2353.50439453125 1076.590454101563 C 2351.95361328125 1077.554809570313 2350.142822265625 1078.07763671875 2348.310302734375 1078.07763671875 C 2346.415283203125 1078.07763671875 2344.547607421875 1077.520141601563 2342.96337890625 1076.49365234375 L 2339.643798828125 1079.813232421875 C 2341.486572265625 1081.010986328125 2342.708984375 1082.983642578125 2342.93310546875 1085.229736328125 C 2343.303466796875 1088.94873046875 2340.815673828125 1092.305541992188 2337.260986328125 1093.111694335938 L 2337.260986328125 1093.8310546875 L 2340.844482421875 1093.8310546875 C 2341.187744140625 1093.326171875 2341.68408203125 1092.939208984375 2342.274169921875 1092.729614257813 C 2342.58837890625 1092.61865234375 2342.913818359375 1092.562744140625 2343.2431640625 1092.562744140625 C 2344.4697265625 1092.562744140625 2345.5693359375 1093.339965820313 2345.979736328125 1094.496826171875 C 2346.512939453125 1096.007568359375 2345.718994140625 1097.669067382813 2344.2099609375 1098.201904296875 C 2343.89794921875 1098.312255859375 2343.572509765625 1098.368286132813 2343.243408203125 1098.368286132813 C 2342.270263671875 1098.368286132813 2341.37744140625 1097.87939453125 2340.84521484375 1097.099975585938 L 2335.626953125 1097.099975585938 C 2334.725830078125 1097.099975585938 2333.992919921875 1096.366455078125 2333.992919921875 1095.464965820313 L 2333.992919921875 1093.112182617188 C 2330.28662109375 1092.274291992188 2327.790283203125 1088.68994140625 2328.363037109375 1084.870727539063 C 2328.624755859375 1083.122314453125 2329.508544921875 1081.527587890625 2330.8515625 1080.380615234375 C 2332.1806640625 1079.245483398438 2333.870849609375 1078.620361328125 2335.61083984375 1078.620361328125 C 2335.80322265625 1078.620361328125 2335.9970703125 1078.628051757813 2336.1904296875 1078.643310546875 L 2340.543212890625 1074.290405273438 C 2339.52734375 1072.995727539063 2338.849609375 1071.461059570313 2338.5771484375 1069.837036132813 L 2333.72509765625 1069.837036132813 C 2333.080810546875 1069.837036132813 2332.4951171875 1069.456787109375 2332.232666015625 1068.868286132813 L 2330.015869140625 1063.8798828125 C 2329.421142578125 1063.6181640625 2328.92724609375 1063.161865234375 2328.619873046875 1062.577514648438 C 2328.260009765625 1061.89306640625 2328.18798828125 1061.109497070313 2328.417236328125 1060.37109375 C 2328.646484375 1059.6318359375 2329.150146484375 1059.026489257813 2329.8349609375 1058.666748046875 C 2330.24853515625 1058.44873046875 2330.71435546875 1058.333251953125 2331.18115234375 1058.333251953125 C 2332.260986328125 1058.333251953125 2333.243408203125 1058.926635742188 2333.745361328125 1059.881958007813 C 2334.33447265625 1061.000366210938 2334.114990234375 1062.33447265625 2333.295166015625 1063.210327148438 L 2334.787841796875 1066.568969726563 L 2338.575927734375 1066.568969726563 C 2338.9013671875 1064.61279296875 2339.814453125 1062.785400390625 2341.199462890625 1061.346557617188 C 2343.074951171875 1059.399291992188 2345.596923828125 1058.326904296875 2348.301025390625 1058.326904296875 C 2350.533447265625 1058.326904296875 2352.6640625 1059.070068359375 2354.396728515625 1060.437133789063 L 2354.760986328125 1060.072875976563 C 2355.072265625 1059.763793945313 2355.4814453125 1059.594970703125 2355.916015625 1059.594970703125 L 2363.034423828125 1059.594970703125 C 2363.37744140625 1059.08935546875 2363.87451171875 1058.701904296875 2364.46630859375 1058.492431640625 C 2364.779052734375 1058.3818359375 2365.1044921875 1058.325805664063 2365.433837890625 1058.325805664063 C 2366.6611328125 1058.325805664063 2367.7607421875 1059.103881835938 2368.169921875 1060.261840820313 C 2368.703125 1061.770385742188 2367.90966796875 1063.431640625 2366.4013671875 1063.96484375 C 2366.0888671875 1064.0751953125 2365.763671875 1064.131225585938 2365.434326171875 1064.131225585938 C 2364.461181640625 1064.131225585938 2363.568359375 1063.642333984375 2363.036376953125 1062.863037109375 L 2356.60400390625 1062.863037109375 C 2357.33251953125 1063.9892578125 2357.819580078125 1065.246337890625 2358.039794921875 1066.568969726563 L 2364.157958984375 1066.568969726563 C 2365.05908203125 1066.568969726563 2365.7919921875 1067.302001953125 2365.7919921875 1068.203002929688 L 2365.7919921875 1068.804321289063 C 2367.300048828125 1069.450073242188 2368.327880859375 1070.9521484375 2368.327880859375 1072.640014648438 C 2368.327880859375 1074.939331054688 2366.457763671875 1076.81005859375 2364.158935546875 1076.81005859375 C 2361.8583984375 1076.81005859375 2359.988037109375 1074.939819335938 2359.988037109375 1072.640991210938 C 2359.989501953125 1071.576538085938 2360.399169921875 1070.585815429688 2361.07958984375 1069.837036132813 L 2358.039306640625 1069.837036132813 C 2357.757568359375 1071.521240234375 2357.04150390625 1073.10693359375 2355.9638671875 1074.430786132813 L 2359.285888671875 1078.659057617188 C 2363.869140625 1079.043212890625 2367.59619140625 1082.540405273438 2368.237548828125 1087.137817382813 C 2368.602294921875 1089.75146484375 2367.927490234375 1092.350708007813 2366.337158203125 1094.456665039063 C 2364.746826171875 1096.562622070313 2362.431640625 1097.923095703125 2359.81787109375 1098.287475585938 C 2359.362060546875 1098.35107421875 2358.89892578125 1098.38330078125 2358.441650390625 1098.38330078125 Z M 2343.236083984375 1095.099975585938 C 2343.0341796875 1095.099975585938 2342.8701171875 1095.26416015625 2342.8701171875 1095.465942382813 C 2342.8701171875 1095.667846679688 2343.0341796875 1095.83203125 2343.236083984375 1095.83203125 C 2343.43798828125 1095.83203125 2343.60205078125 1095.667846679688 2343.60205078125 1095.465942382813 C 2343.60205078125 1095.26416015625 2343.43798828125 1095.099975585938 2343.236083984375 1095.099975585938 Z M 2360.86572265625 1092.029052734375 L 2361.236572265625 1092.956665039063 C 2361.45751953125 1093.508911132813 2361.35986328125 1094.130859375 2360.992431640625 1094.58740234375 C 2361.301513671875 1094.457153320313 2361.601318359375 1094.302612304688 2361.889892578125 1094.124267578125 L 2361.889892578125 1093.119995117188 C 2361.889892578125 1092.5400390625 2361.436279296875 1092.064086914063 2360.86572265625 1092.029052734375 Z M 2355.013916015625 1094.124389648438 C 2355.30126953125 1094.301879882813 2355.60009765625 1094.455932617188 2355.90771484375 1094.5859375 C 2355.539794921875 1094.12646484375 2355.444091796875 1093.50439453125 2355.666748046875 1092.953247070313 L 2356.036376953125 1092.029174804688 C 2355.466552734375 1092.065307617188 2355.013916015625 1092.540771484375 2355.013916015625 1093.119995117188 L 2355.013916015625 1094.124389648438 Z M 2362.978271484375 1089.343505859375 C 2363.64697265625 1089.72900390625 2364.2001953125 1090.285888671875 2364.58203125 1090.95068359375 C 2364.895263671875 1090.175537109375 2365.06005859375 1089.341430664063 2365.06005859375 1088.490966796875 C 2365.0615234375 1087.00146484375 2364.560791015625 1085.5615234375 2363.643310546875 1084.397216796875 C 2363.807373046875 1085.051513671875 2363.889892578125 1085.782836914063 2363.889892578125 1086.588989257813 L 2363.889892578125 1086.618408203125 L 2363.88818359375 1086.647705078125 C 2363.830810546875 1087.62060546875 2363.511474609375 1088.550048828125 2362.978271484375 1089.343505859375 Z M 2353.25732421875 1084.410034179688 C 2352.438720703125 1085.4501953125 2351.953125 1086.711547851563 2351.8662109375 1088.060791015625 C 2351.802001953125 1089.061767578125 2351.96142578125 1090.043090820313 2352.325439453125 1090.947021484375 C 2352.70703125 1090.285034179688 2353.259033203125 1089.730224609375 2353.92578125 1089.345458984375 C 2353.392578125 1088.552124023438 2353.072998046875 1087.621948242188 2353.015625 1086.647705078125 L 2353.013916015625 1086.618408203125 L 2353.013916015625 1086.588989257813 C 2353.013916015625 1085.787963867188 2353.09521484375 1085.06103515625 2353.25732421875 1084.410034179688 Z M 2334.091064453125 1089.72314453125 C 2334.57666015625 1089.923583984375 2335.09912109375 1090.027954101563 2335.62744140625 1090.027954101563 C 2336.15576171875 1090.027954101563 2336.67822265625 1089.923583984375 2337.1640625 1089.72314453125 L 2337.1640625 1089.125 C 2337.1640625 1088.278076171875 2336.474609375 1087.588989257813 2335.626953125 1087.588989257813 C 2334.780029296875 1087.588989257813 2334.091064453125 1088.278076171875 2334.091064453125 1089.125 L 2334.091064453125 1089.72314453125 Z M 2357.01611328125 1087.948364257813 C 2357.42236328125 1088.3505859375 2357.941162109375 1088.634887695313 2358.51513671875 1088.753540039063 C 2358.7373046875 1088.719360351563 2359.199951171875 1088.525390625 2359.6611328125 1088.150756835938 C 2359.963134765625 1087.905395507813 2360.205078125 1087.634765625 2360.37060546875 1087.363525390625 L 2359.4833984375 1086.83154296875 C 2358.780029296875 1087.402099609375 2357.891357421875 1087.744995117188 2357.01611328125 1087.948364257813 Z M 2338.830322265625 1085.546508789063 C 2339.150634765625 1085.8330078125 2339.429443359375 1086.159790039063 2339.660400390625 1086.516723632813 C 2339.6865234375 1086.331420898438 2339.69970703125 1086.143432617188 2339.699951171875 1085.9541015625 C 2339.701171875 1085.235107421875 2339.51318359375 1084.535034179688 2339.1611328125 1083.920166015625 C 2339.16162109375 1083.933837890625 2339.161865234375 1083.947631835938 2339.162353515625 1083.961303710938 C 2339.17529296875 1084.517578125 2339.060302734375 1085.057373046875 2338.830322265625 1085.546508789063 Z M 2332.091064453125 1083.925415039063 C 2331.6416015625 1084.714599609375 2331.4736328125 1085.628662109375 2331.5966796875 1086.512817382813 C 2331.827392578125 1086.157348632813 2332.105224609375 1085.831909179688 2332.42431640625 1085.546508789063 C 2332.18359375 1085.034912109375 2332.072509765625 1084.478515625 2332.091064453125 1083.925415039063 Z M 2335.626953125 1083.785034179688 C 2335.479248046875 1083.785034179688 2335.35888671875 1083.9052734375 2335.35888671875 1084.052978515625 C 2335.35888671875 1084.200805664063 2335.479248046875 1084.321044921875 2335.626953125 1084.321044921875 C 2335.774658203125 1084.321044921875 2335.89501953125 1084.200805664063 2335.89501953125 1084.052978515625 C 2335.89501953125 1083.9052734375 2335.774658203125 1083.785034179688 2335.626953125 1083.785034179688 Z M 2350.72119140625 1071.741088867188 L 2351.091796875 1072.667846679688 C 2351.3134765625 1073.218994140625 2351.216064453125 1073.842041015625 2350.84765625 1074.29931640625 C 2351.156982421875 1074.1689453125 2351.457275390625 1074.014038085938 2351.74609375 1073.835571289063 L 2351.74609375 1072.8310546875 C 2351.74609375 1072.25146484375 2351.292236328125 1071.77587890625 2350.72119140625 1071.741088867188 Z M 2344.8701171875 1073.835693359375 C 2345.157470703125 1074.013305664063 2345.4560546875 1074.16748046875 2345.763916015625 1074.297485351563 C 2345.397705078125 1073.842041015625 2345.300048828125 1073.220947265625 2345.52001953125 1072.669067382813 L 2345.890869140625 1071.741333007813 C 2345.32177734375 1071.777954101563 2344.8701171875 1072.252685546875 2344.8701171875 1072.8310546875 L 2344.8701171875 1073.835693359375 Z M 2364.157958984375 1071.739013671875 C 2363.66064453125 1071.739013671875 2363.256103515625 1072.143676757813 2363.256103515625 1072.640991210938 C 2363.256103515625 1073.138305664063 2363.66064453125 1073.54296875 2364.157958984375 1073.54296875 C 2364.6552734375 1073.54296875 2365.06005859375 1073.138305664063 2365.06005859375 1072.640991210938 C 2365.06005859375 1072.143676757813 2364.6552734375 1071.739013671875 2364.157958984375 1071.739013671875 Z M 2343.12255859375 1064.086303710938 C 2341.640625 1065.960571289063 2341.30517578125 1068.487426757813 2342.180419921875 1070.65966796875 C 2342.562255859375 1069.9970703125 2343.114501953125 1069.441772460938 2343.781494140625 1069.056884765625 C 2343.247802734375 1068.262939453125 2342.928466796875 1067.332763671875 2342.871826171875 1066.359008789063 L 2342.8701171875 1066.330078125 L 2342.8701171875 1066.301025390625 C 2342.8701171875 1065.485473632813 2342.95458984375 1064.746337890625 2343.12255859375 1064.086303710938 Z M 2352.83447265625 1069.055053710938 C 2353.501220703125 1069.439819335938 2354.052978515625 1069.994873046875 2354.434814453125 1070.657470703125 C 2355.30126953125 1068.501953125 2354.987548828125 1065.98046875 2353.494384765625 1064.089599609375 C 2353.661865234375 1064.748779296875 2353.74609375 1065.48681640625 2353.74609375 1066.301025390625 L 2353.74609375 1066.330444335938 L 2353.744384765625 1066.35986328125 C 2353.68701171875 1067.332763671875 2353.36767578125 1068.261962890625 2352.83447265625 1069.055053710938 Z M 2346.8720703125 1067.660400390625 C 2347.278076171875 1068.062133789063 2347.797119140625 1068.346313476563 2348.371337890625 1068.465454101563 C 2348.59375 1068.43115234375 2349.05615234375 1068.237182617188 2349.517333984375 1067.862670898438 C 2349.819091796875 1067.617431640625 2350.061279296875 1067.34716796875 2350.2265625 1067.076171875 L 2349.339111328125 1066.543579101563 C 2348.635498046875 1067.114135742188 2347.7470703125 1067.45703125 2346.8720703125 1067.660400390625 Z M 2365.426025390625 1060.863037109375 C 2365.22412109375 1060.863037109375 2365.06005859375 1061.027221679688 2365.06005859375 1061.22900390625 C 2365.06005859375 1061.430786132813 2365.22412109375 1061.594970703125 2365.426025390625 1061.594970703125 C 2365.6279296875 1061.594970703125 2365.7919921875 1061.430786132813 2365.7919921875 1061.22900390625 C 2365.7919921875 1061.027221679688 2365.6279296875 1060.863037109375 2365.426025390625 1060.863037109375 Z M 2331.18896484375 1060.863037109375 C 2330.987060546875 1060.863037109375 2330.822998046875 1061.027221679688 2330.822998046875 1061.22900390625 C 2330.822998046875 1061.430786132813 2330.987060546875 1061.594970703125 2331.18896484375 1061.594970703125 C 2331.390869140625 1061.594970703125 2331.554931640625 1061.430786132813 2331.554931640625 1061.22900390625 C 2331.554931640625 1061.027221679688 2331.390869140625 1060.863037109375 2331.18896484375 1060.863037109375 Z"/><path class="f" d="M 2358.441162109375 1097.38330078125 C 2358.85009765625 1097.383422851563 2359.263427734375 1097.355102539063 2359.679931640625 1097.296997070313 C 2364.537109375 1096.619995117188 2367.925048828125 1092.133056640625 2367.2470703125 1087.276000976563 C 2366.652099609375 1083.010009765625 2363.0810546875 1079.786987304688 2358.777099609375 1079.630004882813 L 2354.660888671875 1074.390991210938 C 2356.123046875 1072.892944335938 2357.0048828125 1070.925048828125 2357.152099609375 1068.837036132813 L 2363.52392578125 1068.837036132813 L 2363.52392578125 1069.534057617188 C 2362.049072265625 1069.838012695313 2360.989990234375 1071.135009765625 2360.988037109375 1072.640991210938 C 2360.988037109375 1074.391357421875 2362.406982421875 1075.81005859375 2364.1572265625 1075.81005859375 C 2364.15771484375 1075.81005859375 2364.158203125 1075.81005859375 2364.158935546875 1075.81005859375 C 2365.908935546875 1075.81005859375 2367.327880859375 1074.390991210938 2367.327880859375 1072.640014648438 C 2367.327880859375 1071.134033203125 2366.26806640625 1069.836059570313 2364.7919921875 1069.534057617188 L 2364.7919921875 1068.203002929688 C 2364.7919921875 1067.85302734375 2364.508056640625 1067.568969726563 2364.157958984375 1067.568969726563 L 2357.152099609375 1067.568969726563 C 2357.028076171875 1065.81201171875 2356.381103515625 1064.133056640625 2355.2939453125 1062.746948242188 L 2356.177978515625 1061.863037109375 L 2363.64111328125 1061.863037109375 C 2363.9169921875 1062.643432617188 2364.65087890625 1063.131225585938 2365.434326171875 1063.131225585938 C 2365.644775390625 1063.131225585938 2365.8583984375 1063.096069335938 2366.068115234375 1063.02197265625 C 2367.05810546875 1062.671997070313 2367.576904296875 1061.5849609375 2367.22705078125 1060.594970703125 C 2366.951171875 1059.813720703125 2366.217041015625 1059.325805664063 2365.433837890625 1059.325805664063 C 2365.223388671875 1059.325805664063 2365.009521484375 1059.360961914063 2364.800048828125 1059.43505859375 C 2364.258056640625 1059.626953125 2363.83203125 1060.052978515625 2363.64111328125 1060.594970703125 L 2355.916015625 1060.594970703125 C 2355.748046875 1060.594970703125 2355.5869140625 1060.661987304688 2355.468017578125 1060.780029296875 L 2354.444091796875 1061.803955078125 C 2352.7255859375 1060.149536132813 2350.51171875 1059.326904296875 2348.301025390625 1059.326904296875 C 2345.97802734375 1059.326904296875 2343.658447265625 1060.23486328125 2341.919921875 1062.0400390625 C 2340.47802734375 1063.537963867188 2339.60791015625 1065.494995117188 2339.464111328125 1067.568969726563 L 2334.137939453125 1067.568969726563 L 2332.06591796875 1062.906982421875 C 2332.991943359375 1062.4189453125 2333.347900390625 1061.27294921875 2332.860107421875 1060.347045898438 C 2332.521240234375 1059.701904296875 2331.862548828125 1059.333251953125 2331.18115234375 1059.333251953125 C 2330.883544921875 1059.333251953125 2330.58154296875 1059.403564453125 2330.300048828125 1059.552001953125 C 2329.373046875 1060.038940429688 2329.01806640625 1061.18603515625 2329.5048828125 1062.112060546875 C 2329.760986328125 1062.598999023438 2330.217041015625 1062.951049804688 2330.7529296875 1063.076049804688 L 2333.14599609375 1068.461059570313 C 2333.248046875 1068.68994140625 2333.47509765625 1068.837036132813 2333.72509765625 1068.837036132813 L 2339.464111328125 1068.837036132813 C 2339.610107421875 1070.901000976563 2340.47509765625 1072.848022460938 2341.908935546875 1074.338989257813 L 2336.556884765625 1079.691040039063 C 2336.239013671875 1079.643432617188 2335.9228515625 1079.620361328125 2335.61083984375 1079.620361328125 C 2332.52587890625 1079.620361328125 2329.822509765625 1081.875854492188 2329.35205078125 1085.01904296875 C 2328.8330078125 1088.47998046875 2331.218017578125 1091.704956054688 2334.678955078125 1092.223999023438 C 2334.782958984375 1092.239990234375 2334.887939453125 1092.253051757813 2334.992919921875 1092.262939453125 L 2334.992919921875 1095.464965820313 C 2334.992919921875 1095.816040039063 2335.277099609375 1096.099975585938 2335.626953125 1096.099975585938 L 2341.449951171875 1096.099975585938 C 2341.725830078125 1096.88037109375 2342.4599609375 1097.368286132813 2343.243408203125 1097.368286132813 C 2343.45361328125 1097.368286132813 2343.66748046875 1097.333129882813 2343.876953125 1097.259033203125 C 2344.867919921875 1096.909057617188 2345.386962890625 1095.822021484375 2345.037109375 1094.8310546875 C 2344.76025390625 1094.050537109375 2344.02685546875 1093.562744140625 2343.2431640625 1093.562744140625 C 2343.03271484375 1093.562744140625 2342.818603515625 1093.597900390625 2342.60888671875 1093.671997070313 C 2342.068115234375 1093.864013671875 2341.64208984375 1094.2900390625 2341.449951171875 1094.8310546875 L 2336.260986328125 1094.8310546875 L 2336.260986328125 1092.262939453125 C 2339.743896484375 1091.916015625 2342.284912109375 1088.81201171875 2341.93798828125 1085.328979492188 C 2341.702880859375 1082.973022460938 2340.174072265625 1080.943969726563 2337.972900390625 1080.069946289063 L 2342.85498046875 1075.18798828125 C 2344.4541015625 1076.447143554688 2346.38232421875 1077.07763671875 2348.310302734375 1077.07763671875 C 2350.21484375 1077.07763671875 2352.119140625 1076.463012695313 2353.708984375 1075.232055664063 L 2357.22607421875 1079.708984375 C 2352.368896484375 1080.385986328125 2348.98095703125 1084.873046875 2349.658935546875 1089.72998046875 C 2350.27783203125 1094.170532226563 2354.08203125 1097.383056640625 2358.441162109375 1097.38330078125 M 2343.236083984375 1094.83203125 C 2343.5859375 1094.83203125 2343.8701171875 1095.114990234375 2343.8701171875 1095.465942382813 C 2343.8701171875 1095.816040039063 2343.5859375 1096.099975585938 2343.236083984375 1096.099975585938 C 2342.885009765625 1096.099975585938 2342.60205078125 1095.816040039063 2342.60205078125 1095.465942382813 C 2342.60205078125 1095.114990234375 2342.885009765625 1094.83203125 2343.236083984375 1094.83203125 M 2356.10595703125 1091.026977539063 L 2357.513916015625 1091.026977539063 L 2356.593994140625 1093.328002929688 C 2356.4990234375 1093.56298828125 2356.554931640625 1093.83203125 2356.73388671875 1094.011962890625 L 2358.001953125 1095.280029296875 C 2358.1259765625 1095.403564453125 2358.2880859375 1095.465209960938 2358.450439453125 1095.465209960938 C 2358.612548828125 1095.465209960938 2358.77490234375 1095.403564453125 2358.89892578125 1095.280029296875 L 2360.1669921875 1094.011962890625 C 2360.346923828125 1093.83203125 2360.402099609375 1093.56298828125 2360.30810546875 1093.328002929688 L 2359.387939453125 1091.026977539063 L 2360.798095703125 1091.026977539063 C 2361.952880859375 1091.026977539063 2362.889892578125 1091.963989257813 2362.889892578125 1093.119995117188 L 2362.889892578125 1094.656982421875 C 2361.56640625 1095.617553710938 2360.009033203125 1096.097778320313 2358.451904296875 1096.097778320313 C 2356.89453125 1096.097778320313 2355.33740234375 1095.617553710938 2354.013916015625 1094.656982421875 L 2354.013916015625 1093.119995117188 C 2354.013916015625 1091.963989257813 2354.950927734375 1091.026977539063 2356.10595703125 1091.026977539063 M 2358.451904296875 1092.099975585938 L 2358.97607421875 1093.411010742188 L 2358.451904296875 1093.93505859375 L 2357.927978515625 1093.411010742188 L 2358.451904296875 1092.099975585938 M 2358.451904296875 1081.516967773438 C 2356.427978515625 1081.516967773438 2354.013916015625 1082.39697265625 2354.013916015625 1086.588989257813 C 2354.087890625 1087.845947265625 2354.696044921875 1089.011962890625 2355.68603515625 1089.7900390625 C 2354.0048828125 1089.998046875 2352.742919921875 1091.426025390625 2352.74609375 1093.119995117188 L 2352.74609375 1093.505004882813 C 2349.972900390625 1090.350952148438 2350.281982421875 1085.546997070313 2353.43603515625 1082.774047851563 C 2354.880126953125 1081.504272460938 2356.6708984375 1080.880615234375 2358.45361328125 1080.880615234375 C 2360.564208984375 1080.880615234375 2362.663818359375 1081.754150390625 2364.1669921875 1083.463989257813 C 2365.388916015625 1084.85400390625 2366.06201171875 1086.640991210938 2366.06005859375 1088.490966796875 C 2366.06005859375 1090.338989257813 2365.383056640625 1092.123046875 2364.157958984375 1093.506958007813 L 2364.157958984375 1093.119995117188 C 2364.162109375 1091.426025390625 2362.89990234375 1089.995971679688 2361.218017578125 1089.788940429688 C 2362.20703125 1089.010009765625 2362.81591796875 1087.845947265625 2362.889892578125 1086.588989257813 C 2362.889892578125 1082.39697265625 2360.47607421875 1081.516967773438 2358.451904296875 1081.516967773438 M 2335.626953125 1086.588989257813 C 2337.028076171875 1086.588989257813 2338.1640625 1087.724975585938 2338.1640625 1089.125 L 2338.1640625 1090.340942382813 C 2337.380615234375 1090.798950195313 2336.50390625 1091.027954101563 2335.62744140625 1091.027954101563 C 2334.7509765625 1091.027954101563 2333.87451171875 1090.798950195313 2333.091064453125 1090.340942382813 L 2333.091064453125 1089.125 C 2333.091064453125 1087.724975585938 2334.22705078125 1086.588989257813 2335.626953125 1086.588989257813 M 2359.325927734375 1085.571044921875 L 2361.592041015625 1086.930053710938 C 2361.337890625 1088.483032226563 2359.425048828125 1089.759033203125 2358.451904296875 1089.759033203125 C 2357.0380859375 1089.51904296875 2355.862060546875 1088.537963867188 2355.3701171875 1087.18994140625 C 2356.455078125 1087.100952148438 2358.4150390625 1086.77197265625 2359.325927734375 1085.571044921875 M 2335.628173828125 1081.5078125 C 2334.959228515625 1081.5078125 2334.29150390625 1081.770874023438 2333.79296875 1082.29296875 C 2332.85693359375 1083.27294921875 2332.85693359375 1084.81494140625 2333.79296875 1085.795043945313 C 2332.577880859375 1086.463012695313 2331.823974609375 1087.739013671875 2331.822998046875 1089.125 L 2331.822998046875 1089.298950195313 C 2329.970947265625 1087.197998046875 2330.172119140625 1083.993041992188 2332.27294921875 1082.140014648438 C 2333.237060546875 1081.289672851563 2334.434326171875 1080.871704101563 2335.626220703125 1080.871704101563 C 2337.03125 1080.871704101563 2338.429443359375 1081.452270507813 2339.431884765625 1082.588989257813 C 2340.2509765625 1083.51904296875 2340.701904296875 1084.715942382813 2340.699951171875 1085.954956054688 C 2340.698974609375 1087.18701171875 2340.248046875 1088.376953125 2339.431884765625 1089.298950195313 L 2339.431884765625 1089.125 C 2339.430908203125 1087.739013671875 2338.676025390625 1086.463012695313 2337.4619140625 1085.795043945313 C 2338.428955078125 1084.781982421875 2338.39111328125 1083.176025390625 2337.3779296875 1082.208984375 C 2336.88720703125 1081.740356445313 2336.257080078125 1081.5078125 2335.628173828125 1081.5078125 M 2335.626953125 1082.785034179688 C 2336.327880859375 1082.785034179688 2336.89501953125 1083.35302734375 2336.89501953125 1084.052978515625 C 2336.89501953125 1084.754028320313 2336.327880859375 1085.321044921875 2335.626953125 1085.321044921875 C 2334.927001953125 1085.321044921875 2334.35888671875 1084.754028320313 2334.35888671875 1084.052978515625 C 2334.35888671875 1083.35302734375 2334.927001953125 1082.785034179688 2335.626953125 1082.785034179688 M 2345.9619140625 1070.739013671875 L 2347.368896484375 1070.739013671875 L 2346.448974609375 1073.038940429688 C 2346.35498046875 1073.275024414063 2346.410888671875 1073.5439453125 2346.590087890625 1073.723022460938 L 2347.85791015625 1074.990966796875 C 2347.98193359375 1075.114990234375 2348.144287109375 1075.177001953125 2348.306396484375 1075.177001953125 C 2348.46875 1075.177001953125 2348.630859375 1075.114990234375 2348.7548828125 1074.990966796875 L 2350.02294921875 1073.723022460938 C 2350.201904296875 1073.5439453125 2350.258056640625 1073.275024414063 2350.1630859375 1073.038940429688 L 2349.243896484375 1070.739013671875 L 2350.654052734375 1070.739013671875 C 2351.80908203125 1070.739013671875 2352.74609375 1071.676025390625 2352.74609375 1072.8310546875 L 2352.74609375 1074.368041992188 C 2351.422607421875 1075.3291015625 2349.864990234375 1075.8095703125 2348.3076171875 1075.8095703125 C 2346.75048828125 1075.8095703125 2345.193115234375 1075.3291015625 2343.8701171875 1074.368041992188 L 2343.8701171875 1072.8310546875 C 2343.8701171875 1071.676025390625 2344.805908203125 1070.739013671875 2345.9619140625 1070.739013671875 M 2364.157958984375 1070.739013671875 C 2365.208984375 1070.739013671875 2366.06005859375 1071.590942382813 2366.06005859375 1072.640991210938 C 2366.06005859375 1073.692016601563 2365.208984375 1074.54296875 2364.157958984375 1074.54296875 C 2363.10791015625 1074.54296875 2362.256103515625 1073.692016601563 2362.256103515625 1072.640991210938 C 2362.256103515625 1071.590942382813 2363.10791015625 1070.739013671875 2364.157958984375 1070.739013671875 M 2348.30810546875 1071.81201171875 L 2348.8310546875 1073.121948242188 L 2348.30810546875 1073.64697265625 L 2347.783935546875 1073.121948242188 L 2348.30810546875 1071.81201171875 M 2348.30810546875 1061.22900390625 C 2346.282958984375 1061.22900390625 2343.8701171875 1062.109008789063 2343.8701171875 1066.301025390625 C 2343.943115234375 1067.557983398438 2344.552001953125 1068.723022460938 2345.5419921875 1069.501953125 C 2343.861083984375 1069.708984375 2342.59912109375 1071.137939453125 2342.60205078125 1072.8310546875 L 2342.60205078125 1073.217041015625 C 2339.822021484375 1070.06494140625 2340.1240234375 1065.258056640625 2343.27490234375 1062.47802734375 C 2344.72119140625 1061.202880859375 2346.51708984375 1060.576171875 2348.3046875 1060.576171875 C 2350.412841796875 1060.576171875 2352.51025390625 1061.446899414063 2354.013916015625 1063.151977539063 C 2356.550048828125 1066.027954101563 2356.550048828125 1070.340942382813 2354.013916015625 1073.217041015625 L 2354.013916015625 1072.8310546875 C 2354.01708984375 1071.136962890625 2352.7548828125 1069.70703125 2351.073974609375 1069.5 C 2352.06298828125 1068.722045898438 2352.672119140625 1067.557006835938 2352.74609375 1066.301025390625 C 2352.74609375 1062.109008789063 2350.33203125 1061.22900390625 2348.30810546875 1061.22900390625 M 2349.181884765625 1065.282958984375 L 2351.447998046875 1066.642944335938 C 2351.194091796875 1068.194946289063 2349.281005859375 1069.470947265625 2348.30810546875 1069.470947265625 C 2346.89404296875 1069.22998046875 2345.717041015625 1068.25 2345.22607421875 1066.901977539063 C 2346.31103515625 1066.81298828125 2348.27099609375 1066.483032226563 2349.181884765625 1065.282958984375 M 2365.426025390625 1060.594970703125 C 2365.77587890625 1060.594970703125 2366.06005859375 1060.879028320313 2366.06005859375 1061.22900390625 C 2366.06005859375 1061.578979492188 2365.77587890625 1061.863037109375 2365.426025390625 1061.863037109375 C 2365.075927734375 1061.863037109375 2364.7919921875 1061.578979492188 2364.7919921875 1061.22900390625 C 2364.7919921875 1060.879028320313 2365.075927734375 1060.594970703125 2365.426025390625 1060.594970703125 M 2331.18896484375 1060.594970703125 C 2331.5390625 1060.594970703125 2331.822998046875 1060.879028320313 2331.822998046875 1061.22900390625 C 2331.822998046875 1061.578979492188 2331.5390625 1061.863037109375 2331.18896484375 1061.863037109375 C 2330.839111328125 1061.863037109375 2330.554931640625 1061.578979492188 2330.554931640625 1061.22900390625 C 2330.554931640625 1060.879028320313 2330.839111328125 1060.594970703125 2331.18896484375 1060.594970703125 M 2358.441650390625 1099.38330078125 L 2358.441650390625 1097.465209960938 L 2358.441650390625 1097.465209960938 L 2358.441650390625 1099.38330078125 C 2355.83984375 1099.383178710938 2353.318115234375 1098.44287109375 2351.340576171875 1096.735717773438 C 2349.34326171875 1095.011474609375 2348.042724609375 1092.62158203125 2347.677978515625 1090.006103515625 C 2347.2763671875 1087.128295898438 2348.01953125 1084.265991210938 2349.770751953125 1081.94677734375 C 2350.858154296875 1080.506591796875 2352.253662109375 1079.382934570313 2353.844482421875 1078.641967773438 L 2353.248046875 1077.882934570313 C 2351.72705078125 1078.661010742188 2350.02734375 1079.07763671875 2348.310302734375 1079.07763671875 C 2346.49609375 1079.07763671875 2344.70458984375 1078.61376953125 2343.12109375 1077.750366210938 L 2341.156982421875 1079.714477539063 C 2341.57275390625 1080.082397460938 2341.952392578125 1080.492431640625 2342.289794921875 1080.939819335938 C 2343.209716796875 1082.160278320313 2343.7763671875 1083.609375 2343.927978515625 1085.13037109375 C 2344.198486328125 1087.844482421875 2343.129150390625 1090.388549804688 2341.259521484375 1092.104370117188 C 2341.473388671875 1091.978515625 2341.700927734375 1091.8720703125 2341.939697265625 1091.787231445313 C 2342.36279296875 1091.637939453125 2342.800048828125 1091.562744140625 2343.2431640625 1091.562744140625 C 2344.892333984375 1091.562744140625 2346.37060546875 1092.607543945313 2346.922119140625 1094.162719726563 C 2347.639404296875 1096.194580078125 2346.57177734375 1098.428344726563 2344.54296875 1099.144897460938 C 2344.1240234375 1099.29296875 2343.6865234375 1099.368286132813 2343.243408203125 1099.368286132813 C 2342.127685546875 1099.368286132813 2341.090576171875 1098.890380859375 2340.365478515625 1098.099975585938 L 2335.626953125 1098.099975585938 C 2334.174560546875 1098.099975585938 2332.992919921875 1096.91796875 2332.992919921875 1095.464965820313 L 2332.992919921875 1093.87060546875 C 2329.215576171875 1092.619384765625 2326.764404296875 1088.787963867188 2327.374267578125 1084.722412109375 C 2327.671630859375 1082.735961914063 2328.67578125 1080.923706054688 2330.2021484375 1079.620239257813 C 2331.712158203125 1078.33056640625 2333.6328125 1077.620361328125 2335.61083984375 1077.620361328125 C 2335.6728515625 1077.620361328125 2335.73486328125 1077.62109375 2335.797119140625 1077.622436523438 L 2339.235595703125 1074.183959960938 C 2338.560546875 1073.160278320313 2338.0625 1072.027221679688 2337.76513671875 1070.837036132813 L 2333.72509765625 1070.837036132813 C 2332.6865234375 1070.837036132813 2331.7421875 1070.22412109375 2331.3193359375 1069.275512695313 L 2329.24609375 1064.609985351563 C 2328.610107421875 1064.245727539063 2328.083251953125 1063.70556640625 2327.73486328125 1063.043090820313 C 2327.250732421875 1062.122192382813 2327.15380859375 1061.068115234375 2327.462158203125 1060.07470703125 C 2327.770751953125 1059.080078125 2328.4482421875 1058.265625 2329.369873046875 1057.781372070313 C 2329.925537109375 1057.488647460938 2330.552490234375 1057.333251953125 2331.18115234375 1057.333251953125 C 2332.633544921875 1057.333251953125 2333.955322265625 1058.131591796875 2334.630615234375 1059.416748046875 C 2335.308837890625 1060.703979492188 2335.190185546875 1062.2041015625 2334.45068359375 1063.348510742188 L 2335.437744140625 1065.568969726563 L 2337.7626953125 1065.568969726563 C 2338.219482421875 1063.732055664063 2339.15283203125 1062.030883789063 2340.47900390625 1060.653076171875 C 2341.5205078125 1059.571533203125 2342.746337890625 1058.73291015625 2344.122802734375 1058.160034179688 C 2345.451171875 1057.607177734375 2346.85693359375 1057.326904296875 2348.301025390625 1057.326904296875 C 2350.46533203125 1057.326904296875 2352.542724609375 1057.961059570313 2354.31103515625 1059.139892578125 C 2354.76953125 1058.786499023438 2355.328369140625 1058.594970703125 2355.916015625 1058.594970703125 L 2362.55224609375 1058.594970703125 C 2362.978271484375 1058.128295898438 2363.517333984375 1057.767456054688 2364.132568359375 1057.549682617188 C 2364.552978515625 1057.401123046875 2364.990478515625 1057.325805664063 2365.433837890625 1057.325805664063 C 2367.084228515625 1057.325805664063 2368.562744140625 1058.371826171875 2369.11279296875 1059.9287109375 C 2369.82958984375 1061.95703125 2368.762939453125 1064.190673828125 2366.734619140625 1064.907592773438 C 2366.31494140625 1065.056030273438 2365.87744140625 1065.131225585938 2365.434326171875 1065.131225585938 C 2364.318603515625 1065.131225585938 2363.281494140625 1064.653442382813 2362.556640625 1063.863037109375 L 2358.27294921875 1063.863037109375 C 2358.513427734375 1064.413940429688 2358.70751953125 1064.984130859375 2358.85302734375 1065.568969726563 L 2364.157958984375 1065.568969726563 C 2365.60693359375 1065.568969726563 2366.786376953125 1066.744995117188 2366.7919921875 1068.192626953125 C 2367.311279296875 1068.500366210938 2367.777099609375 1068.898315429688 2368.16259765625 1069.37060546875 C 2368.9140625 1070.290893554688 2369.327880859375 1071.452026367188 2369.327880859375 1072.640014648438 C 2369.327880859375 1075.490844726563 2367.009033203125 1077.81005859375 2364.158935546875 1077.81005859375 C 2361.306884765625 1077.81005859375 2358.988037109375 1075.4912109375 2358.988037109375 1072.640991210938 C 2358.98876953125 1072.021728515625 2359.1015625 1071.410522460938 2359.315185546875 1070.837036132813 L 2358.85205078125 1070.837036132813 C 2358.5322265625 1072.119140625 2357.98046875 1073.33349609375 2357.22509765625 1074.41748046875 L 2359.810791015625 1077.70849609375 C 2364.654541015625 1078.312255859375 2368.54248046875 1082.085205078125 2369.227783203125 1086.999755859375 C 2369.629638671875 1089.877807617188 2368.886474609375 1092.740112304688 2367.13525390625 1095.059204101563 C 2365.384033203125 1097.37841796875 2362.83447265625 1098.876708984375 2359.9560546875 1099.27783203125 C 2359.45458984375 1099.347778320313 2358.945068359375 1099.38330078125 2358.441650390625 1099.38330078125 Z M 2335.110107421875 1088.983276367188 C 2335.280517578125 1089.012939453125 2335.453369140625 1089.027954101563 2335.62744140625 1089.027954101563 C 2335.801513671875 1089.027954101563 2335.974609375 1089.012939453125 2336.14501953125 1088.983276367188 C 2336.08251953125 1088.756225585938 2335.8740234375 1088.588989257813 2335.626953125 1088.588989257813 C 2335.38037109375 1088.588989257813 2335.17236328125 1088.75634765625 2335.110107421875 1088.983276367188 Z"/></g><g class="c" transform="translate(2375.974 1057.773)"><circle class="e" cx="12.68" cy="12.68" r="12.68"/><circle class="g" cx="12.68" cy="12.68" r="13.68"/></g><path class="d" d="M2389.694,1069.341h4.148v1.85h-4.148v4.772h-2.048v-4.772h-4.179v-1.85h4.179v-4.4h2.048Z"/></g></svg>