<svg xmlns="http://www.w3.org/2000/svg" width="53.739" height="53.739" viewBox="0 0 53.739 53.739">
    <defs>
        <style>
            .cls-1acp{fill:url(#linear-gradient)}.cls-2acp,.cls-3acp{fill:#fff}.cls-2acp{font-size:12px;font-family:Roboto-Regular,Roboto}
        </style>
        <linearGradient id="linear-gradient" x2="1" y1=".5" y2=".5" gradientUnits="objectBoundingBox">
            <stop offset="0" stop-color="#009db8"/>
            <stop offset=".806" stop-color="#0083b8"/>
            <stop offset="1" stop-color="#007db8"/>
        </linearGradient>
    </defs>
    <g id="Group_579" data-name="Group 579" transform="translate(-2507.63 -708.63)">
        <rect id="Rectangle_185" width="53.739" height="53.739" class="cls-1acp" data-name="Rectangle 185" rx="4.641" transform="translate(2507.63 708.63)"/>
        <g id="Group_556" data-name="Group 556">
            <g id="Group_555" data-name="Group 555">
                <text id="Add" class="cls-2acp" transform="translate(2534.5 750.961)">
                    <tspan x="-10.705" y="0">Add</tspan>
                </text>
            </g>
            <path id="Path_410" d="M2534.393 736.473a.5.5 0 0 1-.481-.482v-7.667h-7.667a.5.5 0 0 1-.481-.48v-1.483a.5.5 0 0 1 .481-.48h7.667v-7.667a.5.5 0 0 1 .481-.482h1.482a.5.5 0 0 1 .481.482v7.667h7.666a.5.5 0 0 1 .482.48v1.483a.5.5 0 0 1-.482.48h-7.666v7.667a.5.5 0 0 1-.481.482z" class="cls-3acp" data-name="Path 410"/>
        </g>
    </g>
</svg>
