<svg xmlns="http://www.w3.org/2000/svg" width="15.782" height="16.514" viewBox="0 0 15.782 16.514">
<defs><style>.assign{fill:#7c7c7c !important;}</style></defs><g transform="translate(-965.218 -713.873)"><path class="assign" d="M970.979,724.955a3.179,3.179,0,0,0-1.7-.878,2.39,2.39,0,1,0-1.514,0,3.036,3.036,0,0,0-2.55,3.248.556.556,0,0,0,.556.543h5.5a.556.556,0,0,0,.556-.543A3.194,3.194,0,0,0,970.979,724.955Z"/><path class="assign" d="M980.146,721.621a3.173,3.173,0,0,0-1.7-.878,2.39,2.39,0,1,0-1.514,0,3.036,3.036,0,0,0-2.55,3.248.556.556,0,0,0,.556.543h5.5a.556.556,0,0,0,.556-.543A3.193,3.193,0,0,0,980.146,721.621Z"/><path class="assign" d="M967.547,718.893a.557.557,0,0,0,.775-.132,5.878,5.878,0,0,1,4.742-2.479l-.348.348a.556.556,0,0,0,.786.786l1.3-1.3a.556.556,0,0,0,0-.786l-1.3-1.3a.556.556,0,0,0-.786.786l.349.349a6.986,6.986,0,0,0-5.65,2.948A.556.556,0,0,0,967.547,718.893Z"/><path class="assign" d="M978.694,725.356a.556.556,0,0,0-.774.138,5.874,5.874,0,0,1-4.349,2.494l.357-.357a.556.556,0,0,0-.786-.786l-1.3,1.3a.556.556,0,0,0,0,.786l1.3,1.3a.556.556,0,0,0,.786-.786l-.337-.338a6.979,6.979,0,0,0,5.24-2.971A.556.556,0,0,0,978.694,725.356Z"/></g></svg>