<svg xmlns="http://www.w3.org/2000/svg" viewBox="0 0 21.14 20.97"><defs><style>.cls-1,.cls-2{fill:#9fa2a7;}.cls-1{opacity:0.2;}</style></defs><g id="Layer_2" data-name="Layer 2"><g id="Layer_1-2" data-name="Layer 1"><rect class="cls-1" width="20.97" height="20.97" rx="10.48"/><path class="cls-2" d="M15.64,5.57c-.51-.28-1.08.25-1.41.57-.77.74-1.41,1.61-2.14,2.39s-1.55,1.73-2.37,2.57a7.25,7.25,0,0,0-1.3,1.57,23.81,23.81,0,0,0-2.1-2c-.57-.43-1.51-.75-1.49.29,0,1.36,1.24,2.81,2.12,3.73a2.25,2.25,0,0,0,1.43.83c.69,0,1.4-.79,1.81-1.24.72-.79,1.31-1.67,2-2.47.86-1.06,1.75-2.1,2.59-3.18C15.29,7.92,17,6.27,15.64,5.57Zm5.5,5.28-.08,0a1,1,0,0,1-.22-.08h0Q20.93,10.73,21.14,10.85Z"/></g></g></svg>