<svg xmlns="http://www.w3.org/2000/svg" xmlns:xlink="http://www.w3.org/1999/xlink" viewBox="0 0 29.81 29.81"><defs><style>.cls-90{fill:#dedfe0;}.cls-91{fill:url(#linear-gradient);}</style><linearGradient id="linear-gradient" x1="6.87" y1="14.9" x2="22.94" y2="14.9" gradientUnits="userSpaceOnUse"><stop offset="0" stop-color="#009db8"/><stop offset="0.81" stop-color="#0084b8"/><stop offset="1" stop-color="#007db8"/></linearGradient></defs><g id="Layer_2" data-name="Layer 2"><g id="Layer_1-2" data-name="Layer 1"><rect class="cls-90" width="29.81" height="29.81" rx="14.9"/><path class="cls-91" d="M22.24,7.92c-.73-.4-1.54.36-2,.8-1.09,1.06-2,2.29-3,3.41s-2.2,2.45-3.38,3.65A10.08,10.08,0,0,0,12,18a35.45,35.45,0,0,0-3-2.9c-.81-.61-2.15-1.06-2.12.42.06,1.92,1.76,4,3,5.3a3.19,3.19,0,0,0,2,1.17c1,.05,2-1.12,2.56-1.76,1-1.11,1.87-2.37,2.82-3.51,1.23-1.51,2.48-3,3.68-4.52C21.73,11.26,24.1,8.92,22.24,7.92Z"/></g></g></svg>