<svg xmlns="http://www.w3.org/2000/svg" width="70" height="70" viewBox="0 0 70 70">
    <defs>
        <style>
            .cls-1ard{fill:#343a6e}.cls-2ard{fill:#484b7f}.cls-3ard{fill:#f9df73}.cls-4ard{fill:#f2ae5a}
        </style>
    </defs>
    <g id="Group_560" data-name="Group 560" transform="translate(-1421 -164)">
        <path id="Path_411" d="M1491 199a35.017 35.017 0 0 1-48.643 32.24 34.32 34.32 0 0 1-4.151-2.1A35 35 0 1 1 1491 199z" class="cls-1ard" data-name="Path 411"/>
        <path id="Path_412" d="M1485.268 193.268A29.268 29.268 0 1 1 1456 164a29.25 29.25 0 0 1 29.268 29.268z" class="cls-2ard" data-name="Path 412"/>
        <path id="Rectangle_187" d="M0 0h7.143v13.857H0z" class="cls-3ard" data-name="Rectangle 187" transform="translate(1451.714 218.324)"/>
        <path id="Rectangle_188" d="M0 0h3.571v13.857H0z" class="cls-4ard" data-name="Rectangle 188" transform="translate(1451.714 218.324)"/>
        <g id="Group_557" data-name="Group 557">
            <path id="Path_413" d="M1456 212.324a16.493 16.493 0 0 1-16.443-15.2l-2.2-28.059a2.008 2.008 0 0 1 2-2.165h33.283a2.008 2.008 0 0 1 2 2.165l-2.2 28.059a16.492 16.492 0 0 1-16.44 15.2z" class="cls-3ard" data-name="Path 413"/>
            <circle id="Ellipse_155" cx="6.5" cy="6.5" r="6.5" class="cls-3ard" data-name="Ellipse 155" transform="translate(1448.786 209.539)"/>
        </g>
        <g id="Group_558" data-name="Group 558">
            <path id="Path_414" d="M1441.826 200.5c-6.566 0-11.7-2.138-15.243-6.354-3.255-3.867-5.082-9.324-5.43-16.218a45.283 45.283 0 0 1 .439-9.133l.2-1.185h10.752l2.715 4.833h4.469v2.857h-6.142l-2.714-4.833h-6.629c-.422 3.683-1.176 15.078 4.527 21.846 2.98 3.536 7.371 5.33 13.051 5.33v2.857z" class="cls-4ard" data-name="Path 414"/>
            <path id="Path_415" d="M1453.057 209.931a6.17 6.17 0 0 0 .8.392 5.318 5.318 0 0 0-1.12 1.677 16.2 16.2 0 0 1-2.053-.553 16.494 16.494 0 0 1-11.128-14.327l-2.2-28.059a2.009 2.009 0 0 1 2-2.165h6.07l1.331 29.178c.301 6.526 2.861 11.88 6.3 13.857z" class="cls-4ard" data-name="Path 415"/>
            <path id="Path_416" d="M1455.485 222.536h-.2a6.5 6.5 0 0 1-2.229-12.608 6.243 6.243 0 0 0 .8.392 5.318 5.318 0 0 0-1.12 1.677 10.033 10.033 0 0 0-.792 4.039c.003 3.525 1.577 6.394 3.541 6.5z" class="cls-4ard" data-name="Path 416"/>
            <path id="Path_417" d="M1455.485 222.536c.174-.006.346-.017.514-.036a2.057 2.057 0 0 1-.4.039z" class="cls-4ard" data-name="Path 417"/>
            <path id="Path_418" d="M1473.794 229.144a35.029 35.029 0 0 1-35.588 0 5.32 5.32 0 0 1 4.9-3.248h25.782a5.32 5.32 0 0 1 4.906 3.248z" class="cls-4ard" data-name="Path 418"/>
        </g>
        <g id="Group_559" data-name="Group 559">
            <path id="Path_419" d="M1473.794 229.144a35.059 35.059 0 0 1-31.437 2.1v-.021a5.323 5.323 0 0 1 5.323-5.323h21.211a5.32 5.32 0 0 1 4.903 3.244z" class="cls-3ard" data-name="Path 419"/>
            <path id="Path_420" d="M1470.173 200.5v-2.857c5.68 0 10.071-1.794 13.051-5.33 5.7-6.768 4.949-18.163 4.527-21.846h-6.629l-2.714 4.833h-6.142v-2.857h4.47l2.714-4.833h10.75l.206 1.185c.114.658 2.7 16.211-4.992 25.351-3.546 4.216-8.675 6.354-15.241 6.354z" class="cls-3ard" data-name="Path 420"/>
        </g>
        <path id="Path_421" d="M1456 177.84l3.459 7.009 7.735 1.124-5.6 5.456 1.321 7.7-6.915-3.634-6.918 3.637 1.321-7.7-5.6-5.456 7.735-1.124z" class="cls-4ard" data-name="Path 421"/>
    </g>
</svg>
