<svg xmlns="http://www.w3.org/2000/svg" width="31.106" height="24.762" viewBox="0 0 31.106 24.762"><defs><style>.a{fill:#fff;}</style></defs><g transform="translate(-5792.697 -1641.006)"><path class="a" d="M5823.2,1650.892a.608.608,0,0,0-.608.608v2.165a2.256,2.256,0,0,1-2.253,2.253h-3.463a.608.608,0,0,0-.43.178l-4.2,4.2v-3.769a.608.608,0,0,0-.608-.608h-8.7a2.256,2.256,0,0,1-2.254-2.253v-9.191a2.256,2.256,0,0,1,2.254-2.253h17.4a2.256,2.256,0,0,1,2.253,2.253v2.165a.608.608,0,1,0,1.215,0v-2.165a3.472,3.472,0,0,0-3.468-3.468h-17.4a3.472,3.472,0,0,0-3.469,3.468v7.806h-4.422a2.353,2.353,0,0,0-2.35,2.35v5.6a2.353,2.353,0,0,0,2.35,2.351h1.858l3.011,3.011a.608.608,0,0,0,1.038-.429v-2.582h4.691a2.353,2.353,0,0,0,2.35-2.351v-3.095h3.034v4.628a.607.607,0,0,0,.375.561.593.593,0,0,0,.232.047.608.608,0,0,0,.43-.178l5.057-5.058h3.212a3.472,3.472,0,0,0,3.468-3.468V1651.5A.608.608,0,0,0,5823.2,1650.892Z"/><path class="a" d="M5817.56,1644.987h-11.847a.607.607,0,1,0,0,1.215h11.847a.607.607,0,0,0,0-1.215Z"/><path class="a" d="M5818.167,1648.876a.608.608,0,0,0-.607-.608h-11.847a.608.608,0,1,0,0,1.215h11.847A.607.607,0,0,0,5818.167,1648.876Z"/><path class="a" d="M5805.713,1651.549a.608.608,0,1,0,0,1.215h6.834a.608.608,0,1,0,0-1.215Z"/><path class="a" d="M5823.2,1648.462a.607.607,0,1,0,.607.608A.609.609,0,0,0,5823.2,1648.462Z"/></g></svg>