<svg xmlns="http://www.w3.org/2000/svg" width="20.801" height="18.667" viewBox="0 0 20.801 18.667"><defs><style>.a{fill:#f63b55;}.b{fill:#fff;}</style></defs><g transform="translate(-742.045 -434)"><path class="a" d="M747.125,444.216l2.2-6.142a.41.41,0,0,1,.367-.271.427.427,0,0,1,.071,0,.411.411,0,0,1,.355.371l.654,7.639L752,441.4a.407.407,0,0,1,.4-.3h0a.41.41,0,0,1,.39.317l.681,2.958,1.164-4.891a.411.411,0,0,1,.381-.314h.037a.411.411,0,0,1,.386.352l.868,6.193.39-1.258a.409.409,0,0,1,.391-.289h4.376a7.539,7.539,0,0,0,1.252-2.856,6.329,6.329,0,0,0-.97-5.025,6.249,6.249,0,0,0-4.592-2.26c-.2-.02-.387-.03-.57-.03a6.683,6.683,0,0,0-4.142,1.49A6.68,6.68,0,0,0,748.3,434c-.185,0-.368.01-.571.03a6.246,6.246,0,0,0-4.592,2.26,6.329,6.329,0,0,0-.97,5.025,7.6,7.6,0,0,0,1.281,2.9h3.672Z"/><path class="a" d="M756.162,448h-.035a.412.412,0,0,1-.373-.351l-.822-5.86-1.066,4.48a.409.409,0,0,1-.4.315h0a.453.453,0,0,1-.074-.007.411.411,0,0,1-.314-.276l-.01-.035-.712-3.088-1.4,5.051a.409.409,0,0,1-.394.3h-.038a.411.411,0,0,1-.37-.373l-.688-8.037-1.668,4.65a.409.409,0,0,1-.385.271h-3.371A45.692,45.692,0,0,0,748.9,450.1s1.393,1.4,1.81,1.756a2.258,2.258,0,0,0,3.47,0c.418-.358,1.81-1.756,1.81-1.756a45.168,45.168,0,0,0,4.893-5.108h-3.491l-.842,2.72a.47.47,0,0,1-.026.066A.412.412,0,0,1,756.162,448Z"/><path class="b" d="M757.091,444.171a.409.409,0,0,0-.391.289l-.39,1.258h0l-.868-6.193a.411.411,0,0,0-.386-.352h-.037a.411.411,0,0,0-.381.314l-1.164,4.891h0l-.681-2.958A.409.409,0,0,0,752,441.4l-1.224,4.413h0l-.654-7.639a.411.411,0,0,0-.355-.371.427.427,0,0,0-.071,0,.41.41,0,0,0-.367.271l-2.2,6.142h-3.672l.589.819h3.371a.409.409,0,0,0,.385-.271l1.668-4.65.688,8.037a.411.411,0,0,0,.37.373h.038a.409.409,0,0,0,.394-.3l1.4-5.051.712,3.088.01.035a.411.411,0,0,0,.314.276.453.453,0,0,0,.074.007h0a.409.409,0,0,0,.4-.315l1.066-4.48.822,5.86a.412.412,0,0,0,.373.351h.035a.412.412,0,0,0,.362-.222.47.47,0,0,0,.026-.066l.842-2.72h3.491l.584-.819Z"/></g></svg>