<svg class="software_icon" xmlns="http://www.w3.org/2000/svg" width="16.384" height="15.892" viewBox="0 0 16.384 15.892"><defs>
<style>.main{fill:#007db8;}.main1{fill:#fff;}.c{fill:red;}.cls-esc{fill:red;}</style>
</defs><g transform="translate(-175.922 -330.276)">
<path class="main" d="M192.3,343.2v-2.686a2.587,2.587,0,0,0-.286-1.142l-1.71-2.914a1.105,1.105,0,0,0-.971-.572h-2.571a.757.757,0,0,0-.743.743v6.114h-.571v-8A1.146,1.146,0,0,0,184.3,333.6h-8v10.284h1.714a2.331,2.331,0,0,1,2.228-1.714,2.281,2.281,0,0,1,2.229,1.714h4.171a2.33,2.33,0,0,1,2.228-1.714,2.167,2.167,0,0,1,2,1.257.884.884,0,0,0,.738.457A.658.658,0,0,0,192.3,343.2Zm-5.138-3.314v-2.857h2.285l1.657,2.857Z"/>
<path class="main" d="M188.876,342.74a1.714,1.714,0,1,0,1.714,1.714A1.683,1.683,0,0,0,188.876,342.74Zm0,2.514a.8.8,0,1,1,.8-.8A.781.781,0,0,1,188.876,345.254Z"/>
<path class="main" d="M180.306,342.74a1.714,1.714,0,1,0,1.714,1.714A1.683,1.683,0,0,0,180.306,342.74Zm0,2.514a.8.8,0,1,1,.8-.8A.781.781,0,0,1,180.306,345.254Z"/>
<circle class="main" cx="0.286" cy="0.286" r="0.286" transform="translate(180.02 344.168)"/>
<circle class="main" cx="0.286" cy="0.286" r="0.286" transform="translate(188.59 344.168)"/>
<path class="main1" d="M180.88,330.276A4.939,4.939,0,1,0,185.8,335.2,4.958,4.958,0,0,0,180.88,330.276Z"/>
<path class="cls-esc" d="M180.876,331.321a3.894,3.894,0,1,0,3.878,3.878A3.909,3.909,0,0,0,180.876,331.321Z"/>
<path class="main1" d="M179.248,337.552a.757.757,0,0,1-.534-1.292l1.063-1.061-1.063-1.063a.758.758,0,0,1,0-1.07.758.758,0,0,1,1.07,0l1.089,1.066,1.065-1.065a.756.756,0,1,1,1.069,1.069l-1.062,1.063,1.062,1.062a.756.756,0,0,1-.534,1.291.758.758,0,0,1-.535-.22l-1.065-1.066-1.091,1.068A.759.759,0,0,1,179.248,337.552Z"/></g></svg>