<svg xmlns="http://www.w3.org/2000/svg" width="12.141" height="12" viewBox="0 0 12.141 12">
<defs><style>.user_icon{fill:#007db8;}</style></defs>
<g transform="translate(-501.934 -258)"><path class="user_icon" d="M508,264.4a2.956,2.956,0,0,0,2.7-3.2c0-2.4-1.2-3.2-2.7-3.2s-2.7.7-2.7,3.2A3.019,3.019,0,0,0,508,264.4Z"/><path class="user_icon" d="M514,269l-1.4-3.1c-.1-.1-.2-.3-.3-.3l-2.1-1.1h-.1a3.207,3.207,0,0,1-4,0H506l-2.1,1.1-.3.3L502,269a.616.616,0,0,0,.1.7.6.6,0,0,0,.6.3h10.7a.864.864,0,0,0,.6-.3A.854.854,0,0,0,514,269Z"/></g></svg>