<svg xmlns="http://www.w3.org/2000/svg" width="15" height="22.5" viewBox="0 0 15 22.5">
    <defs>
        <style>
            .cls-1{opacity:.7}.cls-2{fill:#fff}
        </style>
    </defs>
    <g id="watchlist-left-menu" class="cls-1" transform="translate(-18.5 -143.521)">
        <g id="Group_17" data-name="Group 17">
            <g id="Group_16" data-name="Group 16">
                <g id="Group_15" data-name="Group 15">
                    <g id="Group_10" data-name="Group 10">
                        <g id="watch">
                            <g id="Group_9" data-name="Group 9">
                                <path id="Path_4" d="M33.5 154.771a7.767 7.767 0 0 0-2.812-5.907l-.938-5.343h-7.5l-.937 5.343a7.607 7.607 0 0 0 0 11.813l.937 5.344h7.5l.938-5.344a7.765 7.765 0 0 0 2.812-5.906zm-14.25 0a6.75 6.75 0 1 1 6.75 6.75 6.77 6.77 0 0 1-6.75-6.75z" class="cls-2" data-name="Path 4"/>
                            </g>
                        </g>
                    </g>
                    <g id="Group_14" data-name="Group 14">
                        <g id="Group_11" data-name="Group 11">
                            <path id="Path_5" d="M29.75 152.333h-7.5a.563.563 0 0 1 0-1.125h7.5a.563.563 0 1 1 0 1.125z" class="cls-2" data-name="Path 5"/>
                        </g>
                        <g id="Group_12" data-name="Group 12">
                            <path id="Path_6" d="M29.75 155.333h-7.5a.563.563 0 0 1 0-1.125h7.5a.563.563 0 1 1 0 1.125z" class="cls-2" data-name="Path 6"/>
                        </g>
                        <g id="Group_13" data-name="Group 13">
                            <path id="Path_7" d="M26.938 158.333H22.25a.563.563 0 0 1 0-1.125h4.688a.563.563 0 0 1 0 1.125z" class="cls-2" data-name="Path 7"/>
                        </g>
                    </g>
                </g>
            </g>
        </g>
    </g>
</svg>
