<svg xmlns="http://www.w3.org/2000/svg" width="44.7" height="47.9" viewBox="0 0 44.7 47.9">
  <g id="Group_10972" data-name="Group 10972" transform="translate(-941.3 -375.1)">
    <path id="Path_7580" data-name="Path 7580" d="M984.3,383.3H943a1.685,1.685,0,0,0-1.7,1.7v24.8a1.686,1.686,0,0,0,1.7,1.7h41.3a1.685,1.685,0,0,0,1.7-1.7V385A1.752,1.752,0,0,0,984.3,383.3Z" fill="#0099b8"/>
    <path id="Path_7581" data-name="Path 7581" d="M944.6,380h38v26.4h-38Z" fill="#ecedef"/>
    <path id="Path_7582" data-name="Path 7582" d="M944.6,389.1v17.4h18.2C952.8,406.5,944.6,398.7,944.6,389.1Z" fill="#abbac2"/>
    <path id="Path_7583" data-name="Path 7583" d="M981,375.1H946.3a1.685,1.685,0,0,0-1.7,1.7v3.3h38v-3.3A1.55,1.55,0,0,0,981,375.1Z" fill="#007eb8"/>
    <path id="Path_7584" data-name="Path 7584" d="M974.7,399.9a8.488,8.488,0,0,0-.9-2.2l3.3-3.3-4.7-4.7-3.3,3.3a8.488,8.488,0,0,0-2.2-.9v-4.6h-6.6v4.6a8.489,8.489,0,0,0-2.2.9l-3.3-3.3-4.7,4.7,3.3,3.3a8.488,8.488,0,0,0-.9,2.2H948v6.6h31.4v-6.6Z" fill="#ffa733"/>
    <path id="Path_7585" data-name="Path 7585" d="M963.7,396.6a6.594,6.594,0,0,0-6.6,6.6,6.294,6.294,0,0,0,.9,3.3h11.4a6.294,6.294,0,0,0,.9-3.3A6.594,6.594,0,0,0,963.7,396.6Z" fill="#ffc119"/>
    <path id="Path_7586" data-name="Path 7586" d="M958.7,411.4h9.9V418h-9.9Z" fill="#a7a9ac"/>
    <path id="Path_7587" data-name="Path 7587" d="M952.1,418a1.685,1.685,0,0,0-1.7,1.7V423h26.4v-3.3a1.686,1.686,0,0,0-1.7-1.7Z" fill="#007eb8"/>
    <path id="Path_7588" data-name="Path 7588" d="M963.7,398.2a5,5,0,0,0-5,4.9,5.069,5.069,0,0,0,1.3,3.3h7.4a4.928,4.928,0,0,0-.4-7A5.547,5.547,0,0,0,963.7,398.2Z" fill="#fff"/>
    <path id="Path_7589" data-name="Path 7589" d="M958.7,411.4h9.9v2.5h-9.9Z" fill="#939598"/>
    <path id="Path_7590" data-name="Path 7590" d="M947.1,376.7h1.7v1.7h-1.7Z" fill="#f1f2f2"/>
    <path id="Path_7591" data-name="Path 7591" d="M950.4,376.7h1.7v1.7h-1.7Z" fill="#f1f2f2"/>
    <path id="Path_7592" data-name="Path 7592" d="M953.7,376.7h1.7v1.7h-1.7Z" fill="#f1f2f2"/>
    <g id="Group_10971" data-name="Group 10971">
      <path id="Path_7593" data-name="Path 7593" d="M962.8,389.9h1.7v1.7h-1.7Z" fill="#ee8700"/>
      <path id="Path_7594" data-name="Path 7594" d="M953.7,394.4l1.2-1.2,1.2,1.2-1.2,1.2Z" fill="#ee8700"/>
      <path id="Path_7595" data-name="Path 7595" d="M950.4,402.3h1.7V404h-1.7Z" fill="#ee8700"/>
      <path id="Path_7596" data-name="Path 7596" d="M975.2,402.3h1.7V404h-1.7Z" fill="#ee8700"/>
      <path id="Path_7597" data-name="Path 7597" d="M971.2,394.4l1.2-1.2,1.2,1.2-1.2,1.2Z" fill="#ee8700"/>
    </g>
  </g>
</svg>
