<svg xmlns="http://www.w3.org/2000/svg" width="44.015" height="45.9" viewBox="0 0 44.015 45.9">
  <g id="Group_10937" data-name="Group 10937" transform="translate(-522.7 -376)">
    <g id="Group_10934" data-name="Group 10934">
      <path id="Path_7506" data-name="Path 7506" d="M545.5,376.1H525.7a3.009,3.009,0,0,0-3,3v21.8a3.009,3.009,0,0,0,3,3h19.8a3.009,3.009,0,0,0,3-3V379A2.989,2.989,0,0,0,545.5,376.1Z" fill="#0099b8"/>
      <path id="Path_7507" data-name="Path 7507" d="M525.7,400.8V379a3.009,3.009,0,0,1,3-3h-3a3.009,3.009,0,0,0-3,3v21.8a3.009,3.009,0,0,0,3,3h3A2.946,2.946,0,0,1,525.7,400.8Z" fill="#007eb8"/>
      <path id="Path_7508" data-name="Path 7508" d="M535.6,380a9.9,9.9,0,1,0,9.9,9.9A9.859,9.859,0,0,0,535.6,380Z" fill="#c6cacf"/>
      <path id="Path_7509" data-name="Path 7509" d="M535.6,382a7.9,7.9,0,1,0,7.9,7.9A7.917,7.917,0,0,0,535.6,382Z" fill="#ecedef"/>
      <g id="Group_10933" data-name="Group 10933">
        <path id="Path_7510" data-name="Path 7510" d="M535.6,385a1,1,0,0,0,1-1v-3.9h-2V384A1.075,1.075,0,0,0,535.6,385Z" fill="#a1a7af"/>
        <path id="Path_7511" data-name="Path 7511" d="M535.6,394.9a1,1,0,0,0-1,1v3.9h2v-3.9A1,1,0,0,0,535.6,394.9Z" fill="#a1a7af"/>
        <path id="Path_7512" data-name="Path 7512" d="M545.4,388.9h-3.9a1,1,0,0,0-1,1,.945.945,0,0,0,1,1h3.9v-1A3.334,3.334,0,0,0,545.4,388.9Z" fill="#a1a7af"/>
        <path id="Path_7513" data-name="Path 7513" d="M530.6,389.9a1,1,0,0,0-1-1h-3.9v2h3.9A.945.945,0,0,0,530.6,389.9Z" fill="#a1a7af"/>
      </g>
      <path id="Path_7514" data-name="Path 7514" d="M535.6,390.9a1.421,1.421,0,0,1-.6-.2l-4-3a1,1,0,1,1,1.2-1.6l3.3,2.5,1.4-1.4a.99.99,0,0,1,1.4,1.4l-2,2A.908.908,0,0,1,535.6,390.9Z" fill="#fcb73f"/>
    </g>
    <g id="Group_10936" data-name="Group 10936">
      <path id="Path_7515" data-name="Path 7515" d="M555.3,391.9c-2,0-3.5-1.1-3.5-2.5s1.5-2.5,3.5-2.5,3.5,1.1,3.5,2.5S557.2,391.9,555.3,391.9Zm0-3.9c-1.3,0-2.4.7-2.4,1.4s1.1,1.4,2.4,1.4,2.4-.7,2.4-1.4S556.5,388,555.3,388Z" fill="#a1a7af"/>
      <path id="Path_7516" data-name="Path 7516" d="M565.8,390.2H544.9a.9.9,0,0,0-.9.9V421a.9.9,0,0,0,.9.9h20.9a.9.9,0,0,0,.9-.9V391.1C566.8,390.6,566.4,390.2,565.8,390.2Z" fill="#fcb73f"/>
      <rect id="Rectangle_3490" data-name="Rectangle 3490" width="18.8" height="27.2" transform="translate(545.9 392.7)" fill="#ebf0f3"/>
      <g id="Group_10935" data-name="Group 10935">
        <rect id="Rectangle_3491" data-name="Rectangle 3491" width="14.5" height="1.1" transform="translate(548 397.3)" fill="#d5d6db"/>
        <rect id="Rectangle_3492" data-name="Rectangle 3492" width="14.5" height="1.1" transform="translate(548 400.2)" fill="#d5d6db"/>
        <rect id="Rectangle_3493" data-name="Rectangle 3493" width="14.5" height="1.1" transform="translate(548 403.1)" fill="#d5d6db"/>
        <rect id="Rectangle_3494" data-name="Rectangle 3494" width="14.5" height="1.1" transform="translate(548 406)" fill="#d5d6db"/>
        <rect id="Rectangle_3495" data-name="Rectangle 3495" width="14.5" height="1.1" transform="translate(548 408.8)" fill="#d5d6db"/>
        <rect id="Rectangle_3496" data-name="Rectangle 3496" width="14.5" height="1.1" transform="translate(548 411.7)" fill="#d5d6db"/>
        <rect id="Rectangle_3497" data-name="Rectangle 3497" width="14.5" height="1.1" transform="translate(548 414.6)" fill="#d5d6db"/>
      </g>
      <path id="Path_7517" data-name="Path 7517" d="M549.3,393v-1.5a2.006,2.006,0,0,1,2-2h7.8a2.006,2.006,0,0,1,2,2V393" fill="#a1a7af"/>
    </g>
  </g>
</svg>
