<svg xmlns="http://www.w3.org/2000/svg" width="43.9" height="43.9" viewBox="0 0 43.9 43.9">
  <g id="Group_10963" data-name="Group 10963" transform="translate(-103.3 -377.1)">
    <circle id="Ellipse_720" data-name="Ellipse 720" cx="21" cy="21" r="21" transform="translate(105.2 379)" fill="#ebf0f3"/>
    <path id="Path_7522" data-name="Path 7522" d="M124,397.8a8.625,8.625,0,0,1,6.1-2.5,8.308,8.308,0,0,1,4.4,1.2V381.7H103.3v27.2a.9.9,0,0,0,.9.9h19.7A8.6,8.6,0,0,1,124,397.8Z" fill="#fff"/>
    <path id="Path_7523" data-name="Path 7523" d="M105.2,408.9V381.7h-1.9v27.2a.9.9,0,0,0,.9.9h1.9A1.055,1.055,0,0,1,105.2,408.9Z" fill="#c3ddf4"/>
    <path id="Path_7524" data-name="Path 7524" d="M134,377.1H103.8a.472.472,0,0,0-.5.5V382h31.2v-4.4A.472.472,0,0,0,134,377.1Z" fill="#007eb8"/>
    <path id="Path_7525" data-name="Path 7525" d="M105.7,377.1h-1.9a.472.472,0,0,0-.5.5V382h1.9v-4.4A.536.536,0,0,1,105.7,377.1Z" fill="#007eb8"/>
    <path id="Path_7526" data-name="Path 7526" d="M116.9,392.4a.43.43,0,0,1-.4.4h-9.6a.43.43,0,0,1-.4-.4v-6.9a.43.43,0,0,1,.4-.4h9.6a.43.43,0,0,1,.4.4v6.9Z" fill="#69cdff"/>
    <path id="Path_7527" data-name="Path 7527" d="M108.4,392.4v-6.9a.43.43,0,0,1,.4-.4h-1.9a.43.43,0,0,0-.4.4v6.9a.43.43,0,0,0,.4.4h1.9A.43.43,0,0,1,108.4,392.4Z" fill="#52bbef"/>
    <path id="Path_7528" data-name="Path 7528" d="M121.9,401.2h-15a.43.43,0,0,0-.4.4v4.1a.43.43,0,0,0,.4.4h14.9A9.1,9.1,0,0,1,121.9,401.2Z" fill="#ff9518"/>
    <path id="Path_7529" data-name="Path 7529" d="M108.4,405.8v-4.1a.43.43,0,0,1,.4-.4h-1.9a.43.43,0,0,0-.4.4v4.1a.43.43,0,0,0,.4.4h1.9A.43.43,0,0,1,108.4,405.8Z" fill="#ef8318"/>
    <path id="Path_7530" data-name="Path 7530" d="M121.9,401.2h-3.1v5h3A9.451,9.451,0,0,1,121.9,401.2Z" fill="#ffd00d"/>
    <g id="Group_10961" data-name="Group 10961">
      <path id="Path_7531" data-name="Path 7531" d="M130.8,385.8H120.3a.576.576,0,0,1-.6-.6.645.645,0,0,1,.6-.6h10.5a.6.6,0,0,1,0,1.2Z" fill="#ecedef"/>
      <path id="Path_7532" data-name="Path 7532" d="M130.8,388.3H120.3a.576.576,0,0,1-.6-.6.645.645,0,0,1,.6-.6h10.5a.6.6,0,0,1,0,1.2Z" fill="#ecedef"/>
      <path id="Path_7533" data-name="Path 7533" d="M130.8,390.9H120.3a.576.576,0,0,1-.6-.6.645.645,0,0,1,.6-.6h10.5a.6.6,0,0,1,0,1.2Z" fill="#ecedef"/>
      <path id="Path_7534" data-name="Path 7534" d="M130.8,393.5H120.3a.6.6,0,0,1,0-1.2h10.5a.6.6,0,1,1,0,1.2Z" fill="#ecedef"/>
      <path id="Path_7535" data-name="Path 7535" d="M129,395.4H106.5a.576.576,0,0,0-.6.6.645.645,0,0,0,.6.6h19A8.1,8.1,0,0,1,129,395.4Z" fill="#ecedef"/>
      <path id="Path_7536" data-name="Path 7536" d="M123.9,398H106.5a.576.576,0,0,0-.6.6.645.645,0,0,0,.6.6h16.4A5.3,5.3,0,0,1,123.9,398Z" fill="#ecedef"/>
    </g>
    <path id="Path_7537" data-name="Path 7537" d="M106.3,380c-.2,0-.3-.1-.5-.2a.764.764,0,0,1-.2-.5c0-.2.1-.3.2-.5a.764.764,0,0,1,.5-.2c.2,0,.3.1.5.2a.764.764,0,0,1,.2.5c0,.2-.1.3-.2.5A.646.646,0,0,1,106.3,380Z" fill="#e26693"/>
    <path id="Path_7538" data-name="Path 7538" d="M108.4,380c-.2,0-.3-.1-.5-.2a.764.764,0,0,1-.2-.5c0-.2.1-.3.2-.5a.764.764,0,0,1,.5-.2c.2,0,.3.1.5.2a.764.764,0,0,1,.2.5c0,.2-.1.3-.2.5A.551.551,0,0,1,108.4,380Z" fill="#ffaf10"/>
    <path id="Path_7539" data-name="Path 7539" d="M110.5,380c-.2,0-.3-.1-.5-.2a.764.764,0,0,1-.2-.5c0-.2.1-.3.2-.5a.764.764,0,0,1,.5-.2c.2,0,.3.1.5.2a.764.764,0,0,1,.2.5c0,.2-.1.3-.2.5A.551.551,0,0,1,110.5,380Z" fill="#37c47a"/>
    <path id="Path_7540" data-name="Path 7540" d="M138.4,410.5l-1.8,1.8,3.5,3.5c.6-.6,1.2-1.1,1.8-1.8Z" fill="#0099b8"/>
    <path id="Path_7541" data-name="Path 7541" d="M139.1,409.4l-1.5-1.5a8.839,8.839,0,0,1-3.5,3.5l1.5,1.5a.375.375,0,0,0,.6,0l2.9-2.9A.375.375,0,0,0,139.1,409.4Z" fill="#007eb8"/>
    <path id="Path_7542" data-name="Path 7542" d="M136.6,411.9l-1.2-1.2a8.341,8.341,0,0,1-1.2.8l1.5,1.5a.375.375,0,0,0,.6,0l1-1A.616.616,0,0,1,136.6,411.9Z" fill="#007eb8"/>
    <path id="Path_7543" data-name="Path 7543" d="M136.3,397.7a8.768,8.768,0,1,1-12.4,0A8.812,8.812,0,0,1,136.3,397.7Z" fill="#0099b8"/>
    <path id="Path_7544" data-name="Path 7544" d="M134.4,408.2a6.152,6.152,0,1,1,0-8.7A6.156,6.156,0,0,1,134.4,408.2Z" fill="#ecedef"/>
    <path id="Path_7545" data-name="Path 7545" d="M134.4,408.2a4.35,4.35,0,0,0,.6-.7,6.15,6.15,0,0,1-8.6-8.6c-.2.2-.5.4-.7.6a6.152,6.152,0,0,0,8.7,8.7Z" fill="#c6cacf"/>
    <path id="Path_7546" data-name="Path 7546" d="M134,377.1H113.2V382h21.2v-4.4C134.5,377.3,134.3,377.1,134,377.1Z" fill="#0099b8"/>
    <g id="Group_10962" data-name="Group 10962">
      <circle id="Ellipse_721" data-name="Ellipse 721" cx="1" cy="1" r="1" transform="translate(130.2 398.8)" fill="#d9eafc"/>
      <circle id="Ellipse_722" data-name="Ellipse 722" cx="0.7" cy="0.7" r="0.7" transform="translate(132.6 400.1)" fill="#d9eafc"/>
    </g>
  </g>
</svg>
