<svg xmlns="http://www.w3.org/2000/svg" width="35.9" height="45.9" viewBox="0 0 35.9 45.9">
  <g id="Group_10970" data-name="Group 10970" transform="translate(-736.1 -376.1)">
    <path id="Path_7563" data-name="Path 7563" d="M737.5,378.9h27a1.367,1.367,0,0,1,1.4,1.4v34.8a2.112,2.112,0,0,1-2.1,2.1H737.5a1.367,1.367,0,0,1-1.4-1.4V380.3A1.43,1.43,0,0,1,737.5,378.9Z" fill="#ecedef"/>
    <path id="Path_7564" data-name="Path 7564" d="M768.8,387.4h-8.5l-4.3,2.8v-2.8h-1.4a2.112,2.112,0,0,1-2.1-2.1v-7.1a2.112,2.112,0,0,1,2.1-2.1h14.2a2.112,2.112,0,0,1,2.1,2.1v7.1A2.112,2.112,0,0,1,768.8,387.4Z" fill="#ffc119"/>
    <path id="Path_7565" data-name="Path 7565" d="M766.6,383.2v-4.3h-1.4v4.3h-1.4V381h-1.4v2.1H761v-3.6h-1.4v3.6h-1.4V381h-1.4v2.1h-1.4v1.4h12.8v-1.4h-1.6Z" fill="#d18d29"/>
    <path id="Path_7566" data-name="Path 7566" d="M749.6,408.7a7.127,7.127,0,0,0,7.1-7.1h-7.1Z" fill="#ffc119"/>
    <path id="Path_7567" data-name="Path 7567" d="M746.8,391.7a7.1,7.1,0,0,0,0,14.2v-7.1h7.1A7.127,7.127,0,0,0,746.8,391.7Z" fill="#42c25e"/>
    <g id="Group_10969" data-name="Group 10969">
      <path id="Path_7568" data-name="Path 7568" d="M760.2,409.4h-3.6a.764.764,0,0,1-.5-.2l-4.3-4.3,1-1,4.1,4.1h3.3Z" fill="#0093ba"/>
      <path id="Path_7569" data-name="Path 7569" d="M761.7,408h1.4v1.4h-1.4Z" fill="#0093ba"/>
      <path id="Path_7570" data-name="Path 7570" d="M748.2,394.5h9.9v1.4h-9.9Z" fill="#0093ba"/>
    </g>
    <path id="Path_7571" data-name="Path 7571" d="M743.2,381.8h6.4v1.4h-6.4Z" fill="#abbac2"/>
    <path id="Path_7572" data-name="Path 7572" d="M738.9,384.6h10.7V386H738.9Z" fill="#abbac2"/>
    <path id="Path_7573" data-name="Path 7573" d="M738.9,387.4h7.8v1.4h-7.8Z" fill="#abbac2"/>
    <path id="Path_7574" data-name="Path 7574" d="M768.1,412.3h1.4v1.4h-1.4Z" fill="#d7e6eb"/>
    <path id="Path_7575" data-name="Path 7575" d="M769.2,417.8l-1.4,1.4,2.8,2.8a9.267,9.267,0,0,0,1.4-1.4Z" fill="#0099b8"/>
    <path id="Path_7576" data-name="Path 7576" d="M769.8,417l-1.2-1.2a7.071,7.071,0,0,1-2.8,2.8l1.2,1.2a.446.446,0,0,0,.5,0l2.3-2.3A.454.454,0,0,0,769.8,417Z" fill="#007eb8"/>
    <path id="Path_7577" data-name="Path 7577" d="M767.5,407.7a6.93,6.93,0,1,1-9.8,0A6.941,6.941,0,0,1,767.5,407.7Z" fill="#0099b8"/>
    <path id="Path_7578" data-name="Path 7578" d="M766.1,416.1a4.879,4.879,0,1,1,0-6.9A4.889,4.889,0,0,1,766.1,416.1Z" fill="#ecedef"/>
    <path id="Path_7579" data-name="Path 7579" d="M766.1,416.1c.2-.2.3-.4.5-.5a4.754,4.754,0,0,1-6.3-.5,4.868,4.868,0,0,1-.5-6.3,1.2,1.2,0,0,0-.5.5,4.809,4.809,0,1,0,6.8,6.8Z" fill="#c6cacf"/>
  </g>
</svg>
