<svg xmlns="http://www.w3.org/2000/svg" width="94.667" height="108.191" viewBox="0 0 94.667 108.191"><defs><style>.p{fill:#e2e5e7;}.q{fill:#b0b7bd;}.r{fill:#cad1d8;}.s{fill:#f15642;}.t{fill:#fff;}</style></defs><g transform="translate(-2340.333 -917.349)"><path class="p" d="M2360.619,917.349a6.782,6.782,0,0,0-6.762,6.762v94.667a6.782,6.782,0,0,0,6.762,6.762h67.619a6.782,6.782,0,0,0,6.762-6.762V944.4l-27.048-27.048Z"/><path class="q" d="M2414.714,944.4H2435l-27.048-27.048v20.286A6.782,6.782,0,0,0,2414.714,944.4Z"/><path class="r" d="M2435,964.683,2414.714,944.4H2435Z"/><path class="s" d="M2421.476,1005.254a3.391,3.391,0,0,1-3.381,3.381h-74.381a3.392,3.392,0,0,1-3.381-3.381v-33.81a3.392,3.392,0,0,1,3.381-3.381h74.381a3.391,3.391,0,0,1,3.381,3.381Z"/><path class="t" d="M2355.071,981.408a1.86,1.86,0,0,1,1.836-1.866h6.244a6.759,6.759,0,0,1,0,13.517h-4.513v3.57a1.7,1.7,0,0,1-1.731,1.863,1.821,1.821,0,0,1-1.836-1.863Zm3.567,1.538v6.735h4.513a3.37,3.37,0,0,0,0-6.735Z"/><path class="t" d="M2375.127,998.492a1.692,1.692,0,0,1-1.867-1.674V981.462a1.839,1.839,0,0,1,1.867-1.677h6.19c12.354,0,12.084,18.707.244,18.707Zm1.7-15.407V995.2h4.486c7.3,0,7.624-12.111,0-12.111Z"/><path class="t" d="M2397.782,983.3v4.3h6.894a2.09,2.09,0,0,1,1.948,1.917,1.879,1.879,0,0,1-1.948,1.622h-6.894v5.677a1.6,1.6,0,0,1-1.619,1.674,1.717,1.717,0,0,1-1.917-1.674V981.459a1.708,1.708,0,0,1,1.917-1.677h9.49a1.687,1.687,0,0,1,1.894,1.677,1.869,1.869,0,0,1-1.894,1.839h-7.871Z"/><path class="r" d="M2418.095,1008.635h-64.238v3.381h64.238a3.391,3.391,0,0,0,3.381-3.381v-3.381A3.391,3.391,0,0,1,2418.095,1008.635Z"/></g></svg>