<svg xmlns="http://www.w3.org/2000/svg" viewBox="0 0 12.84 12.98">
<g id="Layer_2" data-name="Layer 2"><g id="Layer_1-2" data-name="Layer 1"><path class="cls-1-csd" d="M5.92,1.34c-.3.29-.59.59-.88.88s-.43.23-.59.07a.39.39,0,0,1,0-.6L6,.16a.39.39,0,0,1,.63,0L8.19,1.7a.39.39,0,0,1,.05.59.37.37,0,0,1-.57-.06L6.9,1.47,6.72,1.3V4.37A4.21,4.21,0,0,1,5.83,7a3.24,3.24,0,0,1-2.16,1.2A.76.76,0,0,0,3,8.72a1.51,1.51,0,0,1-1.81.75,1.59,1.59,0,0,1,.1-3.08,1.55,1.55,0,0,1,1.8,1c.08.2.17.22.35.2A2.81,2.81,0,0,0,5.88,5.19,4.36,4.36,0,0,0,6,4.38c0-.95,0-1.9,0-2.85V1.35ZM1.59,8.78A.84.84,0,0,0,2.43,8a.85.85,0,0,0-.84-.84.84.84,0,1,0,0,1.67Z"/><path class="cls-1-csd" d="M7,5.94A2.9,2.9,0,0,0,9.7,7.55a1.66,1.66,0,0,1,.58-.87,1.59,1.59,0,0,1,2.49,1.74,1.57,1.57,0,0,1-1.48,1.11,1.55,1.55,0,0,1-1.53-1,.25.25,0,0,0-.26-.19A3.75,3.75,0,0,1,6.7,7a.21.21,0,0,1,0-.25C6.79,6.46,6.87,6.2,7,5.94Zm4.28,2.84a.84.84,0,1,0-.06-1.67.84.84,0,0,0,.06,1.67Z"/><path class="cls-1-csd" d="M6.44,7.15a.69.69,0,0,1,.28.67c0,.6,0,1.21,0,1.82,0,.14,0,.19.18.24a1.51,1.51,0,0,1,1,1.35,1.48,1.48,0,0,1-.76,1.5,1.51,1.51,0,0,1-1.71,0,1.48,1.48,0,0,1-.68-1.54,1.51,1.51,0,0,1,1-1.26A.25.25,0,0,0,6,9.61C6,9,6,8.45,6,7.87a.39.39,0,0,1,.13-.32A3.34,3.34,0,0,0,6.44,7.15Zm-.1,5.07a.87.87,0,0,0,.85-.83.84.84,0,0,0-.84-.85.83.83,0,0,0-.84.82A.85.85,0,0,0,6.34,12.22Z"/></g></g></svg>