<svg xmlns="http://www.w3.org/2000/svg" viewBox="0 0 12 12">
<g id="Layer_2" data-name="Layer 2"><g id="Layer_1-2" data-name="Layer 1"><polygon class="cls-1-fp" points="6.46 5.49 6.46 6.4 5.54 6.4 5.54 5.49 4.62 5.49 4.62 8.15 7.38 8.15 7.38 5.49 6.46 5.49"/><path class="cls-1-fp" d="M12,0H0V12H1.41V3.52h9.18V12H12ZM8.46,2.11H3.54v-.7H8.46v.7Z"/><polygon class="cls-1-fp" points="5.54 9.06 4.62 9.06 4.62 9.98 3.71 9.98 3.71 9.06 2.78 9.06 2.78 11.72 5.54 11.72 5.54 9.06"/><polygon class="cls-1-fp" points="9.22 9.06 8.29 9.06 8.29 9.98 7.38 9.98 7.38 9.06 6.46 9.06 6.46 11.72 9.22 11.72 9.22 9.06"/></g></g></svg>