<svg xmlns="http://www.w3.org/2000/svg" viewBox="0 0 16.16 13"><g id="Layer_2" data-name="Layer 2"><g id="Layer_1-2" data-name="Layer 1"><path  d="M16.16,11.8a2,2,0,0,1-.07.23,1.36,1.36,0,0,1-1.29,1H3.64V11.75H14.76c.09,0,.14-.05.14-.15V5.94a1,1,0,0,0-.18.1l-3,1.76a.64.64,0,0,1-.55.1.6.6,0,0,1-.45-.64c0-.39,0-.77,0-1.15V5.93l-.19.1c-1,.58-2,1.14-3,1.74a.65.65,0,0,1-1-.6c0-.43,0-.86,0-1.32L3.56,7.33c0-.34,0-.65,0-1A.55.55,0,0,1,4,5.72c.94-.45,1.86-.93,2.79-1.4a.63.63,0,0,1,1,.59c0,.37,0,.73,0,1.09v.18l.19-.1L11,4.31a.61.61,0,0,1,.92.33.75.75,0,0,1,0,.26c0,.38,0,.76,0,1.14V6.2l.18-.11L15,4.4c.54-.32.83-.24,1.12.3Z"/><path  d="M2.87,13H.8a.74.74,0,0,1-.8-.81l.09-7,0-3A1.27,1.27,0,0,1,1.43,1,1.26,1.26,0,0,1,2.74,2.28c0,3.51.09,7,.13,10.54Z"/><path  d="M6,1.63,4.61,1.44a1.88,1.88,0,0,0-.91.07.37.37,0,0,1-.43-.18.3.3,0,0,1,0-.41A.74.74,0,0,1,3.93.63c.32,0,.63.07.94.11A3.14,3.14,0,0,0,7.21.2,1.22,1.22,0,0,0,7.38.05c.1-.09.18,0,.19.05a1.81,1.81,0,0,1,0,.57,1.46,1.46,0,0,1-1.29.93A2.81,2.81,0,0,1,6,1.6Z"/><path  d="M6.18,9.54V10a.48.48,0,0,1-.46.49q-.45,0-.9,0A.48.48,0,0,1,4.36,10V9.12a.5.5,0,0,1,.53-.51h.77a.5.5,0,0,1,.52.53Z"/><path  d="M12.88,8.61h.41a.49.49,0,0,1,.49.48c0,.29,0,.59,0,.88a.47.47,0,0,1-.45.48q-.45,0-.9,0A.48.48,0,0,1,12,10c0-.28,0-.57,0-.85a.5.5,0,0,1,.5-.5Z"/><path  d="M8.17,9.53V9.09a.47.47,0,0,1,.47-.47h.87a.45.45,0,0,1,.46.44c0,.31,0,.62,0,.93a.47.47,0,0,1-.46.46q-.45,0-.9,0A.47.47,0,0,1,8.17,10Z"/></g></g></svg>