<svg xmlns="http://www.w3.org/2000/svg" viewBox="0 0 10 14.18">
<g id="Layer_2" data-name="Layer 2"><g id="Layer_1-2" data-name="Layer 1"><path  d="M7.92,4.87H2.08a.3.3,0,0,0-.29.3.29.29,0,0,0,.29.29H7.93a.29.29,0,0,0,.29-.29A.3.3,0,0,0,7.92,4.87Z"/><path  d="M7.92,6.53H2.08a.29.29,0,0,0-.29.29.28.28,0,0,0,.29.29H7.93a.28.28,0,0,0,.29-.29A.29.29,0,0,0,7.92,6.53Z"/><path  d="M7.92,8.18H2.08a.3.3,0,0,0-.29.3.29.29,0,0,0,.29.29H7.93a.28.28,0,0,0,.29-.29A.31.31,0,0,0,7.92,8.18Z"/><path  d="M8.21,10.13a.29.29,0,0,0-.29-.29H2.08a.3.3,0,0,0-.29.29.29.29,0,0,0,.29.3H7.93A.29.29,0,0,0,8.21,10.13Z"/><path  d="M3.65,11.34a.28.28,0,0,0-.29.29.29.29,0,0,0,.29.3h2.7a.3.3,0,0,0,0-.59Z"/><polygon  points="6.9 2.4 7.78 3.27 8.85 3.27 8.85 13.07 1.15 13.07 1.15 3.27 2.22 3.27 3.1 2.4 0 2.4 0 14.18 10 14.18 10 2.4 6.9 2.4"/><path  d="M3.75,2.55,2.66,3.65H7.33L6.25,2.56a.55.55,0,0,1-.1-.64A1.3,1.3,0,0,0,5.16,0a1.32,1.32,0,0,0-1.47,1.3,1.33,1.33,0,0,0,.15.6A.53.53,0,0,1,3.75,2.55Z"/></g></g></svg>