<svg xmlns="http://www.w3.org/2000/svg" width="17.468" height="26" viewBox="0 0 17.468 26"><defs><style>.a1a{fill:#ee6411;}</style></defs><g transform="translate(-727.266 -1814.034)"><path class="a1a" d="M744.041,1837.5c-.2-4.613-2.062-8.631-4.779-10.466,2.718-1.835,4.578-5.853,4.779-10.465.446-.22.693-.459.693-.713,0-1.006-3.909-1.821-8.734-1.821s-8.734.815-8.734,1.822c0,.253.248.493.693.712.2,4.611,2.062,8.63,4.779,10.466-2.717,1.834-4.577,5.853-4.779,10.465-.445.218-.693.459-.693.713,0,1.006,3.91,1.822,8.734,1.822s8.734-.816,8.734-1.822C744.734,1837.957,744.487,1837.717,744.041,1837.5Zm-9.68-9.8a.748.748,0,0,0,0-1.328c-2.828-1.109-4.871-4.875-5.2-9.381a34.191,34.191,0,0,0,13.668,0c-.324,4.506-2.366,8.272-5.2,9.381a.748.748,0,0,0,0,1.328c2.829,1.109,4.871,4.875,5.2,9.38-.257-.067-.538-.13-.838-.189-.921-3.727-6-7-6-7s-5.075,3.269-6,7c-.3.059-.58.122-.837.189C729.491,1832.571,731.533,1828.806,734.361,1827.7Zm1.639-1.522a22.232,22.232,0,0,1-2.366-2.247,12.844,12.844,0,0,0,7.783-4.488A20.53,20.53,0,0,1,736,1826.175Z"/></g></svg>