<svg xmlns="http://www.w3.org/2000/svg" viewBox="0 0 15.52 11.12">
<g id="Layer_2" data-name="Layer 2"><g id="Layer_1-2" data-name="Layer 1"><path class="cls-1-spd" d="M5.7,11.12c-.87,0-1.38-.66-1.37-1.7l-.11.07H1.81a.42.42,0,0,1-.34-.11A.42.42,0,0,1,1.38,9l.1-1.69,0-.06.08-.13h.61l-.1,1.71.1-.07H4.54a.26.26,0,0,0,.16-.07,1.49,1.49,0,0,1,1-.46,1.45,1.45,0,0,1,1,.48l.09.05H9.72L10,5.39,10.49.7h-8l0,.63L2.47,2.75H5.25a.43.43,0,0,1,.33.17.36.36,0,0,1,0,.35.41.41,0,0,1-.3.16H1.46a.38.38,0,0,1-.26-.1.33.33,0,0,1-.1-.25.35.35,0,0,1,.36-.34h.38l-.05-.18L1.92.41c0-.3.14-.41.44-.41h8.37c.21,0,.33,0,.4.11a.56.56,0,0,1,.07.43L10.91,3.3h1l.72,0h0a1.11,1.11,0,0,1,.88.37c.49.51,1,1,1.49,1.49l.36.36a.45.45,0,0,1,.15.44L15,9.17a.36.36,0,0,1-.4.32h-.83a1.44,1.44,0,0,1-.53,1.31,1.35,1.35,0,0,1-.89.32h-.12c-.8,0-1.27-.66-1.29-1.68L7.09,9.5c0,1-.48,1.62-1.34,1.62ZM12.34,9a.73.73,0,0,0-.73.72.72.72,0,0,0,.21.52.72.72,0,0,0,1,0,.7.7,0,0,0,.21-.52A.71.71,0,0,0,12.34,9ZM5.74,9A.72.72,0,0,0,5,9.69a.7.7,0,0,0,.21.52.73.73,0,0,0,.52.22.73.73,0,0,0,.73-.73A.72.72,0,0,0,5.74,9Zm5.47-.17.09-.06a1.46,1.46,0,0,1,1-.47,1.5,1.5,0,0,1,1.05.47l.54.06h.48l.05-.71.33-2a.27.27,0,0,0-.09-.28l-.31-.3c-.39-.38-.78-.75-1.14-1.15A1.06,1.06,0,0,0,12.41,4h-.12a5.62,5.62,0,0,1-.58,0h-.86l-.5,4.81Z"/><path class="cls-1-spd" d="M.46,6.74C.15,6.73,0,6.6,0,6.4a.36.36,0,0,1,.38-.35H1.63L1.57,6l0-.39.6-.07.07.61.1-.07H5.31a.36.36,0,0,1,.33.34.34.34,0,0,1-.09.24.32.32,0,0,1-.24.11H.46Z"/><path class="cls-1-spd" d="M1,5.09H.82a.36.36,0,0,1-.27-.37A.35.35,0,0,1,.9,4.4h.84l0-.47.61-.07.07.61.11-.07H5.27a.35.35,0,0,1,.37.35.34.34,0,0,1-.38.34H1Z"/><path class="cls-1-spd" d="M11.35,6.18l-.07-1.71.34-.07h.79a.23.23,0,0,1,.17.1l.31.31.53.52a.52.52,0,0,1,.2.48.6.6,0,0,0,0,.19v.17Z"/></g></g></svg>