<svg xmlns="http://www.w3.org/2000/svg" width="24.858" height="28.15" viewBox="0 0 24.858 28.15"><defs><style>.a{fill:#42aeaf;}</style></defs><g transform="translate(-5008.786 -1215.878)"><path class="a" d="M5033.572,1240.034l-4.545-7.9a10.006,10.006,0,1,0-15.623,0l-4.545,7.9a.55.55,0,0,0,.55.819l3.547-.476,1.361,3.31a.551.551,0,0,0,.472.34h.037a.55.55,0,0,0,.476-.275l4.587-7.946,0,0a10.01,10.01,0,0,0,2.649,0l0,0,4.588,7.946a.549.549,0,0,0,.476.275h.036a.548.548,0,0,0,.472-.34l1.361-3.31,3.547.476a.55.55,0,0,0,.55-.819Zm-18.664,2.2-.99-2.409.889-1.451a.55.55,0,0,0-.938-.574l-.9,1.466-2.6.349,3.808-6.625a10.008,10.008,0,0,0,4.572,2.593Zm6.307-7.443a8.907,8.907,0,1,1,8.907-8.907A8.916,8.916,0,0,1,5021.215,1234.791Zm8.245,4.475-.9-1.466a.55.55,0,0,0-.938.574l.889,1.451-.991,2.409-3.84-6.651a10.006,10.006,0,0,0,4.572-2.593l3.808,6.625Z"/><path class="a" d="M5025.893,1226.43a1.376,1.376,0,0,0,.345-.935,1.221,1.221,0,0,0-1.2-1.206h-1.739c.017-.059.034-.109.05-.151a1.086,1.086,0,0,1,.069-.138c.03-.05.051-.088.063-.113.075-.142.133-.259.173-.351a2.55,2.55,0,0,0,.119-.377,1.948,1.948,0,0,0,.06-.477c0-.1,0-.182,0-.245a2.739,2.739,0,0,0-.031-.283,1.586,1.586,0,0,0-.075-.313,1.465,1.465,0,0,0-.151-.283.878.878,0,0,0-.251-.254,1.356,1.356,0,0,0-.377-.163,1.873,1.873,0,0,0-.518-.066.385.385,0,0,0-.283.119,1.112,1.112,0,0,0-.213.314,1.976,1.976,0,0,0-.123.326q-.034.138-.078.383c-.038.176-.066.3-.085.38a1.954,1.954,0,0,1-.11.3.951.951,0,0,1-.194.3,9.047,9.047,0,0,0-.634.753c-.206.268-.417.521-.635.76s-.376.362-.477.37a.42.42,0,0,0-.27.129.383.383,0,0,0-.113.273v4.025a.373.373,0,0,0,.12.279.414.414,0,0,0,.282.123,4.566,4.566,0,0,1,.992.276c.322.109.574.191.757.248s.436.117.762.182a4.648,4.648,0,0,0,.9.1h.81a1.558,1.558,0,0,0,1.237-.489,1.511,1.511,0,0,0,.308-1.137,1.223,1.223,0,0,0,.339-.59,1.286,1.286,0,0,0,0-.734,1.308,1.308,0,0,0,.27-.861A1.506,1.506,0,0,0,5025.893,1226.43Z"/><path class="a" d="M5018.4,1225.093H5016.6a.407.407,0,0,0-.4.4v4.018a.407.407,0,0,0,.4.4h1.808a.408.408,0,0,0,.4-.4v-4.018a.408.408,0,0,0-.4-.4Zm-.722,3.9a.4.4,0,0,1-.283.116.4.4,0,0,1-.285-.684.381.381,0,0,1,.285-.12.4.4,0,0,1,.283.688Z"/></g></svg>