<svg id="Layer_1" data-name="Layer 1" xmlns="http://www.w3.org/2000/svg" viewBox="0 0 36 16"><defs><style>.cls-1,.cls-2{fill:#9fa2a7;}.cls-2{stroke:#fff;stroke-miterlimit:10;}.cls-3{fill:#6fad28;}</style></defs><title>-</title><g id="Layer_3" data-name="Layer 3"><path class="cls-1" d="M19.84,5.55l2.09-2.8a.39.39,0,0,0,0-.39.37.37,0,0,0-.33-.2h-9V1.69a.9.9,0,0,0,.51-.81.89.89,0,0,0-1-.79.87.87,0,0,0-.79.79.89.89,0,0,0,.52.81V15.26h-.47a.37.37,0,0,0,0,.74h1.68a.37.37,0,0,0,0-.74H12.6V8.93h9a.4.4,0,0,0,.4-.59ZM12.27,1.11a.22.22,0,0,1-.22-.22h0a.22.22,0,1,1,.44,0h0a.22.22,0,0,1-.21.23Z"/><rect class="cls-2" x="28" y="4.5" width="7" height="7"/><path class="cls-3" d="M6.16.82a1.37,1.37,0,0,0-1.4,1.34v.47a.17.17,0,0,0,.17.18h.52l0,3.43L4.68,7a1.33,1.33,0,0,0-.42,1l0,.9A.16.16,0,0,0,4.4,9L7,9l-.14,6a.18.18,0,0,0,.35,0h0l.13-6L10,9.11a.18.18,0,0,0,.17-.17h0l0-.9h0a1.31,1.31,0,0,0-.38-1L9.1,6.34l0-3.44.52,0a.18.18,0,0,0,.18-.17V2.27A1.36,1.36,0,0,0,8.51.88Z"/></g></svg>