<svg id="Layer_1" data-name="Layer 1" xmlns="http://www.w3.org/2000/svg" viewBox="0 0 36 16"><defs><style>.cls-1{fill:none;}.cls-2{fill:#6fad28;}.cls-3,.cls-5{fill:#9fa2a7;}.cls-4{fill:#fff;}.cls-5{stroke:#fff;stroke-miterlimit:10;}</style></defs><title>-</title><g id="Layer_3" data-name="Layer 3"><path class="cls-1" d="M16.68,13a1,1,0,1,0,1,1A1,1,0,0,0,16.68,13Z"/><path class="cls-1" d="M17.38,3.92a.31.31,0,0,0-.26-.14h-2.4a.32.32,0,0,0-.31.33h0V6.35a.32.32,0,0,0,.31.33h3.93A.33.33,0,0,0,19,6.34a.3.3,0,0,0-.06-.18Z"/><path class="cls-1" d="M6.41,13a1,1,0,1,0,1,1A1,1,0,0,0,6.41,13Z"/><path class="cls-2" d="M1.09,11H11.76a.31.31,0,0,0,.31-.31h0V1a1,1,0,0,0-.94-1H1.72A1,1,0,0,0,.78,1v9.68a.31.31,0,0,0,.3.32Z"/><path class="cls-3" d="M.32,12a.32.32,0,0,0-.32.32v1a.32.32,0,0,0,.32.32H3.84A2.62,2.62,0,0,1,4.72,12Z"/><path class="cls-3" d="M21.8,12H21V7.54a2.67,2.67,0,0,0-.43-1.45L18.68,3.16A2.52,2.52,0,0,0,16.58,2h-3a.65.65,0,0,0-.64.65V12H8.1A2.64,2.64,0,0,1,9,13.59h5.14a2.58,2.58,0,0,1,5.13,0H21.8a.31.31,0,0,0,.31-.31h0v-1A.3.3,0,0,0,21.8,12ZM18.65,6.68H14.72a.32.32,0,0,1-.31-.33h0V4.11a.32.32,0,0,1,.31-.33h2.4a.31.31,0,0,1,.26.14l1.53,2.24a.33.33,0,0,1-.08.46A.3.3,0,0,1,18.65,6.68Z"/><path class="cls-3" d="M6.41,12a2,2,0,1,0,2,2A2,2,0,0,0,6.41,12Zm0,3a1,1,0,1,1,1-1A1,1,0,0,1,6.41,15Z"/><path class="cls-3" d="M16.68,12a2,2,0,1,0,2,2A2,2,0,0,0,16.68,12Zm0,3a1,1,0,1,1,1-1A1,1,0,0,1,16.68,15Z"/><path class="cls-4" d="M9.5,3.29l-.61-.62a.39.39,0,0,0-.3-.13.44.44,0,0,0-.31.13l-2.93,3L4,4.33a.41.41,0,0,0-.58,0l0,0L2.82,5a.43.43,0,0,0,0,.61h0L4.44,7.25l.6.63A.45.45,0,0,0,5.35,8a.42.42,0,0,0,.3-.12l.61-.63L9.5,3.92a.45.45,0,0,0,.12-.31A.47.47,0,0,0,9.5,3.29Z"/><rect class="cls-5" x="28.11" y="4.5" width="6.89" height="7"/></g></svg>