<svg id="Layer_1" data-name="Layer 1" xmlns="http://www.w3.org/2000/svg" viewBox="0 0 36 16"><defs><style>.cancelled-1{fill:#9fa2a7;stroke:#fff;stroke-miterlimit:10;}.cancelled-2{fill:#f63b55;}</style></defs>
<title>-</title><g id="Layer_3" data-name="Layer 3"><rect class="cancelled-1" x="28" y="4.5" width="7" height="7"/><path class="cancelled-2" d="M20.29,2.34A.68.68,0,0,0,19.7,2H17.19V5h4.62Z"/><path class="cls-2" d="M16.49,2H14a.68.68,0,0,0-.59.34L11.86,5h4.63V2Z"/><path class="cls-2" d="M11.61,5.67v7.5a.83.83,0,0,0,.82.83h8.8a.83.83,0,0,0,.83-.83V5.67ZM19,11.09a.5.5,0,0,1,.14.35.49.49,0,0,1-.14.34l-.27.26a.49.49,0,0,1-.34.15.5.5,0,0,1-.34-.15l-1.26-1.26L15.57,12a.46.46,0,0,1-.68,0l-.26-.26a.5.5,0,0,1-.15-.34.55.55,0,0,1,.14-.35l1.26-1.25L14.63,8.58a.51.51,0,0,1-.15-.35.54.54,0,0,1,.14-.34l.27-.26a.48.48,0,0,1,.68,0l1.26,1.26,1.26-1.26a.45.45,0,0,1,.34-.14.49.49,0,0,1,.34.14l.27.26a.49.49,0,0,1,.14.34.5.5,0,0,1-.14.35L17.78,9.84Z"/></g></svg>