<svg id="Layer_1" data-name="Layer 1" xmlns="http://www.w3.org/2000/svg" viewBox="0 0 36 16"><defs><style>.cls-1,.cls-3{fill:#9fa2a7;}.cls-2{fill:#f4bf3b;}.cls-3{stroke:#fff;stroke-miterlimit:10;}</style></defs><title>-</title><g id="Layer_3" data-name="Layer 3"><path class="cls-1" d="M19.84,5.55l2.09-2.8a.39.39,0,0,0,0-.39.37.37,0,0,0-.33-.2h-9V1.69a.9.9,0,0,0,.51-.81.89.89,0,0,0-1-.79.87.87,0,0,0-.79.79.89.89,0,0,0,.52.81V15.26h-.47a.37.37,0,0,0,0,.74h1.68a.37.37,0,0,0,0-.74H12.6V8.93h9a.4.4,0,0,0,.4-.59ZM12.27,1.11a.22.22,0,0,1-.22-.22h0a.22.22,0,1,1,.44,0h0a.22.22,0,0,1-.21.23Z"/><polygon class="cls-2" points="4.71 11.68 7.21 16 9.7 11.68 7.71 11.68 7.71 0 6.71 0 6.71 11.68 4.71 11.68"/><rect class="cls-3" x="28" y="4.5" width="7" height="7"/></g></svg>