<svg id="Layer_1" data-name="Layer 1" xmlns="http://www.w3.org/2000/svg" viewBox="0 0 36 16"><defs><style>.cls-1{fill:none;}.cls-2,.cls-3{fill:#9fa2a7;}.cls-3{stroke:#fff;stroke-miterlimit:10;}.cls-4{fill:#f4bf3b;}</style></defs><title>-</title><g id="Layer_3" data-name="Layer 3"><path class="cls-1" d="M16.68,13a1,1,0,1,0,1,1A1,1,0,0,0,16.68,13Z"/><path class="cls-1" d="M17.38,3.92a.31.31,0,0,0-.26-.14h-2.4a.32.32,0,0,0-.31.33h0V6.35a.32.32,0,0,0,.31.33h3.93A.33.33,0,0,0,19,6.34a.3.3,0,0,0-.06-.18Z"/><path class="cls-1" d="M6.41,13a1,1,0,1,0,1,1A1,1,0,0,0,6.41,13Z"/><path class="cls-2" d="M.32,12a.32.32,0,0,0-.32.32v1a.32.32,0,0,0,.32.32H3.84A2.62,2.62,0,0,1,4.72,12Z"/><path class="cls-2" d="M21.8,12H21V7.54a2.67,2.67,0,0,0-.43-1.45L18.68,3.16A2.52,2.52,0,0,0,16.58,2h-3a.65.65,0,0,0-.64.65V12H8.1A2.64,2.64,0,0,1,9,13.59h5.14a2.58,2.58,0,0,1,5.13,0H21.8a.31.31,0,0,0,.31-.31h0v-1A.3.3,0,0,0,21.8,12ZM18.65,6.68H14.72a.32.32,0,0,1-.31-.33h0V4.11a.32.32,0,0,1,.31-.33h2.4a.31.31,0,0,1,.26.14l1.53,2.24a.33.33,0,0,1-.08.46A.3.3,0,0,1,18.65,6.68Z"/><path class="cls-2" d="M6.41,12a2,2,0,1,0,2,2A2,2,0,0,0,6.41,12Zm0,3a1,1,0,1,1,1-1A1,1,0,0,1,6.41,15Z"/><path class="cls-2" d="M16.68,12a2,2,0,1,0,2,2A2,2,0,0,0,16.68,12Zm0,3a1,1,0,1,1,1-1A1,1,0,0,1,16.68,15Z"/><rect class="cls-3" x="28.11" y="4.5" width="6.89" height="7"/><path class="cls-4" d="M6.43,2.13a2,2,0,0,0-1.71,1,1.87,1.87,0,0,0-.26,1,.26.26,0,0,0,.08.21.29.29,0,0,0,.4,0A.3.3,0,0,0,5,4.09a1.4,1.4,0,0,1,1.41-1.4.3.3,0,0,0,.2-.08.28.28,0,0,0,.08-.2.3.3,0,0,0-.08-.21A.29.29,0,0,0,6.43,2.13Z"/><path class="cls-4" d="M12.07,10.68V1a1,1,0,0,0-.94-1H1.72A1,1,0,0,0,.78,1v9.68a.31.31,0,0,0,.3.32H11.76a.31.31,0,0,0,.31-.31ZM7.83,9a.59.59,0,0,1-.09.32l-.31.45A.51.51,0,0,1,7,10H5.88a.51.51,0,0,1-.46-.25L5.11,9.3A.59.59,0,0,1,5,9V8.31H7.83ZM9.32,5.19a3.33,3.33,0,0,1-.57.94,4.35,4.35,0,0,0-.5.71,3.7,3.7,0,0,0-.42.89v0H5v0a3.7,3.7,0,0,0-.42-.89,4.35,4.35,0,0,0-.5-.71,3.33,3.33,0,0,1-.57-.94,3.06,3.06,0,0,1,.21-2.62A3.11,3.11,0,0,1,4.83,1.44,3,3,0,0,1,6.4,1,3.11,3.11,0,0,1,9.1,2.54a3,3,0,0,1,.42,1.55A3.07,3.07,0,0,1,9.32,5.19Z"/></g></svg>