<svg version="1.1" id="Layer_1" xmlns="http://www.w3.org/2000/svg" xmlns:xlink="http://www.w3.org/1999/xlink" x="0px" y="0px"
	 viewBox="0 0 16 16" style="enable-background:new 0 0 16 16;" xml:space="preserve">
<style type="text/css">
	
	.st1__hold{fill:#FFFFFF;}
</style>

<g>
	<g>
		<g>
			<path class="st0__hold" d="M0.2,3.3l6.6,10.9C7,14.6,7.5,14.9,8,14.9s1-0.3,1.2-0.7l6.6-10.9c0.3-0.4,0.3-1,0-1.4
				c-0.3-0.5-0.7-0.7-1.3-0.7H1.4c-0.5,0-1,0.3-1.3,0.7C-0.1,2.3-0.1,2.9,0.2,3.3z"/>
		</g>
	</g>
	<g>
		<g>
			<path class="st1__hold" d="M8,12.1c0.6,0,1-0.3,1-0.8c0-1.6-0.2-4-0.2-5.6C8.8,5.2,8.4,5,8,5C7.7,5,7.2,5.2,7.2,5.6
				c0,1.6-0.2,4-0.2,5.6C7,11.8,7.5,12.1,8,12.1z"/>
		</g>
	</g>
	<g>
		<g>
			<path class="st1__hold" d="M8,4.1C8.6,4.1,9,3.6,9,3C9,2.5,8.6,2,8,2c-0.6,0-1,0.5-1,1.1C6.9,3.6,7.4,4.1,8,4.1z"/>
		</g>
	</g>
</g>
</svg>
