<svg xmlns="http://www.w3.org/2000/svg" viewBox="0 0 36 16"><defs><style>.cls-1,.cls-2{fill:#9fa2a7;}.cls-1{stroke:#fff;stroke-miterlimit:10;}</style></defs><title>invoice</title><g id="Layer_3" data-name="Layer 3"><rect class="cls-1" x="1" y="4.5" width="7" height="7" transform="translate(9 16) rotate(-180)"/><polygon class="cls-2" points="22 0 22 4 26 4 22 0"/><path class="cls-2" d="M22,5a1,1,0,0,1-1-1V0H15a1,1,0,0,0-1,1V15a1,1,0,0,0,1,1H25a1,1,0,0,0,1-1V5ZM17.5,3.06V2.5a.5.5,0,0,1,1,0v.56a2.15,2.15,0,0,1,.85.4.5.5,0,0,1,.07.7.5.5,0,0,1-.7.08A1.12,1.12,0,0,0,18,4c-.54,0-1,.34-1,.75s.46.75,1,.75a1.89,1.89,0,0,1,2,1.75,1.82,1.82,0,0,1-1.5,1.69V9.5a.5.5,0,0,1-1,0V8.94a2.15,2.15,0,0,1-.85-.4.52.52,0,0,1-.07-.71.5.5,0,0,1,.7-.07A1.12,1.12,0,0,0,18,8c.54,0,1-.34,1-.75s-.46-.75-1-.75a1.89,1.89,0,0,1-2-1.75A1.82,1.82,0,0,1,17.5,3.06ZM23.5,14h-7a.5.5,0,0,1,0-1h7a.5.5,0,0,1,0,1Zm0-2h-7a.5.5,0,0,1,0-1h7a.5.5,0,0,1,0,1Zm0-2h-2a.5.5,0,0,1,0-1h2a.5.5,0,0,1,0,1Zm0-2h-2a.5.5,0,0,1,0-1h2a.5.5,0,0,1,0,1Z"/></g></svg>