<svg id="Layer_1" data-name="Layer 1" xmlns="http://www.w3.org/2000/svg" viewBox="0 0 36 16"><defs><style>.cls-1,.cls-2{fill:#9fa2a7;}.cls-1{stroke:#fff;stroke-miterlimit:10;}</style></defs><title>Timeline-icon</title><g id="Layer_3" data-name="Layer 3"><rect class="cls-1" x="1" y="4.5" width="6.89" height="7"/><path class="cls-2" d="M16.6,6.14l-.32-.39-.58.49.82,1L17.9,6l-.51-.57Z"/><path class="cls-2" d="M18.47,6.05h2.94v.76H18.47Z"/><path class="cls-2" d="M16.6,8.32l-.32-.38-.58.49.82,1L17.9,8.18l-.51-.56Z"/><path class="cls-2" d="M18.47,8.23h2.94V9H18.47Z"/><path class="cls-2" d="M16.6,10.51l-.32-.38-.58.48.82,1,1.38-1.23-.51-.57Z"/><path class="cls-2" d="M18.47,10.42h2.94v.76H18.47Z"/><path class="cls-2" d="M21.56,1.31H20.8v.77h-1V1.31h-.76v.77h-1V1.31h-.76v.77h-1V1.31h-.76v.77H13.89v12.2h9.35V2.08H21.56Zm.92,1.53V13.52H14.65V2.84h.92v.77h.76V2.84h1v.77h.76V2.84h1v.77h.76V2.84h1v.77h.76V2.84Z"/></g></svg>