<svg id="Layer_1" data-name="Layer 1"
  xmlns="http://www.w3.org/2000/svg" viewBox="0 0 15.8 14">
  <circle class="cls-1-om" cx="14.98" cy="13.18" r="0.82"/>
  <circle class="cls-1-om" cx="14.98" cy="6.59" r="0.82"/>
  <circle class="cls-1-om" cx="14.98" cy="0.82" r="0.82"/>
  <path class="cls-1-om" d="M11.68.4a.42.42,0,0,0-.42.42V6.16h-.4a.43.43,0,0,0,0,.85h.4v6.17a.42.42,0,0,0,.42.42h1.84a1.47,1.47,0,0,1-.06-.42,1.54,1.54,0,0,1,.06-.43H12.11V7h1.41a1.42,1.42,0,0,1-.06-.42,1.54,1.54,0,0,1,.06-.43H12.11V1.25h1.41a1.54,1.54,0,0,1-.06-.43A1.47,1.47,0,0,1,13.52.4Z"/>
  <path class="cls-1-om" d="M2.71,5.26l-.32-.39-.58.49.82,1L4,5.12,3.5,4.55Z"/>
  <path class="cls-1-om" d="M4.58,5.16H7.52v.76H4.58Z"/>
  <path class="cls-1-om" d="M2.71,7.44l-.32-.38-.58.49.82,1L4,7.3,3.5,6.74Z"/>
  <path class="cls-1-om" d="M4.58,7.35H7.52v.76H4.58Z"/>
  <path class="cls-1-om" d="M2.71,9.63l-.32-.39-.58.49.82,1L4,9.49,3.5,8.92Z"/>
  <path class="cls-1-om" d="M4.58,9.54H7.52v.76H4.58Z"/>
  <path class="cls-1-om" d="M7.67.42H6.91V1.2h-1V.42H5.17V1.2h-1V.42H3.43V1.2h-1V.42H1.68V1.2H0V13.4H9.35V1.2H7.67ZM8.59,2V12.64H.76V2h.92v.77h.76V2h1v.77h.76V2h1v.77h.76V2h1v.77h.76V2Z"/>
</svg>
