<svg id="Layer_1" data-name="Layer 1" xmlns="http://www.w3.org/2000/svg" viewBox="0 0 36 16"><defs><style>.cls-1,.cls-2{fill:#9fa2a7;}.cls-1{stroke:#fff;stroke-miterlimit:10;}</style></defs><title>-</title><g id="Layer_3" data-name="Layer 3"><rect class="cls-1" x="28" y="4.5" width="7" height="7"/><path class="cls-2" d="M20.29,2.34A.68.68,0,0,0,19.7,2H17.19V5h4.62Z"/><path class="cls-2" d="M16.49,2H14a.68.68,0,0,0-.59.34L11.86,5h4.63V2Z"/><path class="cls-2" d="M11.61,5.67v7.5a.83.83,0,0,0,.82.83h8.8a.83.83,0,0,0,.83-.83V5.67Zm8.72,2.25-3.24,3.33-.61.63a.42.42,0,0,1-.3.12.47.47,0,0,1-.31-.12l-.6-.63L13.65,9.62h0a.43.43,0,0,1,0-.61l.58-.67,0,0a.41.41,0,0,1,.58,0l1.35,1.34,2.93-3a.44.44,0,0,1,.31-.13.37.37,0,0,1,.3.13l.61.62a.47.47,0,0,1,.12.32A.45.45,0,0,1,20.33,7.92Z"/></g></svg>