<svg id="Layer_1" data-name="Layer 1" xmlns="http://www.w3.org/2000/svg" viewBox="0 0 36 16"><defs><style>.cls-1-pdd,.cls-2-pdd{fill:#9fa2a7;}.cls-1-pdd{stroke:#fff;stroke-miterlimit:10;}</style></defs><title>Timeline-icon</title><g id="Layer_3" data-name="Layer 3"><rect class="cls-1-pdd" x="28" y="4.5" width="7" height="7"/><polygon class="cls-2-pdd" points="12.51 8.6 13.16 8.6 12.84 7.74 12.51 8.6"/><path class="cls-2-pdd" d="M9.53,3.46h0v9.06h9.07V3.47H9.53ZM14.82,11a.74.74,0,0,1-.25.05.71.71,0,0,1-.67-.46L13.7,10H12l-.2.51A.72.72,0,0,1,10.43,10l1.73-4.57a.73.73,0,0,1,1.35,0L15.24,10A.71.71,0,0,1,14.82,11Zm2.9-.67a.72.72,0,1,1-1.44,0V5.72a.72.72,0,1,1,1.44,0Z"/><path class="cls-2-pdd" d="M19.89,5.06h1.62a.54.54,0,1,0,0-1.08H19.89a.54.54,0,1,0,0,1.08Z"/><path class="cls-2-pdd" d="M21.51,6.3H19.89a.54.54,0,1,0,0,1.08h1.62a.54.54,0,1,0,0-1.08Z"/><path class="cls-2-pdd" d="M19.89,9.7h1.62a.54.54,0,1,0,0-1.08H19.89a.54.54,0,0,0,0,1.08Z"/><path class="cls-2-pdd" d="M21.51,10.94H19.89a.54.54,0,0,0,0,1.08h1.62a.54.54,0,1,0,0-1.08Z"/><path class="cls-2-pdd" d="M10.58,2.71a.54.54,0,0,0,.54-.54V.54A.54.54,0,0,0,10,.54V2.17A.54.54,0,0,0,10.58,2.71Z"/><path class="cls-2-pdd" d="M12.9,2.71a.55.55,0,0,0,.54-.55V.54a.54.54,0,0,0-1.08,0V2.16A.55.55,0,0,0,12.9,2.71Z"/><path class="cls-2-pdd" d="M15.22,2.71a.55.55,0,0,0,.54-.55V.54a.55.55,0,0,0-1.09,0V2.16A.55.55,0,0,0,15.22,2.71Z"/><path class="cls-2-pdd" d="M17.53,2.71a.55.55,0,0,0,.55-.55V.54A.55.55,0,0,0,17,.54V2.16A.55.55,0,0,0,17.53,2.71Z"/><path class="cls-2-pdd" d="M10.58,13.29a.55.55,0,0,0-.54.55v1.62a.54.54,0,0,0,1.08,0V13.84A.55.55,0,0,0,10.58,13.29Z"/><path class="cls-2-pdd" d="M12.9,13.29a.54.54,0,0,0-.54.54v1.63a.54.54,0,0,0,1.08,0V13.83A.54.54,0,0,0,12.9,13.29Z"/><path class="cls-2-pdd" d="M15.22,13.29a.55.55,0,0,0-.55.54v1.63a.55.55,0,0,0,1.09,0V13.83A.55.55,0,0,0,15.22,13.29Z"/><path class="cls-2-pdd" d="M17.53,13.29a.55.55,0,0,0-.54.54v1.63a.55.55,0,0,0,1.09,0V13.83A.55.55,0,0,0,17.53,13.29Z"/><path class="cls-2-pdd" d="M8.22,4H6.6a.54.54,0,0,0,0,1.08H8.22A.54.54,0,0,0,8.22,4Z"/><path class="cls-2-pdd" d="M8.22,6.3H6.6a.54.54,0,0,0,0,1.08H8.22a.54.54,0,0,0,0-1.08Z"/><path class="cls-2-pdd" d="M8.22,8.62H6.6a.54.54,0,1,0,0,1.08H8.22a.54.54,0,1,0,0-1.08Z"/><path class="cls-2-pdd" d="M8.22,10.94H6.6A.54.54,0,0,0,6.6,12H8.22a.54.54,0,1,0,0-1.08Z"/></g></svg>