<svg xmlns="http://www.w3.org/2000/svg" viewBox="0 0 36 16"><defs><style>.cls-1,.cls-3{fill:#9fa2a7;}.cls-2{fill:#f63b55;}.cls-3{stroke:#fff;stroke-miterlimit:10;}</style></defs><title>RDD-min</title><g id="Layer_3" data-name="Layer 3"><path class="cls-1" d="M17.29,5.55l2.09-2.8a.37.37,0,0,0,0-.39.37.37,0,0,0-.33-.2h-9V1.69a.88.88,0,1,0-.74,0V15.26H8.89a.37.37,0,0,0,0,.74h1.67a.37.37,0,0,0,0-.74h-.47V8.93h9a.36.36,0,0,0,.33-.21.37.37,0,0,0,0-.38ZM9.72,1.11A.22.22,0,0,1,9.5.88a.22.22,0,0,1,.44,0A.22.22,0,0,1,9.72,1.11Z"/><rect class="cls-2" x="4.16" width="1" height="12.41"/><polygon class="cls-2" points="2.16 11.68 4.66 16 7.15 11.68 2.16 11.68"/><rect class="cls-3" x="28" y="4.5" width="7" height="7"/></g></svg>