<svg xmlns="http://www.w3.org/2000/svg" viewBox="0 0 33.34 16"><defs><style>.cls-1,.cls-3{fill:#9fa2a7;}.cls-2{fill:#f63b55;}.cls-3{stroke:#fff;stroke-miterlimit:10;}</style></defs><title>RDD-max</title><g id="Layer_2" data-name="Layer 2"><g id="Layer_1-2" data-name="Layer 1"><g id="RDD-max"><path class="cls-1" d="M15.13,5.55l2.09-2.8a.39.39,0,0,0,0-.39.37.37,0,0,0-.33-.2h-9V1.69A.89.89,0,0,0,8.44.88a.89.89,0,0,0-1.77,0,.9.9,0,0,0,.52.81V15.26H6.72a.37.37,0,1,0,0,.74H8.39a.37.37,0,0,0,0-.74H7.93V8.93h9a.37.37,0,0,0,.33-.21.35.35,0,0,0,0-.38ZM7.56,1.11A.22.22,0,0,1,7.34.88a.22.22,0,1,1,.44,0A.22.22,0,0,1,7.56,1.11Z"/><polygon class="cls-2" points="4.99 4.32 2.49 0 0 4.32 1.99 4.32 1.99 16 2.99 16 2.99 4.32 4.99 4.32"/><rect class="cls-3" x="25.84" y="4.5" width="7" height="7"/></g></g></g></svg>