<svg xmlns="http://www.w3.org/2000/svg" viewBox="0 0 36 16"><defs><style>.cls-1{fill:none;}.cls-2{fill:#f63b55;}.cls-3,.cls-5{fill:#9fa2a7;}.cls-4{fill:#fff;}.cls-5{stroke:#fff;stroke-miterlimit:10;}</style></defs><title>reviced-ship-date</title><g id="Layer_3" data-name="Layer 3"><path class="cls-1" d="M16.59,12.84a1,1,0,1,0,1,1A1,1,0,0,0,16.59,12.84Z"/><path class="cls-1" d="M17.29,4A.33.33,0,0,0,17,3.89H14.65a.31.31,0,0,0-.32.31V6.39a.32.32,0,0,0,.32.32h3.91a.32.32,0,0,0,.26-.5Z"/><path class="cls-1" d="M6.37,12.84a1,1,0,1,0,1,1A1,1,0,0,0,6.37,12.84Z"/><path class="cls-2" d="M1.09,10.91H11.7a.31.31,0,0,0,.31-.32V1.15A1,1,0,0,0,11.07.2H1.71a1,1,0,0,0-.94,1v9.44A.32.32,0,0,0,1.09,10.91Z"/><path class="cls-3" d="M.31,11.86a.31.31,0,0,0-.31.31v1a.31.31,0,0,0,.31.32H3.82a2.6,2.6,0,0,1,.87-1.59Z"/><path class="cls-3" d="M21.69,11.86h-.77V7.55a2.54,2.54,0,0,0-.43-1.41L18.58,3.28A2.53,2.53,0,0,0,16.5,2.17h-3a.63.63,0,0,0-.63.63v9.06H8.06a2.59,2.59,0,0,1,.86,1.59H14a2.57,2.57,0,0,1,5.1,0h2.55a.31.31,0,0,0,.31-.32v-1A.31.31,0,0,0,21.69,11.86ZM18.56,6.71H14.65a.32.32,0,0,1-.32-.32V4.2a.31.31,0,0,1,.32-.31H17a.33.33,0,0,1,.26.13l1.53,2.19A.32.32,0,0,1,18.56,6.71Z"/><path class="cls-3" d="M6.37,11.86a2,2,0,1,0,2,2A2,2,0,0,0,6.37,11.86Zm0,3a1,1,0,0,1,0-2,1,1,0,0,1,0,2Z"/><path class="cls-3" d="M16.59,11.86a2,2,0,1,0,2,2A2,2,0,0,0,16.59,11.86Zm0,3a1,1,0,0,1,0-2,1,1,0,0,1,0,2Z"/><path class="cls-4" d="M9.56,2.38a.24.24,0,0,0-.3.06L8.68,3a3.31,3.31,0,0,0-1.07-.7,3.45,3.45,0,0,0-1.26-.25A3.27,3.27,0,0,0,5,2.34,3.61,3.61,0,0,0,4,3.07a3.57,3.57,0,0,0-.72,1.09,3.39,3.39,0,0,0,0,2.65A3.57,3.57,0,0,0,4,7.9,3.43,3.43,0,0,0,5,8.63a3.27,3.27,0,0,0,1.31.27A3.37,3.37,0,0,0,9,7.67a.19.19,0,0,0,0-.1.13.13,0,0,0,0-.09l-.61-.62a.18.18,0,0,0-.11,0,.17.17,0,0,0-.1.06,2.08,2.08,0,0,1-.79.65,2.25,2.25,0,0,1-1,.23,2.19,2.19,0,0,1-.87-.18,2.14,2.14,0,0,1-.72-.49,2.11,2.11,0,0,1-.48-.72,2.27,2.27,0,0,1,0-1.77,2.11,2.11,0,0,1,.48-.72,2.14,2.14,0,0,1,.72-.49,2.19,2.19,0,0,1,.87-.18,2.16,2.16,0,0,1,1.54.61l-.61.61a.26.26,0,0,0-.06.31.27.27,0,0,0,.26.18h2a.31.31,0,0,0,.29-.29v-2A.27.27,0,0,0,9.56,2.38Z"/><rect class="cls-5" x="28" y="4.5" width="7" height="7"/></g></svg>