<svg xmlns="http://www.w3.org/2000/svg" viewBox="0 0 20.71 17.22"><defs><style></style></defs><title>brl</title><g id="Layer_2" data-name="Layer 2"><g id="Layer_5" data-name="Layer 5"><path class="cls-1" d="M20.71,12.07a8.66,8.66,0,0,1-.51,1.16A4.05,4.05,0,0,1,17.49,15c-.39.09-.34,0-.34.42s0,1.07,0,1.6c0,.07,0,.13,0,.21H15.41v-2c-.38-.05-.74-.08-1.1-.14a6.63,6.63,0,0,1-2.22-.71.19.19,0,0,1-.11-.27c.18-.59.35-1.18.53-1.79l.57.28a6.58,6.58,0,0,0,2.93.63,2.74,2.74,0,0,0,1.28-.33,1.51,1.51,0,0,0,.32-2.48,4.32,4.32,0,0,0-1.37-.81c-.75-.32-1.51-.62-2.24-1a3.51,3.51,0,0,1-1.56-1.49A3.37,3.37,0,0,1,13.28,3a4.67,4.67,0,0,1,2-.92L15.51,2V0h1.75V1.92a14.84,14.84,0,0,1,1.51.23c.49.11,1,.29,1.46.45l-.59,2c-.35-.13-.68-.28-1-.39A5,5,0,0,0,16,4a1.45,1.45,0,0,0-1.23,1.09,1.09,1.09,0,0,0,.35,1.18A6.22,6.22,0,0,0,16.24,7c.71.34,1.45.61,2.15.94a4.14,4.14,0,0,1,1.86,1.52,9.31,9.31,0,0,1,.46,1.07Z" transform="translate(0)"/><path class="cls-1" d="M2.59,15.4H0v-.22c0-4.52,0-9,0-13.55,0-.2.06-.25.25-.27A25.44,25.44,0,0,1,4.7,1.12a7,7,0,0,1,3,.65,3.41,3.41,0,0,1,2,3.39A3.7,3.7,0,0,1,7.23,8.57L7,8.66c.05,0,.07.08.1.09a2.89,2.89,0,0,1,1.44,1.4,9.17,9.17,0,0,1,.7,2.13c.25.93.51,1.86.77,2.78,0,.11.09.21.14.35H9.93c-.73,0-1.46,0-2.19,0a.31.31,0,0,1-.37-.27l-.78-2.83a13.75,13.75,0,0,0-.48-1.5A1.94,1.94,0,0,0,4.34,9.6c-.53,0-1.06,0-1.6,0-.16,0-.15.09-.15.19V15.4Zm0-10c0,.69,0,1.38,0,2.07,0,.14,0,.2.19.2H4.16a4.15,4.15,0,0,0,1.39-.24A2.21,2.21,0,0,0,7,5.12,2,2,0,0,0,5.41,3.21a6.77,6.77,0,0,0-2.69,0c-.14,0-.13.11-.13.2Z" transform="translate(0)"/></g></g></svg>