<svg xmlns="http://www.w3.org/2000/svg" viewBox="0 0 13.85 22.68"><defs><style></style></defs><title>Dollar</title><g id="Layer_2" data-name="Layer 2"><g id="Layer_5" data-name="Layer 5"><path class="cls-1" d="M13.1,12.51A4.27,4.27,0,0,0,11.23,11a14.31,14.31,0,0,0-2.79-.8l-.13,0-.14,0-.12,0-.12,0a20.55,20.55,0,0,1-2.22-.53,3.23,3.23,0,0,1-1.35-.78,2,2,0,0,1-.54-1.48h0a2.39,2.39,0,0,1,.94-2,4.67,4.67,0,0,1,2.79-.68,6.78,6.78,0,0,1,2,.3,9.68,9.68,0,0,1,2,.94L13.3,3.69a12.52,12.52,0,0,0-1.88-.92,11.22,11.22,0,0,0-1.91-.56c-.31,0-.62-.1-.93-.13V0H5.7V2.16a8.19,8.19,0,0,0-1.88.48A4.59,4.59,0,0,0,1.58,4.46a5.68,5.68,0,0,0-.75,3h0a4.47,4.47,0,0,0,.84,2.91,4.28,4.28,0,0,0,2,1.41,20.86,20.86,0,0,0,3.06.7l.15,0,.15,0,.08,0h.07a12.86,12.86,0,0,1,2,.46,3,3,0,0,1,1.24.79,2,2,0,0,1,.48,1.43v0a2.42,2.42,0,0,1-1,2.11,5.27,5.27,0,0,1-3,.7,6.67,6.67,0,0,1-2.69-.55,6.84,6.84,0,0,1-2.25-1.64L0,18a9.93,9.93,0,0,0,2,1.46,9.38,9.38,0,0,0,2.28.88l1.22.29h.2v2H8.58V20.56a9.25,9.25,0,0,0,2.17-.49,4.67,4.67,0,0,0,2.32-1.76,5.19,5.19,0,0,0,.78-2.94v0A4.75,4.75,0,0,0,13.1,12.51Z"/></g></g></svg>