<svg xmlns="http://www.w3.org/2000/svg" viewBox="0 0 13.85 21"><defs><style></style></defs><title>Pound</title><g id="Layer_2" data-name="Layer 2"><g id="Layer_5" data-name="Layer 5"><path class="cls-1" d="M0,18.64.73,18a13,13,0,0,0,1.6-1.88,7,7,0,0,0,1-2,3.75,3.75,0,0,0,.13-1.63.34.34,0,0,1,0-.08H.92V9.62H2.6c-.05-.23-.1-.45-.14-.67a14.89,14.89,0,0,1-.25-2,9.93,9.93,0,0,1,0-1.89,6.24,6.24,0,0,1,1.25-3.2A4.64,4.64,0,0,1,5.42.46,6.17,6.17,0,0,1,8.9.11a4.51,4.51,0,0,1,2.85,1.71,5.3,5.3,0,0,1,1,2c0,.14.06.28.1.43l-2.67.52c-.05-.16-.09-.33-.14-.49a2.25,2.25,0,0,0-.76-1.15,1.94,1.94,0,0,0-1-.38,3.82,3.82,0,0,0-1.71.19A2.17,2.17,0,0,0,5.32,4.09a4.93,4.93,0,0,0-.4,2.11,10.64,10.64,0,0,0,.27,2.45c.07.32.16.64.24,1H9.64v2.72H6.2a7.94,7.94,0,0,1-1.46,5.07l.38,0a5.4,5.4,0,0,1,2,.17c.73.17,1.45.37,2.18.54a4.11,4.11,0,0,0,1.31,0,8,8,0,0,0,2.14-.52c.08,0,.1,0,.13.07l.83,2,.18.42-.43.17a10.51,10.51,0,0,1-3.77.62,7.63,7.63,0,0,1-1.71-.28c-.63-.16-1.26-.33-1.9-.48a2.75,2.75,0,0,0-1.07,0A32.22,32.22,0,0,0,1.32,21c-.08,0-.12,0-.16-.07L0,18.67S0,18.65,0,18.64Z"/></g></g></svg>